<?xml version="1.0" encoding="UTF-8" standalone="no"?>
<!-- Created with Inkscape (http://www.inkscape.org/) -->

<svg
   width="23.972626mm"
   height="36.269169mm"
   viewBox="0 0 23.972625 36.269169"
   version="1.1"
   id="svg1"
   inkscape:version="1.3.1 (91b66b0783, 2023-11-16)"
   sodipodi:docname="SPORTS.svg"
   xml:space="preserve"
   xmlns:inkscape="http://www.inkscape.org/namespaces/inkscape"
   xmlns:sodipodi="http://sodipodi.sourceforge.net/DTD/sodipodi-0.dtd"
   xmlns="http://www.w3.org/2000/svg"
   xmlns:svg="http://www.w3.org/2000/svg"><sodipodi:namedview
     id="namedview1"
     pagecolor="#505050"
     bordercolor="#eeeeee"
     borderopacity="1"
     inkscape:showpageshadow="0"
     inkscape:pageopacity="0"
     inkscape:pagecheckerboard="0"
     inkscape:deskcolor="#505050"
     inkscape:document-units="mm"
     inkscape:zoom="0.5864086"
     inkscape:cx="-1359.9732"
     inkscape:cy="-1053.02"
     inkscape:window-width="2880"
     inkscape:window-height="1676"
     inkscape:window-x="3348"
     inkscape:window-y="-12"
     inkscape:window-maximized="1"
     inkscape:current-layer="layer1" /><defs
     id="defs1" /><g
     inkscape:label="Layer 1"
     inkscape:groupmode="layer"
     id="layer1"
     transform="translate(577.62512,517.55465)"><g
       id="g58"
       transform="matrix(0.12629954,0,0,0.12629954,-618.01398,-549.32808)"
       style="fill:#ffffff;fill-opacity:1;stroke-width:7.91769"
       inkscape:export-filename="..\ASSETSCHARTE\SPORTS.svg"
       inkscape:export-xdpi="414.18015"
       inkscape:export-ydpi="414.18015"><path
         style="fill:#ffffff;fill-opacity:1;stroke-width:7.91764"
         d="m 319.83189,538.38066 c 0.31086,-0.99845 1.72698,-4.005 2.99499,-6.35865 1.74826,-3.24485 4.07764,-7.1394 8.36202,-13.98053 5.84066,-9.32615 7.97425,-12.74388 9.17093,-14.69073 2.37657,-3.86638 15.88604,-25.18373 21.43286,-33.82017 10.97403,-17.08665 17.03238,-26.01485 25.71715,-37.89923 7.87996,-10.78306 11.15888,-14.48551 16.04447,-18.1169 3.07518,-2.28567 6.10633,-3.8351 9.5827,-4.89854 1.38145,-0.4226 1.74765,-0.46316 4.12681,-0.45782 2.8476,0.0107 4.27259,0.2749 6.13325,1.15511 3.84675,1.81985 5.53547,7.42626 3.96982,13.17972 -0.47837,1.75785 -1.3655,3.9335 -2.93634,7.2014 -3.56728,7.42103 -9.80355,16.24764 -18.50593,26.19253 -3.89881,4.45546 -10.1163,10.79459 -23.10695,23.55896 -28.53096,28.03395 -29.04333,28.5241 -38.40449,36.73761 -9.26403,8.12835 -12.43984,11.12957 -16.69675,15.77872 -3.952,4.3163 -5.44343,5.73094 -6.68026,6.33656 -1.15719,0.56657 -1.35943,0.58044 -1.20428,0.0822 z m 30.64516,-87.12289 c -1.58036,-0.34854 -2.78175,-0.86729 -3.81016,-1.64516 -1.95424,-1.47825 -2.68829,-2.87465 -2.80632,-5.33854 -0.1306,-2.72599 0.66239,-5.64781 2.76454,-10.18597 1.98144,-4.27756 4.28787,-7.83862 10.01765,-15.46668 8.69958,-11.58194 13.5945,-17.14107 19.85839,-22.55314 5.22941,-4.51821 9.91504,-6.81104 14.3304,-7.01209 2.12394,-0.0971 2.85341,0.079 5.72388,1.38242 2.93055,1.33034 3.73344,1.89765 4.28721,3.0296 1.14302,2.33626 0.52575,6.8328 -1.61582,11.77051 -2.05697,4.74253 -8.47125,13.80306 -15.10696,21.33945 -5.64652,6.41287 -17.94015,18.45978 -22.0204,21.5785 -2.08575,1.59414 -4.10094,2.58267 -6.2722,3.07645 -1.43549,0.32655 -3.92913,0.33797 -5.35021,0.0245 z m 97.9062,-35.39884 c -0.25478,-0.0459 -0.46322,-0.15901 -0.46322,-0.25153 0,-0.24439 2.11262,-1.17848 4.63212,-2.04823 1.20435,-0.41577 2.60662,-0.92087 3.11616,-1.12246 2.31096,-0.91457 12.50458,-6.46003 19.45491,-10.58381 7.48843,-4.44297 12.09332,-7.65602 15.03882,-10.49321 l 1.2267,-1.18147 -0.34796,-0.48866 c -0.38088,-0.53498 -2.62672,-2.62696 -4.90739,-4.57125 -1.3382,-1.14081 -2.60192,-2.07896 -9.83108,-7.29852 -5.62949,-4.06455 -7.96665,-6.1751 -10.90926,-9.8513 -2.0485,-2.5593 -2.86725,-3.8905 -3.37151,-5.48208 -0.48384,-1.52702 -0.51412,-3.74749 -0.0636,-4.66057 0.60739,-1.23088 2.89985,-3.10569 4.4385,-3.62999 1.08616,-0.3701 4.84574,-0.21909 6.73532,0.27053 8.14226,2.1098 24.23737,14.64132 31.82685,24.77991 2.19171,2.9279 3.60037,5.54077 4.26801,7.91673 1.52087,5.41218 -1.77884,12.23111 -8.08703,16.71196 -4.97833,3.53619 -14.45438,7.05371 -24.58465,9.12584 -3.60486,0.73731 -12.62323,2.31204 -14.65435,2.55866 -1.90693,0.23169 -12.58027,0.46806 -13.51738,0.29945 z m -46.27911,-77.22965 c -4.36979,-0.44725 -8.20366,-1.80534 -12.53496,-4.44041 -2.34717,-1.42798 -3.59538,-2.37105 -5.96889,-4.50966 -1.81289,-1.63342 -4.42558,-4.42387 -5.87166,-6.27105 -6.48522,-8.28405 -10.28133,-19.49312 -9.49965,-28.05027 0.84045,-9.20043 6.73489,-18.03387 16.85219,-25.25459 6.39254,-4.56238 12.4395,-7.44781 19.56186,-9.33404 4.09443,-1.08436 13.76874,-2.72589 14.09233,-2.39112 0.28287,0.29262 -2.73045,2.74969 -6.74953,5.50342 -12.55152,8.60016 -15.80708,11.09329 -20.08211,15.37906 -2.79251,2.79953 -4.2576,4.5974 -5.68644,6.97816 -3.23691,5.39339 -3.8574,11.94414 -1.61769,17.07843 0.751,1.72167 1.38644,2.61372 3.11369,4.37147 2.30629,2.34703 4.37621,3.79188 9.00075,6.28246 9.1624,4.93461 11.76548,6.70484 14.06449,9.56487 1.97312,2.45461 3.45628,6.04854 3.45136,8.36324 -0.003,1.35328 -0.39824,2.64948 -1.12969,3.70395 -1.79347,2.58545 -5.45508,3.59307 -10.99605,3.02608 z m 50.11113,-3.94833 c -2.44106,-0.34118 -3.26708,-0.51577 -4.85377,-1.02588 -2.5077,-0.80603 -3.74879,-1.39063 -5.55679,-2.61714 -1.95015,-1.32297 -4.83278,-4.18556 -5.98687,-5.94534 -3.1171,-4.75287 -4.23939,-9.51215 -3.55607,-15.07982 0.65264,-5.31773 4.56801,-11.38238 9.46175,-14.65573 2.79589,-1.87022 5.17701,-2.86323 8.47386,-3.53416 1.61305,-0.32827 2.14462,-0.36199 4.15864,-0.26402 4.21867,0.20532 6.84826,0.83293 9.85155,2.35152 4.71039,2.38161 8.65983,6.67657 10.55173,11.47469 2.73003,6.92373 1.95394,13.42634 -2.38223,19.96023 -2.9382,4.42728 -8.3754,7.95665 -13.88223,9.01101 -1.36718,0.26178 -5.2816,0.46412 -6.27957,0.32464 z m -19.62336,-52.56681 c -3.78527,-0.4211 -6.44071,-1.7507 -9.34845,-4.68084 -1.66366,-1.67653 -2.31341,-2.66047 -3.21188,-4.86429 -0.80659,-1.97844 -1.07807,-3.3902 -1.07456,-5.58848 0.004,-2.25963 0.29193,-3.959 0.96552,-5.6906 1.68662,-4.33561 5.03438,-7.45315 9.83962,-9.16298 1.60159,-0.56987 5.14041,-0.73208 7.40844,-0.33957 2.86278,0.49549 5.41037,1.86681 7.72847,4.16027 2.31364,2.28909 3.69776,4.74146 4.31265,7.6413 0.36876,1.73917 0.2241,5.8082 -0.26625,7.48911 -1.63449,5.6032 -5.96178,9.64833 -11.45558,10.70857 -1.36576,0.26359 -3.9307,0.43509 -4.89798,0.32751 z m 3.85848,-6.21298 c 1.61821,-0.38141 2.98145,-1.17614 4.31091,-2.5132 2.00426,-2.01568 2.8959,-4.32697 2.73172,-7.08124 -0.1768,-2.96589 -1.48784,-5.33684 -3.91432,-7.07889 -1.32669,-0.95246 -2.44104,-1.37666 -4.24729,-1.61699 -1.8507,-0.24619 -3.57835,0.0587 -5.38882,0.9516 -3.58718,1.76885 -5.69118,6.10307 -4.86326,10.01832 1.11815,5.28754 6.17744,8.54466 11.37106,7.3204 z"
         id="path1"
         inkscape:export-filename="hand.svg"
         inkscape:export-xdpi="414.18015"
         inkscape:export-ydpi="414.18015" /><path
         style="fill:#ffffff;fill-opacity:1;stroke-width:7.91766"
         d="m 230.72913,2551.7695 c -0.067,-0.067 -0.12172,-0.6249 -0.12172,-1.2399 0,-1.0876 0.0396,-1.1714 1.44416,-3.0587 0.79428,-1.0672 3.92038,-5.0249 6.94687,-8.7948 23.33931,-29.0725 30.99004,-39.0065 71.85136,-93.2954 14.64563,-19.4584 18.06445,-24.3078 17.63292,-25.0116 -0.10929,-0.1783 -1.29233,-1.11 -2.62899,-2.0706 -6.98021,-5.0163 -10.02174,-8.2337 -12.29106,-13.0017 -1.60723,-3.377 -1.74503,-4.0425 -1.72797,-8.3445 0.0132,-3.3374 0.0627,-3.8662 0.52192,-5.5769 0.62583,-2.3314 1.70072,-4.4302 2.85853,-5.5814 1.10165,-1.0953 3.39329,-2.3058 6.02384,-3.1822 2.98698,-0.9949 4.22627,-1.1556 7.9347,-1.0284 3.53226,0.1212 5.49104,0.461 9.2849,1.6109 2.94737,0.8934 4.41031,1.5081 10.08131,4.2353 l 4.68903,2.255 1.32099,-0.8102 c 4.31491,-2.6465 8.94446,-4.213 13.46017,-4.5546 3.06793,-0.2321 6.87881,0.8256 9.42978,2.617 2.79607,1.9636 5.61573,5.6735 7.3758,9.7046 0.59849,1.3707 0.6443,1.6245 0.6465,3.5818 0.003,2.7691 -0.2898,3.8358 -2.07423,7.5544 -1.12073,2.3354 -1.42894,3.1509 -1.2976,3.4333 0.0947,0.2038 1.22879,1.4889 2.5201,2.8558 11.07944,11.7281 17.79007,22.5977 19.80476,32.079 0.49979,2.352 0.50567,9.2459 0.01,11.7404 -0.75953,3.8223 -1.8991,7.1052 -3.7723,10.8671 -2.63929,5.3005 -5.00452,8.0378 -13.15079,15.2198 -13.27891,11.707 -18.75884,15.7539 -27.94667,20.6386 -11.59271,6.1632 -23.95145,10.6054 -33.56925,12.066 -0.42693,0.065 -1.03275,0.1691 -1.34627,0.2317 -0.56186,0.1122 -0.55628,0.099 0.38811,-0.9526 1.22929,-1.3681 3.74484,-3.57 7.1517,-6.26 10.20334,-8.0561 10.18238,-8.0382 15.32235,-13.0918 6.88245,-6.7668 9.75808,-10.0658 15.73528,-18.0518 4.73199,-6.3223 6.38291,-8.9217 8.54541,-13.4546 2.12574,-4.4558 3.14857,-7.7396 3.33759,-10.7152 0.13532,-2.1303 -0.0799,-2.7198 -1.84707,-5.0597 -1.9312,-2.557 -7.57255,-7.7352 -12.38197,-11.3656 -0.14568,-0.1099 -1.96642,1.8972 -5.43358,5.9897 -2.86797,3.3853 -6.65394,7.7754 -8.41327,9.7557 -3.90493,4.3953 -12.16203,12.7027 -16.49795,16.5983 -5.92398,5.3224 -16.18452,13.9126 -28.5149,23.8729 -3.7171,3.0027 -8.25196,6.6917 -22.42495,18.2424 -15.17023,12.3634 -16.57061,13.5035 -18.82349,15.3248 -1.17404,0.949 -2.78955,2.2607 -3.59004,2.9147 -10.27626,8.3957 -22.1919,18.0168 -25.25118,20.3887 -0.60012,0.4653 -1.14591,0.7912 -1.21285,0.7243 z m 66.92482,-183.8317 c -5.60755,-0.4322 -11.41514,-3.0487 -20.56999,-9.2677 -5.66645,-3.8493 -10.01395,-7.8338 -12.46088,-11.4204 -4.21239,-6.1743 -6.57358,-15.1243 -6.18833,-23.4567 0.49736,-10.7573 4.40903,-20.8284 11.33208,-29.1759 6.46638,-7.7968 14.83827,-12.7338 29.92471,-17.6472 6.32498,-2.0599 10.14701,-2.589 16.05701,-2.2229 4.19641,0.2599 6.23061,0.6983 9.60974,2.071 4.31452,1.7527 6.68896,3.5895 8.28528,6.4094 2.59828,4.5899 3.14357,8.4502 1.65417,11.7104 -0.59225,1.2964 -2.49909,3.3033 -4.26606,4.4898 -3.91357,2.6278 -5.878,3.3747 -17.36806,6.6036 -17.02631,4.7848 -22.59178,7.4296 -26.35044,12.5222 -2.18862,2.9654 -3.2892,6.4652 -3.47846,11.0613 -0.2197,5.3353 1.11683,10.7955 3.54756,14.493 1.16805,1.7769 5.4657,6.0845 7.61412,7.6318 3.60606,2.5972 8.01645,4.7367 11.4214,5.5406 2.31458,0.5464 7.52625,0.8301 12.4741,0.6789 4.42323,-0.135 5.3015,-0.2783 10.17085,-1.6583 4.83779,-1.3712 7.08162,-1.9148 8.17873,-1.9817 l 0.97029,-0.059 -0.0367,0.8239 c -0.19412,4.3635 -9.06747,9.9572 -18.68981,11.7821 -5.18753,0.9837 -6.524,1.1023 -13.19585,1.1703 -3.57549,0.037 -7.46147,-0.01 -8.63551,-0.098 z m 16.68886,-16.525 c -3.33243,-0.3789 -9.75755,-3.0415 -14.58807,-6.0452 -1.93021,-1.2002 -6.584,-4.6294 -8.06803,-5.9451 -0.59379,-0.5264 -0.92176,-0.9754 -0.92176,-1.2619 0,-0.5554 1.49809,-4.9532 2.62437,-7.704 1.84706,-4.5114 3.96619,-8.0304 6.23459,-10.3532 4.50874,-4.6167 11.39764,-8.2162 18.90606,-9.8784 3.00707,-0.6657 5.25391,-0.8818 9.20854,-0.8859 8.45627,-0.01 14.86199,1.7439 21.01988,5.7507 1.91097,1.2434 9.33308,6.7704 9.68377,7.2111 0.36473,0.4584 0.29413,1.4901 -0.23787,3.4758 -2.14896,8.0211 -6.74629,14.7496 -13.24791,19.3891 -3.52443,2.515 -11.44875,5.6488 -15.86527,6.2742 -1.66646,0.2361 -12.61124,0.2158 -14.7483,-0.027 z m 13.45325,-6.766 c 1.96996,-0.247 5.51747,-1.2556 8.00975,-2.2773 4.97924,-2.0412 9.14008,-5.4145 11.94589,-9.685 1.21069,-1.8426 3.36259,-6.1793 3.36392,-6.7792 0.001,-0.6493 -0.62802,-1.2916 -2.86241,-2.9212 -5.62674,-4.1037 -9.65638,-5.8338 -15.27291,-6.5574 -8.93109,-1.1506 -17.81178,0.7592 -24.65324,5.3015 -3.5018,2.325 -5.43646,4.5383 -7.3502,8.4089 -1.17903,2.3846 -2.51727,5.9062 -2.34832,6.1795 0.0579,0.094 1.56491,1.1444 3.34876,2.3347 4.3501,2.9027 8.08257,4.6857 11.9513,5.7093 1.66002,0.4393 2.10572,0.4697 7.01722,0.4783 2.88454,0.01 5.96715,-0.081 6.85024,-0.1921 z m 91.59404,-28.127 c -6.04345,-0.402 -10.42948,-1.6584 -14.13179,-4.0482 -2.66222,-1.7184 -4.48229,-3.8278 -5.55209,-6.4348 -1.06226,-2.5886 -0.81862,-6.3197 0.6069,-9.2943 1.71238,-3.5731 4.0361,-5.8796 7.56695,-7.511 1.83159,-0.8463 3.58773,-1.0451 9.21568,-1.0434 18.79288,0.01 35.91691,1.3339 58.79914,4.5609 9.2474,1.3042 10.08769,1.4333 31.34013,4.8173 5.01636,0.7987 10.99816,1.7248 13.29287,2.0578 2.29472,0.3331 6.22436,0.9051 8.73254,1.2711 2.50819,0.366 8.83928,1.2846 14.0691,2.0414 9.89037,1.4313 15.99294,2.3963 17.19992,2.7199 1.69054,0.4532 1.29542,1.5444 -0.81672,2.2554 -2.34621,0.7898 -8.86826,1.7181 -21.52569,3.0636 -11.50975,1.2235 -21.7106,2.0243 -37.0648,2.9096 -4.64092,0.2676 -8.44341,0.4713 -20.13337,1.0784 -2.05457,0.1067 -5.37294,0.2793 -7.37415,0.3836 -12.42287,0.6475 -15.7005,0.799 -21.10365,0.9758 -8.19635,0.2681 -30.09315,0.3982 -33.12097,0.1969 z m -39.45618,-31.068 c -1.25444,-0.2116 -4.47666,-1.153 -6.20743,-1.8135 -8.64368,-3.2987 -15.31581,-11.281 -17.77409,-21.2642 -0.40113,-1.629 -0.45487,-2.3178 -0.46178,-5.9188 -0.006,-3.1862 0.0668,-4.4205 0.33412,-5.6585 1.55294,-7.1909 5.73399,-13.5376 12.07768,-18.3331 4.58498,-3.4661 10.48144,-5.4126 16.3707,-5.4041 5.20749,0.01 8.67401,0.7618 13.00655,2.8303 5.36857,2.5632 8.74769,5.413 11.71114,9.8766 2.14688,3.2336 3.74907,6.9118 4.75674,10.9199 0.47301,1.8815 0.52391,2.4273 0.52888,5.6719 0.006,3.9475 -0.20561,5.3648 -1.28482,8.6037 -2.68966,8.072 -8.15833,14.5016 -15.20448,17.8763 -2.34399,1.1225 -5.44408,2.1595 -7.54511,2.5237 -1.88601,0.3271 -8.55744,0.3852 -10.3081,0.09 z"
         id="path58" /><path
         style="fill:#ffffff;fill-opacity:1;stroke-width:7.91769"
         d="m 845.05676,2079.1025 c 0.3956,-1.6704 4.6102,-16.3707 7.9081,-27.5828 7.3076,-24.8448 8.3256,-28.3272 10.0166,-34.2654 2.0596,-7.2327 5.7428,-21.1309 7.6073,-28.7055 1.7849,-7.2512 6.2014,-24.0541 8.3432,-31.7427 5.3184,-19.0918 9.0696,-30.374 14.4029,-43.3192 9.6676,-23.4653 15.5103,-31.8197 24.2465,-34.6691 3.7441,-1.2213 9.3717,-1.1283 11.9798,0.1979 3.6922,1.8774 7.3673,6.9467 8.6287,11.9019 0.7998,3.1416 0.1226,14.0463 -1.38,22.225 -2.8467,15.4938 -9.4878,31.4257 -24.6499,59.1343 -3.8899,7.1088 -4.7887,8.6396 -16.5439,28.1782 -24.8181,41.2506 -27.6398,45.8553 -34.859,56.8854 -6.3842,9.7544 -15.3014,22.4896 -15.7472,22.4896 -0.069,0 -0.048,-0.3275 0.047,-0.7276 z m 108.0897,-97.0165 c 0.4628,-1.7304 4.1782,-10.8368 9.9135,-24.2978 10.1336,-23.7843 12.3501,-29.689 14.8219,-39.4863 2.1578,-8.5525 6.4268,-33.5792 5.8297,-34.1763 -0.094,-0.095 -2.0478,1.7275 -4.3408,4.0489 -5.7224,5.7933 -8.0541,7.4531 -11.3234,8.0606 -4.1083,0.7635 -9.1223,-1.1371 -12.1614,-4.6096 -1.2639,-1.4442 -2.8975,-4.3583 -3.8083,-6.7933 -2.7358,-7.3146 -2.4108,-16.0425 0.9353,-25.1226 3.0993,-8.4101 8.6646,-16.9885 15.6911,-24.1863 7.8411,-8.0323 15.221,-12.876 24.3571,-15.9865 4.9261,-1.6771 6.8088,-2.0213 10.02294,-1.8322 6.4932,0.3821 10.8514,3.5537 14.2555,10.3744 3.2953,6.6027 4.7875,15.2361 4.4816,25.9292 -0.2001,6.993 -0.7156,10.2319 -3.2212,20.2406 -4.0973,16.3673 -11.1975,32.7586 -22.06224,50.9323 -5.166,8.6415 -14.7465,22.4535 -22.3899,32.2792 -1.4716,1.8918 -3.2644,4.2135 -3.984,5.1594 -1.9511,2.5646 -14.1043,17.113 -15.8125,18.9289 l -1.4828,1.5763 z m -183.1291,-94.3745 c 0,-1.0477 4.7759,-11.9111 8.6596,-19.6976 10.7474,-21.5474 25.6619,-43.1558 43.4516,-62.9536 5.098,-5.6734 21.3253,-21.8335 26.4701,-26.3605 14.7525,-12.9809 24.6818,-18.6182 34.4547,-19.5613 4.8481,-0.4679 7.5435,-0.2022 9.972,0.9829 2.4921,1.2162 4.8272,3.5339 6.2569,6.2103 l 1.0424,1.9515 v 3.9688 3.9687 l -0.969,2.0292 c -1.6963,3.5522 -5.5931,7.1076 -14.6414,13.3587 -1.8918,1.307 -9.5118,6.4653 -16.9333,11.463 -39.433,26.554 -50.0836,35.4777 -72.7486,60.9537 -8.2102,9.2285 -15.9553,16.9581 -21.277,21.2345 -3.1692,2.5467 -3.738,2.9198 -3.738,2.4517 z m 327.97304,-107.6189 c -0.067,-0.1085 -0.4823,-3.0481 -0.9228,-6.5325 -3.25,-25.7076 -4.339,-31.5861 -8.2323,-44.4352 -2.4186,-7.9822 -5.039,-18.4782 -4.6937,-18.8006 0.087,-0.081 8.0004,-0.5807 14.8852,-0.9395 8.9051,-0.4641 28.6172,-0.5695 49.874,-0.2667 16.9443,0.2414 30.0325,0.6535 30.3737,0.9564 0.072,0.064 -2.0746,8.56 -6.3028,24.948 -1.8821,7.295 -3.0039,13.2681 -4.4827,23.868 -1.1712,8.395 -2.5776,18.0973 -2.8334,19.5468 l -0.1577,0.8937 -3.314,-0.1888 c -4.9115,-0.2798 -4.5528,0.07 -4.5471,-4.4363 0.02,-16.293 2.3202,-31.4232 7.8291,-51.5097 0.8222,-2.9981 1.0999,-4.3972 0.8976,-4.5222 -0.5642,-0.3487 -13.862,-0.5174 -41.7709,-0.5301 l -28.1446,-0.013 0.1728,0.6021 c 0.8678,3.0243 3.8106,14.928 4.7602,19.2552 2.2778,10.3796 3.1362,16.6642 3.6244,26.5361 0.3697,7.476 0.2647,11.2139 -0.3411,12.1385 -0.6116,0.9335 -6.3835,3.8995 -6.6739,3.4296 z m -115.17684,-29.6668 c -3.2737,-0.9665 -7.1283,-4.0109 -8.6201,-6.8082 -1.0812,-2.0274 -1.5843,-4.7583 -1.3784,-7.4813 0.5664,-7.4921 3.9103,-12.6908 12.1698,-18.9202 3.6421,-2.747 6.4932,-4.5914 15.70284,-10.1583 15.681,-9.4787 21.0103,-13.0371 32.061,-21.4075 14.0205,-10.62 26.6639,-21.4493 53.1332,-45.5099 6.3038,-5.7302 11.5207,-10.3591 11.5932,-10.2867 0.1877,0.1878 -7.1205,15.2895 -10.1355,20.944 -7.4658,14.0016 -13.8628,23.2258 -27.1637,39.1689 -18.6003,22.2953 -32.3641,36.2791 -45.6835,46.414 -8.6761,6.6018 -20.13284,13.5507 -23.54924,14.2834 -2.0844,0.447 -6.219,0.3259 -8.1296,-0.2382 z m -62.3805,-13.6359 c -10.8284,-2.0036 -19.8866,-8.7248 -24.7197,-18.3421 -2.6115,-5.1964 -3.7319,-9.7115 -3.7503,-15.1124 -0.013,-3.7343 0.108,-4.8989 0.8401,-8.1108 1.2123,-5.3185 3.9347,-10.5349 7.879,-15.0972 2.608,-3.0165 6.7538,-6.2125 10.5044,-8.0979 2.0329,-1.022 6.461,-2.4962 8.8707,-2.9533 4.5432,-0.8618 12.8661,-0.2776 17.0687,1.1981 14.2522,5.0045 23.3914,17.7022 23.3914,32.4993 0,4.3108 -0.4651,7.3043 -1.7165,11.0478 -3.8535,11.527 -12.6884,19.5612 -24.8741,22.6196 -2.8704,0.7205 -10.4294,0.9159 -13.4937,0.3489 z m 197.80784,-32.5457 c -11.1597,-1.7419 -20.8344,-9.2543 -25.4627,-19.7717 -1.7213,-3.9116 -2.116,-5.6629 -2.3095,-10.2487 -0.2554,-6.0488 -0.017,-9.4515 0.8582,-12.277 3.6308,-11.7151 12.4202,-19.9787 24.7047,-23.2271 2.0431,-0.5403 2.8902,-0.6085 7.3369,-0.5911 4.5721,0.018 5.2861,0.085 7.8896,0.7459 6.6047,1.6754 11.3616,4.4441 16.1247,9.385 3.7305,3.8699 6.0613,7.8002 7.9234,13.3615 1.0627,3.1736 1.0765,3.2643 1.2065,7.9726 0.1533,5.5493 -0.1168,8.0249 -1.2672,11.6163 -1.6956,5.2931 -3.8772,9.0108 -7.5286,12.8293 -7.7296,8.0833 -18.7112,11.8853 -29.476,10.205 z m 11.4216,-9.6331 c 3.6492,-0.9333 7.7169,-3.1102 10.309,-5.517 3.2966,-3.0608 6.1839,-7.7441 7.2103,-11.6953 0.7268,-2.7979 0.8199,-8.3403 0.1911,-11.3797 -0.9808,-4.7402 -2.9174,-8.4185 -6.2481,-11.8671 -2.2662,-2.3464 -4.1676,-3.6805 -7.4867,-5.2527 -3.1461,-1.4904 -5.6793,-1.9695 -10.5342,-1.9926 -4.4667,-0.021 -6.5652,0.4769 -10.5098,2.4948 -5.7903,2.9621 -10.1561,8.2263 -12.2477,14.7682 -0.8785,2.7475 -1.1808,7.5813 -0.6716,10.7379 1.4581,9.0389 7.942,16.5687 16.6822,19.3732 2.3454,0.7526 2.4834,0.7682 7.1676,0.8091 3.3078,0.029 4.5236,-0.066 6.1379,-0.4788 z"
         id="path38" /><path
         style="fill:#ffffff;fill-opacity:1;stroke-width:7.91769"
         d="m 2453.2936,2190.9461 c -0.084,-0.2183 -0.5041,-1.9447 -0.9328,-3.8365 -7.4598,-32.9239 -12.1526,-50.5865 -21.625,-81.3918 -5.8924,-19.1628 -8.8081,-25.1566 -25.9191,-53.2811 -8.0805,-13.2815 -13.6234,-23.5033 -17.145,-31.6177 l -1.4354,-3.3073 -60.4904,-0.067 -60.4904,-0.067 v -4.4973 -4.4974 h 59.033 59.0329 l -0.1858,-0.5953 c -0.1022,-0.3274 -0.2506,-3.6098 -0.3298,-7.2942 -0.1257,-5.8495 -0.085,-6.9156 0.3187,-8.4082 0.5466,-2.0191 2.0287,-4.4234 3.4696,-5.6284 1.6921,-1.4151 5.5782,-3.1824 7.3893,-3.3607 3.9687,-0.3905 11.2011,3.5926 16.0078,8.8161 2.059,2.2375 4.002,4.796 6.9827,9.1947 3.4094,5.0313 5.5284,7.5406 6.3676,7.5406 0.091,0 0.085,-2.1729 -0.013,-4.8286 -0.1985,-5.4005 0.037,-7.4124 1.1168,-9.5435 0.9629,-1.9001 2.7305,-3.658 5.6948,-5.6632 l 2.6097,-1.7654 4.2851,0.8628 c 2.3604,0.4753 5.1512,1.2234 6.2133,1.6655 4.3956,1.8299 9.4525,6.2619 18.7422,16.4263 l 1.8693,2.0452 41.2578,0.2645 c 22.6918,0.1455 79.6257,0.2662 126.5198,0.2682 h 85.262 v 4.4979 4.4979 H 2593.383 c -67.934,0 -123.5849,0.069 -123.6687,0.1524 -0.1746,0.1746 0.038,0.661 8.5327,19.5591 14.2085,31.6076 15.3354,34.4006 22.205,55.0333 14.8694,44.6599 16.4425,50.2323 22.7811,80.6979 0.757,3.6381 1.8248,8.7578 2.373,11.3771 0.5481,2.6194 0.9509,4.8121 0.8949,4.8728 -0.2115,0.2292 -1.7188,0.098 -1.9899,-0.1728 -0.1556,-0.1556 -0.6106,-1.4554 -1.011,-2.8884 -1.0837,-3.8781 -2.299,-7.1238 -6.8202,-18.2157 -9.0658,-22.2408 -11.7546,-28.4938 -16.2122,-37.7032 -1.8666,-3.8563 -5.4898,-11.4033 -8.0515,-16.7712 -10.9698,-22.9858 -16.8297,-32.0277 -33.6277,-51.8882 -2.2155,-2.6193 -5.0865,-6.0126 -6.38,-7.5406 -9.6368,-11.3836 -15.171,-18.8278 -19.5714,-26.326 -4.8603,-8.2819 -6.4,-10.5738 -6.8254,-10.1598 -0.3913,0.3808 2.1105,10.1357 7.1181,27.7546 7.3678,25.9226 8.5911,31.2838 11.5005,50.4031 0.5758,3.7835 2.236,14.5587 3.6894,23.9448 2.9634,19.1378 3.2854,21.4839 3.8491,28.0458 1.5685,18.2599 2.2987,46.427 1.1248,43.3917 z m 68.0482,-252.68 c -6.0156,-0.4563 -17.5066,-2.4557 -24.5758,-4.2762 -12.5751,-3.2384 -33.5774,-10.6519 -40.6136,-14.336 -4.4332,-2.3212 -6.4315,-3.7909 -9.923,-7.2981 -3.6231,-3.6392 -5.5823,-6.2765 -7.1414,-9.613 -1.6967,-3.6311 -1.8129,-5.1897 -0.75,-10.0631 0.2871,-1.3159 0.2794,-1.5714 -0.053,-1.7819 -1.0002,-0.6326 -6.8601,-0.012 -10.0824,1.0673 -2.2731,0.7616 -5.5023,2.2318 -17.029,7.7535 -7.3033,3.4985 -9.0013,3.9861 -13.8906,3.9883 -3.0142,0 -3.79,-0.085 -4.9689,-0.5551 -1.9454,-0.7753 -3.8363,-2.2911 -5.0933,-4.0832 -1.2928,-1.843 -1.6871,-2.7553 -2.4777,-5.7336 l -0.609,-2.2941 -59.4453,-0.067 -59.4454,-0.067 0.072,-4.5635 0.072,-4.5635 60.8542,-0.067 60.8542,-0.067 2.522,-2.182 c 4.4778,-3.8742 9.4923,-6.9376 19.1738,-11.7135 8.9781,-4.4289 19.2926,-8.7562 31.6177,-13.265 7.3724,-2.6969 27.3951,-9.7492 34.5281,-12.1612 3.2015,-1.0826 6.2376,-2.1298 6.7469,-2.3273 3.3595,-1.3023 22.948,-7.1939 29.1042,-8.7536 7.8927,-1.9997 19.811,-4.5875 35.4541,-7.6983 3.2619,-0.6487 8.2021,-1.1363 8.2021,-0.8095 0,0.2224 -3.1785,1.7897 -5.0932,2.5114 -0.8367,0.3154 -2.206,0.8321 -3.0427,1.1482 -3.8764,1.4643 -15.903,6.8702 -38.1662,17.1556 -3.7107,1.7144 -8.7114,4.0121 -11.1125,5.106 -27.0049,12.3037 -41.9733,20.9506 -54.0859,31.2444 l -2.0543,1.7458 137.9383,0.066 137.9384,0.066 0.072,4.5641 0.072,4.5641 -124.8234,0.01 -124.8235,0.01 0.6615,0.5552 c 1.291,1.0838 11.3699,8.1715 14.7209,10.3521 5.4819,3.5672 8.4116,5.2004 13.1926,7.3542 2.4739,1.1145 6.4029,2.8904 8.7313,3.9465 11.9811,5.4345 24.6391,9.149 45.1114,13.238 7.5185,1.5017 16.682,3.1076 23.2834,4.0804 12.0969,1.7826 17.0206,2.9293 18.2647,4.2536 0.5541,0.5897 0.566,0.6524 0.124,0.6524 -0.2689,0 -3.4746,0.2917 -7.1237,0.6482 -3.6492,0.3565 -9.3733,0.8908 -12.7203,1.1873 -3.3469,0.2964 -7.3951,0.675 -8.9958,0.8412 -3.4727,0.3606 -36.9854,0.5484 -41.1731,0.2308 z m 49.3691,-59.0209 c -7.5623,-0.6764 -16.368,-6.0371 -21.0175,-12.7949 -1.9457,-2.8279 -3.9004,-7.4279 -4.6726,-10.9958 -0.7252,-3.3511 -0.6691,-10.6564 0.106,-13.7981 2.5111,-10.1787 10.1774,-18.4502 20.1662,-21.7584 3.8137,-1.2631 6.3994,-1.5886 11.2207,-1.4126 4.4667,0.163 6.8756,0.7179 11.0043,2.5345 6.116,2.6911 11.9139,8.2191 14.887,14.1939 2.488,5.0002 3.2632,8.9808 3.0351,15.5851 -0.1136,3.2892 -0.2628,4.4141 -0.8455,6.3739 -3.012,10.1305 -10.4622,17.798 -20.5512,21.1507 -3.1583,1.0496 -8.0909,1.3906 -13.3325,0.9217 z m 8.3265,-9.0043 c 8.2519,-1.2967 15.7117,-8.8078 17.2171,-17.3355 0.4852,-2.7486 0.2126,-7.9406 -0.533,-10.1509 -1.9621,-5.8171 -6.1845,-10.714 -11.5108,-13.3497 -3.0234,-1.4961 -4.7557,-1.8422 -9.2604,-1.8499 -3.4237,-0.01 -4.2412,0.078 -5.9531,0.6095 -7.0117,2.1778 -12.4182,7.3986 -14.6981,14.1932 -0.8644,2.5761 -1.1814,7.6283 -0.665,10.5989 1.1071,6.3685 5.7075,12.3747 11.7912,15.3943 4.3277,2.148 8.3854,2.7115 13.6121,1.8901 z m -174.9734,-8.967 c -5.1464,-0.6387 -10.9841,-2.9339 -15.5126,-6.099 -5.5845,-3.9031 -10.7385,-11.3013 -12.6158,-18.109 -0.6693,-2.427 -0.7303,-3.0397 -0.7377,-7.4083 -0.011,-6.4937 0.6973,-9.392 3.7177,-15.2136 4.4591,-8.5948 12.9956,-14.7652 23.6587,-17.1011 1.6482,-0.3611 3.203,-0.4827 5.8208,-0.4554 7.5183,0.079 13.9841,1.9933 19.8646,5.8825 2.7021,1.787 6.7368,5.6538 8.3689,8.0204 3.5476,5.1443 6.4269,13.0913 6.4269,17.7385 0,4.4026 -0.9156,8.5102 -2.8768,12.9053 -4.3573,9.7649 -12.3501,16.4724 -22.9193,19.2335 -2.2477,0.5872 -3.3047,0.702 -7.0122,0.7616 -2.4011,0.039 -5.1835,-0.031 -6.1832,-0.1554 z"
         id="path35" /><path
         style="fill:#ffffff;fill-opacity:1;stroke-width:7.91769"
         d="m 1831.1313,2023.328 c 0,-0.335 1.9982,-5.118 2.8333,-6.7821 3.77,-7.5119 42.1015,-68.7276 61.8033,-98.7001 14.0429,-21.3638 32.8803,-49.0107 38.669,-56.7531 12.8575,-17.197 23.4545,-27.2016 32.7183,-30.8896 3.4384,-1.3688 5.5045,-1.725 10.0261,-1.7287 5.308,0 7.9812,0.7987 11.5094,3.4576 2.9751,2.2422 3.9604,4.7934 3.9558,10.243 0,5.4079 -0.8688,8.7483 -4.1414,16.0072 -6.2125,13.78 -12.2997,22.1992 -30.5121,42.2011 -21.4731,23.5829 -45.1387,46.9848 -94.9794,93.9207 -5.0932,4.7963 -10.5106,9.9164 -12.0386,11.3778 -15.1735,14.5124 -19.8437,18.6655 -19.8437,17.6462 z m -57.2827,-5.3136 c -7.9924,-2.1386 -15.2366,-7.1466 -19.9771,-13.8101 -2.8753,-4.0417 -5.201,-9.8969 -5.8408,-14.7048 -0.4676,-3.5137 -0.1793,-10.5511 0.5345,-13.0485 3.8876,-13.6012 12.8232,-22.3094 26.3421,-25.6718 2.1996,-0.5471 2.7749,-0.5802 7.5407,-0.4335 2.8376,0.087 5.9928,0.3298 7.0114,0.5389 7.1006,1.4571 14.7341,6.1682 19.4587,12.0093 3.0954,3.8268 6.403,11.0912 7.1023,15.5989 0.4223,2.7213 0.3691,9.6304 -0.094,12.2891 -0.5379,3.0844 -1.5333,5.9361 -3.249,9.3077 -3.5793,7.0342 -9.3618,12.5092 -16.6563,15.7706 -5.5087,2.463 -5.6539,2.4908 -13.4403,2.5753 -6.0422,0.065 -7.1046,0.014 -8.7317,-0.4211 z m -73.5116,-23.6124 c -0.096,-3.0805 -0.1745,-9.7306 -0.1745,-14.7781 v -9.1772 l 13.92,-24.0515 c 7.656,-13.2283 16.628,-28.7545 19.9377,-34.5025 3.3097,-5.7481 10.0235,-17.3863 14.9196,-25.8627 12.3793,-21.4319 17.9873,-31.227 18.9991,-33.1847 l 0.8654,-1.6745 0.1826,-53.975 c 0.1005,-29.6863 0.2673,-54.8085 0.3708,-55.8271 0.3002,-2.9559 1.6456,-4.9035 4.2267,-6.1188 3.1333,-1.4753 6.9451,-0.061 9.1672,3.4014 l 0.887,1.382 0.1642,47.7635 c 0.09,26.27 0.2563,49.6388 0.3688,51.9308 l 0.2047,4.1671 h 39.8324 39.8324 l 1.7932,1.0654 c 5.6923,3.3817 5.4754,9.9644 -0.4298,13.0469 l -1.5972,0.8338 -37.0416,0.168 c -20.373,0.092 -38.8276,0.1847 -41.0104,0.2049 l -3.9688,0.037 -3.2943,5.7497 c -3.7309,6.5119 -24.7922,42.9752 -41.6033,72.0278 -6.1891,10.6958 -16.8826,29.21 -23.7634,41.1428 -6.8807,11.9327 -12.5338,21.7264 -12.5623,21.7639 -0.028,0.037 -0.1303,-2.4523 -0.2262,-5.5328 z m 177.896,-102.1106 c -2.4071,-0.4243 -5.4764,-2.0882 -7.5077,-4.0702 -2.3892,-2.3311 -2.8037,-3.2929 -2.8111,-6.5225 -0.011,-4.9178 1.0785,-8.9598 4.0931,-15.1821 5.5228,-11.3993 16.9369,-27.0802 31.848,-43.7535 10.1466,-11.3458 21.8552,-20.2081 29.2729,-22.157 2.5543,-0.671 8.0429,-0.6735 10.451,0 10.5981,2.944 12.0784,9.6235 5.294,23.8877 -4.326,9.0955 -11.36,18.9354 -21.8115,30.5126 -12.5163,13.8644 -27.7416,28.557 -34.142,32.9475 -4.7958,3.2897 -10.72,5.0412 -14.6867,4.342 z m 132.6827,-33.5805 c -5.193,-0.1424 -5.6398,-0.1944 -6.8342,-0.7948 -2.576,-1.2951 -4.1305,-3.7631 -4.1402,-6.573 -0.01,-2.6618 1.3643,-4.8113 4.0003,-6.2602 l 1.4178,-0.7793 7.2761,-0.1797 c 4.0018,-0.099 36.9523,-0.1909 73.2234,-0.2045 l 65.9474,-0.025 v 7.5504 7.5503 l -67.6672,-0.066 c -37.217,-0.036 -70.1675,-0.1347 -73.2234,-0.2185 z m -3.2608,-22.4318 c -0.5076,-0.355 0.2036,-1.9403 1.1803,-2.631 1.5059,-1.0649 5.6473,-2.9674 12.1346,-5.5746 23.1824,-9.3166 36.587,-16.2063 47.7176,-24.5258 3.7523,-2.8046 4.8978,-3.9102 5.4785,-5.2878 0.2899,-0.6879 0.2497,-1.0069 -0.317,-2.5124 -1.0997,-2.9217 -3.6186,-7.3783 -10.5464,-18.66 -3.6639,-5.9664 -7.3973,-12.1256 -8.2965,-13.6872 -5.5552,-9.6468 -7.8495,-17.231 -6.5574,-21.6759 1.2067,-4.1507 5.4674,-7.829 11.0067,-9.5019 1.8235,-0.5507 2.1205,-0.5711 3.9208,-0.2686 3.7745,0.6342 7.0031,2.0166 10.1135,4.3303 5.62,4.1804 9.6726,9.159 12.9689,15.9324 4.322,8.8812 9.2638,23.2696 11.5408,33.6021 0.7041,3.1951 0.758,3.8439 0.758,9.1281 0,5.1105 -0.062,5.9171 -0.6093,7.9375 -0.8166,3.0141 -3.0951,7.6862 -4.751,9.7422 -6.4654,8.0272 -22.0665,15.2516 -41.2063,19.0814 -7.1432,1.4293 -19.0286,3.079 -28.7122,3.9852 -6.6432,0.6217 -15.3134,0.9428 -15.8236,0.586 z m -79.8184,-102.4687 c -10.1122,-0.3617 -14.5852,-0.746 -48.9479,-4.2064 -2.9104,-0.2931 -6.3037,-0.6513 -7.5406,-0.7961 -1.237,-0.1448 -5.8804,-0.6252 -10.3188,-1.0676 -4.4384,-0.4424 -10.1534,-1.0354 -12.7,-1.3179 -2.5466,-0.2824 -7.5472,-0.8178 -11.1125,-1.1896 -7.0077,-0.7309 -18.4452,-1.9556 -26.0615,-2.7907 -20.2438,-2.2198 -27.4409,-3.2153 -26.9311,-3.7252 0.2828,-0.2828 3.9768,-1.4093 6.8243,-2.0812 2.7849,-0.6571 12.672,-1.7715 31.7485,-3.5784 13.702,-1.2978 17.0497,-1.5999 29.3688,-2.6506 5.9663,-0.5088 12.8124,-1.1019 15.2135,-1.318 6.0654,-0.5459 18.1288,-1.5449 43.1271,-3.5712 3.5652,-0.289 10.1137,-0.8211 14.5521,-1.1824 18.4573,-1.5026 31.9664,-1.1042 39.2694,1.1583 6.9751,2.1608 11.7526,6.841 12.2328,11.9835 0.198,2.1199 -0.2367,4.5952 -1.1095,6.3174 -1.8441,3.6392 -6.7829,7.1285 -11.8959,8.4044 -6.1785,1.5419 -20.1029,2.1702 -35.7187,1.6117 z m 100.0115,-16.4199 c -1.0192,-0.091 -3.1208,-0.5899 -4.6703,-1.1084 -10.498,-3.5129 -17.5548,-10.6356 -21.3234,-21.5223 l -0.9928,-2.8682 v -6.6146 -6.6145 l 0.9761,-2.8182 c 4.2097,-12.1541 12.7486,-19.7743 25.3499,-22.6227 2.6807,-0.606 8.8595,-0.5909 11.7519,0.029 4.575,0.9799 8.874,2.777 12.775,5.3402 2.3722,1.5587 6.6919,5.9943 8.3953,8.6205 4.021,6.1993 5.7414,12.703 5.3388,20.1827 -0.2092,3.8878 -0.6177,5.8897 -1.8646,9.138 -2.2799,5.9388 -6.4558,11.4575 -11.4454,15.1255 -3.6803,2.7055 -9.8644,5.2708 -13.9708,5.7955 -2.1338,0.2726 -6.8967,0.2439 -10.3197,-0.062 z"
         id="path18" /><path
         style="fill:#ffffff;fill-opacity:1;stroke-width:7.91769"
         d="m 124.51349,1730.0586 c -0.5095,-0.4472 -0.9263,-0.9103 -0.9263,-1.0289 0,-0.1187 1.0418,-0.7835 2.3151,-1.4775 4.7388,-2.5825 8.0356,-5.0532 27.8474,-20.8704 6.7668,-5.4023 15.5179,-12.3671 19.4469,-15.4774 3.9291,-3.1102 10.8347,-8.5948 15.3458,-12.1879 4.5112,-3.5931 12.1312,-9.6441 16.9334,-13.4468 4.8022,-3.8026 10.279,-8.1424 12.1708,-9.644 4.0105,-3.1834 10.3595,-8.2106 13.7583,-10.894 1.3097,-1.0341 4.1077,-3.2505 6.2178,-4.9255 2.11,-1.675 7.8845,-6.2568 12.8322,-10.1817 4.9478,-3.925 11.139,-8.8382 13.7584,-10.9183 34.6381,-27.5059 40.3756,-31.6218 52.7621,-37.8497 8.9022,-4.476 12.6212,-5.5792 18.8077,-5.5792 6.6459,0 9.8586,1.0649 13.106,4.3441 2.0847,2.1051 3.9379,5.3732 5.388,9.5015 1.4077,4.0078 1.0605,8.2081 -1.0317,12.4804 -3.115,6.3607 -8.2393,10.5259 -24.4738,19.8928 -17.3943,10.036 -50.7959,28.6042 -92.4719,51.4058 -3.1287,1.7117 -9.3794,5.1385 -13.8906,7.615 -8.1313,4.464 -12.6104,6.9125 -32.5437,17.7908 -5.6753,3.0972 -12.4024,6.7896 -14.949,8.2054 -24.6584,13.7088 -35.4366,19.0386 -46.5003,22.9945 l -2.9764,1.0643 z m 360.3623,-4.2184 c -3.7988,-0.7152 -7.4005,-1.4645 -12.1709,-2.532 -2.9104,-0.6513 -9.816,-2.1922 -15.3458,-3.4244 -5.5298,-1.2321 -12.4354,-2.7785 -15.3458,-3.4364 -2.9104,-0.6578 -6.6609,-1.5018 -8.3344,-1.8755 -18.0812,-4.0371 -29.4507,-8.5529 -38.4973,-15.2905 -2.7229,-2.0279 -8.4658,-7.7523 -9.8326,-9.801 -2.3929,-3.5864 -5.0398,-8.7601 -9.3856,-18.3451 -6.8718,-15.1562 -12.6563,-33.4005 -16.2249,-51.1727 -1.8421,-9.1743 -2.0862,-11.6787 -2.108,-21.6311 -0.019,-8.571 -0.017,-8.6076 0.7034,-11.2448 2.1089,-7.7244 6.275,-12.2418 12.6833,-13.7525 6.6462,-1.5668 15.1695,1.2793 19.2525,6.4289 1.8896,2.3832 3.9337,6.2533 5.0042,9.4747 1.788,5.3801 2.7049,12.9331 3.4806,28.6728 1.2455,25.2696 2.135,33.8488 4.5205,43.6001 2.523,10.3137 6.9418,18.4676 13.3809,24.6917 6.6473,6.4254 14.2636,11.4509 26.4157,17.4303 10.1083,4.9737 13.3968,6.22 37.4385,14.1884 8.9496,2.9663 16.4499,5.5077 16.6675,5.6476 0.4684,0.3012 0.1448,0.5923 -1.9831,1.7836 -1.2642,0.7078 -1.4932,0.7428 -5.1594,0.7888 -2.11,0.027 -4.4317,-0.064 -5.1593,-0.2009 z m -52.9347,-129.7218 c 3.4104,-4.6116 7.1404,-11.7593 9.6836,-18.5567 3.8654,-10.3312 6.1063,-25.5388 5.0099,-33.999 -1.5361,-11.8522 -12.2417,-20.7361 -30.7414,-25.5102 -1.9967,-0.5153 -8.5452,-1.9566 -14.5521,-3.2028 -15.658,-3.2487 -21.6879,-4.8507 -26.1077,-6.9362 -1.6963,-0.8005 -4.9224,-3.7844 -6.5355,-6.045 -3.923,-5.4976 -4.0941,-9.4479 -0.5588,-12.8995 3.9169,-3.8241 11.996,-6.2389 22.4373,-6.7064 14.4957,-0.6489 40.0668,7.2322 55.141,16.9948 4.0745,2.6387 6.4917,4.6048 10.0553,8.1787 8.3615,8.3854 11.1113,14.2132 12.0522,25.5433 1.5099,18.1804 -4.6273,36.2261 -17.0066,50.0062 -2.3121,2.5738 -11.2827,10.9023 -13.7696,12.7842 -1.9846,1.5018 -3.8052,2.2914 -5.2899,2.2945 h -1.2587 z M 84.266786,1551.2491 c -4.8488,-0.7577 -8.6171,-3.64 -10.9743,-8.394 l -1.1579,-2.3351 v -3.3073 c -0.01,-3.9141 0.3262,-5.1055 2.2332,-8.0266 1.4768,-2.2623 3.6258,-4.134 6.0968,-5.31 1.693,-0.8059 1.7835,-0.8186 5.8208,-0.8186 h 4.101 l 1.9907,0.9507 c 7.5802,3.6202 10.467404,12.457 6.5187,19.9513 -1.0703,2.0313 -3.5678,4.5288 -5.599,5.599 -2.8403,1.4965 -6.2184,2.1293 -9.0256,1.6906 z m 3.9451,-9.8959 c 2.6976,-1.1272 3.6927,-4.8636 1.9157,-7.1934 -1.005,-1.3177 -2.1065,-1.8178 -4.0323,-1.8308 -1.5621,-0.011 -1.6934,0.04 -2.7338,1.0473 -1.3948,1.3507 -1.843,2.2187 -1.843,3.5692 0,3.3534 3.5778,5.7094 6.6934,4.4077 z m 83.234204,-6.8869 c -1.4837,-0.5302 -4.3662,-2.1639 -14.5214,-8.2305 -5.1659,-3.086 -12.905,-7.6147 -17.1979,-10.0636 -9.6218,-5.4888 -11.1626,-6.4206 -18.1239,-10.961 -3.056,-1.9931 -6.1391,-3.9438 -6.8514,-4.3348 l -1.2952,-0.711 -1.3507,1.0195 c -3.277,2.4734 -8.1189,4.8029 -12.228704,5.8835 -2.6725,0.7027 -11.6721,1.0235 -14.8554,0.5296 -4.7364,-0.735 -8.4646,-1.8743 -12.7581,-3.899 -12.2491,-5.7763 -21.4388,-15.8661 -25.0221,-27.4727 -0.9224,-2.9879 -0.9879,-3.4358 -1.1122,-7.5991 -0.2949,-9.8798 1.4455,-15.1875 6.7043,-20.4463 4.1808,-4.1808 10.0833,-7.4021 15.5882,-8.5071 3.5739,-0.7175 11.9356,-0.6358 15.7427,0.1538 11.6843,2.4233 21.834704,8.9337 29.238704,18.7535 2.0563,2.7272 5.1063,8.6683 6.1952,12.0676 0.4276,1.3347 1.0385,3.7905 1.3576,5.4573 0.6925,3.6165 0.6278,4.9586 -0.5266,10.9251 -0.4459,2.3046 -0.8104,4.3287 -0.8101,4.4979 0,0.7532 18.7212,12.1675 25.664,15.6484 4.7355,2.3743 7.4646,3.1757 16.6687,4.8948 15.1599,2.8316 34.963,3.1447 50.4031,0.7969 10.589,-1.6101 20.2572,-3.9595 28.776,-6.9927 4.5247,-1.611 7.3627,-2.8448 15.4095,-6.699 11.4033,-5.462 15.1867,-6.7825 20.4175,-7.1261 2.8859,-0.1895 5.2402,0.2033 7.0326,1.1734 1.7912,0.9695 4.0558,3.4516 4.9515,5.4271 1.8223,4.0191 1.7763,9.52 -0.1132,13.5139 -1.2605,2.6645 -6.0504,6.76 -10.6862,9.1368 -5.3997,2.7685 -11.8108,4.4214 -30.3335,7.8206 -12.3235,2.2616 -10.5436,2.1408 -30.9562,2.0998 -20.1284,-0.04 -22.5617,-0.1702 -32.0027,-1.7079 -4.0616,-0.6616 -5.267,-0.7775 -5.425,-0.522 -0.1117,0.1807 -0.2693,1.295 -0.3502,2.4761 -0.1616,2.3578 -0.3394,2.6292 -2.0297,3.0988 -1.311,0.3642 -4.4555,0.3072 -5.5992,-0.1016 z m 124.9141,-57.3218 c -13.271,-2.8565 -22.3596,-11.0633 -26.9483,-24.3339 l -0.9607,-2.7781 v -6.4823 c 0,-7.2025 0.1713,-8.3592 1.9091,-12.7 2.0426,-5.1025 4.6488,-9.0507 8.2508,-12.4994 3.9375,-3.77 8.3859,-6.4653 13.3857,-8.1105 6.8314,-2.2478 12.3838,-2.3974 19.7115,-0.531 3.5617,0.9071 8.3781,3.1806 11.2448,5.3077 4.5802,3.3987 9.5885,9.5403 11.4748,14.0713 2.7377,6.5762 3.6327,14.7506 2.2933,20.9442 -3.0313,14.017 -14.4769,24.9747 -28.4525,27.2395 -3.4308,0.556 -9.0082,0.4962 -11.9062,-0.1275 z"
         id="path3" /><path
         style="fill:#ffffff;fill-opacity:1;stroke-width:7.91769"
         d="m 752.87551,2608.2642 c 0,-0.082 0.38234,-0.8671 0.84965,-1.7438 0.89297,-1.6754 2.2225,-2.9502 6.69097,-6.4154 11.44935,-8.8787 21.7186,-18.1966 41.40729,-37.5712 8.72139,-8.5822 16.19727,-15.6519 19.57917,-18.5154 3.38465,-2.8659 6.47355,-5.0863 15.81741,-11.3701 l 8.50699,-5.721 -0.95438,-2.7028 c -0.52491,-1.4865 -1.96007,-5.2031 -3.18925,-8.2591 -5.93821,-14.7633 -10.96938,-28.7808 -13.04536,-36.346 -2.12911,-7.7589 -3.16913,-14.9517 -3.1611,-21.8623 0.0127,-10.9339 2.52869,-16.9918 8.21756,-19.7861 2.65161,-1.3024 4.42828,-1.608 8.31846,-1.4311 4.69864,0.2137 5.73945,0.6678 7.89163,3.4432 0.92272,1.19 2.37545,3.1756 3.22828,4.4125 0.85283,1.237 2.48979,3.3801 3.63769,4.7625 1.1478,1.3825 2.2999,2.9303 2.5602,3.4396 0.643,1.2584 3.982,11.9042 9.0038,28.7073 6.7115,22.4565 8.7959,41.5682 5.8003,53.1813 -1.1412,4.4241 -3.2376,8.6324 -5.5211,11.0827 -3.1636,3.3948 -17.30263,13.8216 -27.66426,20.401 -2.48528,1.578 -14.53498,7.7428 -38.23229,19.5601 -21.97813,10.9599 -26.07427,12.9255 -35.30745,16.9428 -9.17292,3.9911 -14.43421,6.102 -14.43421,5.7913 z m 284.42709,-0.3937 c -2.9191,-0.4822 -5.4859,-1.9953 -16.5023,-9.7281 -32.28728,-22.6633 -47.03538,-34.1807 -70.14088,-54.7763 -17.5902,-15.6794 -48.9721,-46.5762 -59.2732,-58.3569 -7.7245,-8.834 -13.3608,-18.0287 -16.4952,-26.9091 -1.7089,-4.8416 -2.2211,-10.1142 -1.2846,-13.2239 0.8626,-2.8645 3.047,-4.9205 6.4204,-6.0431 1.6025,-0.5333 2.127,-0.5716 6.2886,-0.4592 4.5253,0.1223 4.5507,0.1264 7.7061,1.2407 10.3859,3.668 17.3827,7.9617 26.1905,16.0723 6.4923,5.9783 11.3586,11.5053 19.7603,22.4431 3.9103,5.0907 22.4773,29.8672 34.8962,46.5667 10.2182,13.7402 33.61878,44.9359 41.67868,55.5625 2.6489,3.4925 6.4678,8.1449 8.4863,10.3388 2.0186,2.1938 5.4135,5.8848 7.5443,8.2021 4.2077,4.5761 7.8944,8.8586 7.8977,9.1742 0,0.2498 -1.2882,0.2075 -3.1729,-0.1038 z M 665.56301,2424.0227 v -4.4979 h 225.82191 225.82178 v 4.4979 4.4979 H 891.38492 665.56301 Z m 50.30441,-42.8808 c 0.8984,-3.9985 8.88635,-15.3326 16.05567,-22.7814 7.13313,-7.4112 13.30295,-12.2224 22.40762,-17.4735 17.80884,-10.2712 34.44064,-16.0439 50.13854,-17.4026 11.57905,-1.0022 25.61392,0.5965 33.82517,3.8531 3.85037,1.527 9.98563,4.6653 12.86138,6.5788 2.74764,1.8282 3.91872,3.1228 5.12762,5.6683 0.9491,1.9984 0.9576,2.0472 0.9534,5.458 -0.01,4.2567 -0.4303,5.43 -2.7796,7.6709 -2.40262,2.2916 -3.4143,2.6526 -7.39005,2.6364 -1.81901,-0.01 -4.25979,-0.1583 -5.42396,-0.3356 -6.50272,-0.9898 -17.12212,-2.432 -20.10833,-2.7308 -4.79315,-0.4796 -26.06713,-0.4875 -29.50104,-0.011 -14.57664,2.023 -25.66237,4.997 -38.10018,10.2211 -4.2951,1.804 -14.59248,7.0402 -22.75399,11.5704 -8.61705,4.7829 -14.92741,8.1544 -15.26256,8.1544 -0.20428,0 -0.21916,-0.3224 -0.0497,-1.0767 z m 229.2279,-11.0924 c -6.9545,-0.3277 -11.8818,-2.2002 -16.2721,-6.1838 l -1.1271,-1.0226 0.1355,-2.417 c 0.3096,-5.5237 2.5985,-8.2033 9.7708,-11.4387 3.4782,-1.569 9.1628,-3.4493 15.0474,-4.9772 4.8413,-1.257 7.7062,-1.8903 19.433,-4.2957 15.8227,-3.2455 23.1927,-5.5897 32.45878,-10.3239 7.4563,-3.8096 13.6191,-8.2854 21.7808,-15.8189 7.3928,-6.8238 22.2428,-21.6742 23.6505,-23.6511 l 0.5246,-0.7367 -1.495,-1.1738 c -4.2162,-3.3104 -15.6684,-11.9372 -19.9714,-15.0443 -2.265,-1.6355 -2.3686,-1.6789 -4.4979,-1.8852 -4.0349,-0.3907 -48.53128,-0.5017 -204.12905,-0.5089 l -154.85364,-0.01 0.0724,-4.5641 0.0724,-4.5641 172.11145,0.068 c 94.66127,0.037 173.00444,-0.022 174.09584,-0.1323 l 1.9843,-0.1999 -2.7768,-2.1166 c -6.0298,-4.5964 -10.9836,-8.0698 -11.50907,-8.0698 -0.3038,0 -1.5,0.6039 -2.6582,1.3419 -7.7174,4.918 -15.1494,6.5011 -22.8827,4.8743 -2.231,-0.4693 -6.4191,-2.3803 -9.2993,-4.2432 -5.0322,-3.2548 -10.123,-8.3834 -13.5144,-13.6147 -2.6336,-4.0623 -4.3943,-7.9104 -5.69,-12.4354 -0.6793,-2.3727 -0.7193,-2.8175 -0.7136,-7.9375 0.01,-6.153 0.2768,-7.7413 1.8869,-11.1052 0.7042,-1.4712 1.445,-2.4757 2.8345,-3.8438 2.179,-2.1454 4.1199,-3.2543 7.4444,-4.2534 4.6181,-1.3878 13.7696,-1.1288 20.7602,0.5876 7.4867,1.8381 16.9244,6.6687 22.60747,11.5713 3.1199,2.6915 7.0907,9.0053 7.9464,12.6354 0.5151,2.185 0.512,5.9452 -0.01,8.7325 -0.2266,1.2166 -0.9623,3.8549 -1.635,5.8627 l -1.2229,3.6507 0.6428,0.6159 c 0.3535,0.3387 4.5718,3.5652 9.374,7.17 4.8022,3.6047 9.3266,7.0468 10.0542,7.6491 1.9244,1.5929 2.5746,1.9537 4.4246,2.4552 1.5208,0.4123 5.2623,0.4624 44.391,0.594 l 42.7302,0.1436 0.072,4.5641 0.072,4.5641 h -37.5771 c -20.6674,0 -37.572,0.089 -37.5658,0.1984 0.01,0.1091 1.2769,1.0914 2.8236,2.1828 4.9009,3.458 13.4144,9.8863 15.8503,11.968 1.2921,1.1042 3.2422,2.9142 4.3336,4.0223 l 1.9843,2.0146 -1.0266,1.9942 c -0.5646,1.0968 -1.2961,2.1709 -1.6256,2.3867 -1.7284,1.1325 -4.242,0.573 -7.7376,-1.7223 l -2.3836,-1.5651 -0.7328,1.7617 c -4.1031,9.865 -12.4151,22.7695 -24.2475,37.645 -9.2162,11.5865 -19.0559,20.0998 -30.97837,26.8025 -9.2671,5.2099 -17.3175,8.3494 -27.2293,10.619 -3.4738,0.7954 -4.8049,0.9631 -9.3427,1.1766 -5.7679,0.2715 -10.9163,0.2717 -16.6687,6e-4 z m -44.45,-31.2145 c -15.1642,-1.3776 -27.6018,-12.67 -30.3161,-27.5248 -0.4549,-2.4895 -0.3815,-7.6748 0.1438,-10.1528 1.2294,-5.7999 4.4912,-12.018 8.5953,-16.3855 4.5846,-4.8788 11.5742,-8.5362 19.328,-10.1138 1.8222,-0.3707 3.0524,-0.4279 6.4823,-0.3017 4.603,0.1695 6.473,0.4935 10.2385,1.774 11.0695,3.7641 18.8202,12.1457 22.0654,23.8614 0.9275,3.3485 1.1449,7.9618 0.5218,11.0712 -0.5672,2.8302 -1.9906,7.1227 -3.08,9.2884 -2.3094,4.591 -6.8227,9.8128 -10.8925,12.6025 -6.6663,4.5695 -14.778,6.6359 -23.0865,5.8811 z"
         id="path16" /><path
         style="fill:#ffffff;fill-opacity:1;stroke-width:7.91769"
         d="m 1405.9404,2447.4723 c -0.2317,-0.3748 15.4542,-16.5269 34.8575,-35.8934 19.4034,-19.3664 43.6399,-44.0906 53.859,-54.9426 10.2191,-10.852 26.8461,-28.0851 36.9489,-38.2959 l 18.3688,-18.5651 -7.2768,-4.0845 c -13.6783,-7.6777 -16.868,-12.1522 -16.7067,-23.4354 0.2158,-15.0853 9.8756,-25.6082 23.5078,-25.6082 5.478,0 15.935,3.5608 28.5876,9.7346 15.3941,7.5115 44.9736,28.0736 62.7821,43.6429 27.2858,23.8549 32.2803,48.5282 13.5931,67.1502 -2.8225,2.8126 -7.8102,6.6996 -11.0838,8.6378 -18.0791,10.7037 -58.1383,21.9723 -106.4631,29.9478 -17.5686,2.8995 -21.0018,2.9984 -19.4957,0.5615 0.754,-1.22 14.3047,-9.009 43.3318,-24.9074 37.2438,-20.3987 55.1497,-31.1659 59.0282,-35.4948 1.4796,-1.6513 1.4307,-1.7595 -2.099,-4.6455 -4.2847,-3.5035 -18.3758,-13.1848 -19.1902,-13.1848 -0.3126,0 -6.0384,4.086 -12.7241,9.0799 -15.5568,11.6204 -28.7999,20.5455 -59.0191,39.7754 -32.2169,20.5011 -64.8708,40.4512 -90.9011,55.5363 -27.8521,16.141 -28.8771,16.6548 -29.9052,14.9912 z m 332.8081,-160.7553 c -16.8206,-5.7557 -30.673,-20.6377 -39.8156,-42.7749 -3.4955,-8.4638 -7.1974,-21.6554 -7.2005,-25.6587 -0.01,-8.7418 7.684,-16.1356 16.7836,-16.1356 9.4516,0 12.4629,2.9869 22.2135,22.0338 8.5728,16.7459 15.3454,27.4415 19.2736,30.4377 4.0777,3.1103 9.431,2.8812 16.8961,-0.7228 15.8939,-7.6734 33.5958,-26.0169 53.4021,-55.3376 4.6087,-6.8226 8.6966,-12.2088 9.0841,-11.9693 1.3489,0.8337 -4.293,20.7827 -9.6615,34.1619 -14.6666,36.5517 -34.6929,60.1064 -56.5692,66.536 -6.7632,1.9877 -17.6753,1.7327 -24.4062,-0.5705 z m -221.9596,-62.073 c -2.4579,-13.5176 -2.8765,-35.0467 -0.963,-49.5306 4.3975,-33.2864 18.7867,-56.0146 40.3434,-63.724 7.1763,-2.5664 20.7581,-3.1175 29.4075,-1.1932 21.1969,4.7158 42.8061,19.9889 58.4807,41.3333 6.3894,8.7007 6.9836,15.6713 1.963,23.0313 -4.2994,6.3026 -15.101,8.6496 -21.6028,4.6938 -1.6953,-1.0314 -8.8695,-6.8916 -15.9429,-13.0227 -13.585,-11.7754 -20.3332,-16.6883 -29.2524,-21.2966 -4.8582,-2.5101 -6.195,-2.8197 -12.1744,-2.8197 -8.3911,0 -11.605,1.4514 -18.5069,8.3575 -11.3467,11.3539 -21.1489,34.6614 -27.1805,64.63 -1.2992,6.4555 -2.7462,11.8653 -3.2156,12.0217 -0.4693,0.1564 -1.0795,-0.9599 -1.3561,-2.4808 z m 187.6234,-33.0606 c -13.8558,-3.726 -23.8926,-14.9029 -26.3699,-29.3652 -3.9653,-23.1494 16.8707,-44.2772 40.3424,-40.9071 19.7906,2.8415 33.9752,21.7464 30.6931,40.9071 -3.6598,21.3658 -24.1987,34.8691 -44.6656,29.3652 z"
         id="path51" /><path
         style="fill:#ffffff;fill-opacity:1;stroke-width:7.91769"
         d="m 2863.5441,2649.8157 c -3.7447,-1.3358 -10.4853,-4.2683 -14.9789,-6.5166 -16.7666,-8.3891 -26.478,-11.519 -35.5253,-11.4495 -8.9982,0.069 -15.9234,2.3696 -40.0503,13.3051 -10.9558,4.9656 -12.3027,5.2461 -25.1919,5.2461 -13.5162,0 -13.7232,-0.05 -27.9153,-6.79 -13.8189,-6.5624 -14.686,-6.7855 -25.8727,-6.6566 -9.7789,0.1126 -14.0298,0.984 -27.3997,5.6169 -10.0442,3.4804 -16.5108,5.0604 -17.7024,4.3253 -1.4767,-0.911 -1.9663,-7.2721 -2.2942,-29.8061 l -0.4169,-28.6479 h -46.2221 -46.2221 v -3.1918 -3.1919 l 48.0625,-0.9575 c 26.4344,-0.5266 49.0467,-0.5798 50.2495,-0.1182 3.3509,1.2858 3.7785,4.8304 3.7986,31.486 l 0.019,24.7075 12.5888,-4.0484 c 15.0021,-4.8244 28.2255,-6.2127 37.3477,-3.9211 3.6162,0.9085 11.7835,4.127 18.1496,7.1523 13.012,6.1837 23.3564,7.8518 33.2465,5.3615 3.3948,-0.8548 12.7758,-4.5761 20.8465,-8.2695 8.0706,-3.6934 18.5578,-7.7871 23.3047,-9.0971 12.7101,-3.5077 23.0102,-1.3757 47.8807,9.9108 29.3285,13.3095 35.9545,13.2739 58.4946,-0.3145 19.5037,-11.7579 30.0174,-14.626 30.0174,-8.1887 0,2.684 -1.1508,3.6684 -6.3657,5.4453 -3.5012,1.193 -11.6162,5.3179 -18.0336,9.1665 -6.4173,3.8486 -14.985,8.1387 -19.0393,9.5336 -9.1993,3.165 -21.7505,3.1277 -30.7753,-0.091 z m -243.2201,-77.3735 c 0.7177,-1.3106 4.1767,-5.1405 7.6866,-8.5108 3.5099,-3.3702 14.6772,-15.6257 24.8162,-27.2344 10.139,-11.6087 22.036,-24.815 26.4379,-29.3474 l 8.0033,-8.2408 -13.5896,-9.193 c -23.3041,-15.7645 -39.638,-36.5673 -37.7666,-48.0993 0.9064,-5.5853 6.0889,-11.6919 12.0011,-14.1409 8.7521,-3.6252 30.2431,12.1237 51.4814,37.7265 17.4928,21.0875 21.105,31.9936 14.3911,43.45 -6.9955,11.937 -27.0978,29.5149 -47.691,41.7022 -13.7062,8.1114 -44.0823,24.2709 -45.6238,24.2709 -0.9716,0 -1.0201,-0.7878 -0.1466,-2.383 z m 160.7463,-80.3416 c -10.3406,-5.2423 -15.5947,-13.8561 -15.5087,-25.4255 0.1315,-17.682 11.761,-29.3838 29.2022,-29.3838 17.4634,0 29.1114,11.708 29.2333,29.3838 0.079,11.3941 -5.1553,19.9931 -15.4388,25.3653 -9.6656,5.0493 -17.6125,5.0667 -27.488,0.06 z m -45.9382,-27.1382 c -4.4559,-1.5762 -8.3254,-4.8894 -16.1756,-13.8502 -17.2984,-19.7454 -83.5009,-109.6567 -83.5009,-113.4045 0,-2.6358 2.9178,-0.75 12.458,8.0517 108.2667,99.8863 108.7353,100.3521 108.7353,108.0843 0,5.8131 -2.2774,9.2729 -7.5553,11.4782 -5.5472,2.3177 -6.4593,2.2942 -13.9615,-0.3595 z"
         id="path37" /><path
         style="fill:#ffffff;fill-opacity:1;stroke-width:7.91769"
         d="m 1707.6008,1647.4022 c -1.0384,-0.279 -2.6667,-0.6835 -3.6185,-0.8991 -1.5722,-0.3561 -1.7307,-0.6502 -1.7307,-3.2119 0,-2.3238 0.2048,-2.8199 1.164,-2.8199 0.944,0 7.4838,-14.5663 34.6089,-77.0837 l 33.4451,-77.0836 -10.4079,-13.6941 c -13.7914,-18.146 -19.7215,-25.2374 -29.5389,-35.3222 -11.6431,-11.9606 -22.6471,-21.1754 -34.6226,-28.993 l -5.0094,-3.2702 -3.9301,-15.2181 c -2.1615,-8.37 -4.0945,-15.7984 -4.2956,-16.5078 -0.3142,-1.108 0.1116,-1.4401 3.03,-2.3599 4.3554,-1.3728 4.6496,-1.3526 5.0225,0.3455 0.1709,0.7789 1.8956,7.5047 3.8327,14.9463 2.8865,11.0887 3.7778,13.7004 4.9394,14.474 5.5385,3.6887 16.9505,12.3737 22.2145,16.9063 14.3709,12.3741 26.8359,26.1843 42.9619,47.5979 4.6918,6.2301 10.0532,13.2131 11.9141,15.5177 l 3.3834,4.19 -35.381,81.5534 c -19.4595,44.8543 -35.5415,81.5277 -35.7375,81.4964 -0.196,-0.032 -1.206,-0.285 -2.2443,-0.564 z m -18.2095,-19.6087 c -6.299,-17.4894 -11.2894,-27.8368 -18.4696,-38.2963 -7.954,-11.5864 -14.9418,-19.934 -25.5758,-30.5523 -15.3824,-15.3596 -25.9456,-22.8756 -37.4658,-26.6575 -2.2023,-0.7229 -14.8691,-4.0133 -28.1486,-7.3119 -34.6375,-8.6039 -43.6493,-12.1325 -50.8501,-19.9099 -4.8905,-5.2823 -6.247,-8.5028 -6.1801,-14.6716 0.077,-7.1102 1.6199,-11.3381 5.1009,-13.9779 6.5343,-4.955 17.579,-6.0006 29.1273,-2.7576 13.2321,3.7159 27.49,9.5331 48.6134,19.8343 17.1894,8.3827 28.0616,15.5549 39.9028,26.3233 28.8864,26.2693 48.5524,69.3666 48.6126,106.5328 0.015,5.2885 -0.2381,7.9312 -0.8139,8.7187 -0.7294,0.9975 -1.1807,0.1464 -3.8531,-7.2741 z m 49.4747,-95.3914 c -1.3615,-2.3444 -6.6504,-11.9087 -11.7534,-21.2538 -20.7447,-37.9916 -32.5514,-55.8956 -41.2197,-62.5071 -2.5968,-1.9807 -3.0645,-2.1171 -6.1644,-1.7971 -6.5039,0.6712 -12.997,4.8793 -32.3886,20.9906 -14.5374,12.0784 -26.8818,17.7987 -35.4945,16.4481 -6.2675,-0.9827 -12.2769,-4.7996 -14.0712,-8.9369 -2.7167,-6.2646 -2.1397,-11.685 2.2352,-20.9986 4.5961,-9.7842 10.1799,-15.6859 22.3417,-23.6135 14.6058,-9.5204 30.0459,-15.0746 46.8536,-16.8542 10.5694,-1.1191 18.4781,0.065 26.7002,3.9993 12.1059,5.7921 22.9372,24.0802 33.8088,57.0841 6.0748,18.4416 7.8882,25.9379 10.9607,45.3103 2.7396,17.2731 2.4209,19.4112 -1.8084,12.1288 z m -98.2867,-160.3949 c -12.3254,-1.4569 -28.9849,-5.3522 -37.3758,-8.7396 -14.5539,-5.8753 -21.8642,-13.4943 -22.8256,-23.7894 -0.4198,-4.4968 0.7167,-7.9274 3.8579,-11.6438 3.2982,-3.9021 6.053,-4.8559 13.8653,-4.8002 8.7081,0.062 12.9333,1.288 30.9293,8.9729 20.5104,8.7588 27.6923,10.801 37.9866,10.801 17.9321,0 39.7008,-11.3923 57.2604,-29.9665 3.6621,-3.8735 6.088,-7.3867 10.8241,-15.6746 3.3573,-5.8752 6.5059,-11.2287 6.9969,-11.8969 0.8739,-1.189 0.9083,-1.1853 1.6356,0.1734 0.5825,1.0885 0.531,2.616 -0.2388,7.0763 -1.2852,7.4474 -2.8203,11.9734 -6.9364,20.4497 -16.3893,33.7517 -51.7841,58.1821 -85.5959,59.0805 -4.4995,0.1192 -9.1721,0.1 -10.3836,-0.042 z m 29.5783,-39.5811 c -18.1054,-47.6207 -47.0475,-87.2473 -84.8028,-116.1091 -3.8484,-2.9421 -7.0153,-5.5065 -7.0372,-5.6985 -0.08,-0.6988 80.0495,-44.0995 80.4854,-43.5937 0.2467,0.2864 1.2047,1.8481 2.1289,3.4706 1.2732,2.2353 1.4888,3.0691 0.8901,3.4418 -0.4346,0.2707 -15.9308,8.7542 -34.436,18.8525 -18.5052,10.0981 -33.7111,18.6025 -33.7907,18.8986 -0.08,0.2959 2.2466,2.4868 5.1694,4.8686 7.4047,6.0342 20.3954,18.5991 26.9348,26.0518 22.6404,25.8026 38.741,52.7736 52.5835,88.0852 l 1.2952,3.3039 h -4.4115 c -4.1254,0 -4.4504,-0.1026 -5.0091,-1.5717 z m -92.5092,-24.3059 c -11.5462,-1.2181 -22.3271,-8.6965 -27.9215,-19.3683 -10.0444,-19.1605 -1.2427,-41.7574 19.4259,-49.8726 12.922,-5.0736 28.9534,-1.9448 38.65,7.5433 8.5239,8.3407 13.1019,20.3716 11.422,30.0175 -3.6381,20.892 -20.6883,33.8837 -41.5764,31.6801 z m -73.4919,-6.2934 c -5.9099,-2.9253 -10.3812,-9.0113 -12.5502,-17.0822 -3.4866,-12.9736 1.3637,-42.8623 9.6032,-59.1762 9.1475,-18.112 30.1406,-34.928 53.2834,-42.6816 11.2439,-3.7671 18.1421,-5.0026 30.1333,-5.3973 11.9565,-0.3936 18.4862,0.2281 25.655,2.4423 3.4016,1.0506 6.1822,2.8145 5.5049,3.4919 -0.082,0.081 -6.5192,0.7082 -14.3069,1.3937 -16.0281,1.4108 -19.4026,2.3014 -32.6335,8.6123 -17.8323,8.5057 -31.6553,21.1549 -36.1411,33.0726 -3.3161,8.8101 -3.7262,12.4854 -3.849,34.4956 -0.1237,22.1752 -0.6357,26.7209 -3.7197,33.0238 -1.8548,3.7905 -5.5303,7.4487 -8.467,8.4272 -3.544,1.1807 -9.4649,0.8863 -12.5124,-0.6221 z"
         id="path57" /><path
         style="fill:#ffffff;fill-opacity:1;stroke-width:7.91769"
         d="m 389.39795,2239.9259 c -1.00555,-0.2702 -2.58225,-0.6619 -3.50392,-0.8707 -1.52249,-0.3448 -1.67591,-0.6296 -1.67591,-3.1102 0,-2.2502 0.19827,-2.7306 1.12711,-2.7306 0.91408,0 7.24688,-14.1051 33.51318,-74.6432 l 32.38623,-74.6431 -10.07839,-13.2606 c -13.35481,-17.5714 -19.09716,-24.4383 -28.60367,-34.2038 -11.27446,-11.5819 -21.93013,-20.505 -33.52648,-28.0751 l -4.85078,-3.1666 -3.80564,-14.7363 c -2.09306,-8.105 -3.9649,-15.2983 -4.15967,-15.9852 -0.3042,-1.0729 0.10812,-1.3945 2.93408,-2.2852 4.21753,-1.3293 4.50245,-1.3097 4.86349,0.3346 0.16555,0.7543 1.83561,7.2671 3.7114,14.473 2.79513,10.7377 3.65821,13.2667 4.78299,14.0159 5.36319,3.5718 16.41381,11.9819 21.51123,16.371 13.91588,11.9823 25.98621,25.3553 41.60167,46.0909 4.54321,6.0329 9.73487,12.7948 11.53687,15.0264 l 3.27628,4.0573 -34.26084,78.9714 c -18.84337,43.4342 -34.41616,78.9465 -34.60596,78.9162 -0.1898,-0.031 -1.16788,-0.276 -2.17327,-0.5461 z m -17.63298,-18.9879 c -6.0996,-16.9357 -10.93197,-26.9555 -17.88487,-37.0839 -7.70216,-11.2195 -14.46877,-19.3029 -24.76603,-29.5849 -14.89541,-14.8734 -25.12415,-22.1514 -36.27967,-25.8135 -2.13251,-0.7001 -14.39834,-3.8863 -27.25739,-7.0805 -33.5408,-8.3315 -42.26735,-11.7483 -49.24012,-19.2795 -4.73565,-5.1151 -6.0492,-8.2336 -5.98447,-14.2071 0.0745,-6.8851 1.56866,-10.9792 4.93947,-13.5354 6.32739,-4.798 17.02237,-5.8106 28.20507,-2.6702 12.81317,3.5982 26.61961,9.2312 47.07431,19.2063 16.6451,8.1173 27.17308,15.0624 38.63938,25.4899 27.97188,25.4376 47.01528,67.1704 47.07357,103.1599 0.0146,5.1211 -0.23056,7.6801 -0.78813,8.4427 -0.7063,0.9659 -1.14332,0.1417 -3.73112,-7.0438 z m 47.90831,-92.3713 c -1.31837,-2.2701 -6.4399,-11.5316 -11.38127,-20.5809 -20.08795,-36.7888 -31.52079,-54.1259 -39.91465,-60.5281 -2.51459,-1.918 -2.96754,-2.0501 -5.96927,-1.7402 -6.29802,0.65 -12.58553,4.7249 -31.36314,20.326 -14.07719,11.696 -26.03078,17.2353 -34.37072,15.9274 -6.06907,-0.9516 -11.88828,-4.6477 -13.6257,-8.6539 -2.63075,-6.0663 -2.07202,-11.3151 2.16436,-20.3339 4.45058,-9.4743 9.85761,-15.1892 21.6344,-22.8658 14.14338,-9.219 29.09461,-14.5974 45.3702,-16.3206 10.23472,-1.0837 17.89305,0.063 25.85486,3.8727 11.72258,5.6087 22.21096,23.3178 32.73835,55.2768 5.88248,17.8576 7.63845,25.1167 10.61374,43.8757 2.65281,16.7262 2.34422,18.7966 -1.75116,11.7448 z M 324.49839,1973.25 c -11.93518,-1.4108 -28.06729,-5.1828 -36.19245,-8.4629 -14.09311,-5.6893 -21.17196,-13.0671 -22.10298,-23.0362 -0.40649,-4.3544 0.69403,-7.6764 3.73579,-11.2752 3.19373,-3.7786 5.8613,-4.7021 13.42626,-4.6482 8.43243,0.06 12.52387,1.2472 29.95009,8.6888 19.86104,8.4816 26.81554,10.459 36.78391,10.459 17.36442,0 38.44389,-11.0316 55.44755,-29.0177 3.54615,-3.7509 5.8952,-7.1528 10.48137,-15.1783 3.251,-5.6892 6.29992,-10.8732 6.77537,-11.5202 0.84628,-1.1514 0.8796,-1.1479 1.58386,0.1679 0.56399,1.054 0.51417,2.5331 -0.2313,6.8522 -1.24444,7.2117 -2.73098,11.5943 -6.71678,19.8023 -15.87042,32.6831 -50.14456,56.34 -82.88583,57.21 -4.35707,0.1154 -8.88173,0.096 -10.05486,-0.041 z m 28.6418,-38.3279 c -17.53216,-46.113 -45.55795,-84.485 -82.11787,-112.4331 -3.72659,-2.8489 -6.7932,-5.3321 -6.81438,-5.5181 -0.0774,-0.6766 77.51504,-42.7032 77.93715,-42.2134 0.2389,0.2773 1.16656,1.7896 2.0615,3.3607 1.2329,2.1645 1.44169,2.9719 0.86192,3.3328 -0.4208,0.2622 -15.42639,8.477 -33.34574,18.2556 -17.91935,9.7784 -32.64382,18.0136 -32.72082,18.3003 -0.0774,0.2865 2.17547,2.408 5.00566,4.7144 7.17031,5.8432 19.7497,18.0102 26.08206,25.227 21.92356,24.9857 37.51447,51.1028 50.91866,85.2964 l 1.25423,3.1993 h -4.27188 c -3.99471,0 -4.30944,-0.099 -4.85049,-1.5219 z m -89.58026,-23.5364 c -11.18066,-1.1795 -21.62023,-8.4211 -27.03749,-18.7551 -9.7264,-18.5539 -1.20338,-40.4354 18.81079,-48.2936 12.5129,-4.913 28.03675,-1.8832 37.42636,7.3045 8.25403,8.0766 12.68707,19.7266 11.0604,29.0671 -3.52291,20.2305 -20.0333,32.811 -40.26006,30.6771 z m -71.16514,-6.0942 c -5.72278,-2.8326 -10.05253,-8.7259 -12.15289,-16.5413 -3.37622,-12.5629 1.32056,-41.5053 9.29917,-57.3026 8.85791,-17.5386 29.18636,-33.8222 51.59647,-41.3304 10.88785,-3.6478 17.56766,-4.8442 29.17921,-5.2264 11.57793,-0.3811 17.90094,0.2209 24.84273,2.365 3.29396,1.0174 5.98651,2.7254 5.33062,3.3813 -0.0789,0.079 -6.31278,0.6859 -13.85393,1.3496 -15.52063,1.3662 -18.78828,2.2285 -31.60028,8.3397 -17.2677,8.2363 -30.65304,20.4851 -34.99681,32.0255 -3.21111,8.5312 -3.60824,12.09 -3.72718,33.4034 -0.11981,21.4731 -0.61557,25.8749 -3.60196,31.9783 -1.79601,3.6705 -5.35516,7.2128 -8.19894,8.1604 -3.43174,1.1433 -9.16519,0.8582 -12.11621,-0.6025 z"
         id="path52" /><path
         style="fill:#ffffff;fill-opacity:1;stroke-width:7.91768"
         d="m 2128.3094,2724.7339 c -3.3226,-6.5024 -7.6207,-23.4503 -10.8721,-42.8681 -1.0754,-6.4231 -1.3946,-7.371 -3.868,-11.4864 -4.8206,-8.0207 -6.3503,-15.3303 -3.8683,-18.4855 1.2604,-1.6024 4.9401,-2.838 6.9496,-2.3336 1.1622,0.2917 1.4727,-0.056 2.9407,-3.2937 3.7451,-8.2599 10.867,-18.451 17.1525,-24.5447 12.809,-12.4183 28.9741,-24.1771 38.44,-27.9623 8.8293,-3.5306 15.6537,-0.7654 13.7134,5.5567 -0.3167,1.0324 -0.5285,1.8771 -0.4704,1.8771 0.059,0 1.5893,-0.5214 3.4025,-1.1587 1.957,-0.6878 5.3208,-1.273 8.2778,-1.4399 l 4.9813,-0.2812 5.0896,4.6205 c 11.7253,10.6442 31.4747,33.5378 55.8758,64.7709 11.2939,14.4561 37.7871,49.8164 37.5222,50.0811 -0.1129,0.1123 -5.3917,-2.7192 -11.7321,-6.2922 -50.7617,-28.6053 -83.3664,-54.6774 -100.5835,-80.4308 -4.0591,-6.0718 -7.9042,-13.742 -8.3813,-16.7195 l -0.3301,-2.0612 -3.0556,4.2738 c -7.2948,10.2034 -23.9652,28.7416 -34.6069,38.4841 -6.5329,5.9809 -6.7157,6.7402 -2.418,10.0401 5.5441,4.2567 16.2337,13.8664 25.2827,22.7287 5.0198,4.9162 9.9836,9.3743 11.0305,9.9069 9.5793,4.8734 34.3077,8.8063 63.9205,10.1661 l 8.8502,0.4064 -6.3611,3.1183 c -10.1146,4.9581 -23.6602,8.5758 -39.7387,10.613 -26.125,3.3102 -44.5484,-3.3085 -66.6493,-23.9441 -2.0792,-1.9413 -3.9714,-3.314 -4.2047,-3.0505 -0.2335,0.2635 -1.4789,7.3242 -2.7676,15.6905 -1.2886,8.3663 -2.4274,15.2968 -2.5304,15.4011 -0.1025,0.1043 -0.5492,-0.518 -0.9912,-1.3829 z m -57.6346,-10.6683 c -24.8246,-8.6677 -46.4546,-25.5776 -59.6039,-46.5971 -1.5958,-2.5507 -3.5056,-5.9396 -4.2444,-7.531 -1.2853,-2.7693 -1.3046,-2.974 -0.447,-4.7723 3.0088,-6.3094 18.1033,-10.5455 44.3822,-12.4553 16.136,-1.1727 43.5057,-2.3603 46.313,-2.0096 3.419,0.4272 6.7621,2.1673 8.3959,4.3702 0.9408,1.2684 1.1576,2.3594 1.1539,5.808 0,5.8755 -1.8398,10.3337 -4.9738,12.096 -5.0039,2.8138 -8.0341,3.1065 -35.7024,3.4483 -23.3898,0.2889 -25.8824,0.4078 -27.2422,1.2988 -4.4509,2.9169 1.2375,12.3262 17.3003,28.6171 4.4169,4.4796 10.7688,10.6629 14.1152,13.7408 3.3465,3.0778 5.8356,5.5815 5.5314,5.5636 -0.3042,-0.019 -2.5445,-0.7277 -4.9782,-1.5775 z m -161.5928,-78.1625 c 14.651,-25.4327 23.8064,-39.394 33.8748,-51.6571 10.3045,-12.5503 17.5541,-17.0205 24.5491,-15.137 5.1877,1.3969 7.71,6.5593 6.8999,14.1225 -0.3493,3.2632 -0.2919,3.5801 0.6491,3.5791 2.1912,0 20.0215,-2.8247 27.9483,-4.4239 5.6045,-1.1307 9.1105,-2.1415 10.7393,-3.0959 3.9489,-2.3143 10.6027,-8.3938 16.912,-15.4522 6.8612,-7.676 9.4272,-9.311 14.0088,-8.9258 2.4036,0.2021 3.012,0.5243 4.8068,2.5467 2.0944,2.3601 3.4614,5.6377 4.1137,9.8619 0.739,4.7883 -4.3065,12.2918 -17.0116,25.2983 l -8.1049,8.2971 h -19.5523 c -20.0875,0 -24.1859,-0.2944 -35.4985,-2.55 l -5.4366,-1.0841 -3.2585,3.0167 c -4.8952,4.5322 -14.4296,11.5146 -27.0775,19.8298 -10.8766,7.1508 -28.7641,18.1248 -29.5432,18.1248 -0.2049,0 0.2364,-1.0579 0.9813,-2.3509 z m -46.3889,-25.8644 c -17.1991,-1.4294 -31.6844,-6.0902 -43.3116,-13.936 -4.7718,-3.22 -5.5412,-4.492 -4.6054,-7.6154 0.7223,-2.4107 2.5553,-4.0481 6.9845,-6.2386 7.0396,-3.4816 14.2526,-4.9468 24.1072,-4.8969 13.8077,0.07 27.0706,3.959 43.6011,12.7851 4.3062,2.2992 4.7507,2.7014 6.0105,5.4381 1.5337,3.3324 1.4291,6.0031 -0.3278,8.3711 -1.4825,1.9979 -5.4151,4.2737 -8.9606,5.1855 -3.9417,1.0137 -16.4199,1.4954 -23.4979,0.9071 z m 16.7048,-3.6308 c 8.4259,-1.7404 13.8067,-4.6077 12.577,-6.7021 -1.7494,-2.9798 -19.6648,-10.021 -31.4944,-12.378 -15.01,-2.9908 -40.586,-1.4593 -42.1136,2.5218 -0.5828,1.5185 1.5178,3.1038 8.8766,6.6989 10.0257,4.8982 23.4665,9.1539 32.6839,10.3486 4.5715,0.5925 15.5715,0.3161 19.4705,-0.4892 z m 98.4938,-62.6746 c -10.7203,-3.5439 -17.5689,-13.0773 -17.5689,-24.4562 0,-11.6437 7.3267,-21.384 18.4973,-24.59 2.4523,-0.7039 4.5829,-0.8753 8.3983,-0.6757 4.4124,0.2308 5.6879,0.5406 9.3149,2.2631 19.5601,9.289 19.5414,36.8274 -0.031,46.1223 -3.8501,1.8284 -4.7409,2.0275 -9.8351,2.1981 -4.3933,0.1472 -6.2861,-0.039 -8.7754,-0.8616 z m 67.5031,-24.9199 c -9.2242,-2.9494 -15.9535,-10.8108 -17.5977,-20.5584 -2.5378,-15.0465 9.6891,-29.2627 25.1681,-29.2627 13.2959,0 24.1437,9.8641 25.54,23.224 1.2308,11.7747 -7.1777,23.7962 -18.8105,26.8935 -3.9676,1.0565 -10.4916,0.9212 -14.2999,-0.2964 z m 65.3829,-0.4439 c -3.5514,-0.2532 -7.9941,-1.3726 -10.5098,-2.648 -7.3556,-3.7293 -7.9659,-9.7906 -1.9267,-19.1397 5.0039,-7.7468 8.0123,-10.2437 42.7843,-35.5093 18.1428,-13.1827 33.3366,-24.1751 33.7639,-24.4276 0.9611,-0.5678 1.5565,-1.5646 -7.5935,12.7108 -17.6325,27.5094 -32.6707,47.6878 -44.8674,60.2037 -7.5756,7.7736 -9.1793,8.9863 -11.6508,8.8101 z"
         id="path56" /><path
         style="fill:#ffffff;fill-opacity:1;stroke-width:7.91769"
         d="m 940.03249,553.22639 c -0.022,-1.4882 1.8798,-17.3253 3.4001,-28.4292 2.9013,-21.1927 3.4633,-26.3923 4.0156,-37.1606 0.6086,-11.8682 0.1432,-20.2377 -1.691,-30.3509 -2.1229,-11.7101 -4.7397,-17.2959 -10.029,-21.4067 l -1.7031,-1.3237 -6.237,12.528 c -11.0518,22.1993 -16.3471,30.0279 -28.23274,41.7367 -19.4114,19.1237 -30.3658,27.4552 -47.6982,36.2783 -24.6235,12.5346 -56.0051,21.4728 -82.4155,23.4739 l -4.3075,0.3263 3.7331,-1.7817 c 2.0532,-0.9801 8.5001,-3.693 14.3267,-6.0289 11.9945,-4.8084 14.0225,-5.8716 24.4403,-12.8117 21.7202,-14.4695 37.766,-27.6955 49.8,-41.0482 10.8892,-12.0824 17.8397,-24.4687 23.9046,-42.5993 2.9565,-8.8379 6.4669,-22.2385 5.949,-22.7087 -0.2184,-0.1975 -1.8184,-0.8131 -3.5556,-1.3669 -4.1762,-1.3308 -12.8439,-5.6646 -16.0888,-8.0441 -4.7236,-3.4637 -9.0939,-8.5915 -11.3514,-13.3194 -1.9486,-4.0809 -2.1376,-4.9088 -2.1376,-9.3587 0,-4.1019 0.2474,-5.4095 1.5483,-8.1856 3.0622,-6.5342 10.4583,-12.4261 16.791,-13.3757 5.387,-0.8079 23.9187,1.6987 38.27754,5.1775 4.5385,1.0994 7.5121,1.45 12.306,1.4506 9.4342,0 12.1167,1.1216 16.0055,6.6864 2.361,3.3788 2.0569,3.1314 10.8899,8.8548 15.4365,10.0023 26.3795,24.9969 27.9157,38.2517 2.3908,20.6283 -0.1498,43.0086 -7.2613,63.9444 -4.1957,12.3533 -8.1828,20.7028 -19.6091,41.0642 -3.0133,5.37 -6.7167,12.0896 -8.2294,14.9325 -1.5128,2.8429 -2.7531,4.9105 -2.7561,4.5947 z m 44.2064,-186.4231 c -6.3218,-1.2304 -11.8388,-5.8157 -13.2656,-11.0253 -0.8403,-3.0676 -0.837,-10.8744 0,-14.0028 1.6074,-5.9683 13.4,-12.5348 34.22291,-19.0564 43.1105,-13.5018 58.1674,-17.7822 99.0711,-28.1643 19.0136,-4.8258 35.1222,-7.9299 38.5504,-7.4283 1.1146,0.1628 0.8741,0.4973 -1.8349,2.5504 -4.5986,3.4848 -53.6665,31.9241 -77.2055,44.7474 -20.407,11.1171 -55.5843,28.0766 -64.14871,30.9269 -3.0361,1.0104 -9.2043,2.1027 -11.375,2.0142 -0.7897,-0.033 -2.5987,-0.2851 -4.0203,-0.5618 z m -240.06764,-47.9034 c 0,-0.675 3.0339,-6.27 5.4108,-9.9783 3.0748,-4.7968 9.9341,-13.0035 14.7684,-17.6691 3.4304,-3.3105 18.0362,-15.1442 28.3512,-22.9699 19.448,-14.755 41.1567,-24.6283 63.7962,-29.0156 6.1406,-1.19 8.4728,-1.3257 22.6397,-1.3166 14.0543,0 16.5532,0.1542 22.68584,1.327 6.7271,1.2854 13.7234,2.9864 16.1318,3.9219 2.7502,1.0685 8.3645,7.2095 10.5121,11.4988 1.4042,2.8043 1.4913,4.5217 0.4303,8.4943 -1.6111,6.031 -4.9175,10.2749 -10.1317,13.0049 -2.3437,1.2271 -3.2796,1.3495 -10.0506,1.3139 -6.6212,-0.035 -8.63634,-0.308 -17.80414,-2.4153 -14.9914,-3.4462 -22.3795,-4.3476 -32.4493,-3.9602 -24.2553,0.9336 -51.8196,10.1186 -82.7027,27.5581 -8.7055,4.9159 -10.9307,6.3488 -19.9529,12.8469 -7.0047,5.0451 -11.635,7.9738 -11.635,7.3592 z m 438.97475,-39.8903 c -2.4172,-0.5758 -6.4254,-2.9768 -8.3423,-4.9975 -0.8507,-0.8969 -2.2393,-3.1442 -3.0854,-4.9945 -1.3547,-2.9619 -1.5071,-3.8881 -1.2764,-7.7532 0.417,-6.9764 3.6003,-11.9325 9.5375,-14.8481 2.7455,-1.3482 3.9919,-1.6024 7.8577,-1.6024 5.3409,0 8.4992,1.244 12.0535,4.7477 5.1953,5.1215 6.7688,13.8745 3.5973,20.0102 -3.8997,7.5441 -12.1741,11.3832 -20.3419,9.4378 z m -192.36791,-5.78 c -3.8241,-0.6888 -10.7418,-3.373 -13.988,-5.4276 -10.2485,-6.4864 -17.0168,-18.2669 -17.6624,-30.7415 -0.8223,-15.8909 9.6322,-30.8575 25.7338,-36.8403 6.1109,-2.2708 14.46,-2.8293 21.20191,-1.4186 6.3883,1.3367 14.0308,5.3301 18.5293,9.6819 6.5324,6.3193 9.8542,12.5548 11.7045,21.972 0.8057,4.1007 0.8546,5.6177 0.3063,9.4956 -2.6982,19.0783 -18.006,32.9273 -37.14491,33.6043 -3.1587,0.1129 -7.0649,-0.035 -8.6805,-0.3258 z"
         id="path17" /><path
         style="fill:#ffffff;fill-opacity:1;stroke-width:7.91769"
         d="m 1309.0567,1925.4384 c -0.4109,-0.4107 -0.6082,-1.0528 -0.4494,-1.4616 0.1563,-0.401 2.9821,-8.4191 6.2808,-17.8182 23.6862,-67.4914 29.8912,-101.025 29.9154,-161.6734 0,-8.7808 0.2126,-17.2804 0.465,-18.8881 2.0567,-13.1062 16.0133,-20.1218 28.1686,-14.1597 5.3936,2.6453 8.913,7.4723 10.273,14.0888 4.641,22.583 3.1676,50.3661 -4.0564,76.4818 -10.8687,39.2919 -31.8512,78.6448 -61.4066,115.1687 -7.8631,9.717 -7.7958,9.6565 -9.1904,8.2617 z m 210.4989,-0.2793 c -0.3621,-0.5565 -3.2744,-6.8806 -6.4719,-14.0536 -15.4314,-34.617 -28.081,-59.7878 -40.2288,-80.0497 -14.0461,-23.4282 -26.458,-39.6881 -43.7208,-57.2756 -9.4566,-9.6342 -14.328,-13.9912 -26.3177,-23.538 -4.8231,-3.8407 -9.2378,-7.6274 -9.8104,-8.4149 -0.5725,-0.7876 -1.6212,-2.659 -2.3305,-4.1587 -6.3331,-13.3917 5.9764,-29.3932 20.7009,-26.9098 5.8747,0.991 19.0124,8.5697 29.6661,17.1137 5.7379,4.6015 15.1186,13.8874 20.1899,19.9855 15.8796,19.0948 29.903,45.3893 40.0541,75.1029 9.8454,28.8184 16.4862,59.3432 20.3021,93.3182 0.9439,8.4034 0.949,8.7094 0.1547,9.2907 -1.1215,0.8201 -1.4235,0.7635 -2.1869,-0.4107 z m -1.2627,-125.5879 c -1.5459,-0.8668 -2.1476,-1.984 -2.1476,-3.988 0,-1.233 0.9197,-2.9859 4.2032,-8.0121 19.3729,-29.6542 33.5277,-60.1756 43.237,-93.2295 5.7255,-19.4914 10.0151,-41.0763 12.1098,-60.9367 1.4675,-13.9145 2.5195,-35.5277 1.7291,-35.5277 -0.251,0 -4.6807,0.7015 -9.8434,1.5587 -26.3457,4.3747 -53.9532,7.7726 -89.6616,11.0352 -22.2396,2.032 -31.54,2.4573 -40.6863,1.8604 -12.0422,-0.7858 -20.2345,-2.4784 -24.2139,-5.0026 l -2.1648,-1.3731 -10.4274,1.5658 c -12.1904,1.8306 -23.0132,3.2147 -42.5823,5.4457 -24.1239,2.7505 -37.7594,2.6152 -49.7227,-0.493 -6.9869,-1.8153 -10.4851,-3.9359 -13.0241,-7.8947 -3.1734,-4.9483 -3.1797,-12.4408 -0.017,-17.4546 1.395,-2.2097 4.4764,-4.9192 6.7166,-5.9055 4.9215,-2.1673 17.3859,-3.2003 31.5352,-2.6134 10.9065,0.4525 39.5313,3.5171 64.6873,6.9257 l 11.6205,1.5746 1.6256,-1.4272 c 4.5066,-3.957 9.2235,-4.6756 30.4486,-4.6396 12.5242,0.022 17.9453,0.2298 26.5333,1.0212 48.9314,4.5089 66.2163,6.4049 95.6844,10.4963 7.3621,1.0222 13.5167,1.7278 13.6764,1.568 0.4059,-0.4059 -0.5969,-21.9142 -1.4396,-30.8761 -1.995,-21.2167 -6.2417,-43.5302 -12.1539,-63.8598 -1.4028,-4.8233 -2.6527,-9.2249 -2.7778,-9.7814 -0.2249,-0.9994 -0.17,-1.0118 4.4755,-1.0118 h 4.7031 l 1.4035,4.6094 c 6.2808,20.6273 11.0782,45.0355 13.3253,67.795 2.39,24.2081 2.0493,54.3032 -0.8859,78.2509 -5.6863,46.393 -20.1218,90.643 -42.8391,131.3175 -5.9612,10.6734 -16.4942,27.2779 -18.2031,28.6962 -1.104,0.9161 -3.566,1.0693 -4.9263,0.3062 z m -123.7962,-222.2126 c -4.8737,-0.9599 -6.2028,-1.316 -8.5445,-2.2894 -9.2848,-3.8592 -16.8483,-12.6677 -19.4175,-22.6134 -1.1359,-4.3968 -1.0234,-11.8744 0.2465,-16.3945 3.225,-11.4785 12.4238,-20.5188 23.893,-23.4815 3.9603,-1.023 11.8628,-1.0302 15.74,-0.017 11.715,3.0693 21.1286,12.3882 24.1009,23.8582 2.274,8.7762 0.6532,18.5278 -4.3579,26.2194 -2.2124,3.3957 -7.3936,8.371 -10.8504,10.4191 -5.7756,3.4222 -15.2823,5.3849 -20.8101,4.2964 z"
         id="path34" /><path
         style="fill:#ffffff;fill-opacity:1;stroke-width:7.91769"
         d="m 141.5413,538.35508 c -7.8394,-0.4083 -12.0842,-1.0209 -18.9311,-2.7322 -20.2644,-5.0649 -38.35312,-14.0323 -41.81682,-20.7305 -1.71,-3.3069 -2.5475,-14.2243 -2.5528,-33.28466 0,-7.6343 -0.139,-19.715 -0.3031,-26.846 l -0.299,-12.9655 -5.033,-3.5551 c -17.96476,-12.6889 -25.00712,-19.1054 -31.95893,-29.1184 -2.81695,-4.0576 -6.27827,-10.7486 -7.91177,-15.2948 -2.95639,-8.2272 -4.37532,-20.2079 -3.54468,-29.9286 1.14451,-13.3933 4.3038,-20.412 13.18531,-29.29347 7.98844,-7.9885 17.15964,-12.7873 29.64927,-15.514 4.0311,-0.88 5.961,-1.0093 15.0608,-1.0093 9.15802,0 11.02142,0.1265 15.20222,1.0321 9.9692,2.1595 16.5017,4.8824 27.8263,11.5986 3.1994,1.8975 5.9894,3.4499 6.2002,3.4499 0.4396,0 14.9836,-15.4376 14.9836,-15.9043 0,-0.1692 -1.7868,-0.4481 -3.9707,-0.6198 -2.1839,-0.1717 -4.7364,-0.4301 -5.6723,-0.5742 l -1.7018,-0.262 v -32.6154 -32.6154 h 33.8078 33.808 v 32.6734 32.6734 h -5.9373 c -3.2654,0 -5.869,0.1764 -5.7858,0.392 0.084,0.2156 3.7546,4.1062 8.1587,8.6458 l 8.0073,8.2539 4.9259,-3.2489 c 7.5981,-5.0114 13.0088,-7.4987 21.0727,-9.687 19.7182,-5.3509 40.1503,-4.2158 53.511,2.9727 9.3126,5.0104 18.2989,14.2772 23.0375,23.75667 4.7977,9.598 6.5214,23.9794 4.2117,35.1391 -2.8503,13.7701 -10.1878,25.6557 -24.5819,39.8183 -8.7944,8.6529 -13.6047,12.4923 -21.8273,17.422 l -2.5965,1.5566 -0.024,29.7238 c -0.024,31.65416 -0.3501,39.67586 -1.7359,42.79776 -2.4513,5.5216 -14.6595,12.3927 -31.8478,17.9246 -13.3781,4.3057 -18.9221,5.3741 -31.085,5.9904 -9.7739,0.4952 -53.896,0.4803 -63.5317,-0.021 z m 114.5808,-45.4763 c 0,-3.0374 -2.335,-5.1734 -9.3306,-8.55806 -12.3564,-5.9785 -33.277,-10.8411 -56.6939,-13.1775 -8.7401,-0.872 -28.9242,-0.7589 -36.7576,0.2059 -11.4161,1.4061 -20.2108,3.0195 -30.2796,5.5547 -18.4108,4.6356 -31.21002,10.86106 -31.21002,15.18036 0,0.7601 0.2507,1.384 0.5673,1.4121 1.59772,0.1415 3.16842,-0.3008 6.90472,-1.9441 21.3389,-9.38576 29.5963,-11.24516 54.0259,-12.16566 25.3684,-0.9558 54.066,-0.3429 62.275,1.33 7.6425,1.5574 30.1921,9.29536 36.213,12.42646 1.2357,0.6426 2.7063,1.1779 3.2678,1.1895 0.8543,0.018 1.0205,-0.2196 1.018,-1.4537 z M 95.3522,427.59182 c 21.1662,-9.7553 32.5256,-13.125 54.8582,-16.2734 11.5887,-1.6337 12.6099,-1.8606 12.7993,-2.8436 0.268,-1.3908 -7.8309,-21.7488 -12.7735,-32.1085 -4.5174,-9.4681 -10.2923,-17.26 -19.0364,-25.6849 -13.1272,-12.64807 -24.0087,-17.73227 -41.25722,-19.27677 -20.42302,-1.8288 -36.29921,5.9761 -43.91907,21.59107 -2.82054,5.78 -3.69801,9.5041 -3.9666,16.835 -0.32262,8.8049 0.97643,15.0575 4.66038,22.4334 3.68995,7.3878 16.67168,22.2568 26.98119,30.9039 3.4095,2.8597 11.446,8.5235 12.1238,8.5445 0.3036,0.01 4.592,-1.8449 9.52992,-4.1207 z m -16.25052,-5.9087 c -4.1897,-2.9069 -17.8292,-16.5526 -21.70902,-21.7193 -5.82221,-7.7533 -6.80876,-11.3199 -7.15813,-25.8799 -0.45743,-19.0631 0.98157,-23.4799 9.58763,-29.4294 6.0752,-4.1997 9.39537,-5.1827 20.15462,-5.96707 12.1512,-0.8859 24.36992,0.69677 30.60792,3.96467 10.6219,5.5646 23.3655,18.7653 32.0819,33.2329 3.4759,5.7692 9.1893,17.8392 10.2477,21.6487 0.8803,3.1676 0.6566,4.7363 -0.8961,6.2891 -1.3581,1.358 -2.8718,1.7716 -12.519,3.4213 -12.2065,2.0872 -21.9612,4.9372 -33.9867,9.9301 -10.3293,4.2884 -18.31742,6.8408 -21.40982,6.8408 -1.2349,0 -2.4694,-0.5756 -5.001,-2.3319 z m 186.04472,7.086 c 4.6218,-2.1515 15.725,-10.8227 22.0739,-17.2389 8.9414,-9.0362 14.7171,-18.6325 17.5234,-29.1147 1.3339,-4.9826 1.6731,-15.2812 0.677,-20.5535 -1.361,-7.2026 -6.4963,-15.4502 -12.9795,-20.8456 -5.712,-4.75347 -11.7561,-7.53367 -20.4332,-9.39887 -5.3179,-1.1431 -16.4717,-1.1716 -21.6423,-0.055 -12.0778,2.6077 -22.604,8.40587 -32.2952,17.78937 -9.6069,9.3019 -14.9729,16.9493 -22.2989,31.7795 -6.2529,12.6577 -10.0753,22.1981 -10.1542,25.3446 -0.053,2.0956 0.057,2.3597 1.2046,2.9195 0.6943,0.3385 4.4722,1.0217 8.3953,1.5182 21.4119,2.7098 39.5619,7.8419 54.7815,15.49 7.5712,3.8046 10.9298,4.3291 15.1476,2.3657 z m -10.1558,-6.7306 c -2.4959,-0.8588 -8.3889,-3.1187 -13.0958,-5.0222 -13.3886,-5.4142 -21.8396,-7.8312 -38.7589,-11.0849 -3.8109,-0.7329 -7.2566,-1.6045 -7.6573,-1.937 -2.2924,-1.9026 2.6167,-16.2729 9.8732,-28.9015 11.4603,-19.944 27.2893,-32.8666 44.647,-36.44927 3.8826,-0.8013 5.6523,-0.9052 12.2526,-0.7189 7.3541,0.2076 12.0998,0.8949 18.1519,2.62887 8.0159,2.2966 14.4348,9.1972 17.4829,18.7953 1.4111,4.4431 1.758,14.2568 0.7024,19.8706 -2.1144,11.2461 -7.517,21.2452 -16.7648,31.0286 -6.9644,7.3677 -15.0663,12.7056 -19.9469,13.1418 -1.8641,0.1666 -3.2842,-0.1121 -6.8863,-1.3514 z m -78.1044,-34.2185 c 5.9774,-12.7932 15.9997,-32.1388 19.7519,-38.127 l 3.7757,-6.0255 -1.2871,-1.916 c -1.8981,-2.82537 -10.0102,-10.83827 -12.8863,-12.72867 -4.2453,-2.7904 -7.2288,-3.6383 -12.9334,-3.6759 -4.7005,-0.031 -5.1638,0.05 -7.9414,1.392 -5.2041,2.5138 -14.7653,11.125 -17.0379,15.34487 l -0.7989,1.4833 1.8589,3.8067 c 1.0222,2.0937 4.0249,7.4825 6.6724,11.9751 5.7015,9.6747 11.8902,21.8844 15.0059,29.6048 1.2325,3.0545 2.3432,5.554 2.4679,5.5544 0.1252,4e-4 1.6334,-3.0092 3.3523,-6.6881 z m -5.7646,-17.0127 c -3.7217,-5.2662 -10.0783,-16.0745 -12.8267,-21.8095 -2.1424,-4.4702 -2.0854,-6.217 0.3197,-9.81867 3.5682,-5.3433 8.5543,-7.9657 15.1462,-7.9657 3.3281,0 3.9517,0.1559 7.4877,1.8723 5.3997,2.621 7.6124,4.3615 8.716,6.85607 1.7727,4.0078 0.604,7.3212 -8.0452,22.8106 -4.3002,7.7011 -6.6256,10.8911 -7.9389,10.8911 -0.5317,0 -1.6116,-1.0713 -2.8588,-2.8362 z m -12.2742,-68.84007 c 1.4635,-0.9853 5.3773,-4.0484 8.6973,-6.8069 3.3198,-2.7586 6.1945,-5.0155 6.3882,-5.0155 0.1936,0 3.0931,2.2761 6.4432,5.0579 7.0354,5.8421 11.0049,8.556 12.5146,8.556 1.2575,0 1.3189,-0.451 0.327,-2.405 -1.1783,-2.3213 -3.5784,-5.1377 -9.6488,-11.3224 l -5.679,-5.7859 5.679,-5.7859 c 7.3063,-7.444 10.386,-11.3732 10.386,-13.2511 0,-1.8846 -5.2622,1.1251 -12.6594,7.2405 -7.3721,6.0947 -9.026,5.9759 -16.4515,-1.1819 -5.2236,-5.0353 -8.533,-7.4425 -10.2315,-7.4425 -1.2514,0 -1.3395,0.8318 -0.3027,2.8588 1.1872,2.3209 3.1725,4.6825 9.3482,11.1199 3.1855,3.3205 5.7918,6.2175 5.7918,6.4378 0,0.2203 -2.8082,3.3235 -6.2403,6.896 -6.2932,6.5506 -9.1889,10.2664 -9.1889,11.7919 0,1.3746 1.9265,0.9908 4.8268,-0.9617 z"
         id="path53"
         inkscape:export-filename="LOGO SPORTS\chess.svg"
         inkscape:export-xdpi="414.18015"
         inkscape:export-ydpi="414.18015" /></g></g></svg>
