<?xml version="1.0" encoding="UTF-8" standalone="no"?>
<!-- Created with Inkscape (http://www.inkscape.org/) -->

<svg
   width="44.069469mm"
   height="36.224483mm"
   viewBox="0 0 44.069469 36.224484"
   version="1.1"
   id="svg1"
   inkscape:version="1.3.1 (91b66b0783, 2023-11-16)"
   sodipodi:docname="SPORTS.svg"
   xml:space="preserve"
   xmlns:inkscape="http://www.inkscape.org/namespaces/inkscape"
   xmlns:sodipodi="http://sodipodi.sourceforge.net/DTD/sodipodi-0.dtd"
   xmlns="http://www.w3.org/2000/svg"
   xmlns:svg="http://www.w3.org/2000/svg"><sodipodi:namedview
     id="namedview1"
     pagecolor="#505050"
     bordercolor="#eeeeee"
     borderopacity="1"
     inkscape:showpageshadow="0"
     inkscape:pageopacity="0"
     inkscape:pagecheckerboard="0"
     inkscape:deskcolor="#505050"
     inkscape:document-units="mm"
     inkscape:zoom="1.658614"
     inkscape:cx="536.5926"
     inkscape:cy="-46.122847"
     inkscape:window-width="2880"
     inkscape:window-height="1676"
     inkscape:window-x="-12"
     inkscape:window-y="-12"
     inkscape:window-maximized="1"
     inkscape:current-layer="g58" /><defs
     id="defs1" /><g
     inkscape:label="Layer 1"
     inkscape:groupmode="layer"
     id="layer1"
     transform="translate(291.03641,517.55464)"><g
       id="g58"
       transform="matrix(0.12629954,0,0,0.12629954,-618.01398,-549.32808)"
       style="fill:#ffffff;fill-opacity:1;stroke-width:7.91769"
       inkscape:export-filename="..\ASSETSCHARTE\SPORTS.svg"
       inkscape:export-xdpi="414.18015"
       inkscape:export-ydpi="414.18015"><path
         style="fill:#ffffff;fill-opacity:1;stroke-width:7.91764"
         d="m 319.83189,538.38066 c 0.31086,-0.99845 1.72698,-4.005 2.99499,-6.35865 1.74826,-3.24485 4.07764,-7.1394 8.36202,-13.98053 5.84066,-9.32615 7.97425,-12.74388 9.17093,-14.69073 2.37657,-3.86638 15.88604,-25.18373 21.43286,-33.82017 10.97403,-17.08665 17.03238,-26.01485 25.71715,-37.89923 7.87996,-10.78306 11.15888,-14.48551 16.04447,-18.1169 3.07518,-2.28567 6.10633,-3.8351 9.5827,-4.89854 1.38145,-0.4226 1.74765,-0.46316 4.12681,-0.45782 2.8476,0.0107 4.27259,0.2749 6.13325,1.15511 3.84675,1.81985 5.53547,7.42626 3.96982,13.17972 -0.47837,1.75785 -1.3655,3.9335 -2.93634,7.2014 -3.56728,7.42103 -9.80355,16.24764 -18.50593,26.19253 -3.89881,4.45546 -10.1163,10.79459 -23.10695,23.55896 -28.53096,28.03395 -29.04333,28.5241 -38.40449,36.73761 -9.26403,8.12835 -12.43984,11.12957 -16.69675,15.77872 -3.952,4.3163 -5.44343,5.73094 -6.68026,6.33656 -1.15719,0.56657 -1.35943,0.58044 -1.20428,0.0822 z m 30.64516,-87.12289 c -1.58036,-0.34854 -2.78175,-0.86729 -3.81016,-1.64516 -1.95424,-1.47825 -2.68829,-2.87465 -2.80632,-5.33854 -0.1306,-2.72599 0.66239,-5.64781 2.76454,-10.18597 1.98144,-4.27756 4.28787,-7.83862 10.01765,-15.46668 8.69958,-11.58194 13.5945,-17.14107 19.85839,-22.55314 5.22941,-4.51821 9.91504,-6.81104 14.3304,-7.01209 2.12394,-0.0971 2.85341,0.079 5.72388,1.38242 2.93055,1.33034 3.73344,1.89765 4.28721,3.0296 1.14302,2.33626 0.52575,6.8328 -1.61582,11.77051 -2.05697,4.74253 -8.47125,13.80306 -15.10696,21.33945 -5.64652,6.41287 -17.94015,18.45978 -22.0204,21.5785 -2.08575,1.59414 -4.10094,2.58267 -6.2722,3.07645 -1.43549,0.32655 -3.92913,0.33797 -5.35021,0.0245 z m 97.9062,-35.39884 c -0.25478,-0.0459 -0.46322,-0.15901 -0.46322,-0.25153 0,-0.24439 2.11262,-1.17848 4.63212,-2.04823 1.20435,-0.41577 2.60662,-0.92087 3.11616,-1.12246 2.31096,-0.91457 12.50458,-6.46003 19.45491,-10.58381 7.48843,-4.44297 12.09332,-7.65602 15.03882,-10.49321 l 1.2267,-1.18147 -0.34796,-0.48866 c -0.38088,-0.53498 -2.62672,-2.62696 -4.90739,-4.57125 -1.3382,-1.14081 -2.60192,-2.07896 -9.83108,-7.29852 -5.62949,-4.06455 -7.96665,-6.1751 -10.90926,-9.8513 -2.0485,-2.5593 -2.86725,-3.8905 -3.37151,-5.48208 -0.48384,-1.52702 -0.51412,-3.74749 -0.0636,-4.66057 0.60739,-1.23088 2.89985,-3.10569 4.4385,-3.62999 1.08616,-0.3701 4.84574,-0.21909 6.73532,0.27053 8.14226,2.1098 24.23737,14.64132 31.82685,24.77991 2.19171,2.9279 3.60037,5.54077 4.26801,7.91673 1.52087,5.41218 -1.77884,12.23111 -8.08703,16.71196 -4.97833,3.53619 -14.45438,7.05371 -24.58465,9.12584 -3.60486,0.73731 -12.62323,2.31204 -14.65435,2.55866 -1.90693,0.23169 -12.58027,0.46806 -13.51738,0.29945 z m -46.27911,-77.22965 c -4.36979,-0.44725 -8.20366,-1.80534 -12.53496,-4.44041 -2.34717,-1.42798 -3.59538,-2.37105 -5.96889,-4.50966 -1.81289,-1.63342 -4.42558,-4.42387 -5.87166,-6.27105 -6.48522,-8.28405 -10.28133,-19.49312 -9.49965,-28.05027 0.84045,-9.20043 6.73489,-18.03387 16.85219,-25.25459 6.39254,-4.56238 12.4395,-7.44781 19.56186,-9.33404 4.09443,-1.08436 13.76874,-2.72589 14.09233,-2.39112 0.28287,0.29262 -2.73045,2.74969 -6.74953,5.50342 -12.55152,8.60016 -15.80708,11.09329 -20.08211,15.37906 -2.79251,2.79953 -4.2576,4.5974 -5.68644,6.97816 -3.23691,5.39339 -3.8574,11.94414 -1.61769,17.07843 0.751,1.72167 1.38644,2.61372 3.11369,4.37147 2.30629,2.34703 4.37621,3.79188 9.00075,6.28246 9.1624,4.93461 11.76548,6.70484 14.06449,9.56487 1.97312,2.45461 3.45628,6.04854 3.45136,8.36324 -0.003,1.35328 -0.39824,2.64948 -1.12969,3.70395 -1.79347,2.58545 -5.45508,3.59307 -10.99605,3.02608 z m 50.11113,-3.94833 c -2.44106,-0.34118 -3.26708,-0.51577 -4.85377,-1.02588 -2.5077,-0.80603 -3.74879,-1.39063 -5.55679,-2.61714 -1.95015,-1.32297 -4.83278,-4.18556 -5.98687,-5.94534 -3.1171,-4.75287 -4.23939,-9.51215 -3.55607,-15.07982 0.65264,-5.31773 4.56801,-11.38238 9.46175,-14.65573 2.79589,-1.87022 5.17701,-2.86323 8.47386,-3.53416 1.61305,-0.32827 2.14462,-0.36199 4.15864,-0.26402 4.21867,0.20532 6.84826,0.83293 9.85155,2.35152 4.71039,2.38161 8.65983,6.67657 10.55173,11.47469 2.73003,6.92373 1.95394,13.42634 -2.38223,19.96023 -2.9382,4.42728 -8.3754,7.95665 -13.88223,9.01101 -1.36718,0.26178 -5.2816,0.46412 -6.27957,0.32464 z m -19.62336,-52.56681 c -3.78527,-0.4211 -6.44071,-1.7507 -9.34845,-4.68084 -1.66366,-1.67653 -2.31341,-2.66047 -3.21188,-4.86429 -0.80659,-1.97844 -1.07807,-3.3902 -1.07456,-5.58848 0.004,-2.25963 0.29193,-3.959 0.96552,-5.6906 1.68662,-4.33561 5.03438,-7.45315 9.83962,-9.16298 1.60159,-0.56987 5.14041,-0.73208 7.40844,-0.33957 2.86278,0.49549 5.41037,1.86681 7.72847,4.16027 2.31364,2.28909 3.69776,4.74146 4.31265,7.6413 0.36876,1.73917 0.2241,5.8082 -0.26625,7.48911 -1.63449,5.6032 -5.96178,9.64833 -11.45558,10.70857 -1.36576,0.26359 -3.9307,0.43509 -4.89798,0.32751 z m 3.85848,-6.21298 c 1.61821,-0.38141 2.98145,-1.17614 4.31091,-2.5132 2.00426,-2.01568 2.8959,-4.32697 2.73172,-7.08124 -0.1768,-2.96589 -1.48784,-5.33684 -3.91432,-7.07889 -1.32669,-0.95246 -2.44104,-1.37666 -4.24729,-1.61699 -1.8507,-0.24619 -3.57835,0.0587 -5.38882,0.9516 -3.58718,1.76885 -5.69118,6.10307 -4.86326,10.01832 1.11815,5.28754 6.17744,8.54466 11.37106,7.3204 z"
         id="path1"
         inkscape:export-filename="hand.svg"
         inkscape:export-xdpi="414.18015"
         inkscape:export-ydpi="414.18015" /><path
         style="fill:#ffffff;fill-opacity:1;stroke-width:7.91766"
         d="m 230.72913,2551.7695 c -0.067,-0.067 -0.12172,-0.6249 -0.12172,-1.2399 0,-1.0876 0.0396,-1.1714 1.44416,-3.0587 0.79428,-1.0672 3.92038,-5.0249 6.94687,-8.7948 23.33931,-29.0725 30.99004,-39.0065 71.85136,-93.2954 14.64563,-19.4584 18.06445,-24.3078 17.63292,-25.0116 -0.10929,-0.1783 -1.29233,-1.11 -2.62899,-2.0706 -6.98021,-5.0163 -10.02174,-8.2337 -12.29106,-13.0017 -1.60723,-3.377 -1.74503,-4.0425 -1.72797,-8.3445 0.0132,-3.3374 0.0627,-3.8662 0.52192,-5.5769 0.62583,-2.3314 1.70072,-4.4302 2.85853,-5.5814 1.10165,-1.0953 3.39329,-2.3058 6.02384,-3.1822 2.98698,-0.9949 4.22627,-1.1556 7.9347,-1.0284 3.53226,0.1212 5.49104,0.461 9.2849,1.6109 2.94737,0.8934 4.41031,1.5081 10.08131,4.2353 l 4.68903,2.255 1.32099,-0.8102 c 4.31491,-2.6465 8.94446,-4.213 13.46017,-4.5546 3.06793,-0.2321 6.87881,0.8256 9.42978,2.617 2.79607,1.9636 5.61573,5.6735 7.3758,9.7046 0.59849,1.3707 0.6443,1.6245 0.6465,3.5818 0.003,2.7691 -0.2898,3.8358 -2.07423,7.5544 -1.12073,2.3354 -1.42894,3.1509 -1.2976,3.4333 0.0947,0.2038 1.22879,1.4889 2.5201,2.8558 11.07944,11.7281 17.79007,22.5977 19.80476,32.079 0.49979,2.352 0.50567,9.2459 0.01,11.7404 -0.75953,3.8223 -1.8991,7.1052 -3.7723,10.8671 -2.63929,5.3005 -5.00452,8.0378 -13.15079,15.2198 -13.27891,11.707 -18.75884,15.7539 -27.94667,20.6386 -11.59271,6.1632 -23.95145,10.6054 -33.56925,12.066 -0.42693,0.065 -1.03275,0.1691 -1.34627,0.2317 -0.56186,0.1122 -0.55628,0.099 0.38811,-0.9526 1.22929,-1.3681 3.74484,-3.57 7.1517,-6.26 10.20334,-8.0561 10.18238,-8.0382 15.32235,-13.0918 6.88245,-6.7668 9.75808,-10.0658 15.73528,-18.0518 4.73199,-6.3223 6.38291,-8.9217 8.54541,-13.4546 2.12574,-4.4558 3.14857,-7.7396 3.33759,-10.7152 0.13532,-2.1303 -0.0799,-2.7198 -1.84707,-5.0597 -1.9312,-2.557 -7.57255,-7.7352 -12.38197,-11.3656 -0.14568,-0.1099 -1.96642,1.8972 -5.43358,5.9897 -2.86797,3.3853 -6.65394,7.7754 -8.41327,9.7557 -3.90493,4.3953 -12.16203,12.7027 -16.49795,16.5983 -5.92398,5.3224 -16.18452,13.9126 -28.5149,23.8729 -3.7171,3.0027 -8.25196,6.6917 -22.42495,18.2424 -15.17023,12.3634 -16.57061,13.5035 -18.82349,15.3248 -1.17404,0.949 -2.78955,2.2607 -3.59004,2.9147 -10.27626,8.3957 -22.1919,18.0168 -25.25118,20.3887 -0.60012,0.4653 -1.14591,0.7912 -1.21285,0.7243 z m 66.92482,-183.8317 c -5.60755,-0.4322 -11.41514,-3.0487 -20.56999,-9.2677 -5.66645,-3.8493 -10.01395,-7.8338 -12.46088,-11.4204 -4.21239,-6.1743 -6.57358,-15.1243 -6.18833,-23.4567 0.49736,-10.7573 4.40903,-20.8284 11.33208,-29.1759 6.46638,-7.7968 14.83827,-12.7338 29.92471,-17.6472 6.32498,-2.0599 10.14701,-2.589 16.05701,-2.2229 4.19641,0.2599 6.23061,0.6983 9.60974,2.071 4.31452,1.7527 6.68896,3.5895 8.28528,6.4094 2.59828,4.5899 3.14357,8.4502 1.65417,11.7104 -0.59225,1.2964 -2.49909,3.3033 -4.26606,4.4898 -3.91357,2.6278 -5.878,3.3747 -17.36806,6.6036 -17.02631,4.7848 -22.59178,7.4296 -26.35044,12.5222 -2.18862,2.9654 -3.2892,6.4652 -3.47846,11.0613 -0.2197,5.3353 1.11683,10.7955 3.54756,14.493 1.16805,1.7769 5.4657,6.0845 7.61412,7.6318 3.60606,2.5972 8.01645,4.7367 11.4214,5.5406 2.31458,0.5464 7.52625,0.8301 12.4741,0.6789 4.42323,-0.135 5.3015,-0.2783 10.17085,-1.6583 4.83779,-1.3712 7.08162,-1.9148 8.17873,-1.9817 l 0.97029,-0.059 -0.0367,0.8239 c -0.19412,4.3635 -9.06747,9.9572 -18.68981,11.7821 -5.18753,0.9837 -6.524,1.1023 -13.19585,1.1703 -3.57549,0.037 -7.46147,-0.01 -8.63551,-0.098 z m 16.68886,-16.525 c -3.33243,-0.3789 -9.75755,-3.0415 -14.58807,-6.0452 -1.93021,-1.2002 -6.584,-4.6294 -8.06803,-5.9451 -0.59379,-0.5264 -0.92176,-0.9754 -0.92176,-1.2619 0,-0.5554 1.49809,-4.9532 2.62437,-7.704 1.84706,-4.5114 3.96619,-8.0304 6.23459,-10.3532 4.50874,-4.6167 11.39764,-8.2162 18.90606,-9.8784 3.00707,-0.6657 5.25391,-0.8818 9.20854,-0.8859 8.45627,-0.01 14.86199,1.7439 21.01988,5.7507 1.91097,1.2434 9.33308,6.7704 9.68377,7.2111 0.36473,0.4584 0.29413,1.4901 -0.23787,3.4758 -2.14896,8.0211 -6.74629,14.7496 -13.24791,19.3891 -3.52443,2.515 -11.44875,5.6488 -15.86527,6.2742 -1.66646,0.2361 -12.61124,0.2158 -14.7483,-0.027 z m 13.45325,-6.766 c 1.96996,-0.247 5.51747,-1.2556 8.00975,-2.2773 4.97924,-2.0412 9.14008,-5.4145 11.94589,-9.685 1.21069,-1.8426 3.36259,-6.1793 3.36392,-6.7792 0.001,-0.6493 -0.62802,-1.2916 -2.86241,-2.9212 -5.62674,-4.1037 -9.65638,-5.8338 -15.27291,-6.5574 -8.93109,-1.1506 -17.81178,0.7592 -24.65324,5.3015 -3.5018,2.325 -5.43646,4.5383 -7.3502,8.4089 -1.17903,2.3846 -2.51727,5.9062 -2.34832,6.1795 0.0579,0.094 1.56491,1.1444 3.34876,2.3347 4.3501,2.9027 8.08257,4.6857 11.9513,5.7093 1.66002,0.4393 2.10572,0.4697 7.01722,0.4783 2.88454,0.01 5.96715,-0.081 6.85024,-0.1921 z m 91.59404,-28.127 c -6.04345,-0.402 -10.42948,-1.6584 -14.13179,-4.0482 -2.66222,-1.7184 -4.48229,-3.8278 -5.55209,-6.4348 -1.06226,-2.5886 -0.81862,-6.3197 0.6069,-9.2943 1.71238,-3.5731 4.0361,-5.8796 7.56695,-7.511 1.83159,-0.8463 3.58773,-1.0451 9.21568,-1.0434 18.79288,0.01 35.91691,1.3339 58.79914,4.5609 9.2474,1.3042 10.08769,1.4333 31.34013,4.8173 5.01636,0.7987 10.99816,1.7248 13.29287,2.0578 2.29472,0.3331 6.22436,0.9051 8.73254,1.2711 2.50819,0.366 8.83928,1.2846 14.0691,2.0414 9.89037,1.4313 15.99294,2.3963 17.19992,2.7199 1.69054,0.4532 1.29542,1.5444 -0.81672,2.2554 -2.34621,0.7898 -8.86826,1.7181 -21.52569,3.0636 -11.50975,1.2235 -21.7106,2.0243 -37.0648,2.9096 -4.64092,0.2676 -8.44341,0.4713 -20.13337,1.0784 -2.05457,0.1067 -5.37294,0.2793 -7.37415,0.3836 -12.42287,0.6475 -15.7005,0.799 -21.10365,0.9758 -8.19635,0.2681 -30.09315,0.3982 -33.12097,0.1969 z m -39.45618,-31.068 c -1.25444,-0.2116 -4.47666,-1.153 -6.20743,-1.8135 -8.64368,-3.2987 -15.31581,-11.281 -17.77409,-21.2642 -0.40113,-1.629 -0.45487,-2.3178 -0.46178,-5.9188 -0.006,-3.1862 0.0668,-4.4205 0.33412,-5.6585 1.55294,-7.1909 5.73399,-13.5376 12.07768,-18.3331 4.58498,-3.4661 10.48144,-5.4126 16.3707,-5.4041 5.20749,0.01 8.67401,0.7618 13.00655,2.8303 5.36857,2.5632 8.74769,5.413 11.71114,9.8766 2.14688,3.2336 3.74907,6.9118 4.75674,10.9199 0.47301,1.8815 0.52391,2.4273 0.52888,5.6719 0.006,3.9475 -0.20561,5.3648 -1.28482,8.6037 -2.68966,8.072 -8.15833,14.5016 -15.20448,17.8763 -2.34399,1.1225 -5.44408,2.1595 -7.54511,2.5237 -1.88601,0.3271 -8.55744,0.3852 -10.3081,0.09 z"
         id="path58" /><path
         style="fill:#ffffff;fill-opacity:1;stroke-width:7.91766"
         d="m 1697.4305,537.9223 c 0.2522,-1.06471 2.9385,-10.43463 5.0406,-17.58119 4.6578,-15.83599 5.3068,-18.05566 6.3846,-21.84065 1.3127,-4.6101 3.6604,-13.46877 4.8488,-18.29679 1.1377,-4.62189 3.9528,-15.33201 5.318,-20.2327 3.3898,-12.16904 5.7809,-19.36028 9.1803,-27.61151 6.1621,-14.9567 9.8862,-20.28177 15.4547,-22.09797 2.3864,-0.77845 5.9734,-0.71917 7.6358,0.12614 2.3534,1.19665 4.6959,4.4278 5.5,7.58624 0.5098,2.00244 0.079,8.95305 -0.8796,14.16613 -1.8146,9.8757 -6.0476,20.03064 -15.7118,37.69202 -2.4794,4.53112 -3.0523,5.50685 -10.545,17.96068 -15.819,26.293 -17.6176,29.22802 -22.2191,36.25857 -4.0693,6.21743 -9.753,14.3348 -10.0372,14.3348 -0.044,0 -0.031,-0.20875 0.03,-0.46377 z m 68.896,-61.838 c 0.2951,-1.10295 2.6632,-6.90734 6.3189,-15.48733 6.459,-15.16005 7.8718,-18.92368 9.4474,-25.16844 1.3753,-5.45134 4.0964,-21.40327 3.7158,-21.78387 -0.06,-0.0605 -1.3052,1.10111 -2.7668,2.58076 -3.6474,3.69263 -5.1336,4.75059 -7.2174,5.1378 -2.6187,0.48665 -5.8146,-0.72479 -7.7518,-2.93814 -0.8055,-0.92053 -1.8468,-2.77797 -2.4273,-4.33003 -1.7438,-4.66231 -1.5367,-10.22543 0.5962,-16.01306 1.9754,-5.36058 5.5227,-10.82841 10.0014,-15.41627 4.9979,-5.11976 9.7018,-8.20712 15.5251,-10.18974 3.1399,-1.06898 4.3399,-1.28837 6.3886,-1.16784 4.1387,0.24355 6.9166,2.26512 9.0864,6.61261 2.1005,4.20853 3.0515,9.71144 2.8565,16.52718 -0.1275,4.45732 -0.456,6.52178 -2.0531,12.9013 -2.6116,10.43246 -7.1372,20.88022 -14.0624,32.46408 -3.2927,5.50806 -9.3993,14.31178 -14.2713,20.57465 -0.938,1.20583 -2.0806,2.68568 -2.5393,3.28859 -1.2437,1.63466 -8.99,10.90777 -10.0789,12.06522 l -0.945,1.00472 z m -116.7259,-60.15399 c 0,-0.66781 3.0442,-7.5921 5.5197,-12.55519 6.8503,-13.73425 16.3568,-27.50736 27.6958,-40.12642 3.2495,-3.6162 13.5927,-13.9166 16.872,-16.8021 9.4032,-8.27397 15.7321,-11.86717 21.9613,-12.4683 3.0902,-0.29823 4.8082,-0.12888 6.3562,0.6265 1.5884,0.7752 3.0768,2.25249 3.9881,3.95842 l 0.6644,1.24388 v 2.5297 2.52963 l -0.6176,1.29341 c -1.0812,2.26416 -3.565,4.53036 -9.3324,8.5148 -1.2058,0.83307 -6.0628,4.12096 -10.7933,7.30647 -25.1344,16.92543 -31.9231,22.61337 -46.3697,38.85169 -5.2331,5.88222 -10.1698,10.80904 -13.5619,13.5348 -2.02,1.62326 -2.3826,1.86107 -2.3826,1.56271 z m 209.049,-68.59593 c -0.043,-0.0691 -0.3075,-1.94286 -0.5882,-4.1638 -2.0715,-16.38594 -2.7657,-20.13288 -5.2473,-28.32285 -1.5415,-5.08783 -3.2118,-11.77795 -2.9917,-11.98344 0.055,-0.0516 5.0994,-0.37014 9.4877,-0.59883 5.6761,-0.29582 18.2406,-0.363 31.7896,-0.17 10.8002,0.15386 19.1426,0.41654 19.3601,0.60961 0.046,0.0408 -1.3223,5.45611 -4.0174,15.90177 -1.1996,4.64981 -1.9147,8.45705 -2.8573,15.21339 -0.7465,5.35094 -1.6429,11.53515 -1.806,12.45906 l -0.1004,0.56965 -2.1123,-0.12035 c -3.1306,-0.17835 -2.902,0.0446 -2.8984,-2.82768 0.013,-10.38511 1.479,-20.02905 4.9903,-32.83212 0.5241,-1.91097 0.7011,-2.80276 0.5721,-2.88243 -0.3596,-0.22226 -8.8355,-0.32979 -26.6246,-0.33789 l -17.9392,-0.008 0.1101,0.38377 c 0.5531,1.92769 2.4289,9.51506 3.0342,12.27321 1.4518,6.61592 1.9989,10.6217 2.3101,16.91402 0.2356,4.76518 0.1687,7.1477 -0.2174,7.73704 -0.3899,0.59501 -4.0688,2.48553 -4.2539,2.18601 z m -73.4134,-18.90953 c -2.0866,-0.61604 -4.5436,-2.55653 -5.4944,-4.33952 -0.6891,-1.29226 -1.0098,-3.03292 -0.8786,-4.76856 0.3611,-4.77543 2.4925,-8.08907 7.757,-12.05967 2.3215,-1.75093 4.1387,-2.92655 10.009,-6.47487 9.995,-6.04169 13.3918,-8.30981 20.4356,-13.64507 8.9365,-6.76915 16.9954,-13.67171 33.8669,-29.00785 4.0179,-3.65242 7.3432,-6.60286 7.3894,-6.55671 0.1196,0.1197 -4.5386,9.74547 -6.4603,13.34964 -4.7587,8.92456 -8.8362,14.80404 -17.314,24.96612 -11.8558,14.21095 -20.6288,23.12418 -29.1186,29.58413 -5.5301,4.20796 -12.8326,8.63717 -15.0101,9.1042 -1.3287,0.2849 -3.9641,0.20772 -5.1819,-0.15184 z m -39.7611,-8.69148 c -6.902,-1.27709 -12.6757,-5.56116 -15.7562,-11.69119 -1.6646,-3.31216 -2.3788,-6.19008 -2.3905,-9.63259 -0.01,-2.38023 0.068,-3.12254 0.5355,-5.1698 0.7727,-3.38999 2.508,-6.71491 5.0221,-9.62291 1.6623,-1.92271 4.3049,-3.95982 6.6954,-5.16157 1.2958,-0.65142 4.1182,-1.59107 5.6542,-1.88242 2.8958,-0.54931 8.2008,-0.17694 10.8795,0.76366 9.0844,3.18986 14.9096,11.28333 14.9096,20.71495 0,2.74769 -0.2964,4.65574 -1.0941,7.04183 -2.4562,7.34727 -8.0875,12.46825 -15.8546,14.41766 -1.8296,0.45924 -6.6477,0.58379 -8.6009,0.22238 z m 126.0821,-20.74452 c -7.1131,-1.11028 -13.2798,-5.89866 -16.2298,-12.60242 -1.0972,-2.49323 -1.3488,-3.6095 -1.4721,-6.53248 -0.1628,-3.85549 -0.01,-6.02436 0.547,-7.82532 2.3143,-7.46716 7.9166,-12.73435 15.7466,-14.80488 1.3023,-0.34438 1.8423,-0.38785 4.6766,-0.37676 2.9142,0.0115 3.3694,0.0542 5.0288,0.47544 4.2098,1.06789 7.2418,2.83266 10.2778,5.98196 2.3779,2.46666 3.8635,4.97182 5.0504,8.51658 0.6773,2.02284 0.6861,2.08065 0.769,5.08171 0.097,3.5371 -0.074,5.11504 -0.8077,7.40418 -1.0808,3.37381 -2.4714,5.74346 -4.7988,8.17736 -4.9267,5.15227 -11.9264,7.57565 -18.7878,6.50463 z m 7.2801,-6.1401 c 2.326,-0.59489 4.9187,-1.98244 6.5708,-3.51653 2.1013,-1.95093 3.9417,-4.93606 4.5959,-7.45454 0.4633,-1.78337 0.5226,-5.31608 0.1218,-7.25338 -0.6252,-3.02139 -1.8596,-5.36592 -3.9825,-7.56405 -1.4444,-1.49559 -2.6565,-2.34593 -4.772,-3.34805 -2.0053,-0.94997 -3.62,-1.25535 -6.7145,-1.27007 -2.847,-0.0134 -4.1846,0.30397 -6.6989,1.59017 -3.6907,1.88803 -6.4734,5.24341 -7.8066,9.4132 -0.56,1.75124 -0.7527,4.83229 -0.4281,6.84431 0.9293,5.76136 5.0622,10.56082 10.6332,12.34841 1.4949,0.4797 1.5828,0.48964 4.5686,0.51571 2.1083,0.0185 2.8833,-0.0421 3.9123,-0.30518 z"
         id="path38" /><path
         style="fill:#ffffff;fill-opacity:1;stroke-width:7.9177"
         d="m 2397.1448,538.22442 c -0.061,-0.1588 -0.3667,-1.41463 -0.6786,-2.79078 -5.4265,-23.9498 -8.8401,-36.79809 -15.7306,-59.20675 -4.2863,-13.93958 -6.4073,-18.29964 -18.8543,-38.75822 -5.878,-9.66135 -9.9101,-17.09698 -12.4718,-22.99963 l -1.0442,-2.40582 -44.0024,-0.0487 -44.0025,-0.0487 v -3.27147 -3.27153 h 42.9423 42.9423 l -0.1352,-0.43304 c -0.074,-0.23816 -0.1823,-2.62588 -0.2399,-5.30601 -0.091,-4.2551 -0.062,-5.03061 0.2318,-6.11637 0.3976,-1.46875 1.4758,-3.21771 2.5239,-4.09426 1.2309,-1.02939 4.0578,-2.31497 5.3752,-2.44467 2.887,-0.28407 8.148,2.61336 11.6445,6.41308 1.4978,1.62762 2.9112,3.48875 5.0795,6.68849 2.4801,3.65992 4.0215,5.48525 4.6319,5.48525 0.066,0 0.062,-1.58063 -0.01,-3.51246 -0.1444,-3.92848 0.027,-5.39199 0.8124,-6.94222 0.7004,-1.38219 1.9862,-2.66093 4.1425,-4.11957 l 1.8984,-1.28421 3.1171,0.62763 c 1.717,0.34575 3.7471,0.88994 4.5197,1.21153 3.1975,1.33112 6.8761,4.55509 13.6337,11.94897 l 1.3597,1.48774 30.0122,0.1924 c 16.5066,0.10584 57.922,0.19364 92.0341,0.1951 h 62.0221 v 3.2719 3.2719 h -89.8494 c -49.4171,0 -89.8992,0.0502 -89.9601,0.11086 -0.1271,0.12701 0.028,0.48083 6.2069,14.22786 10.3357,22.99228 11.1554,25.02399 16.1525,40.03281 10.8165,32.48691 11.9608,36.54043 16.5717,58.70199 0.5506,2.64646 1.3274,6.37068 1.7262,8.27603 0.3987,1.90543 0.6917,3.50046 0.6509,3.54462 -0.1538,0.16672 -1.2503,0.0713 -1.4475,-0.1257 -0.1132,-0.11319 -0.4441,-1.0587 -0.7354,-2.10111 -0.7883,-2.82104 -1.6724,-5.18206 -4.9612,-13.25063 -6.5947,-16.1786 -8.5506,-20.72721 -11.7932,-27.42639 -1.3579,-2.80519 -3.9935,-8.29509 -5.8569,-12.19986 -7.9798,-16.72054 -12.2424,-23.29788 -24.4618,-37.74498 -1.6116,-1.90535 -3.7001,-4.37374 -4.641,-5.48525 -7.0101,-8.28076 -11.0358,-13.69589 -14.2368,-19.15029 -3.5355,-6.0245 -4.6555,-7.69169 -4.965,-7.39054 -0.2846,0.27701 1.5353,7.37301 5.1779,20.1895 5.3596,18.85685 6.2494,22.75674 8.3658,36.66468 0.4189,2.75222 1.6266,10.59042 2.6838,17.41814 2.1557,13.92139 2.3899,15.62801 2.7999,20.40132 1.141,13.28278 1.6722,33.77235 0.8183,31.56438 z m 49.5002,-183.80675 c -4.3759,-0.33192 -12.7348,-1.78634 -17.8772,-3.11063 -9.1474,-2.3557 -24.4251,-7.7485 -29.5435,-10.42842 -3.2248,-1.68851 -4.6784,-2.75761 -7.2182,-5.30885 -2.6356,-2.64726 -4.0608,-4.56571 -5.1949,-6.99277 -1.2342,-2.64137 -1.3188,-3.77514 -0.5456,-7.32019 0.2089,-0.95723 0.2033,-1.14308 -0.039,-1.29621 -0.7276,-0.46017 -4.9903,-0.009 -7.3343,0.77639 -1.6535,0.55401 -4.0025,1.62347 -12.3873,5.64012 -5.3127,2.54491 -6.5479,2.8996 -10.1045,2.9012 -2.1926,0 -2.7569,-0.0618 -3.6145,-0.40379 -1.4151,-0.56398 -2.7906,-1.66662 -3.705,-2.97024 -0.9404,-1.34065 -1.2272,-2.00429 -1.8024,-4.17079 l -0.443,-1.66879 -43.2422,-0.0487 -43.2423,-0.0487 0.052,-3.31962 0.052,-3.31962 44.2671,-0.0487 44.2671,-0.0487 1.8345,-1.58725 c 3.2573,-2.8182 6.905,-5.04661 13.9476,-8.52074 6.5309,-3.22171 14.034,-6.36951 22.9996,-9.64934 5.3629,-1.9618 19.928,-7.09185 25.1168,-8.84641 2.3289,-0.78751 4.5374,-1.54928 4.9079,-1.69294 2.4438,-0.94734 16.693,-5.23306 21.1712,-6.36763 5.7414,-1.45464 14.4111,-3.33708 25.7904,-5.59996 2.3728,-0.47189 5.9664,-0.82658 5.9664,-0.58886 0,0.16178 -2.3121,1.30188 -3.7049,1.82687 -0.6087,0.22943 -1.6048,0.60529 -2.2134,0.83523 -2.8198,1.06518 -11.5683,4.99758 -27.7632,12.47948 -2.6993,1.24711 -6.3369,2.91852 -8.0835,3.71425 -19.6442,8.95007 -30.5326,15.24008 -39.3437,22.72808 l -1.4943,1.26995 100.3403,0.048 100.3403,0.048 0.052,3.32006 0.052,3.32006 -90.8002,0.007 -90.8002,0.007 0.4812,0.40386 c 0.9391,0.78839 8.2708,5.94419 10.7084,7.53042 3.9877,2.59489 6.1189,3.78292 9.5967,5.34966 1.7996,0.81072 4.6577,2.10256 6.3514,2.8708 8.7154,3.95321 17.9232,6.65525 32.8153,9.6297 5.4692,1.09238 12.135,2.26056 16.9371,2.9682 8.7996,1.29672 12.3812,2.13086 13.2862,3.09419 0.4031,0.42897 0.4118,0.47458 0.09,0.47458 -0.1956,0 -2.5275,0.21219 -5.182,0.47152 -2.6545,0.25933 -6.8184,0.64799 -9.2531,0.86368 -2.4346,0.21561 -5.3794,0.49101 -6.5438,0.61191 -2.5261,0.26231 -26.9042,0.39892 -29.9505,0.16789 z m 35.9125,-42.93351 c -5.501,-0.49203 -11.9066,-4.39156 -15.2887,-9.30738 -1.4154,-2.05709 -2.8373,-5.40327 -3.399,-7.99866 -0.5276,-2.43769 -0.4867,-7.75177 0.077,-10.03714 1.8266,-7.40428 7.4033,-13.42121 14.6695,-15.82769 2.7742,-0.91881 4.6551,-1.15559 8.1622,-1.02756 3.2492,0.11857 5.0015,0.52222 8.0049,1.84367 4.4489,1.95758 8.6665,5.97881 10.8292,10.32505 1.8099,3.63729 2.3738,6.53289 2.2078,11.33705 -0.083,2.39266 -0.1911,3.21095 -0.615,4.63656 -2.191,7.36922 -7.6105,12.94678 -14.9496,15.38563 -2.2974,0.76351 -5.8855,1.01157 -9.6984,0.67047 z m 6.0569,-6.54998 c 6.0027,-0.94326 11.4292,-6.40705 12.5243,-12.61035 0.3529,-1.99941 0.1546,-5.77622 -0.3878,-7.38406 -1.4273,-4.23152 -4.4987,-7.79367 -8.3733,-9.71095 -2.1993,-1.08831 -3.4594,-1.34007 -6.7362,-1.34568 -2.4905,-0.007 -3.0852,0.0567 -4.3305,0.44337 -5.1005,1.5842 -9.0334,5.38196 -10.6918,10.32455 -0.6288,1.87393 -0.8594,5.54904 -0.4838,7.70994 0.8054,4.63263 4.1518,9.00172 8.5773,11.19826 3.1481,1.56252 6.0998,1.97243 9.9018,1.37492 z m -127.2807,-6.52286 c -3.7436,-0.46461 -7.9901,-2.1342 -11.2843,-4.43659 -4.0623,-2.83923 -7.8115,-8.22089 -9.1771,-13.17301 -0.4869,-1.76547 -0.5312,-2.21116 -0.5366,-5.38901 -0.01,-4.72371 0.5072,-6.83201 2.7044,-11.06681 3.2436,-6.25211 9.4533,-10.74064 17.21,-12.43984 1.1989,-0.26267 2.3299,-0.35113 4.2342,-0.33127 5.469,0.0575 10.1724,1.44998 14.4501,4.2791 1.9656,1.29992 4.9005,4.11274 6.0878,5.83427 2.5806,3.74211 4.6751,9.52299 4.6751,12.9035 0,3.20258 -0.6661,6.19057 -2.0927,9.38769 -3.1696,7.10327 -8.9838,11.9825 -16.6722,13.991 -1.635,0.42715 -2.4039,0.51066 -5.1008,0.55401 -1.7467,0.0284 -3.7707,-0.0226 -4.4979,-0.11304 z"
         id="path35"
         inkscape:export-filename="volley.svg"
         inkscape:export-xdpi="96"
         inkscape:export-ydpi="96" /><path
         style="fill:#ffffff;fill-opacity:1;stroke-width:7.91769"
         d="m 2011.923,538.27294 c 0,-0.25953 1.548,-3.96494 2.195,-5.25412 2.9206,-5.81952 32.6162,-53.24361 47.8793,-76.46346 10.8791,-16.55065 25.4726,-37.96884 29.957,-43.96692 9.9608,-13.32261 18.1703,-21.07321 25.3471,-23.93032 2.6638,-1.06042 4.2643,-1.33638 7.7673,-1.33923 4.1121,0 6.1831,0.61875 8.9164,2.67861 2.3047,1.73705 3.0681,3.71347 3.0644,7.9353 0,4.18953 -0.673,6.77736 -3.2081,12.40087 -4.8129,10.67542 -9.5287,17.19782 -23.638,32.6934 -16.6353,18.2698 -34.9691,36.39937 -73.581,72.76084 -3.9458,3.71572 -8.1426,7.68228 -9.3264,8.81443 -11.755,11.24284 -15.373,14.46026 -15.373,13.6706 z m -44.3772,-4.11646 c -6.1917,-1.65678 -11.8039,-5.53652 -15.4763,-10.69876 -2.2276,-3.13113 -4.0294,-7.66718 -4.525,-11.39189 -0.3623,-2.72207 -0.1389,-8.17398 0.4141,-10.10873 3.0117,-10.53693 9.9342,-17.2832 20.4074,-19.88808 1.704,-0.42384 2.1497,-0.44946 5.8417,-0.33584 2.1984,0.0673 4.6426,0.2555 5.4319,0.41749 5.5008,1.12884 11.4146,4.77856 15.0748,9.30367 2.3979,2.96465 4.9604,8.59241 5.5022,12.08455 0.3271,2.10821 0.2859,7.46072 -0.073,9.52044 -0.4167,2.3895 -1.188,4.59873 -2.5171,7.21071 -2.7729,5.44943 -7.2526,9.69094 -12.9036,12.21757 -4.2676,1.9081 -4.3801,1.92962 -10.4123,1.99509 -4.6809,0.0503 -5.5039,0.0103 -6.7646,-0.32622 z m -56.9497,-18.29265 c -0.075,-2.38649 -0.1353,-7.53835 -0.1353,-11.44867 v -7.10962 l 10.7839,-18.63283 c 5.9312,-10.24801 12.8818,-22.27624 15.4458,-26.72925 2.5641,-4.45308 7.7652,-13.46925 11.5583,-20.03596 9.5903,-16.60341 13.9349,-24.19172 14.7188,-25.70837 l 0.6703,-1.29724 0.1415,-41.8147 c 0.078,-22.99813 0.2071,-42.46042 0.2872,-43.24953 0.2327,-2.28995 1.275,-3.79878 3.2745,-4.74026 2.4273,-1.14294 5.3804,-0.0473 7.1019,2.63507 l 0.6871,1.07065 0.1273,37.00261 c 0.07,20.35151 0.1986,38.45543 0.2857,40.23106 l 0.1586,3.22828 h 30.8583 30.8584 l 1.3891,0.82537 c 4.41,2.61982 4.2419,7.71947 -0.3328,10.10749 l -1.2375,0.64596 -28.6963,0.13014 c -15.783,0.0712 -30.0798,0.1431 -31.7709,0.15874 l -3.0747,0.0287 -2.5521,4.45432 c -2.8902,5.0448 -19.2066,33.2931 -32.2303,55.8003 -4.7946,8.28609 -13.079,22.62913 -18.4096,31.87353 -5.3305,9.24432 -9.71,16.83155 -9.732,16.8606 -0.022,0.0287 -0.1016,-1.89981 -0.1752,-4.28629 z m 137.8168,-79.1056 c -1.8648,-0.32871 -4.2426,-1.61773 -5.8163,-3.1532 -1.8509,-1.80591 -2.1721,-2.55103 -2.1777,-5.05302 -0.011,-3.80984 0.8355,-6.9412 3.1709,-11.76165 4.2785,-8.83109 13.1212,-20.97916 24.6728,-33.89606 7.8607,-8.78964 16.9314,-15.65532 22.678,-17.16514 1.9787,-0.51982 6.2308,-0.52176 8.0964,0 8.2104,2.28073 9.3571,7.45538 4.1012,18.50593 -3.3514,7.04633 -8.8006,14.66936 -16.8973,23.63827 -9.6966,10.74082 -21.4917,22.12324 -26.4501,25.52458 -3.7154,2.54856 -8.3048,3.90546 -11.3779,3.36378 z m 102.7901,-26.01498 c -4.0232,-0.11027 -4.3692,-0.15061 -5.2946,-0.61574 -1.9956,-1.00331 -3.1999,-2.91529 -3.2075,-5.09213 -0.011,-2.06212 1.0569,-3.72734 3.0991,-4.84981 l 1.0984,-0.60373 5.6368,-0.13922 c 3.1002,-0.0767 28.6271,-0.14789 56.7266,-0.15842 l 51.0898,-0.0193 v 5.84933 5.84926 l -52.4222,-0.0511 c -28.8321,-0.028 -54.3591,-0.10434 -56.7264,-0.16928 z m -2.5263,-17.37803 c -0.3932,-0.27502 0.1577,-1.50316 0.9143,-2.03824 1.1668,-0.82499 4.3751,-2.29886 9.4009,-4.31868 17.9595,-7.21762 28.3441,-12.5551 36.967,-19.00026 2.9069,-2.17274 3.7943,-3.02925 4.2442,-4.09649 0.2245,-0.53292 0.1935,-0.78005 -0.2455,-1.94636 -0.852,-2.26346 -2.8033,-5.71601 -8.1704,-14.456 -2.8385,-4.6222 -5.7307,-9.39376 -6.4273,-10.60354 -4.3037,-7.47343 -6.081,-13.34895 -5.0801,-16.79244 0.9348,-3.21556 4.2356,-6.06516 8.527,-7.36116 1.4127,-0.42663 1.6426,-0.44244 3.0375,-0.20808 2.9241,0.49131 5.4253,1.56226 7.835,3.3547 4.3537,3.23857 7.4933,7.09552 10.047,12.3429 3.3482,6.88031 7.1766,18.02709 8.9407,26.03173 0.5454,2.47525 0.5872,2.97789 0.5872,7.07158 0,3.95913 -0.048,4.584 -0.472,6.14922 -0.6327,2.33504 -2.3978,5.95455 -3.6807,7.54733 -5.0087,6.21872 -17.095,11.8155 -31.9227,14.78245 -5.5339,1.1073 -14.7416,2.38533 -22.2435,3.08737 -5.1464,0.48163 -11.8633,0.7304 -12.2586,0.45397 z m -61.8356,-79.38302 c -7.834,-0.28021 -11.2993,-0.57793 -37.9202,-3.25872 -2.2548,-0.22706 -4.8836,-0.50455 -5.8418,-0.61674 -0.9584,-0.11222 -4.5557,-0.48434 -7.9941,-0.82708 -3.4384,-0.34272 -7.8658,-0.80212 -9.8387,-1.02099 -1.9729,-0.21876 -5.8469,-0.63355 -8.6089,-0.92157 -5.4288,-0.56624 -14.2896,-1.51502 -20.1899,-2.16197 -15.6831,-1.7197 -21.2587,-2.49091 -20.8638,-2.88594 0.2191,-0.21909 3.0809,-1.0918 5.2868,-1.61231 2.1576,-0.50907 9.817,-1.37239 24.5958,-2.7722 10.615,-1.00542 13.2084,-1.23946 22.7522,-2.05344 4.6221,-0.39418 9.9258,-0.85365 11.7859,-1.02107 4.6989,-0.4229 14.0446,-1.19683 33.4107,-2.76662 2.7621,-0.2239 7.8352,-0.63611 11.2736,-0.91602 14.2992,-1.16407 24.7646,-0.85541 30.4224,0.89735 5.4035,1.67398 9.1047,5.29975 9.4767,9.28367 0.1534,1.6423 -0.1833,3.55993 -0.8596,4.89414 -1.4286,2.8193 -5.2547,5.52247 -9.2158,6.51092 -4.7865,1.19452 -15.5737,1.68127 -27.6713,1.24859 z m 77.4792,-12.72057 c -0.7894,-0.0704 -2.4175,-0.457 -3.618,-0.8587 -8.1329,-2.72146 -13.5998,-8.23945 -16.5194,-16.67342 l -0.7691,-2.22201 v -5.12436 -5.1243 l 0.7561,-2.18327 c 3.2614,-9.41583 9.8765,-15.31925 19.6389,-17.52592 2.0768,-0.46947 6.8634,-0.45777 9.1041,0.0225 3.5444,0.75914 6.8749,2.15135 9.897,4.13709 1.8376,1.20753 5.1842,4.6438 6.5037,6.67834 3.1151,4.80262 4.448,9.84107 4.1361,15.63563 -0.1621,3.0119 -0.4785,4.56279 -1.4446,7.07925 -1.7661,4.60083 -5.0012,8.87619 -8.8667,11.71781 -2.8511,2.09597 -7.642,4.08331 -10.8233,4.48981 -1.6529,0.21118 -5.3428,0.18895 -7.9948,-0.0479 z"
         id="path18"
         inkscape:export-filename="foot.svg"
         inkscape:export-xdpi="96"
         inkscape:export-ydpi="96" /><path
         style="fill:#ffffff;fill-opacity:1;stroke-width:7.91769"
         d="m 951.97959,537.66264 c -0.45318,-0.39778 -0.82392,-0.80969 -0.82392,-0.91518 0,-0.10559 0.92666,-0.69691 2.05924,-1.31421 4.21507,-2.29709 7.14752,-4.49473 24.76976,-18.56385 6.01895,-4.80526 13.80288,-11.00032 17.29765,-13.76688 3.49491,-2.76647 9.63728,-7.64492 13.64988,-10.84092 4.0126,-3.196 10.7905,-8.57826 15.0619,-11.96069 4.2714,-3.38235 9.143,-7.24252 10.8257,-8.57817 3.5672,-2.83157 9.2146,-7.30318 12.2378,-9.69002 1.1649,-0.91981 3.6537,-2.89126 5.5306,-4.38114 1.8768,-1.48988 7.0131,-5.56531 11.414,-9.05645 4.401,-3.49121 9.9079,-7.86141 12.2379,-9.71163 30.8099,-24.46601 35.9134,-28.12703 46.9309,-33.66664 7.9184,-3.98131 11.2264,-4.9626 16.7291,-4.9626 5.9115,0 8.769,0.94722 11.6576,3.86401 1.8543,1.87244 3.5027,4.77936 4.7925,8.45141 1.2522,3.56487 0.9433,7.30096 -0.9177,11.1011 -2.7707,5.65773 -7.3287,9.3626 -21.769,17.69429 -15.4719,8.92685 -45.182,25.44293 -82.2521,45.72455 -2.7829,1.52252 -8.3428,4.5706 -12.3555,6.7734 -7.2326,3.97065 -11.2167,6.14855 -28.9469,15.82461 -5.0482,2.7549 -11.03179,6.03923 -13.29694,7.29856 -21.9332,12.19373 -31.52021,16.93449 -41.36117,20.4532 l -2.64746,0.94667 z m 320.53591,-3.75219 c -3.379,-0.63616 -6.5827,-1.30265 -10.8258,-2.25217 -2.5888,-0.57932 -8.7312,-1.94992 -13.6499,-3.04594 -4.9187,-1.09594 -11.061,-2.47143 -13.6498,-3.05662 -2.5887,-0.5851 -5.9248,-1.33582 -7.4133,-1.66822 -16.0829,-3.59093 -26.1959,-7.60766 -34.2427,-13.60063 -2.4219,-1.80378 -7.5302,-6.89553 -8.7459,-8.71782 -2.1284,-3.19004 -4.4828,-7.79195 -8.3483,-16.31763 -6.1124,-13.48118 -11.2576,-29.70916 -14.4318,-45.51722 -1.6385,-8.16038 -1.8556,-10.38799 -1.875,-19.24048 -0.017,-7.62375 -0.015,-7.6563 0.6256,-10.00205 1.8759,-6.87071 5.5816,-10.88886 11.2816,-12.2326 5.9117,-1.39364 13.4931,1.13791 17.1248,5.71839 1.6808,2.11981 3.4989,5.5622 4.4511,8.42758 1.5905,4.7855 2.406,11.50376 3.096,25.50394 1.1078,22.47686 1.899,30.10791 4.0208,38.78152 2.2443,9.17386 6.1747,16.4266 11.9021,21.96283 5.9127,5.71528 12.6872,10.18537 23.4963,15.50394 8.9912,4.42402 11.9162,5.53259 33.301,12.62034 7.9604,2.63847 14.6318,4.89899 14.8253,5.02343 0.4167,0.26792 0.1288,0.52685 -1.7639,1.58648 -1.1244,0.62958 -1.3282,0.66072 -4.5891,0.70163 -1.8769,0.024 -3.9419,-0.0569 -4.5891,-0.1787 z M 1225.431,418.52521 c 3.0334,-4.10194 6.3512,-10.45969 8.6133,-16.50585 3.4382,-9.18942 5.4315,-22.71632 4.4563,-30.24152 -1.3664,-10.54232 -10.8888,-18.44439 -27.3439,-22.69087 -1.7761,-0.45835 -7.6008,-1.74036 -12.9439,-2.84883 -13.9275,-2.88966 -19.291,-4.31461 -23.2224,-6.16963 -1.5087,-0.71203 -4.3783,-3.36616 -5.8131,-5.37692 -3.4895,-4.89002 -3.6416,-8.40373 -0.4971,-11.47387 3.484,-3.40148 10.6703,-5.54939 19.9576,-5.96523 12.8937,-0.57718 35.6387,6.43292 49.0469,15.11658 3.6242,2.34707 5.7743,4.09588 8.944,7.27481 7.4374,7.45866 9.8834,12.64238 10.7202,22.72031 1.3431,16.17114 -4.1158,32.22247 -15.127,44.47963 -2.0566,2.28935 -10.0358,9.6974 -12.2478,11.37131 -1.7653,1.33583 -3.3847,2.03816 -4.7053,2.04092 h -1.1195 z M 916.18086,378.61476 c -4.31291,-0.67396 -7.66475,-3.23772 -9.76144,-7.46631 l -1.02993,-2.07703 v -2.94179 c -0.009,-3.48152 0.29015,-4.54125 1.98639,-7.13952 1.31358,-2.01227 3.22508,-3.67712 5.42299,-4.72314 1.5059,-0.71685 1.5864,-0.72814 5.1775,-0.72814 h 3.64777 l 1.7707,0.84563 c 6.74245,3.22011 9.31056,11.08028 5.79826,17.74633 -0.95201,1.80681 -3.17349,4.02829 -4.98021,4.98021 -2.52639,1.33112 -5.53115,1.89398 -8.02811,1.50376 z m 3.5091,-8.80223 c 2.39947,-1.00262 3.28459,-4.32608 1.70398,-6.3984 -0.89393,-1.17207 -1.87369,-1.6169 -3.58665,-1.62846 -1.38947,-0.01 -1.50626,0.0356 -2.43167,0.93155 -1.24065,1.20142 -1.63932,1.9735 -1.63932,3.17474 0,2.9828 3.18239,5.07841 5.95366,3.92057 z m 74.03532,-6.12577 c -1.31973,-0.4716 -3.88365,-1.92475 -12.9165,-7.32089 -4.59498,-2.74494 -11.47877,-6.77314 -15.29723,-8.95139 -8.55842,-4.88219 -9.92893,-5.71101 -16.12088,-9.74962 -2.71826,-1.77283 -5.46062,-3.50794 -6.0942,-3.85572 l -1.15206,-0.63242 -1.20142,0.90682 c -2.91484,2.20004 -7.22162,4.2721 -10.87722,5.23327 -2.37714,0.62504 -10.38212,0.91039 -13.21362,0.47107 -4.21294,-0.65377 -7.52911,-1.66715 -11.3481,-3.46809 -10.89536,-5.13792 -19.06942,-14.11262 -22.25671,-24.43648 -0.82046,-2.65769 -0.87872,-3.05608 -0.98929,-6.75927 -0.2623,-8.78791 1.28575,-13.50901 5.96336,-18.18662 3.71875,-3.71875 8.96892,-6.58404 13.86544,-7.56691 3.17891,-0.63821 10.61649,-0.56553 14.00284,0.1368 10.39299,2.15549 19.42159,7.94637 26.00731,16.68091 1.82904,2.42579 4.54196,7.71029 5.51052,10.73391 0.38034,1.1872 0.92373,3.37159 1.20756,4.85417 0.61597,3.21681 0.55841,4.41059 -0.4684,9.71768 -0.39662,2.04991 -0.72084,3.85031 -0.72057,4.00081 0,0.66996 16.65218,10.82277 22.82767,13.91898 4.21215,2.1119 6.63963,2.82473 14.82652,4.35384 13.4844,2.51865 31.099,2.79715 44.8326,0.70882 9.4187,-1.43216 18.0184,-3.52191 25.5958,-6.21988 4.0246,-1.43296 6.549,-2.5304 13.7064,-5.95864 10.1431,-4.85836 13.5084,-6.03292 18.161,-6.33854 2.567,-0.16856 4.6611,0.18083 6.2554,1.04372 1.5932,0.86235 3.6076,3.07014 4.4043,4.8273 1.6209,3.57492 1.58,8.46787 -0.1007,12.02038 -1.1211,2.37003 -5.3817,6.0129 -9.5052,8.12702 -4.8029,2.46253 -10.5055,3.93275 -26.9811,6.95629 -10.9615,2.01165 -9.3783,1.9042 -27.535,1.86773 -17.9039,-0.0356 -20.0682,-0.15139 -28.4658,-1.51915 -3.6127,-0.58848 -4.6849,-0.69157 -4.8255,-0.4643 -0.099,0.16072 -0.2395,1.15188 -0.3114,2.20244 -0.1438,2.09723 -0.3019,2.33863 -1.80542,2.75633 -1.16608,0.32395 -3.9631,0.27325 -4.9804,-0.0904 z m 111.10882,-50.98673 c -11.8043,-2.54081 -19.8884,-9.84061 -23.97,-21.64457 l -0.8545,-2.47107 v -5.7659 c 0,-6.40648 0.1524,-7.43535 1.6981,-11.29642 1.8169,-4.53858 4.1351,-8.05044 7.3389,-11.11799 3.5023,-3.35335 7.4592,-5.75077 11.9064,-7.21415 6.0764,-1.99938 11.0151,-2.13244 17.533,-0.47231 3.1681,0.80685 7.4522,2.82908 10.0021,4.7211 4.074,3.02309 8.5288,8.48593 10.2066,12.51617 2.4352,5.84942 3.2313,13.1204 2.0398,18.6295 -2.6963,12.46787 -12.8769,22.21456 -25.3079,24.22906 -3.0516,0.49455 -8.0127,0.44136 -10.5904,-0.11342 z"
         id="path3"
         inkscape:export-filename=".\pingpong.svg"
         inkscape:export-xdpi="414.18015"
         inkscape:export-ydpi="414.18015" /><path
         style="fill:#ffffff;fill-opacity:1;stroke-width:7.91769"
         d="m 752.87551,2608.2642 c 0,-0.082 0.38234,-0.8671 0.84965,-1.7438 0.89297,-1.6754 2.2225,-2.9502 6.69097,-6.4154 11.44935,-8.8787 21.7186,-18.1966 41.40729,-37.5712 8.72139,-8.5822 16.19727,-15.6519 19.57917,-18.5154 3.38465,-2.8659 6.47355,-5.0863 15.81741,-11.3701 l 8.50699,-5.721 -0.95438,-2.7028 c -0.52491,-1.4865 -1.96007,-5.2031 -3.18925,-8.2591 -5.93821,-14.7633 -10.96938,-28.7808 -13.04536,-36.346 -2.12911,-7.7589 -3.16913,-14.9517 -3.1611,-21.8623 0.0127,-10.9339 2.52869,-16.9918 8.21756,-19.7861 2.65161,-1.3024 4.42828,-1.608 8.31846,-1.4311 4.69864,0.2137 5.73945,0.6678 7.89163,3.4432 0.92272,1.19 2.37545,3.1756 3.22828,4.4125 0.85283,1.237 2.48979,3.3801 3.63769,4.7625 1.1478,1.3825 2.2999,2.9303 2.5602,3.4396 0.643,1.2584 3.982,11.9042 9.0038,28.7073 6.7115,22.4565 8.7959,41.5682 5.8003,53.1813 -1.1412,4.4241 -3.2376,8.6324 -5.5211,11.0827 -3.1636,3.3948 -17.30263,13.8216 -27.66426,20.401 -2.48528,1.578 -14.53498,7.7428 -38.23229,19.5601 -21.97813,10.9599 -26.07427,12.9255 -35.30745,16.9428 -9.17292,3.9911 -14.43421,6.102 -14.43421,5.7913 z m 284.42709,-0.3937 c -2.9191,-0.4822 -5.4859,-1.9953 -16.5023,-9.7281 -32.28728,-22.6633 -47.03538,-34.1807 -70.14088,-54.7763 -17.5902,-15.6794 -48.9721,-46.5762 -59.2732,-58.3569 -7.7245,-8.834 -13.3608,-18.0287 -16.4952,-26.9091 -1.7089,-4.8416 -2.2211,-10.1142 -1.2846,-13.2239 0.8626,-2.8645 3.047,-4.9205 6.4204,-6.0431 1.6025,-0.5333 2.127,-0.5716 6.2886,-0.4592 4.5253,0.1223 4.5507,0.1264 7.7061,1.2407 10.3859,3.668 17.3827,7.9617 26.1905,16.0723 6.4923,5.9783 11.3586,11.5053 19.7603,22.4431 3.9103,5.0907 22.4773,29.8672 34.8962,46.5667 10.2182,13.7402 33.61878,44.9359 41.67868,55.5625 2.6489,3.4925 6.4678,8.1449 8.4863,10.3388 2.0186,2.1938 5.4135,5.8848 7.5443,8.2021 4.2077,4.5761 7.8944,8.8586 7.8977,9.1742 0,0.2498 -1.2882,0.2075 -3.1729,-0.1038 z M 665.56301,2424.0227 v -4.4979 h 225.82191 225.82178 v 4.4979 4.4979 H 891.38492 665.56301 Z m 50.30441,-42.8808 c 0.8984,-3.9985 8.88635,-15.3326 16.05567,-22.7814 7.13313,-7.4112 13.30295,-12.2224 22.40762,-17.4735 17.80884,-10.2712 34.44064,-16.0439 50.13854,-17.4026 11.57905,-1.0022 25.61392,0.5965 33.82517,3.8531 3.85037,1.527 9.98563,4.6653 12.86138,6.5788 2.74764,1.8282 3.91872,3.1228 5.12762,5.6683 0.9491,1.9984 0.9576,2.0472 0.9534,5.458 -0.01,4.2567 -0.4303,5.43 -2.7796,7.6709 -2.40262,2.2916 -3.4143,2.6526 -7.39005,2.6364 -1.81901,-0.01 -4.25979,-0.1583 -5.42396,-0.3356 -6.50272,-0.9898 -17.12212,-2.432 -20.10833,-2.7308 -4.79315,-0.4796 -26.06713,-0.4875 -29.50104,-0.011 -14.57664,2.023 -25.66237,4.997 -38.10018,10.2211 -4.2951,1.804 -14.59248,7.0402 -22.75399,11.5704 -8.61705,4.7829 -14.92741,8.1544 -15.26256,8.1544 -0.20428,0 -0.21916,-0.3224 -0.0497,-1.0767 z m 229.2279,-11.0924 c -6.9545,-0.3277 -11.8818,-2.2002 -16.2721,-6.1838 l -1.1271,-1.0226 0.1355,-2.417 c 0.3096,-5.5237 2.5985,-8.2033 9.7708,-11.4387 3.4782,-1.569 9.1628,-3.4493 15.0474,-4.9772 4.8413,-1.257 7.7062,-1.8903 19.433,-4.2957 15.8227,-3.2455 23.1927,-5.5897 32.45878,-10.3239 7.4563,-3.8096 13.6191,-8.2854 21.7808,-15.8189 7.3928,-6.8238 22.2428,-21.6742 23.6505,-23.6511 l 0.5246,-0.7367 -1.495,-1.1738 c -4.2162,-3.3104 -15.6684,-11.9372 -19.9714,-15.0443 -2.265,-1.6355 -2.3686,-1.6789 -4.4979,-1.8852 -4.0349,-0.3907 -48.53128,-0.5017 -204.12905,-0.5089 l -154.85364,-0.01 0.0724,-4.5641 0.0724,-4.5641 172.11145,0.068 c 94.66127,0.037 173.00444,-0.022 174.09584,-0.1323 l 1.9843,-0.1999 -2.7768,-2.1166 c -6.0298,-4.5964 -10.9836,-8.0698 -11.50907,-8.0698 -0.3038,0 -1.5,0.6039 -2.6582,1.3419 -7.7174,4.918 -15.1494,6.5011 -22.8827,4.8743 -2.231,-0.4693 -6.4191,-2.3803 -9.2993,-4.2432 -5.0322,-3.2548 -10.123,-8.3834 -13.5144,-13.6147 -2.6336,-4.0623 -4.3943,-7.9104 -5.69,-12.4354 -0.6793,-2.3727 -0.7193,-2.8175 -0.7136,-7.9375 0.01,-6.153 0.2768,-7.7413 1.8869,-11.1052 0.7042,-1.4712 1.445,-2.4757 2.8345,-3.8438 2.179,-2.1454 4.1199,-3.2543 7.4444,-4.2534 4.6181,-1.3878 13.7696,-1.1288 20.7602,0.5876 7.4867,1.8381 16.9244,6.6687 22.60747,11.5713 3.1199,2.6915 7.0907,9.0053 7.9464,12.6354 0.5151,2.185 0.512,5.9452 -0.01,8.7325 -0.2266,1.2166 -0.9623,3.8549 -1.635,5.8627 l -1.2229,3.6507 0.6428,0.6159 c 0.3535,0.3387 4.5718,3.5652 9.374,7.17 4.8022,3.6047 9.3266,7.0468 10.0542,7.6491 1.9244,1.5929 2.5746,1.9537 4.4246,2.4552 1.5208,0.4123 5.2623,0.4624 44.391,0.594 l 42.7302,0.1436 0.072,4.5641 0.072,4.5641 h -37.5771 c -20.6674,0 -37.572,0.089 -37.5658,0.1984 0.01,0.1091 1.2769,1.0914 2.8236,2.1828 4.9009,3.458 13.4144,9.8863 15.8503,11.968 1.2921,1.1042 3.2422,2.9142 4.3336,4.0223 l 1.9843,2.0146 -1.0266,1.9942 c -0.5646,1.0968 -1.2961,2.1709 -1.6256,2.3867 -1.7284,1.1325 -4.242,0.573 -7.7376,-1.7223 l -2.3836,-1.5651 -0.7328,1.7617 c -4.1031,9.865 -12.4151,22.7695 -24.2475,37.645 -9.2162,11.5865 -19.0559,20.0998 -30.97837,26.8025 -9.2671,5.2099 -17.3175,8.3494 -27.2293,10.619 -3.4738,0.7954 -4.8049,0.9631 -9.3427,1.1766 -5.7679,0.2715 -10.9163,0.2717 -16.6687,6e-4 z m -44.45,-31.2145 c -15.1642,-1.3776 -27.6018,-12.67 -30.3161,-27.5248 -0.4549,-2.4895 -0.3815,-7.6748 0.1438,-10.1528 1.2294,-5.7999 4.4912,-12.018 8.5953,-16.3855 4.5846,-4.8788 11.5742,-8.5362 19.328,-10.1138 1.8222,-0.3707 3.0524,-0.4279 6.4823,-0.3017 4.603,0.1695 6.473,0.4935 10.2385,1.774 11.0695,3.7641 18.8202,12.1457 22.0654,23.8614 0.9275,3.3485 1.1449,7.9618 0.5218,11.0712 -0.5672,2.8302 -1.9906,7.1227 -3.08,9.2884 -2.3094,4.591 -6.8227,9.8128 -10.8925,12.6025 -6.6663,4.5695 -14.778,6.6359 -23.0865,5.8811 z"
         id="path16" /><path
         style="fill:#ffffff;fill-opacity:1;stroke-width:7.91769"
         d="m 1405.9404,2447.4723 c -0.2317,-0.3748 15.4542,-16.5269 34.8575,-35.8934 19.4034,-19.3664 43.6399,-44.0906 53.859,-54.9426 10.2191,-10.852 26.8461,-28.0851 36.9489,-38.2959 l 18.3688,-18.5651 -7.2768,-4.0845 c -13.6783,-7.6777 -16.868,-12.1522 -16.7067,-23.4354 0.2158,-15.0853 9.8756,-25.6082 23.5078,-25.6082 5.478,0 15.935,3.5608 28.5876,9.7346 15.3941,7.5115 44.9736,28.0736 62.7821,43.6429 27.2858,23.8549 32.2803,48.5282 13.5931,67.1502 -2.8225,2.8126 -7.8102,6.6996 -11.0838,8.6378 -18.0791,10.7037 -58.1383,21.9723 -106.4631,29.9478 -17.5686,2.8995 -21.0018,2.9984 -19.4957,0.5615 0.754,-1.22 14.3047,-9.009 43.3318,-24.9074 37.2438,-20.3987 55.1497,-31.1659 59.0282,-35.4948 1.4796,-1.6513 1.4307,-1.7595 -2.099,-4.6455 -4.2847,-3.5035 -18.3758,-13.1848 -19.1902,-13.1848 -0.3126,0 -6.0384,4.086 -12.7241,9.0799 -15.5568,11.6204 -28.7999,20.5455 -59.0191,39.7754 -32.2169,20.5011 -64.8708,40.4512 -90.9011,55.5363 -27.8521,16.141 -28.8771,16.6548 -29.9052,14.9912 z m 332.8081,-160.7553 c -16.8206,-5.7557 -30.673,-20.6377 -39.8156,-42.7749 -3.4955,-8.4638 -7.1974,-21.6554 -7.2005,-25.6587 -0.01,-8.7418 7.684,-16.1356 16.7836,-16.1356 9.4516,0 12.4629,2.9869 22.2135,22.0338 8.5728,16.7459 15.3454,27.4415 19.2736,30.4377 4.0777,3.1103 9.431,2.8812 16.8961,-0.7228 15.8939,-7.6734 33.5958,-26.0169 53.4021,-55.3376 4.6087,-6.8226 8.6966,-12.2088 9.0841,-11.9693 1.3489,0.8337 -4.293,20.7827 -9.6615,34.1619 -14.6666,36.5517 -34.6929,60.1064 -56.5692,66.536 -6.7632,1.9877 -17.6753,1.7327 -24.4062,-0.5705 z m -221.9596,-62.073 c -2.4579,-13.5176 -2.8765,-35.0467 -0.963,-49.5306 4.3975,-33.2864 18.7867,-56.0146 40.3434,-63.724 7.1763,-2.5664 20.7581,-3.1175 29.4075,-1.1932 21.1969,4.7158 42.8061,19.9889 58.4807,41.3333 6.3894,8.7007 6.9836,15.6713 1.963,23.0313 -4.2994,6.3026 -15.101,8.6496 -21.6028,4.6938 -1.6953,-1.0314 -8.8695,-6.8916 -15.9429,-13.0227 -13.585,-11.7754 -20.3332,-16.6883 -29.2524,-21.2966 -4.8582,-2.5101 -6.195,-2.8197 -12.1744,-2.8197 -8.3911,0 -11.605,1.4514 -18.5069,8.3575 -11.3467,11.3539 -21.1489,34.6614 -27.1805,64.63 -1.2992,6.4555 -2.7462,11.8653 -3.2156,12.0217 -0.4693,0.1564 -1.0795,-0.9599 -1.3561,-2.4808 z m 187.6234,-33.0606 c -13.8558,-3.726 -23.8926,-14.9029 -26.3699,-29.3652 -3.9653,-23.1494 16.8707,-44.2772 40.3424,-40.9071 19.7906,2.8415 33.9752,21.7464 30.6931,40.9071 -3.6598,21.3658 -24.1987,34.8691 -44.6656,29.3652 z"
         id="path51" /><path
         style="fill:#ffffff;fill-opacity:1;stroke-width:7.91769"
         d="m 2870.3988,536.16892 c -3.4026,-1.21378 -9.5275,-3.87841 -13.6106,-5.92134 -15.235,-7.62279 -24.0593,-10.46678 -32.2802,-10.40363 -8.1763,0.0627 -14.4689,2.15314 -36.3919,12.08973 -9.955,4.51201 -11.1789,4.76689 -22.8907,4.76689 -12.2815,0 -12.4696,-0.0454 -25.3653,-6.16976 -12.5566,-5.96295 -13.3445,-6.16567 -23.5094,-6.04855 -8.8856,0.10232 -12.7482,0.89412 -24.8968,5.10382 -9.1267,3.16248 -15.0026,4.59815 -16.0854,3.9302 -1.3418,-0.82778 -1.7867,-6.60782 -2.0846,-27.08343 l -0.3788,-26.03102 h -41.9999 -41.9999 v -2.90024 -2.90034 l 43.6722,-0.87003 c 24.0197,-0.4785 44.5665,-0.52684 45.6594,-0.10741 3.0448,1.16835 3.4333,4.38917 3.4516,28.60988 l 0.017,22.45057 11.4388,-3.6786 c 13.6317,-4.38371 25.6472,-5.64519 33.9362,-3.56292 3.2858,0.82551 10.7071,3.75001 16.4917,6.49896 11.8234,5.61885 21.2228,7.13457 30.2095,4.87175 3.0847,-0.77671 11.6088,-4.15809 18.9423,-7.51411 7.3334,-3.35602 16.8626,-7.07578 21.1759,-8.26612 11.5491,-3.18728 20.9083,-1.25003 43.507,9.00549 26.6494,12.09373 32.6702,12.06138 53.1513,-0.28577 17.7221,-10.68386 27.2754,-13.28997 27.2754,-7.44069 0,2.43882 -1.0456,3.3333 -5.7842,4.94789 -3.1814,1.08402 -10.5551,4.83213 -16.3863,8.32917 -5.8311,3.49705 -13.6162,7.39527 -17.3001,8.66275 -8.359,2.87589 -19.7637,2.84199 -27.9641,-0.0827 z m -221.0029,-70.30574 c 0.6522,-1.19088 3.7952,-4.67093 6.9845,-7.73337 3.1893,-3.06234 13.3365,-14.19835 22.5493,-24.74664 9.2129,-10.54829 20.0231,-22.54825 24.0229,-26.66663 l 7.2723,-7.48804 -12.3483,-8.35325 c -21.1753,-14.32448 -36.0172,-33.22702 -34.3168,-43.70562 0.8237,-5.0751 5.5328,-10.62389 10.9049,-12.84918 7.9526,-3.29406 27.4805,11.01624 46.7788,34.28033 15.8949,19.16124 19.1771,29.07111 13.0765,39.48101 -6.3565,10.8466 -24.6225,26.81883 -43.3346,37.89287 -12.4542,7.37045 -40.0556,22.05384 -41.4563,22.05384 -0.8828,0 -0.9269,-0.71583 -0.1332,-2.16532 z m 146.0628,-73.00271 c -9.396,-4.76343 -14.1702,-12.59039 -14.0921,-23.10298 0.1195,-16.06681 10.6867,-26.6997 26.5347,-26.6997 15.8682,0 26.4522,10.63852 26.563,26.6997 0.072,10.3533 -4.6844,18.16681 -14.0285,23.04828 -8.7827,4.58807 -16.0037,4.60388 -24.9771,0.0545 z m -41.7419,-24.65923 c -4.0489,-1.43222 -7.5649,-4.44277 -14.6981,-12.58503 -15.7182,-17.94174 -75.8734,-99.63999 -75.8734,-103.04545 0,-2.39503 2.6513,-0.68149 11.32,7.31621 98.377,90.76208 98.8028,91.18533 98.8028,98.21122 0,5.2821 -2.0694,8.42586 -6.8652,10.42971 -5.0405,2.10599 -5.8692,2.08464 -12.6861,-0.32666 z"
         id="path37" /><path
         style="fill:#ffffff;fill-opacity:1;stroke-width:7.91767"
         d="m 1413.1153,538.0497 c -0.6193,-0.16638 -1.5903,-0.40761 -2.1579,-0.53618 -0.9376,-0.21236 -1.0321,-0.38775 -1.0321,-1.91543 0,-1.38581 0.1221,-1.68166 0.6941,-1.68166 0.563,0 4.463,-8.68667 20.6391,-45.96918 l 19.9451,-45.96911 -6.2067,-8.16654 c -8.2246,-10.82144 -11.761,-15.05042 -17.6156,-21.06453 -6.9435,-7.13276 -13.5057,-12.62804 -20.6474,-17.2901 l -2.9873,-1.9502 -2.3438,-9.07537 c -1.289,-4.99149 -2.4418,-9.42145 -2.5617,-9.8445 -0.1874,-0.66075 0.066,-0.85881 1.807,-1.40733 2.5973,-0.81868 2.7728,-0.80663 2.9952,0.20604 0.1019,0.4645 1.1304,4.47546 2.2856,8.91328 1.7214,6.61279 2.2529,8.17029 2.9456,8.63163 3.303,2.19978 10.1086,7.37911 13.2477,10.08214 8.5702,7.37935 16.0037,15.61512 25.6205,28.38521 2.798,3.71534 5.9953,7.87968 7.1051,9.25404 l 2.0176,2.49872 -21.0995,48.6347 c -11.6048,26.74905 -21.1954,48.61938 -21.3122,48.60071 -0.117,-0.019 -0.7193,-0.16996 -1.3384,-0.33634 z m -10.8593,-11.69373 c -3.7565,-10.42987 -6.7325,-16.60059 -11.0144,-22.83816 -4.7435,-6.90959 -8.9107,-11.88772 -15.2523,-18.21998 -9.1733,-9.15976 -15.4728,-13.64195 -22.3428,-15.89731 -1.3134,-0.4311 -8.8673,-2.39334 -16.7866,-4.36048 -20.6562,-5.13097 -26.0304,-7.23527 -30.3247,-11.87335 -2.9164,-3.15012 -3.7254,-5.07068 -3.6855,-8.74947 0.046,-4.2402 0.966,-6.76152 3.042,-8.33577 3.8967,-2.95494 10.4832,-3.57849 17.3701,-1.64451 7.891,2.21599 16.3938,5.6851 28.9908,11.82827 10.251,4.99905 16.7346,9.27622 23.7962,15.698 17.2266,15.6658 28.9544,41.36705 28.9904,63.53127 0.01,3.15381 -0.1421,4.7298 -0.4854,5.19943 -0.435,0.59487 -0.7042,0.0873 -2.2978,-4.33794 z m 29.5044,-56.88705 c -0.8119,-1.39809 -3.966,-7.1018 -7.0092,-12.67479 -12.3711,-22.65644 -19.4121,-33.33357 -24.5815,-37.27636 -1.5487,-1.1812 -1.8275,-1.26254 -3.6762,-1.07171 -3.8787,0.40027 -7.7508,2.90979 -19.3151,12.51783 -8.6694,7.203 -16.0311,10.61433 -21.1672,9.80889 -3.7377,-0.58603 -7.3215,-2.86226 -8.3915,-5.32955 -1.6201,-3.73592 -1.276,-6.9684 1.333,-12.5226 2.7409,-5.83486 6.0708,-9.35435 13.3236,-14.08201 8.7102,-5.67753 17.9179,-8.9898 27.9413,-10.05108 6.3031,-0.66737 11.0195,0.0388 15.9228,2.385 7.2194,3.45415 13.6787,14.36034 20.162,34.04234 3.6227,10.99772 4.7041,15.46818 6.5364,27.02098 1.6338,10.30089 1.4438,11.57595 -1.0784,7.23306 z m -58.6137,-95.65215 c -7.3503,-0.86883 -17.2852,-3.19181 -22.2892,-5.21189 -8.6793,-3.50377 -13.0388,-8.04738 -13.6121,-14.18691 -0.2504,-2.68169 0.4274,-4.72754 2.3006,-6.94383 1.967,-2.32703 3.6098,-2.89583 8.2687,-2.86262 5.1931,0.037 7.7128,0.76811 18.4448,5.35103 12.2315,5.22335 16.5144,6.44122 22.6535,6.44122 10.6938,0 23.6757,-6.79384 34.1474,-17.87065 2.1839,-2.30997 3.6306,-4.40508 6.455,-9.3476 2.0021,-3.50371 3.8799,-6.69629 4.1726,-7.09477 0.5212,-0.70907 0.5417,-0.70686 0.9754,0.10341 0.3474,0.64913 0.3167,1.56006 -0.1424,4.21998 -0.7664,4.44128 -1.6819,7.14038 -4.1365,12.19526 -9.7738,20.12796 -30.8816,34.69713 -51.0455,35.2329 -2.6833,0.0711 -5.4698,0.0596 -6.1923,-0.025 z m 17.6392,-23.60435 c -10.7972,-28.3988 -28.057,-52.03028 -50.5725,-69.24213 -2.295,-1.75454 -4.1836,-3.28383 -4.1967,-3.39833 -0.047,-0.41673 47.7379,-26.29891 47.9978,-25.99728 0.1471,0.17079 0.7185,1.10212 1.2696,2.06971 0.7592,1.33303 0.8878,1.83026 0.5308,2.05253 -0.2592,0.16144 -9.5004,5.2206 -20.536,11.24277 -11.0357,6.02203 -20.1038,11.09367 -20.1513,11.27026 -0.047,0.17645 1.3398,1.48301 3.0828,2.90341 4.4158,3.59851 12.1629,11.09164 16.0627,15.53609 13.5017,15.38749 23.1033,31.47175 31.3584,52.52997 l 0.7724,1.97029 h -2.6309 c -2.4602,0 -2.6539,-0.0612 -2.9871,-0.93729 z m -55.1683,-14.49492 c -6.8856,-0.72642 -13.3148,-5.1862 -16.6511,-11.55036 -5.99,-11.42645 -0.7411,-24.9022 11.5847,-29.74173 7.7062,-3.02567 17.2665,-1.15979 23.0491,4.49847 5.0833,4.97401 7.8134,12.14869 6.8116,17.90106 -2.1696,12.45903 -12.3376,20.20668 -24.7943,18.89256 z m -43.8272,-3.75309 c -3.5244,-1.74452 -6.1908,-5.37393 -7.4843,-10.18705 -2.0793,-7.73685 0.8132,-25.5611 5.7269,-35.28997 5.4551,-10.80116 17.9744,-20.82945 31.7758,-25.45334 6.7053,-2.24653 10.8191,-2.98332 17.97,-3.2187 7.1304,-0.23472 11.0244,0.13603 15.2995,1.45647 2.0286,0.62653 3.6868,1.67845 3.2829,2.08242 -0.049,0.0483 -3.8877,0.42233 -8.532,0.83113 -9.5584,0.84133 -11.5708,1.37245 -19.4611,5.13598 -10.6344,5.07241 -18.8778,12.61581 -21.5529,19.72298 -1.9776,5.25394 -2.2221,7.44572 -2.2954,20.5716 -0.074,13.22427 -0.3791,15.93511 -2.2182,19.69387 -1.1062,2.26048 -3.298,4.44206 -5.0494,5.02559 -2.1134,0.70412 -5.6444,0.52856 -7.4618,-0.37098 z"
         id="path57"
         inkscape:export-filename="escalade.svg"
         inkscape:export-xdpi="414.18015"
         inkscape:export-ydpi="414.18015" /><path
         style="fill:#ffffff;fill-opacity:1;stroke-width:7.91768"
         d="m 2128.3094,2724.7339 c -3.3226,-6.5024 -7.6207,-23.4503 -10.8721,-42.8681 -1.0754,-6.4231 -1.3946,-7.371 -3.868,-11.4864 -4.8206,-8.0207 -6.3503,-15.3303 -3.8683,-18.4855 1.2604,-1.6024 4.9401,-2.838 6.9496,-2.3336 1.1622,0.2917 1.4727,-0.056 2.9407,-3.2937 3.7451,-8.2599 10.867,-18.451 17.1525,-24.5447 12.809,-12.4183 28.9741,-24.1771 38.44,-27.9623 8.8293,-3.5306 15.6537,-0.7654 13.7134,5.5567 -0.3167,1.0324 -0.5285,1.8771 -0.4704,1.8771 0.059,0 1.5893,-0.5214 3.4025,-1.1587 1.957,-0.6878 5.3208,-1.273 8.2778,-1.4399 l 4.9813,-0.2812 5.0896,4.6205 c 11.7253,10.6442 31.4747,33.5378 55.8758,64.7709 11.2939,14.4561 37.7871,49.8164 37.5222,50.0811 -0.1129,0.1123 -5.3917,-2.7192 -11.7321,-6.2922 -50.7617,-28.6053 -83.3664,-54.6774 -100.5835,-80.4308 -4.0591,-6.0718 -7.9042,-13.742 -8.3813,-16.7195 l -0.3301,-2.0612 -3.0556,4.2738 c -7.2948,10.2034 -23.9652,28.7416 -34.6069,38.4841 -6.5329,5.9809 -6.7157,6.7402 -2.418,10.0401 5.5441,4.2567 16.2337,13.8664 25.2827,22.7287 5.0198,4.9162 9.9836,9.3743 11.0305,9.9069 9.5793,4.8734 34.3077,8.8063 63.9205,10.1661 l 8.8502,0.4064 -6.3611,3.1183 c -10.1146,4.9581 -23.6602,8.5758 -39.7387,10.613 -26.125,3.3102 -44.5484,-3.3085 -66.6493,-23.9441 -2.0792,-1.9413 -3.9714,-3.314 -4.2047,-3.0505 -0.2335,0.2635 -1.4789,7.3242 -2.7676,15.6905 -1.2886,8.3663 -2.4274,15.2968 -2.5304,15.4011 -0.1025,0.1043 -0.5492,-0.518 -0.9912,-1.3829 z m -57.6346,-10.6683 c -24.8246,-8.6677 -46.4546,-25.5776 -59.6039,-46.5971 -1.5958,-2.5507 -3.5056,-5.9396 -4.2444,-7.531 -1.2853,-2.7693 -1.3046,-2.974 -0.447,-4.7723 3.0088,-6.3094 18.1033,-10.5455 44.3822,-12.4553 16.136,-1.1727 43.5057,-2.3603 46.313,-2.0096 3.419,0.4272 6.7621,2.1673 8.3959,4.3702 0.9408,1.2684 1.1576,2.3594 1.1539,5.808 0,5.8755 -1.8398,10.3337 -4.9738,12.096 -5.0039,2.8138 -8.0341,3.1065 -35.7024,3.4483 -23.3898,0.2889 -25.8824,0.4078 -27.2422,1.2988 -4.4509,2.9169 1.2375,12.3262 17.3003,28.6171 4.4169,4.4796 10.7688,10.6629 14.1152,13.7408 3.3465,3.0778 5.8356,5.5815 5.5314,5.5636 -0.3042,-0.019 -2.5445,-0.7277 -4.9782,-1.5775 z m -161.5928,-78.1625 c 14.651,-25.4327 23.8064,-39.394 33.8748,-51.6571 10.3045,-12.5503 17.5541,-17.0205 24.5491,-15.137 5.1877,1.3969 7.71,6.5593 6.8999,14.1225 -0.3493,3.2632 -0.2919,3.5801 0.6491,3.5791 2.1912,0 20.0215,-2.8247 27.9483,-4.4239 5.6045,-1.1307 9.1105,-2.1415 10.7393,-3.0959 3.9489,-2.3143 10.6027,-8.3938 16.912,-15.4522 6.8612,-7.676 9.4272,-9.311 14.0088,-8.9258 2.4036,0.2021 3.012,0.5243 4.8068,2.5467 2.0944,2.3601 3.4614,5.6377 4.1137,9.8619 0.739,4.7883 -4.3065,12.2918 -17.0116,25.2983 l -8.1049,8.2971 h -19.5523 c -20.0875,0 -24.1859,-0.2944 -35.4985,-2.55 l -5.4366,-1.0841 -3.2585,3.0167 c -4.8952,4.5322 -14.4296,11.5146 -27.0775,19.8298 -10.8766,7.1508 -28.7641,18.1248 -29.5432,18.1248 -0.2049,0 0.2364,-1.0579 0.9813,-2.3509 z m -46.3889,-25.8644 c -17.1991,-1.4294 -31.6844,-6.0902 -43.3116,-13.936 -4.7718,-3.22 -5.5412,-4.492 -4.6054,-7.6154 0.7223,-2.4107 2.5553,-4.0481 6.9845,-6.2386 7.0396,-3.4816 14.2526,-4.9468 24.1072,-4.8969 13.8077,0.07 27.0706,3.959 43.6011,12.7851 4.3062,2.2992 4.7507,2.7014 6.0105,5.4381 1.5337,3.3324 1.4291,6.0031 -0.3278,8.3711 -1.4825,1.9979 -5.4151,4.2737 -8.9606,5.1855 -3.9417,1.0137 -16.4199,1.4954 -23.4979,0.9071 z m 16.7048,-3.6308 c 8.4259,-1.7404 13.8067,-4.6077 12.577,-6.7021 -1.7494,-2.9798 -19.6648,-10.021 -31.4944,-12.378 -15.01,-2.9908 -40.586,-1.4593 -42.1136,2.5218 -0.5828,1.5185 1.5178,3.1038 8.8766,6.6989 10.0257,4.8982 23.4665,9.1539 32.6839,10.3486 4.5715,0.5925 15.5715,0.3161 19.4705,-0.4892 z m 98.4938,-62.6746 c -10.7203,-3.5439 -17.5689,-13.0773 -17.5689,-24.4562 0,-11.6437 7.3267,-21.384 18.4973,-24.59 2.4523,-0.7039 4.5829,-0.8753 8.3983,-0.6757 4.4124,0.2308 5.6879,0.5406 9.3149,2.2631 19.5601,9.289 19.5414,36.8274 -0.031,46.1223 -3.8501,1.8284 -4.7409,2.0275 -9.8351,2.1981 -4.3933,0.1472 -6.2861,-0.039 -8.7754,-0.8616 z m 67.5031,-24.9199 c -9.2242,-2.9494 -15.9535,-10.8108 -17.5977,-20.5584 -2.5378,-15.0465 9.6891,-29.2627 25.1681,-29.2627 13.2959,0 24.1437,9.8641 25.54,23.224 1.2308,11.7747 -7.1777,23.7962 -18.8105,26.8935 -3.9676,1.0565 -10.4916,0.9212 -14.2999,-0.2964 z m 65.3829,-0.4439 c -3.5514,-0.2532 -7.9941,-1.3726 -10.5098,-2.648 -7.3556,-3.7293 -7.9659,-9.7906 -1.9267,-19.1397 5.0039,-7.7468 8.0123,-10.2437 42.7843,-35.5093 18.1428,-13.1827 33.3366,-24.1751 33.7639,-24.4276 0.9611,-0.5678 1.5565,-1.5646 -7.5935,12.7108 -17.6325,27.5094 -32.6707,47.6878 -44.8674,60.2037 -7.5756,7.7736 -9.1793,8.9863 -11.6508,8.8101 z"
         id="path56" /><path
         style="fill:#ffffff;fill-opacity:1;stroke-width:7.91769"
         d="m 667.92953,538.71416 c -0.0178,-1.20307 1.51964,-14.0059 2.74866,-22.98237 2.34543,-17.13232 2.79976,-21.33571 3.24624,-30.04088 0.492,-9.59434 0.11577,-16.3603 -1.36701,-24.53588 -1.71617,-9.46653 -3.83161,-13.98213 -8.10752,-17.30533 l -1.3768,-1.07008 -5.04203,10.12772 c -8.93435,17.94607 -13.21511,24.27476 -22.82354,33.74024 -15.69231,15.45973 -24.54793,22.19497 -38.55956,29.32763 -19.90581,10.13305 -45.27491,17.35876 -66.62526,18.97646 l -3.48221,0.26378 3.01786,-1.44034 c 1.65982,-0.79232 6.87154,-2.98544 11.5818,-4.8738 9.69644,-3.88715 11.33589,-4.74664 19.75771,-10.35707 17.55876,-11.69724 30.5303,-22.38923 40.25867,-33.18365 8.8029,-9.76749 14.42174,-19.78067 19.32464,-34.43757 2.39006,-7.14462 5.22789,-17.97776 4.80922,-18.35787 -0.17656,-0.15966 -1.47001,-0.65731 -2.87438,-1.10501 -3.37607,-1.07583 -10.38309,-4.5793 -13.00629,-6.50291 -3.81859,-2.80008 -7.35158,-6.94542 -9.17655,-10.76749 -1.57527,-3.29903 -1.72806,-3.96831 -1.72806,-7.56564 0,-3.316 0.2,-4.37308 1.25166,-6.6173 2.47551,-5.28229 8.45456,-10.04534 13.57396,-10.813 4.35489,-0.65312 19.33605,1.37324 30.94383,4.18552 3.66896,0.88877 6.07283,1.17219 9.94826,1.17268 7.62667,0 9.79522,0.90671 12.93895,5.40533 1.90865,2.73145 1.66282,2.53145 8.80348,7.15828 12.47897,8.08593 21.32537,20.20767 22.56724,30.92294 1.93274,16.67606 -0.1211,34.76845 -5.87008,51.6931 -3.39184,9.98649 -6.61504,16.73629 -15.85214,33.19658 -2.43597,4.34115 -5.42982,9.77332 -6.6527,12.07154 -1.22296,2.29822 -2.22563,3.96968 -2.22805,3.71439 z m 35.73676,-150.70573 c -5.11059,-0.99467 -9.57057,-4.70145 -10.724,-8.91293 -0.67931,-2.47987 -0.67664,-8.79094 0,-11.31996 1.29943,-4.82482 10.83265,-10.13322 27.66603,-15.40533 34.85083,-10.91495 47.02293,-14.37525 80.08977,-22.76821 15.37072,-3.90121 28.39303,-6.41059 31.16441,-6.00509 0.90105,0.13161 0.70663,0.40202 -1.48335,2.06176 -3.71754,2.81714 -43.38437,25.80766 -62.41346,36.17411 -16.49716,8.98714 -44.93473,22.69732 -51.85826,25.00152 -2.45441,0.81681 -7.44082,1.69984 -9.19563,1.62829 -0.6384,-0.0267 -2.10081,-0.23048 -3.25004,-0.45416 z M 509.59394,349.28299 c 0,-0.54568 2.45263,-5.06871 4.37413,-8.06653 2.48569,-3.87777 8.0308,-10.51212 11.93888,-14.28382 2.77316,-2.67623 14.58059,-12.24268 22.9193,-18.56903 15.7219,-11.92804 33.27137,-19.90969 51.5733,-23.45641 4.9641,-0.96201 6.84947,-1.07171 18.30209,-1.06435 11.36159,0 13.38172,0.12466 18.33939,1.07276 5.43823,1.03912 11.09409,2.41422 13.04106,3.17049 2.22328,0.86378 6.76192,5.82821 8.49805,9.29571 1.13517,2.26701 1.20558,3.65537 0.34786,6.86685 -1.30243,4.8755 -3.97534,8.3063 -8.19054,10.51325 -1.89466,0.992 -2.65125,1.09094 -8.12497,1.06217 -5.35263,-0.0283 -6.98168,-0.24899 -14.39299,-1.95255 -12.11916,-2.78593 -18.09175,-3.51463 -26.23224,-3.20145 -19.60816,0.75473 -41.89133,8.17994 -66.85744,22.27816 -7.03759,3.97404 -8.83645,5.13241 -16.13006,10.38552 -5.66265,4.07849 -9.40582,6.44607 -9.40582,5.94923 z m 354.87024,-32.2476 c -1.95408,-0.46548 -5.19434,-2.40646 -6.74398,-4.04001 -0.68771,-0.72506 -1.81026,-2.54179 -2.49425,-4.03759 -1.09515,-2.39442 -1.21836,-3.14317 -1.03186,-6.26774 0.33711,-5.63977 2.91051,-9.64632 7.71019,-12.00331 2.21948,-1.08989 3.22708,-1.29539 6.35221,-1.29539 4.31763,0 6.87082,1.00566 9.74414,3.83807 4.19991,4.14026 5.47194,11.21625 2.90808,16.17639 -3.15254,6.0987 -9.84163,9.20226 -16.44453,7.62958 z M 708.95262,312.3628 c -3.09143,-0.55683 -8.68374,-2.72676 -11.30799,-4.38771 -8.28496,-5.24365 -13.7565,-14.76709 -14.27841,-24.85164 -0.66475,-12.84632 7.78674,-24.94542 20.80338,-29.78196 4.9401,-1.83573 11.68957,-2.28722 17.13977,-1.1468 5.16435,1.0806 11.3426,4.30889 14.97922,7.82691 5.28084,5.10857 7.9662,10.14939 9.462,17.76232 0.65133,3.31504 0.69086,4.54139 0.24761,7.67631 -2.18124,15.42303 -14.55617,26.61866 -30.0282,27.16595 -2.55351,0.0913 -5.71131,-0.0283 -7.01738,-0.26338 z"
         id="path17"
         inkscape:export-filename="petanque.svg"
         inkscape:export-xdpi="414.18015"
         inkscape:export-ydpi="414.18015" /><path
         style="fill:#ffffff;fill-opacity:1;stroke-width:7.91768"
         d="m 1467.579,537.93752 c -0.2694,-0.26923 -0.3987,-0.69015 -0.2946,-0.95813 0.1024,-0.26287 1.9549,-5.51902 4.1173,-11.68046 15.5271,-44.24297 19.5947,-66.22541 19.6106,-105.98256 0,-5.75612 0.1393,-11.3279 0.3048,-12.38181 1.3482,-8.59157 10.4973,-13.19054 18.4655,-9.28218 3.5357,1.73409 5.8428,4.89836 6.7343,9.2357 3.0423,14.80395 2.0765,33.01674 -2.6591,50.1365 -7.1248,25.75721 -20.8796,51.55441 -40.2542,75.4971 -5.1545,6.36984 -5.1104,6.33018 -6.0246,5.41584 z m 137.9894,-0.18309 c -0.2374,-0.36481 -2.1465,-4.51048 -4.2426,-9.21263 -10.1158,-22.69265 -18.4081,-39.19299 -26.3714,-52.47538 -9.2077,-15.358 -17.3441,-26.01693 -28.6605,-37.54615 -6.1991,-6.31556 -9.3925,-9.17172 -17.2522,-15.42998 -3.1617,-2.51772 -6.0557,-5.00003 -6.431,-5.51626 -0.3753,-0.5163 -1.0628,-1.74307 -1.5277,-2.72618 -4.1516,-8.77872 3.9177,-19.26827 13.5701,-17.64031 3.8511,0.64963 12.4633,5.61774 19.4472,11.21863 3.7614,3.01644 9.9108,9.10367 13.2352,13.10119 10.4096,12.51731 19.6024,29.75427 26.2568,49.23258 6.454,18.89146 10.8073,38.90154 13.3088,61.17334 0.6187,5.50872 0.6221,5.70931 0.1014,6.09037 -0.7352,0.53761 -0.9332,0.50051 -1.4336,-0.26922 z m -0.8278,-82.32726 c -1.0134,-0.56822 -1.4078,-1.30058 -1.4078,-2.61427 0,-0.80828 0.6029,-1.95737 2.7553,-5.25222 12.6997,-19.43936 21.9786,-39.4472 28.3434,-61.11519 3.7533,-12.77729 6.5653,-26.92695 7.9384,-39.94614 0.962,-9.12144 1.6516,-23.28964 1.1335,-23.28964 -0.1645,0 -3.0684,0.45985 -6.4527,1.02178 -17.2705,2.86777 -35.3682,5.09521 -58.7763,7.23396 -14.5788,1.33204 -20.6756,1.61084 -26.6713,1.21955 -7.8941,-0.51512 -13.2644,-1.62467 -15.8731,-3.27938 l -1.4191,-0.90011 -6.8355,1.02644 c -7.9912,1.20002 -15.0859,2.10734 -27.9142,3.56984 -15.814,1.80305 -24.7526,1.71436 -32.5949,-0.32318 -4.5802,-1.18999 -6.8734,-2.58012 -8.5378,-5.17525 -2.0803,-3.24378 -2.0844,-8.15538 -0.011,-11.4421 0.9144,-1.44853 2.9344,-3.2247 4.4029,-3.87126 3.2262,-1.42074 11.3971,-2.09791 20.6725,-1.71317 7.1495,0.29663 25.9141,2.30558 42.4047,4.54003 l 7.6177,1.03221 1.0656,-0.93558 c 2.9543,-2.59395 6.0463,-3.06502 19.9601,-3.04142 8.2101,0.0144 11.7638,0.15064 17.3935,0.66943 32.0763,2.95574 43.4071,4.19864 62.7245,6.88069 4.8261,0.67009 8.8607,1.13264 8.9654,1.02788 0.2661,-0.26608 -0.3913,-14.36552 -0.9437,-20.24036 -1.3078,-13.90829 -4.0917,-28.53557 -7.9673,-41.86233 -0.9196,-3.16184 -1.739,-6.04724 -1.821,-6.41205 -0.1474,-0.65514 -0.1114,-0.66327 2.9339,-0.66327 h 3.083 l 0.92,3.02162 c 4.1173,13.52192 7.2622,29.52235 8.7352,44.44199 1.5668,15.86926 1.3434,35.59765 -0.5807,51.2962 -3.7276,30.41224 -13.1905,59.41966 -28.0825,86.08321 -3.9078,6.99679 -10.8125,17.88162 -11.9328,18.81136 -0.7237,0.60054 -2.3376,0.70097 -3.2293,0.20073 z m -81.1527,-145.66812 c -3.1949,-0.62925 -4.0662,-0.86269 -5.6012,-1.50079 -6.0865,-2.52984 -11.0447,-8.30412 -12.7289,-14.82387 -0.7446,-2.88226 -0.6709,-7.78408 0.1616,-10.74717 2.1141,-7.52455 8.1442,-13.45079 15.6627,-15.39294 2.5961,-0.67061 7.7765,-0.67533 10.3181,-0.0111 7.6796,2.01203 13.8506,8.12089 15.799,15.63988 1.4907,5.7531 0.4282,12.14562 -2.8567,17.18773 -1.4503,2.226 -4.8468,5.48748 -7.1129,6.83009 -3.7861,2.24337 -10.018,3.52999 -13.6417,2.81644 z"
         id="path34"
         inkscape:export-filename="tiralarc.svg"
         inkscape:export-xdpi="96"
         inkscape:export-ydpi="96" /><path
         style="fill:#ffffff;fill-opacity:1;stroke-width:7.91769"
         d="m 141.5413,538.35508 c -7.8394,-0.4083 -12.0842,-1.0209 -18.9311,-2.7322 -20.2644,-5.0649 -38.35312,-14.0323 -41.81682,-20.7305 -1.71,-3.3069 -2.5475,-14.2243 -2.5528,-33.28466 0,-7.6343 -0.139,-19.715 -0.3031,-26.846 l -0.299,-12.9655 -5.033,-3.5551 c -17.96476,-12.6889 -25.00712,-19.1054 -31.95893,-29.1184 -2.81695,-4.0576 -6.27827,-10.7486 -7.91177,-15.2948 -2.95639,-8.2272 -4.37532,-20.2079 -3.54468,-29.9286 1.14451,-13.3933 4.3038,-20.412 13.18531,-29.29347 7.98844,-7.9885 17.15964,-12.7873 29.64927,-15.514 4.0311,-0.88 5.961,-1.0093 15.0608,-1.0093 9.15802,0 11.02142,0.1265 15.20222,1.0321 9.9692,2.1595 16.5017,4.8824 27.8263,11.5986 3.1994,1.8975 5.9894,3.4499 6.2002,3.4499 0.4396,0 14.9836,-15.4376 14.9836,-15.9043 0,-0.1692 -1.7868,-0.4481 -3.9707,-0.6198 -2.1839,-0.1717 -4.7364,-0.4301 -5.6723,-0.5742 l -1.7018,-0.262 v -32.6154 -32.6154 h 33.8078 33.808 v 32.6734 32.6734 h -5.9373 c -3.2654,0 -5.869,0.1764 -5.7858,0.392 0.084,0.2156 3.7546,4.1062 8.1587,8.6458 l 8.0073,8.2539 4.9259,-3.2489 c 7.5981,-5.0114 13.0088,-7.4987 21.0727,-9.687 19.7182,-5.3509 40.1503,-4.2158 53.511,2.9727 9.3126,5.0104 18.2989,14.2772 23.0375,23.75667 4.7977,9.598 6.5214,23.9794 4.2117,35.1391 -2.8503,13.7701 -10.1878,25.6557 -24.5819,39.8183 -8.7944,8.6529 -13.6047,12.4923 -21.8273,17.422 l -2.5965,1.5566 -0.024,29.7238 c -0.024,31.65416 -0.3501,39.67586 -1.7359,42.79776 -2.4513,5.5216 -14.6595,12.3927 -31.8478,17.9246 -13.3781,4.3057 -18.9221,5.3741 -31.085,5.9904 -9.7739,0.4952 -53.896,0.4803 -63.5317,-0.021 z m 114.5808,-45.4763 c 0,-3.0374 -2.335,-5.1734 -9.3306,-8.55806 -12.3564,-5.9785 -33.277,-10.8411 -56.6939,-13.1775 -8.7401,-0.872 -28.9242,-0.7589 -36.7576,0.2059 -11.4161,1.4061 -20.2108,3.0195 -30.2796,5.5547 -18.4108,4.6356 -31.21002,10.86106 -31.21002,15.18036 0,0.7601 0.2507,1.384 0.5673,1.4121 1.59772,0.1415 3.16842,-0.3008 6.90472,-1.9441 21.3389,-9.38576 29.5963,-11.24516 54.0259,-12.16566 25.3684,-0.9558 54.066,-0.3429 62.275,1.33 7.6425,1.5574 30.1921,9.29536 36.213,12.42646 1.2357,0.6426 2.7063,1.1779 3.2678,1.1895 0.8543,0.018 1.0205,-0.2196 1.018,-1.4537 z M 95.3522,427.59182 c 21.1662,-9.7553 32.5256,-13.125 54.8582,-16.2734 11.5887,-1.6337 12.6099,-1.8606 12.7993,-2.8436 0.268,-1.3908 -7.8309,-21.7488 -12.7735,-32.1085 -4.5174,-9.4681 -10.2923,-17.26 -19.0364,-25.6849 -13.1272,-12.64807 -24.0087,-17.73227 -41.25722,-19.27677 -20.42302,-1.8288 -36.29921,5.9761 -43.91907,21.59107 -2.82054,5.78 -3.69801,9.5041 -3.9666,16.835 -0.32262,8.8049 0.97643,15.0575 4.66038,22.4334 3.68995,7.3878 16.67168,22.2568 26.98119,30.9039 3.4095,2.8597 11.446,8.5235 12.1238,8.5445 0.3036,0.01 4.592,-1.8449 9.52992,-4.1207 z m -16.25052,-5.9087 c -4.1897,-2.9069 -17.8292,-16.5526 -21.70902,-21.7193 -5.82221,-7.7533 -6.80876,-11.3199 -7.15813,-25.8799 -0.45743,-19.0631 0.98157,-23.4799 9.58763,-29.4294 6.0752,-4.1997 9.39537,-5.1827 20.15462,-5.96707 12.1512,-0.8859 24.36992,0.69677 30.60792,3.96467 10.6219,5.5646 23.3655,18.7653 32.0819,33.2329 3.4759,5.7692 9.1893,17.8392 10.2477,21.6487 0.8803,3.1676 0.6566,4.7363 -0.8961,6.2891 -1.3581,1.358 -2.8718,1.7716 -12.519,3.4213 -12.2065,2.0872 -21.9612,4.9372 -33.9867,9.9301 -10.3293,4.2884 -18.31742,6.8408 -21.40982,6.8408 -1.2349,0 -2.4694,-0.5756 -5.001,-2.3319 z m 186.04472,7.086 c 4.6218,-2.1515 15.725,-10.8227 22.0739,-17.2389 8.9414,-9.0362 14.7171,-18.6325 17.5234,-29.1147 1.3339,-4.9826 1.6731,-15.2812 0.677,-20.5535 -1.361,-7.2026 -6.4963,-15.4502 -12.9795,-20.8456 -5.712,-4.75347 -11.7561,-7.53367 -20.4332,-9.39887 -5.3179,-1.1431 -16.4717,-1.1716 -21.6423,-0.055 -12.0778,2.6077 -22.604,8.40587 -32.2952,17.78937 -9.6069,9.3019 -14.9729,16.9493 -22.2989,31.7795 -6.2529,12.6577 -10.0753,22.1981 -10.1542,25.3446 -0.053,2.0956 0.057,2.3597 1.2046,2.9195 0.6943,0.3385 4.4722,1.0217 8.3953,1.5182 21.4119,2.7098 39.5619,7.8419 54.7815,15.49 7.5712,3.8046 10.9298,4.3291 15.1476,2.3657 z m -10.1558,-6.7306 c -2.4959,-0.8588 -8.3889,-3.1187 -13.0958,-5.0222 -13.3886,-5.4142 -21.8396,-7.8312 -38.7589,-11.0849 -3.8109,-0.7329 -7.2566,-1.6045 -7.6573,-1.937 -2.2924,-1.9026 2.6167,-16.2729 9.8732,-28.9015 11.4603,-19.944 27.2893,-32.8666 44.647,-36.44927 3.8826,-0.8013 5.6523,-0.9052 12.2526,-0.7189 7.3541,0.2076 12.0998,0.8949 18.1519,2.62887 8.0159,2.2966 14.4348,9.1972 17.4829,18.7953 1.4111,4.4431 1.758,14.2568 0.7024,19.8706 -2.1144,11.2461 -7.517,21.2452 -16.7648,31.0286 -6.9644,7.3677 -15.0663,12.7056 -19.9469,13.1418 -1.8641,0.1666 -3.2842,-0.1121 -6.8863,-1.3514 z m -78.1044,-34.2185 c 5.9774,-12.7932 15.9997,-32.1388 19.7519,-38.127 l 3.7757,-6.0255 -1.2871,-1.916 c -1.8981,-2.82537 -10.0102,-10.83827 -12.8863,-12.72867 -4.2453,-2.7904 -7.2288,-3.6383 -12.9334,-3.6759 -4.7005,-0.031 -5.1638,0.05 -7.9414,1.392 -5.2041,2.5138 -14.7653,11.125 -17.0379,15.34487 l -0.7989,1.4833 1.8589,3.8067 c 1.0222,2.0937 4.0249,7.4825 6.6724,11.9751 5.7015,9.6747 11.8902,21.8844 15.0059,29.6048 1.2325,3.0545 2.3432,5.554 2.4679,5.5544 0.1252,4e-4 1.6334,-3.0092 3.3523,-6.6881 z m -5.7646,-17.0127 c -3.7217,-5.2662 -10.0783,-16.0745 -12.8267,-21.8095 -2.1424,-4.4702 -2.0854,-6.217 0.3197,-9.81867 3.5682,-5.3433 8.5543,-7.9657 15.1462,-7.9657 3.3281,0 3.9517,0.1559 7.4877,1.8723 5.3997,2.621 7.6124,4.3615 8.716,6.85607 1.7727,4.0078 0.604,7.3212 -8.0452,22.8106 -4.3002,7.7011 -6.6256,10.8911 -7.9389,10.8911 -0.5317,0 -1.6116,-1.0713 -2.8588,-2.8362 z m -12.2742,-68.84007 c 1.4635,-0.9853 5.3773,-4.0484 8.6973,-6.8069 3.3198,-2.7586 6.1945,-5.0155 6.3882,-5.0155 0.1936,0 3.0931,2.2761 6.4432,5.0579 7.0354,5.8421 11.0049,8.556 12.5146,8.556 1.2575,0 1.3189,-0.451 0.327,-2.405 -1.1783,-2.3213 -3.5784,-5.1377 -9.6488,-11.3224 l -5.679,-5.7859 5.679,-5.7859 c 7.3063,-7.444 10.386,-11.3732 10.386,-13.2511 0,-1.8846 -5.2622,1.1251 -12.6594,7.2405 -7.3721,6.0947 -9.026,5.9759 -16.4515,-1.1819 -5.2236,-5.0353 -8.533,-7.4425 -10.2315,-7.4425 -1.2514,0 -1.3395,0.8318 -0.3027,2.8588 1.1872,2.3209 3.1725,4.6825 9.3482,11.1199 3.1855,3.3205 5.7918,6.2175 5.7918,6.4378 0,0.2203 -2.8082,3.3235 -6.2403,6.896 -6.2932,6.5506 -9.1889,10.2664 -9.1889,11.7919 0,1.3746 1.9265,0.9908 4.8268,-0.9617 z"
         id="path53"
         inkscape:export-filename="LOGO SPORTS\chess.svg"
         inkscape:export-xdpi="414.18015"
         inkscape:export-ydpi="414.18015" /><rect
         style="opacity:0.870297;fill:#000000;fill-opacity:1;stroke-width:20.9489;stroke-linejoin:round;paint-order:stroke fill markers"
         id="rect1"
         width="3875.7139"
         height="301.86548"
         x="28.955379"
         y="-50.293373" /><rect
         style="opacity:0.870297;fill:#000000;fill-opacity:1;stroke-width:20.9489;stroke-linejoin:round;paint-order:stroke fill markers"
         id="rect2"
         width="3875.7139"
         height="301.86548"
         x="28.955378"
         y="538.73987" /></g></g></svg>
