<?xml version="1.0" encoding="UTF-8" standalone="no"?>
<!-- Created with Inkscape (http://www.inkscape.org/) -->

<svg
   width="61.152664mm"
   height="36.22448mm"
   viewBox="0 0 61.152663 36.22448"
   version="1.1"
   id="svg1"
   inkscape:version="1.3.1 (91b66b0783, 2023-11-16)"
   sodipodi:docname="SPORTS.svg"
   xml:space="preserve"
   xmlns:inkscape="http://www.inkscape.org/namespaces/inkscape"
   xmlns:sodipodi="http://sodipodi.sourceforge.net/DTD/sodipodi-0.dtd"
   xmlns="http://www.w3.org/2000/svg"
   xmlns:svg="http://www.w3.org/2000/svg"><sodipodi:namedview
     id="namedview1"
     pagecolor="#505050"
     bordercolor="#eeeeee"
     borderopacity="1"
     inkscape:showpageshadow="0"
     inkscape:pageopacity="0"
     inkscape:pagecheckerboard="0"
     inkscape:deskcolor="#505050"
     inkscape:document-units="mm"
     inkscape:zoom="1.658614"
     inkscape:cx="536.5926"
     inkscape:cy="-46.122847"
     inkscape:window-width="2880"
     inkscape:window-height="1676"
     inkscape:window-x="-12"
     inkscape:window-y="-12"
     inkscape:window-maximized="1"
     inkscape:current-layer="g58" /><defs
     id="defs1" /><g
     inkscape:label="Layer 1"
     inkscape:groupmode="layer"
     id="layer1"
     transform="translate(201.70578,517.55464)"><g
       id="g58"
       transform="matrix(0.12629954,0,0,0.12629954,-618.01398,-549.32808)"
       style="fill:#ffffff;fill-opacity:1;stroke-width:7.91769"
       inkscape:export-filename="..\ASSETSCHARTE\SPORTS.svg"
       inkscape:export-xdpi="414.18015"
       inkscape:export-ydpi="414.18015"><path
         style="fill:#ffffff;fill-opacity:1;stroke-width:7.91764"
         d="m 319.83189,538.38066 c 0.31086,-0.99845 1.72698,-4.005 2.99499,-6.35865 1.74826,-3.24485 4.07764,-7.1394 8.36202,-13.98053 5.84066,-9.32615 7.97425,-12.74388 9.17093,-14.69073 2.37657,-3.86638 15.88604,-25.18373 21.43286,-33.82017 10.97403,-17.08665 17.03238,-26.01485 25.71715,-37.89923 7.87996,-10.78306 11.15888,-14.48551 16.04447,-18.1169 3.07518,-2.28567 6.10633,-3.8351 9.5827,-4.89854 1.38145,-0.4226 1.74765,-0.46316 4.12681,-0.45782 2.8476,0.0107 4.27259,0.2749 6.13325,1.15511 3.84675,1.81985 5.53547,7.42626 3.96982,13.17972 -0.47837,1.75785 -1.3655,3.9335 -2.93634,7.2014 -3.56728,7.42103 -9.80355,16.24764 -18.50593,26.19253 -3.89881,4.45546 -10.1163,10.79459 -23.10695,23.55896 -28.53096,28.03395 -29.04333,28.5241 -38.40449,36.73761 -9.26403,8.12835 -12.43984,11.12957 -16.69675,15.77872 -3.952,4.3163 -5.44343,5.73094 -6.68026,6.33656 -1.15719,0.56657 -1.35943,0.58044 -1.20428,0.0822 z m 30.64516,-87.12289 c -1.58036,-0.34854 -2.78175,-0.86729 -3.81016,-1.64516 -1.95424,-1.47825 -2.68829,-2.87465 -2.80632,-5.33854 -0.1306,-2.72599 0.66239,-5.64781 2.76454,-10.18597 1.98144,-4.27756 4.28787,-7.83862 10.01765,-15.46668 8.69958,-11.58194 13.5945,-17.14107 19.85839,-22.55314 5.22941,-4.51821 9.91504,-6.81104 14.3304,-7.01209 2.12394,-0.0971 2.85341,0.079 5.72388,1.38242 2.93055,1.33034 3.73344,1.89765 4.28721,3.0296 1.14302,2.33626 0.52575,6.8328 -1.61582,11.77051 -2.05697,4.74253 -8.47125,13.80306 -15.10696,21.33945 -5.64652,6.41287 -17.94015,18.45978 -22.0204,21.5785 -2.08575,1.59414 -4.10094,2.58267 -6.2722,3.07645 -1.43549,0.32655 -3.92913,0.33797 -5.35021,0.0245 z m 97.9062,-35.39884 c -0.25478,-0.0459 -0.46322,-0.15901 -0.46322,-0.25153 0,-0.24439 2.11262,-1.17848 4.63212,-2.04823 1.20435,-0.41577 2.60662,-0.92087 3.11616,-1.12246 2.31096,-0.91457 12.50458,-6.46003 19.45491,-10.58381 7.48843,-4.44297 12.09332,-7.65602 15.03882,-10.49321 l 1.2267,-1.18147 -0.34796,-0.48866 c -0.38088,-0.53498 -2.62672,-2.62696 -4.90739,-4.57125 -1.3382,-1.14081 -2.60192,-2.07896 -9.83108,-7.29852 -5.62949,-4.06455 -7.96665,-6.1751 -10.90926,-9.8513 -2.0485,-2.5593 -2.86725,-3.8905 -3.37151,-5.48208 -0.48384,-1.52702 -0.51412,-3.74749 -0.0636,-4.66057 0.60739,-1.23088 2.89985,-3.10569 4.4385,-3.62999 1.08616,-0.3701 4.84574,-0.21909 6.73532,0.27053 8.14226,2.1098 24.23737,14.64132 31.82685,24.77991 2.19171,2.9279 3.60037,5.54077 4.26801,7.91673 1.52087,5.41218 -1.77884,12.23111 -8.08703,16.71196 -4.97833,3.53619 -14.45438,7.05371 -24.58465,9.12584 -3.60486,0.73731 -12.62323,2.31204 -14.65435,2.55866 -1.90693,0.23169 -12.58027,0.46806 -13.51738,0.29945 z m -46.27911,-77.22965 c -4.36979,-0.44725 -8.20366,-1.80534 -12.53496,-4.44041 -2.34717,-1.42798 -3.59538,-2.37105 -5.96889,-4.50966 -1.81289,-1.63342 -4.42558,-4.42387 -5.87166,-6.27105 -6.48522,-8.28405 -10.28133,-19.49312 -9.49965,-28.05027 0.84045,-9.20043 6.73489,-18.03387 16.85219,-25.25459 6.39254,-4.56238 12.4395,-7.44781 19.56186,-9.33404 4.09443,-1.08436 13.76874,-2.72589 14.09233,-2.39112 0.28287,0.29262 -2.73045,2.74969 -6.74953,5.50342 -12.55152,8.60016 -15.80708,11.09329 -20.08211,15.37906 -2.79251,2.79953 -4.2576,4.5974 -5.68644,6.97816 -3.23691,5.39339 -3.8574,11.94414 -1.61769,17.07843 0.751,1.72167 1.38644,2.61372 3.11369,4.37147 2.30629,2.34703 4.37621,3.79188 9.00075,6.28246 9.1624,4.93461 11.76548,6.70484 14.06449,9.56487 1.97312,2.45461 3.45628,6.04854 3.45136,8.36324 -0.003,1.35328 -0.39824,2.64948 -1.12969,3.70395 -1.79347,2.58545 -5.45508,3.59307 -10.99605,3.02608 z m 50.11113,-3.94833 c -2.44106,-0.34118 -3.26708,-0.51577 -4.85377,-1.02588 -2.5077,-0.80603 -3.74879,-1.39063 -5.55679,-2.61714 -1.95015,-1.32297 -4.83278,-4.18556 -5.98687,-5.94534 -3.1171,-4.75287 -4.23939,-9.51215 -3.55607,-15.07982 0.65264,-5.31773 4.56801,-11.38238 9.46175,-14.65573 2.79589,-1.87022 5.17701,-2.86323 8.47386,-3.53416 1.61305,-0.32827 2.14462,-0.36199 4.15864,-0.26402 4.21867,0.20532 6.84826,0.83293 9.85155,2.35152 4.71039,2.38161 8.65983,6.67657 10.55173,11.47469 2.73003,6.92373 1.95394,13.42634 -2.38223,19.96023 -2.9382,4.42728 -8.3754,7.95665 -13.88223,9.01101 -1.36718,0.26178 -5.2816,0.46412 -6.27957,0.32464 z m -19.62336,-52.56681 c -3.78527,-0.4211 -6.44071,-1.7507 -9.34845,-4.68084 -1.66366,-1.67653 -2.31341,-2.66047 -3.21188,-4.86429 -0.80659,-1.97844 -1.07807,-3.3902 -1.07456,-5.58848 0.004,-2.25963 0.29193,-3.959 0.96552,-5.6906 1.68662,-4.33561 5.03438,-7.45315 9.83962,-9.16298 1.60159,-0.56987 5.14041,-0.73208 7.40844,-0.33957 2.86278,0.49549 5.41037,1.86681 7.72847,4.16027 2.31364,2.28909 3.69776,4.74146 4.31265,7.6413 0.36876,1.73917 0.2241,5.8082 -0.26625,7.48911 -1.63449,5.6032 -5.96178,9.64833 -11.45558,10.70857 -1.36576,0.26359 -3.9307,0.43509 -4.89798,0.32751 z m 3.85848,-6.21298 c 1.61821,-0.38141 2.98145,-1.17614 4.31091,-2.5132 2.00426,-2.01568 2.8959,-4.32697 2.73172,-7.08124 -0.1768,-2.96589 -1.48784,-5.33684 -3.91432,-7.07889 -1.32669,-0.95246 -2.44104,-1.37666 -4.24729,-1.61699 -1.8507,-0.24619 -3.57835,0.0587 -5.38882,0.9516 -3.58718,1.76885 -5.69118,6.10307 -4.86326,10.01832 1.11815,5.28754 6.17744,8.54466 11.37106,7.3204 z"
         id="path1"
         inkscape:export-filename="hand.svg"
         inkscape:export-xdpi="414.18015"
         inkscape:export-ydpi="414.18015" /><path
         style="fill:#ffffff;fill-opacity:1;stroke-width:7.91766"
         d="m 4097.2871,538.73217 c -0.059,-0.0593 -0.1076,-0.55264 -0.1076,-1.09652 0,-0.96183 0.035,-1.03594 1.2771,-2.70499 0.7024,-0.94378 3.467,-4.44381 6.1435,-7.77776 20.6403,-25.71052 27.4063,-34.49574 63.5425,-82.50661 12.9519,-17.2082 15.9754,-21.49681 15.5938,-22.11922 -0.097,-0.15769 -1.1429,-0.98164 -2.325,-1.83116 -6.173,-4.43621 -8.8628,-7.28154 -10.8698,-11.49817 -1.4213,-2.98648 -1.5432,-3.57502 -1.528,-7.37953 0.011,-2.95146 0.056,-3.41911 0.4615,-4.93198 0.5534,-2.06179 1.504,-3.91789 2.5279,-4.93596 0.9743,-0.96864 3.0009,-2.03915 5.3273,-2.81421 2.6415,-0.87984 3.7375,-1.02196 7.0172,-0.90947 3.1237,0.10718 4.856,0.40769 8.2111,1.42461 2.6065,0.79009 3.9003,1.3337 8.9155,3.74553 l 4.1468,1.99423 1.1682,-0.71651 c 3.8159,-2.34046 7.9101,-3.7258 11.9037,-4.0279 2.7131,-0.20526 6.0833,0.73013 8.3392,2.31437 2.4728,1.73652 4.9664,5.01741 6.5229,8.58234 0.5292,1.2122 0.5698,1.43665 0.5717,3.1676 0,2.44888 -0.2563,3.39222 -1.8343,6.6808 -0.9911,2.06533 -1.2637,2.78653 -1.1476,3.03627 0.084,0.18023 1.0867,1.31672 2.2287,2.52555 9.7982,10.37185 15.7328,19.98448 17.5145,28.36935 0.442,2.08001 0.4472,8.17669 0.01,10.38273 -0.6718,3.38028 -1.6795,6.28354 -3.3361,9.61041 -2.3341,4.68755 -4.4258,7.1083 -11.63,13.45977 -11.7433,10.35318 -16.5896,13.9321 -24.7149,18.25192 -10.2521,5.45048 -21.1817,9.37898 -29.6872,10.67068 -0.3777,0.0575 -0.9134,0.14954 -1.1907,0.2049 -0.4969,0.0992 -0.4919,0.0876 0.3433,-0.84244 1.0871,-1.20989 3.3117,-3.15716 6.3246,-5.53608 9.0234,-7.12449 9.0049,-7.10866 13.5504,-11.57785 6.0866,-5.98428 8.6297,-8.90178 13.9157,-15.96427 4.1848,-5.59118 5.6448,-7.88998 7.5572,-11.8987 1.88,-3.94052 2.7845,-6.84458 2.9516,-9.47608 0.1197,-1.88395 -0.071,-2.40528 -1.6334,-4.47459 -1.7078,-2.2613 -6.6969,-6.84069 -10.9501,-10.05127 -0.1289,-0.0972 -1.739,1.67781 -4.8053,5.29705 -2.5363,2.99382 -5.8844,6.87624 -7.4403,8.62754 -3.4534,3.88702 -10.7556,11.23374 -14.5901,14.67885 -5.2389,4.70691 -14.3129,12.30373 -25.2174,21.11221 -3.2873,2.65546 -7.2977,5.91786 -19.8317,16.13283 -13.4159,10.93368 -14.6544,11.94194 -16.6468,13.55262 -1.0382,0.83926 -2.4669,1.99927 -3.1748,2.57764 -9.088,7.42481 -19.6256,15.93332 -22.3311,18.03093 -0.5307,0.41149 -1.0134,0.6997 -1.0726,0.64054 z m 59.1855,-162.57319 c -4.959,-0.38222 -10.095,-2.69614 -18.1912,-8.19597 -5.0112,-3.40416 -8.8559,-6.92789 -11.0199,-10.09973 -3.7252,-5.4603 -5.8134,-13.37531 -5.4727,-20.74414 0.4399,-9.51331 3.8991,-18.41978 10.0216,-25.80196 5.7187,-6.89517 13.1224,-11.26125 26.4642,-15.60646 5.5936,-1.82169 8.9736,-2.28961 14.2002,-1.96584 3.7111,0.22984 5.51,0.61754 8.4985,1.8315 3.8155,1.55002 5.9154,3.17441 7.3271,5.66821 2.2978,4.05912 2.78,7.47301 1.4629,10.3562 -0.5237,1.14648 -2.2101,2.9213 -3.7728,3.97059 -3.4609,2.32392 -5.1983,2.98445 -15.3595,5.83996 -15.0574,4.23148 -19.9793,6.57043 -23.3033,11.07411 -1.9355,2.62248 -2.9089,5.71756 -3.0762,9.78216 -0.1943,4.71832 0.9877,9.5471 3.1373,12.81701 1.033,1.57142 4.8336,5.38089 6.7337,6.74925 3.189,2.29686 7.0893,4.18895 10.1006,4.89988 2.0468,0.48322 6.6558,0.73411 11.0316,0.60039 3.9117,-0.11939 4.6884,-0.24611 8.9946,-1.46653 4.2783,-1.21263 6.2627,-1.69337 7.2329,-1.75253 l 0.8581,-0.0522 -0.033,0.72862 c -0.1717,3.8589 -8.0189,8.80574 -16.5285,10.41961 -4.5876,0.86994 -5.7696,0.97483 -11.6698,1.03496 -3.1621,0.0327 -6.5987,-0.009 -7.6369,-0.0867 z m 14.759,-14.61403 c -2.9471,-0.33508 -8.6292,-2.68977 -12.9011,-5.34612 -1.707,-1.06141 -5.8226,-4.09405 -7.135,-5.2576 -0.5251,-0.46553 -0.8152,-0.86261 -0.8152,-1.11598 0,-0.49117 1.3249,-4.3804 2.3209,-6.8131 1.6334,-3.98969 3.5075,-7.10175 5.5136,-9.15594 3.9873,-4.08282 10.0796,-7.26607 16.7197,-8.73605 2.6594,-0.58872 4.6463,-0.77983 8.1437,-0.78345 7.4783,-0.009 13.1434,1.54223 18.5892,5.08568 1.6899,1.09961 8.2537,5.98746 8.5638,6.3772 0.3226,0.40539 0.2602,1.31778 -0.2103,3.07385 -1.9005,7.09353 -5.9661,13.04394 -11.716,17.14692 -3.1168,2.22417 -10.1247,4.99557 -14.0305,5.54865 -1.4738,0.2088 -11.1529,0.19084 -13.0428,-0.0239 z m 11.8975,-5.98357 c 1.7422,-0.21843 4.8794,-1.1104 7.0835,-2.01395 4.4034,-1.80515 8.0831,-4.78836 10.5645,-8.56501 1.0707,-1.62952 2.9737,-5.46472 2.9749,-5.99525 0,-0.57421 -0.5554,-1.14224 -2.5314,-2.58339 -4.9761,-3.62914 -8.5397,-5.15917 -13.5067,-5.79909 -7.8983,-1.01755 -15.7521,0.6714 -21.8024,4.68843 -3.0969,2.05613 -4.8077,4.01348 -6.5002,7.43648 -1.0427,2.10884 -2.2261,5.2232 -2.0768,5.4649 0.051,0.0831 1.384,1.01206 2.9616,2.06471 3.847,2.56703 7.1478,4.14384 10.5692,5.04907 1.4681,0.3885 1.8622,0.41538 6.2057,0.42299 2.551,0.009 5.2771,-0.0716 6.0581,-0.16989 z m 81.002,-24.87436 c -5.3446,-0.35551 -9.2234,-1.46662 -12.4976,-3.58006 -2.3543,-1.51968 -3.9639,-3.38515 -4.91,-5.69067 -0.9395,-2.28925 -0.7239,-5.58888 0.5367,-8.2195 1.5144,-3.1599 3.5694,-5.19967 6.6919,-6.64242 1.6198,-0.74843 3.1729,-0.92424 8.15,-0.92274 16.6196,0.009 31.7634,1.17965 51.9995,4.03347 8.1781,1.15339 8.9211,1.26756 27.7159,4.26023 4.4362,0.70633 9.7263,1.52534 11.7557,1.81983 2.0294,0.29458 5.5045,0.80043 7.7227,1.12411 2.2181,0.32367 7.8171,1.13605 12.4421,1.80533 8.7467,1.26578 14.1435,2.11919 15.2109,2.40537 1.4951,0.40079 1.1456,1.3658 -0.7222,1.99458 -2.0749,0.69847 -7.8428,1.51942 -19.0365,2.70932 -10.1788,1.08201 -19.2,1.79021 -32.7786,2.57313 -4.1042,0.23666 -7.467,0.4168 -17.8051,0.95369 -1.8169,0.0944 -4.7516,0.247 -6.5214,0.33924 -10.9863,0.57263 -13.8848,0.70661 -18.6632,0.86296 -7.2485,0.2371 -26.6131,0.35215 -29.2908,0.17413 z m -34.8934,-27.47526 c -1.1094,-0.18713 -3.959,-1.01966 -5.4896,-1.60378 -7.6441,-2.91724 -13.5447,-9.97646 -15.7187,-18.80519 -0.3548,-1.44062 -0.4023,-2.04976 -0.4084,-5.23434 -0.01,-2.81774 0.059,-3.90931 0.2955,-5.00414 1.3733,-6.35934 5.0709,-11.9721 10.681,-16.21304 4.0548,-3.06528 9.2693,-4.78668 14.4776,-4.77917 4.6053,0.009 7.6709,0.67371 11.5024,2.50301 4.7478,2.26678 7.7361,4.78703 10.3569,8.73445 1.8986,2.85967 3.3155,6.11251 4.2066,9.65711 0.4183,1.66392 0.4634,2.14661 0.4678,5.016 0.01,3.491 -0.1818,4.74441 -1.1362,7.60876 -2.3787,7.13854 -7.215,12.82461 -13.4463,15.80906 -2.0729,0.99269 -4.8145,1.90977 -6.6726,2.23186 -1.6679,0.28927 -7.5679,0.34065 -9.116,0.0796 z"
         id="path58"
         inkscape:export-filename="rugby.svg"
         inkscape:export-xdpi="96"
         inkscape:export-ydpi="96" /><path
         style="fill:#ffffff;fill-opacity:1;stroke-width:7.91766"
         d="m 1697.4305,537.9223 c 0.2522,-1.06471 2.9385,-10.43463 5.0406,-17.58119 4.6578,-15.83599 5.3068,-18.05566 6.3846,-21.84065 1.3127,-4.6101 3.6604,-13.46877 4.8488,-18.29679 1.1377,-4.62189 3.9528,-15.33201 5.318,-20.2327 3.3898,-12.16904 5.7809,-19.36028 9.1803,-27.61151 6.1621,-14.9567 9.8862,-20.28177 15.4547,-22.09797 2.3864,-0.77845 5.9734,-0.71917 7.6358,0.12614 2.3534,1.19665 4.6959,4.4278 5.5,7.58624 0.5098,2.00244 0.079,8.95305 -0.8796,14.16613 -1.8146,9.8757 -6.0476,20.03064 -15.7118,37.69202 -2.4794,4.53112 -3.0523,5.50685 -10.545,17.96068 -15.819,26.293 -17.6176,29.22802 -22.2191,36.25857 -4.0693,6.21743 -9.753,14.3348 -10.0372,14.3348 -0.044,0 -0.031,-0.20875 0.03,-0.46377 z m 68.896,-61.838 c 0.2951,-1.10295 2.6632,-6.90734 6.3189,-15.48733 6.459,-15.16005 7.8718,-18.92368 9.4474,-25.16844 1.3753,-5.45134 4.0964,-21.40327 3.7158,-21.78387 -0.06,-0.0605 -1.3052,1.10111 -2.7668,2.58076 -3.6474,3.69263 -5.1336,4.75059 -7.2174,5.1378 -2.6187,0.48665 -5.8146,-0.72479 -7.7518,-2.93814 -0.8055,-0.92053 -1.8468,-2.77797 -2.4273,-4.33003 -1.7438,-4.66231 -1.5367,-10.22543 0.5962,-16.01306 1.9754,-5.36058 5.5227,-10.82841 10.0014,-15.41627 4.9979,-5.11976 9.7018,-8.20712 15.5251,-10.18974 3.1399,-1.06898 4.3399,-1.28837 6.3886,-1.16784 4.1387,0.24355 6.9166,2.26512 9.0864,6.61261 2.1005,4.20853 3.0515,9.71144 2.8565,16.52718 -0.1275,4.45732 -0.456,6.52178 -2.0531,12.9013 -2.6116,10.43246 -7.1372,20.88022 -14.0624,32.46408 -3.2927,5.50806 -9.3993,14.31178 -14.2713,20.57465 -0.938,1.20583 -2.0806,2.68568 -2.5393,3.28859 -1.2437,1.63466 -8.99,10.90777 -10.0789,12.06522 l -0.945,1.00472 z m -116.7259,-60.15399 c 0,-0.66781 3.0442,-7.5921 5.5197,-12.55519 6.8503,-13.73425 16.3568,-27.50736 27.6958,-40.12642 3.2495,-3.6162 13.5927,-13.9166 16.872,-16.8021 9.4032,-8.27397 15.7321,-11.86717 21.9613,-12.4683 3.0902,-0.29823 4.8082,-0.12888 6.3562,0.6265 1.5884,0.7752 3.0768,2.25249 3.9881,3.95842 l 0.6644,1.24388 v 2.5297 2.52963 l -0.6176,1.29341 c -1.0812,2.26416 -3.565,4.53036 -9.3324,8.5148 -1.2058,0.83307 -6.0628,4.12096 -10.7933,7.30647 -25.1344,16.92543 -31.9231,22.61337 -46.3697,38.85169 -5.2331,5.88222 -10.1698,10.80904 -13.5619,13.5348 -2.02,1.62326 -2.3826,1.86107 -2.3826,1.56271 z m 209.049,-68.59593 c -0.043,-0.0691 -0.3075,-1.94286 -0.5882,-4.1638 -2.0715,-16.38594 -2.7657,-20.13288 -5.2473,-28.32285 -1.5415,-5.08783 -3.2118,-11.77795 -2.9917,-11.98344 0.055,-0.0516 5.0994,-0.37014 9.4877,-0.59883 5.6761,-0.29582 18.2406,-0.363 31.7896,-0.17 10.8002,0.15386 19.1426,0.41654 19.3601,0.60961 0.046,0.0408 -1.3223,5.45611 -4.0174,15.90177 -1.1996,4.64981 -1.9147,8.45705 -2.8573,15.21339 -0.7465,5.35094 -1.6429,11.53515 -1.806,12.45906 l -0.1004,0.56965 -2.1123,-0.12035 c -3.1306,-0.17835 -2.902,0.0446 -2.8984,-2.82768 0.013,-10.38511 1.479,-20.02905 4.9903,-32.83212 0.5241,-1.91097 0.7011,-2.80276 0.5721,-2.88243 -0.3596,-0.22226 -8.8355,-0.32979 -26.6246,-0.33789 l -17.9392,-0.008 0.1101,0.38377 c 0.5531,1.92769 2.4289,9.51506 3.0342,12.27321 1.4518,6.61592 1.9989,10.6217 2.3101,16.91402 0.2356,4.76518 0.1687,7.1477 -0.2174,7.73704 -0.3899,0.59501 -4.0688,2.48553 -4.2539,2.18601 z m -73.4134,-18.90953 c -2.0866,-0.61604 -4.5436,-2.55653 -5.4944,-4.33952 -0.6891,-1.29226 -1.0098,-3.03292 -0.8786,-4.76856 0.3611,-4.77543 2.4925,-8.08907 7.757,-12.05967 2.3215,-1.75093 4.1387,-2.92655 10.009,-6.47487 9.995,-6.04169 13.3918,-8.30981 20.4356,-13.64507 8.9365,-6.76915 16.9954,-13.67171 33.8669,-29.00785 4.0179,-3.65242 7.3432,-6.60286 7.3894,-6.55671 0.1196,0.1197 -4.5386,9.74547 -6.4603,13.34964 -4.7587,8.92456 -8.8362,14.80404 -17.314,24.96612 -11.8558,14.21095 -20.6288,23.12418 -29.1186,29.58413 -5.5301,4.20796 -12.8326,8.63717 -15.0101,9.1042 -1.3287,0.2849 -3.9641,0.20772 -5.1819,-0.15184 z m -39.7611,-8.69148 c -6.902,-1.27709 -12.6757,-5.56116 -15.7562,-11.69119 -1.6646,-3.31216 -2.3788,-6.19008 -2.3905,-9.63259 -0.01,-2.38023 0.068,-3.12254 0.5355,-5.1698 0.7727,-3.38999 2.508,-6.71491 5.0221,-9.62291 1.6623,-1.92271 4.3049,-3.95982 6.6954,-5.16157 1.2958,-0.65142 4.1182,-1.59107 5.6542,-1.88242 2.8958,-0.54931 8.2008,-0.17694 10.8795,0.76366 9.0844,3.18986 14.9096,11.28333 14.9096,20.71495 0,2.74769 -0.2964,4.65574 -1.0941,7.04183 -2.4562,7.34727 -8.0875,12.46825 -15.8546,14.41766 -1.8296,0.45924 -6.6477,0.58379 -8.6009,0.22238 z m 126.0821,-20.74452 c -7.1131,-1.11028 -13.2798,-5.89866 -16.2298,-12.60242 -1.0972,-2.49323 -1.3488,-3.6095 -1.4721,-6.53248 -0.1628,-3.85549 -0.01,-6.02436 0.547,-7.82532 2.3143,-7.46716 7.9166,-12.73435 15.7466,-14.80488 1.3023,-0.34438 1.8423,-0.38785 4.6766,-0.37676 2.9142,0.0115 3.3694,0.0542 5.0288,0.47544 4.2098,1.06789 7.2418,2.83266 10.2778,5.98196 2.3779,2.46666 3.8635,4.97182 5.0504,8.51658 0.6773,2.02284 0.6861,2.08065 0.769,5.08171 0.097,3.5371 -0.074,5.11504 -0.8077,7.40418 -1.0808,3.37381 -2.4714,5.74346 -4.7988,8.17736 -4.9267,5.15227 -11.9264,7.57565 -18.7878,6.50463 z m 7.2801,-6.1401 c 2.326,-0.59489 4.9187,-1.98244 6.5708,-3.51653 2.1013,-1.95093 3.9417,-4.93606 4.5959,-7.45454 0.4633,-1.78337 0.5226,-5.31608 0.1218,-7.25338 -0.6252,-3.02139 -1.8596,-5.36592 -3.9825,-7.56405 -1.4444,-1.49559 -2.6565,-2.34593 -4.772,-3.34805 -2.0053,-0.94997 -3.62,-1.25535 -6.7145,-1.27007 -2.847,-0.0134 -4.1846,0.30397 -6.6989,1.59017 -3.6907,1.88803 -6.4734,5.24341 -7.8066,9.4132 -0.56,1.75124 -0.7527,4.83229 -0.4281,6.84431 0.9293,5.76136 5.0622,10.56082 10.6332,12.34841 1.4949,0.4797 1.5828,0.48964 4.5686,0.51571 2.1083,0.0185 2.8833,-0.0421 3.9123,-0.30518 z"
         id="path38" /><path
         style="fill:#ffffff;fill-opacity:1;stroke-width:7.9177"
         d="m 2397.1448,538.22442 c -0.061,-0.1588 -0.3667,-1.41463 -0.6786,-2.79078 -5.4265,-23.9498 -8.8401,-36.79809 -15.7306,-59.20675 -4.2863,-13.93958 -6.4073,-18.29964 -18.8543,-38.75822 -5.878,-9.66135 -9.9101,-17.09698 -12.4718,-22.99963 l -1.0442,-2.40582 -44.0024,-0.0487 -44.0025,-0.0487 v -3.27147 -3.27153 h 42.9423 42.9423 l -0.1352,-0.43304 c -0.074,-0.23816 -0.1823,-2.62588 -0.2399,-5.30601 -0.091,-4.2551 -0.062,-5.03061 0.2318,-6.11637 0.3976,-1.46875 1.4758,-3.21771 2.5239,-4.09426 1.2309,-1.02939 4.0578,-2.31497 5.3752,-2.44467 2.887,-0.28407 8.148,2.61336 11.6445,6.41308 1.4978,1.62762 2.9112,3.48875 5.0795,6.68849 2.4801,3.65992 4.0215,5.48525 4.6319,5.48525 0.066,0 0.062,-1.58063 -0.01,-3.51246 -0.1444,-3.92848 0.027,-5.39199 0.8124,-6.94222 0.7004,-1.38219 1.9862,-2.66093 4.1425,-4.11957 l 1.8984,-1.28421 3.1171,0.62763 c 1.717,0.34575 3.7471,0.88994 4.5197,1.21153 3.1975,1.33112 6.8761,4.55509 13.6337,11.94897 l 1.3597,1.48774 30.0122,0.1924 c 16.5066,0.10584 57.922,0.19364 92.0341,0.1951 h 62.0221 v 3.2719 3.2719 h -89.8494 c -49.4171,0 -89.8992,0.0502 -89.9601,0.11086 -0.1271,0.12701 0.028,0.48083 6.2069,14.22786 10.3357,22.99228 11.1554,25.02399 16.1525,40.03281 10.8165,32.48691 11.9608,36.54043 16.5717,58.70199 0.5506,2.64646 1.3274,6.37068 1.7262,8.27603 0.3987,1.90543 0.6917,3.50046 0.6509,3.54462 -0.1538,0.16672 -1.2503,0.0713 -1.4475,-0.1257 -0.1132,-0.11319 -0.4441,-1.0587 -0.7354,-2.10111 -0.7883,-2.82104 -1.6724,-5.18206 -4.9612,-13.25063 -6.5947,-16.1786 -8.5506,-20.72721 -11.7932,-27.42639 -1.3579,-2.80519 -3.9935,-8.29509 -5.8569,-12.19986 -7.9798,-16.72054 -12.2424,-23.29788 -24.4618,-37.74498 -1.6116,-1.90535 -3.7001,-4.37374 -4.641,-5.48525 -7.0101,-8.28076 -11.0358,-13.69589 -14.2368,-19.15029 -3.5355,-6.0245 -4.6555,-7.69169 -4.965,-7.39054 -0.2846,0.27701 1.5353,7.37301 5.1779,20.1895 5.3596,18.85685 6.2494,22.75674 8.3658,36.66468 0.4189,2.75222 1.6266,10.59042 2.6838,17.41814 2.1557,13.92139 2.3899,15.62801 2.7999,20.40132 1.141,13.28278 1.6722,33.77235 0.8183,31.56438 z m 49.5002,-183.80675 c -4.3759,-0.33192 -12.7348,-1.78634 -17.8772,-3.11063 -9.1474,-2.3557 -24.4251,-7.7485 -29.5435,-10.42842 -3.2248,-1.68851 -4.6784,-2.75761 -7.2182,-5.30885 -2.6356,-2.64726 -4.0608,-4.56571 -5.1949,-6.99277 -1.2342,-2.64137 -1.3188,-3.77514 -0.5456,-7.32019 0.2089,-0.95723 0.2033,-1.14308 -0.039,-1.29621 -0.7276,-0.46017 -4.9903,-0.009 -7.3343,0.77639 -1.6535,0.55401 -4.0025,1.62347 -12.3873,5.64012 -5.3127,2.54491 -6.5479,2.8996 -10.1045,2.9012 -2.1926,0 -2.7569,-0.0618 -3.6145,-0.40379 -1.4151,-0.56398 -2.7906,-1.66662 -3.705,-2.97024 -0.9404,-1.34065 -1.2272,-2.00429 -1.8024,-4.17079 l -0.443,-1.66879 -43.2422,-0.0487 -43.2423,-0.0487 0.052,-3.31962 0.052,-3.31962 44.2671,-0.0487 44.2671,-0.0487 1.8345,-1.58725 c 3.2573,-2.8182 6.905,-5.04661 13.9476,-8.52074 6.5309,-3.22171 14.034,-6.36951 22.9996,-9.64934 5.3629,-1.9618 19.928,-7.09185 25.1168,-8.84641 2.3289,-0.78751 4.5374,-1.54928 4.9079,-1.69294 2.4438,-0.94734 16.693,-5.23306 21.1712,-6.36763 5.7414,-1.45464 14.4111,-3.33708 25.7904,-5.59996 2.3728,-0.47189 5.9664,-0.82658 5.9664,-0.58886 0,0.16178 -2.3121,1.30188 -3.7049,1.82687 -0.6087,0.22943 -1.6048,0.60529 -2.2134,0.83523 -2.8198,1.06518 -11.5683,4.99758 -27.7632,12.47948 -2.6993,1.24711 -6.3369,2.91852 -8.0835,3.71425 -19.6442,8.95007 -30.5326,15.24008 -39.3437,22.72808 l -1.4943,1.26995 100.3403,0.048 100.3403,0.048 0.052,3.32006 0.052,3.32006 -90.8002,0.007 -90.8002,0.007 0.4812,0.40386 c 0.9391,0.78839 8.2708,5.94419 10.7084,7.53042 3.9877,2.59489 6.1189,3.78292 9.5967,5.34966 1.7996,0.81072 4.6577,2.10256 6.3514,2.8708 8.7154,3.95321 17.9232,6.65525 32.8153,9.6297 5.4692,1.09238 12.135,2.26056 16.9371,2.9682 8.7996,1.29672 12.3812,2.13086 13.2862,3.09419 0.4031,0.42897 0.4118,0.47458 0.09,0.47458 -0.1956,0 -2.5275,0.21219 -5.182,0.47152 -2.6545,0.25933 -6.8184,0.64799 -9.2531,0.86368 -2.4346,0.21561 -5.3794,0.49101 -6.5438,0.61191 -2.5261,0.26231 -26.9042,0.39892 -29.9505,0.16789 z m 35.9125,-42.93351 c -5.501,-0.49203 -11.9066,-4.39156 -15.2887,-9.30738 -1.4154,-2.05709 -2.8373,-5.40327 -3.399,-7.99866 -0.5276,-2.43769 -0.4867,-7.75177 0.077,-10.03714 1.8266,-7.40428 7.4033,-13.42121 14.6695,-15.82769 2.7742,-0.91881 4.6551,-1.15559 8.1622,-1.02756 3.2492,0.11857 5.0015,0.52222 8.0049,1.84367 4.4489,1.95758 8.6665,5.97881 10.8292,10.32505 1.8099,3.63729 2.3738,6.53289 2.2078,11.33705 -0.083,2.39266 -0.1911,3.21095 -0.615,4.63656 -2.191,7.36922 -7.6105,12.94678 -14.9496,15.38563 -2.2974,0.76351 -5.8855,1.01157 -9.6984,0.67047 z m 6.0569,-6.54998 c 6.0027,-0.94326 11.4292,-6.40705 12.5243,-12.61035 0.3529,-1.99941 0.1546,-5.77622 -0.3878,-7.38406 -1.4273,-4.23152 -4.4987,-7.79367 -8.3733,-9.71095 -2.1993,-1.08831 -3.4594,-1.34007 -6.7362,-1.34568 -2.4905,-0.007 -3.0852,0.0567 -4.3305,0.44337 -5.1005,1.5842 -9.0334,5.38196 -10.6918,10.32455 -0.6288,1.87393 -0.8594,5.54904 -0.4838,7.70994 0.8054,4.63263 4.1518,9.00172 8.5773,11.19826 3.1481,1.56252 6.0998,1.97243 9.9018,1.37492 z m -127.2807,-6.52286 c -3.7436,-0.46461 -7.9901,-2.1342 -11.2843,-4.43659 -4.0623,-2.83923 -7.8115,-8.22089 -9.1771,-13.17301 -0.4869,-1.76547 -0.5312,-2.21116 -0.5366,-5.38901 -0.01,-4.72371 0.5072,-6.83201 2.7044,-11.06681 3.2436,-6.25211 9.4533,-10.74064 17.21,-12.43984 1.1989,-0.26267 2.3299,-0.35113 4.2342,-0.33127 5.469,0.0575 10.1724,1.44998 14.4501,4.2791 1.9656,1.29992 4.9005,4.11274 6.0878,5.83427 2.5806,3.74211 4.6751,9.52299 4.6751,12.9035 0,3.20258 -0.6661,6.19057 -2.0927,9.38769 -3.1696,7.10327 -8.9838,11.9825 -16.6722,13.991 -1.635,0.42715 -2.4039,0.51066 -5.1008,0.55401 -1.7467,0.0284 -3.7707,-0.0226 -4.4979,-0.11304 z"
         id="path35"
         inkscape:export-filename="volley.svg"
         inkscape:export-xdpi="96"
         inkscape:export-ydpi="96" /><path
         style="fill:#ffffff;fill-opacity:1;stroke-width:7.91769"
         d="m 2011.923,538.27294 c 0,-0.25953 1.548,-3.96494 2.195,-5.25412 2.9206,-5.81952 32.6162,-53.24361 47.8793,-76.46346 10.8791,-16.55065 25.4726,-37.96884 29.957,-43.96692 9.9608,-13.32261 18.1703,-21.07321 25.3471,-23.93032 2.6638,-1.06042 4.2643,-1.33638 7.7673,-1.33923 4.1121,0 6.1831,0.61875 8.9164,2.67861 2.3047,1.73705 3.0681,3.71347 3.0644,7.9353 0,4.18953 -0.673,6.77736 -3.2081,12.40087 -4.8129,10.67542 -9.5287,17.19782 -23.638,32.6934 -16.6353,18.2698 -34.9691,36.39937 -73.581,72.76084 -3.9458,3.71572 -8.1426,7.68228 -9.3264,8.81443 -11.755,11.24284 -15.373,14.46026 -15.373,13.6706 z m -44.3772,-4.11646 c -6.1917,-1.65678 -11.8039,-5.53652 -15.4763,-10.69876 -2.2276,-3.13113 -4.0294,-7.66718 -4.525,-11.39189 -0.3623,-2.72207 -0.1389,-8.17398 0.4141,-10.10873 3.0117,-10.53693 9.9342,-17.2832 20.4074,-19.88808 1.704,-0.42384 2.1497,-0.44946 5.8417,-0.33584 2.1984,0.0673 4.6426,0.2555 5.4319,0.41749 5.5008,1.12884 11.4146,4.77856 15.0748,9.30367 2.3979,2.96465 4.9604,8.59241 5.5022,12.08455 0.3271,2.10821 0.2859,7.46072 -0.073,9.52044 -0.4167,2.3895 -1.188,4.59873 -2.5171,7.21071 -2.7729,5.44943 -7.2526,9.69094 -12.9036,12.21757 -4.2676,1.9081 -4.3801,1.92962 -10.4123,1.99509 -4.6809,0.0503 -5.5039,0.0103 -6.7646,-0.32622 z m -56.9497,-18.29265 c -0.075,-2.38649 -0.1353,-7.53835 -0.1353,-11.44867 v -7.10962 l 10.7839,-18.63283 c 5.9312,-10.24801 12.8818,-22.27624 15.4458,-26.72925 2.5641,-4.45308 7.7652,-13.46925 11.5583,-20.03596 9.5903,-16.60341 13.9349,-24.19172 14.7188,-25.70837 l 0.6703,-1.29724 0.1415,-41.8147 c 0.078,-22.99813 0.2071,-42.46042 0.2872,-43.24953 0.2327,-2.28995 1.275,-3.79878 3.2745,-4.74026 2.4273,-1.14294 5.3804,-0.0473 7.1019,2.63507 l 0.6871,1.07065 0.1273,37.00261 c 0.07,20.35151 0.1986,38.45543 0.2857,40.23106 l 0.1586,3.22828 h 30.8583 30.8584 l 1.3891,0.82537 c 4.41,2.61982 4.2419,7.71947 -0.3328,10.10749 l -1.2375,0.64596 -28.6963,0.13014 c -15.783,0.0712 -30.0798,0.1431 -31.7709,0.15874 l -3.0747,0.0287 -2.5521,4.45432 c -2.8902,5.0448 -19.2066,33.2931 -32.2303,55.8003 -4.7946,8.28609 -13.079,22.62913 -18.4096,31.87353 -5.3305,9.24432 -9.71,16.83155 -9.732,16.8606 -0.022,0.0287 -0.1016,-1.89981 -0.1752,-4.28629 z m 137.8168,-79.1056 c -1.8648,-0.32871 -4.2426,-1.61773 -5.8163,-3.1532 -1.8509,-1.80591 -2.1721,-2.55103 -2.1777,-5.05302 -0.011,-3.80984 0.8355,-6.9412 3.1709,-11.76165 4.2785,-8.83109 13.1212,-20.97916 24.6728,-33.89606 7.8607,-8.78964 16.9314,-15.65532 22.678,-17.16514 1.9787,-0.51982 6.2308,-0.52176 8.0964,0 8.2104,2.28073 9.3571,7.45538 4.1012,18.50593 -3.3514,7.04633 -8.8006,14.66936 -16.8973,23.63827 -9.6966,10.74082 -21.4917,22.12324 -26.4501,25.52458 -3.7154,2.54856 -8.3048,3.90546 -11.3779,3.36378 z m 102.7901,-26.01498 c -4.0232,-0.11027 -4.3692,-0.15061 -5.2946,-0.61574 -1.9956,-1.00331 -3.1999,-2.91529 -3.2075,-5.09213 -0.011,-2.06212 1.0569,-3.72734 3.0991,-4.84981 l 1.0984,-0.60373 5.6368,-0.13922 c 3.1002,-0.0767 28.6271,-0.14789 56.7266,-0.15842 l 51.0898,-0.0193 v 5.84933 5.84926 l -52.4222,-0.0511 c -28.8321,-0.028 -54.3591,-0.10434 -56.7264,-0.16928 z m -2.5263,-17.37803 c -0.3932,-0.27502 0.1577,-1.50316 0.9143,-2.03824 1.1668,-0.82499 4.3751,-2.29886 9.4009,-4.31868 17.9595,-7.21762 28.3441,-12.5551 36.967,-19.00026 2.9069,-2.17274 3.7943,-3.02925 4.2442,-4.09649 0.2245,-0.53292 0.1935,-0.78005 -0.2455,-1.94636 -0.852,-2.26346 -2.8033,-5.71601 -8.1704,-14.456 -2.8385,-4.6222 -5.7307,-9.39376 -6.4273,-10.60354 -4.3037,-7.47343 -6.081,-13.34895 -5.0801,-16.79244 0.9348,-3.21556 4.2356,-6.06516 8.527,-7.36116 1.4127,-0.42663 1.6426,-0.44244 3.0375,-0.20808 2.9241,0.49131 5.4253,1.56226 7.835,3.3547 4.3537,3.23857 7.4933,7.09552 10.047,12.3429 3.3482,6.88031 7.1766,18.02709 8.9407,26.03173 0.5454,2.47525 0.5872,2.97789 0.5872,7.07158 0,3.95913 -0.048,4.584 -0.472,6.14922 -0.6327,2.33504 -2.3978,5.95455 -3.6807,7.54733 -5.0087,6.21872 -17.095,11.8155 -31.9227,14.78245 -5.5339,1.1073 -14.7416,2.38533 -22.2435,3.08737 -5.1464,0.48163 -11.8633,0.7304 -12.2586,0.45397 z m -61.8356,-79.38302 c -7.834,-0.28021 -11.2993,-0.57793 -37.9202,-3.25872 -2.2548,-0.22706 -4.8836,-0.50455 -5.8418,-0.61674 -0.9584,-0.11222 -4.5557,-0.48434 -7.9941,-0.82708 -3.4384,-0.34272 -7.8658,-0.80212 -9.8387,-1.02099 -1.9729,-0.21876 -5.8469,-0.63355 -8.6089,-0.92157 -5.4288,-0.56624 -14.2896,-1.51502 -20.1899,-2.16197 -15.6831,-1.7197 -21.2587,-2.49091 -20.8638,-2.88594 0.2191,-0.21909 3.0809,-1.0918 5.2868,-1.61231 2.1576,-0.50907 9.817,-1.37239 24.5958,-2.7722 10.615,-1.00542 13.2084,-1.23946 22.7522,-2.05344 4.6221,-0.39418 9.9258,-0.85365 11.7859,-1.02107 4.6989,-0.4229 14.0446,-1.19683 33.4107,-2.76662 2.7621,-0.2239 7.8352,-0.63611 11.2736,-0.91602 14.2992,-1.16407 24.7646,-0.85541 30.4224,0.89735 5.4035,1.67398 9.1047,5.29975 9.4767,9.28367 0.1534,1.6423 -0.1833,3.55993 -0.8596,4.89414 -1.4286,2.8193 -5.2547,5.52247 -9.2158,6.51092 -4.7865,1.19452 -15.5737,1.68127 -27.6713,1.24859 z m 77.4792,-12.72057 c -0.7894,-0.0704 -2.4175,-0.457 -3.618,-0.8587 -8.1329,-2.72146 -13.5998,-8.23945 -16.5194,-16.67342 l -0.7691,-2.22201 v -5.12436 -5.1243 l 0.7561,-2.18327 c 3.2614,-9.41583 9.8765,-15.31925 19.6389,-17.52592 2.0768,-0.46947 6.8634,-0.45777 9.1041,0.0225 3.5444,0.75914 6.8749,2.15135 9.897,4.13709 1.8376,1.20753 5.1842,4.6438 6.5037,6.67834 3.1151,4.80262 4.448,9.84107 4.1361,15.63563 -0.1621,3.0119 -0.4785,4.56279 -1.4446,7.07925 -1.7661,4.60083 -5.0012,8.87619 -8.8667,11.71781 -2.8511,2.09597 -7.642,4.08331 -10.8233,4.48981 -1.6529,0.21118 -5.3428,0.18895 -7.9948,-0.0479 z"
         id="path18"
         inkscape:export-filename="foot.svg"
         inkscape:export-xdpi="96"
         inkscape:export-ydpi="96" /><path
         style="fill:#ffffff;fill-opacity:1;stroke-width:7.91769"
         d="m 951.97959,537.66264 c -0.45318,-0.39778 -0.82392,-0.80969 -0.82392,-0.91518 0,-0.10559 0.92666,-0.69691 2.05924,-1.31421 4.21507,-2.29709 7.14752,-4.49473 24.76976,-18.56385 6.01895,-4.80526 13.80288,-11.00032 17.29765,-13.76688 3.49491,-2.76647 9.63728,-7.64492 13.64988,-10.84092 4.0126,-3.196 10.7905,-8.57826 15.0619,-11.96069 4.2714,-3.38235 9.143,-7.24252 10.8257,-8.57817 3.5672,-2.83157 9.2146,-7.30318 12.2378,-9.69002 1.1649,-0.91981 3.6537,-2.89126 5.5306,-4.38114 1.8768,-1.48988 7.0131,-5.56531 11.414,-9.05645 4.401,-3.49121 9.9079,-7.86141 12.2379,-9.71163 30.8099,-24.46601 35.9134,-28.12703 46.9309,-33.66664 7.9184,-3.98131 11.2264,-4.9626 16.7291,-4.9626 5.9115,0 8.769,0.94722 11.6576,3.86401 1.8543,1.87244 3.5027,4.77936 4.7925,8.45141 1.2522,3.56487 0.9433,7.30096 -0.9177,11.1011 -2.7707,5.65773 -7.3287,9.3626 -21.769,17.69429 -15.4719,8.92685 -45.182,25.44293 -82.2521,45.72455 -2.7829,1.52252 -8.3428,4.5706 -12.3555,6.7734 -7.2326,3.97065 -11.2167,6.14855 -28.9469,15.82461 -5.0482,2.7549 -11.03179,6.03923 -13.29694,7.29856 -21.9332,12.19373 -31.52021,16.93449 -41.36117,20.4532 l -2.64746,0.94667 z m 320.53591,-3.75219 c -3.379,-0.63616 -6.5827,-1.30265 -10.8258,-2.25217 -2.5888,-0.57932 -8.7312,-1.94992 -13.6499,-3.04594 -4.9187,-1.09594 -11.061,-2.47143 -13.6498,-3.05662 -2.5887,-0.5851 -5.9248,-1.33582 -7.4133,-1.66822 -16.0829,-3.59093 -26.1959,-7.60766 -34.2427,-13.60063 -2.4219,-1.80378 -7.5302,-6.89553 -8.7459,-8.71782 -2.1284,-3.19004 -4.4828,-7.79195 -8.3483,-16.31763 -6.1124,-13.48118 -11.2576,-29.70916 -14.4318,-45.51722 -1.6385,-8.16038 -1.8556,-10.38799 -1.875,-19.24048 -0.017,-7.62375 -0.015,-7.6563 0.6256,-10.00205 1.8759,-6.87071 5.5816,-10.88886 11.2816,-12.2326 5.9117,-1.39364 13.4931,1.13791 17.1248,5.71839 1.6808,2.11981 3.4989,5.5622 4.4511,8.42758 1.5905,4.7855 2.406,11.50376 3.096,25.50394 1.1078,22.47686 1.899,30.10791 4.0208,38.78152 2.2443,9.17386 6.1747,16.4266 11.9021,21.96283 5.9127,5.71528 12.6872,10.18537 23.4963,15.50394 8.9912,4.42402 11.9162,5.53259 33.301,12.62034 7.9604,2.63847 14.6318,4.89899 14.8253,5.02343 0.4167,0.26792 0.1288,0.52685 -1.7639,1.58648 -1.1244,0.62958 -1.3282,0.66072 -4.5891,0.70163 -1.8769,0.024 -3.9419,-0.0569 -4.5891,-0.1787 z M 1225.431,418.52521 c 3.0334,-4.10194 6.3512,-10.45969 8.6133,-16.50585 3.4382,-9.18942 5.4315,-22.71632 4.4563,-30.24152 -1.3664,-10.54232 -10.8888,-18.44439 -27.3439,-22.69087 -1.7761,-0.45835 -7.6008,-1.74036 -12.9439,-2.84883 -13.9275,-2.88966 -19.291,-4.31461 -23.2224,-6.16963 -1.5087,-0.71203 -4.3783,-3.36616 -5.8131,-5.37692 -3.4895,-4.89002 -3.6416,-8.40373 -0.4971,-11.47387 3.484,-3.40148 10.6703,-5.54939 19.9576,-5.96523 12.8937,-0.57718 35.6387,6.43292 49.0469,15.11658 3.6242,2.34707 5.7743,4.09588 8.944,7.27481 7.4374,7.45866 9.8834,12.64238 10.7202,22.72031 1.3431,16.17114 -4.1158,32.22247 -15.127,44.47963 -2.0566,2.28935 -10.0358,9.6974 -12.2478,11.37131 -1.7653,1.33583 -3.3847,2.03816 -4.7053,2.04092 h -1.1195 z M 916.18086,378.61476 c -4.31291,-0.67396 -7.66475,-3.23772 -9.76144,-7.46631 l -1.02993,-2.07703 v -2.94179 c -0.009,-3.48152 0.29015,-4.54125 1.98639,-7.13952 1.31358,-2.01227 3.22508,-3.67712 5.42299,-4.72314 1.5059,-0.71685 1.5864,-0.72814 5.1775,-0.72814 h 3.64777 l 1.7707,0.84563 c 6.74245,3.22011 9.31056,11.08028 5.79826,17.74633 -0.95201,1.80681 -3.17349,4.02829 -4.98021,4.98021 -2.52639,1.33112 -5.53115,1.89398 -8.02811,1.50376 z m 3.5091,-8.80223 c 2.39947,-1.00262 3.28459,-4.32608 1.70398,-6.3984 -0.89393,-1.17207 -1.87369,-1.6169 -3.58665,-1.62846 -1.38947,-0.01 -1.50626,0.0356 -2.43167,0.93155 -1.24065,1.20142 -1.63932,1.9735 -1.63932,3.17474 0,2.9828 3.18239,5.07841 5.95366,3.92057 z m 74.03532,-6.12577 c -1.31973,-0.4716 -3.88365,-1.92475 -12.9165,-7.32089 -4.59498,-2.74494 -11.47877,-6.77314 -15.29723,-8.95139 -8.55842,-4.88219 -9.92893,-5.71101 -16.12088,-9.74962 -2.71826,-1.77283 -5.46062,-3.50794 -6.0942,-3.85572 l -1.15206,-0.63242 -1.20142,0.90682 c -2.91484,2.20004 -7.22162,4.2721 -10.87722,5.23327 -2.37714,0.62504 -10.38212,0.91039 -13.21362,0.47107 -4.21294,-0.65377 -7.52911,-1.66715 -11.3481,-3.46809 -10.89536,-5.13792 -19.06942,-14.11262 -22.25671,-24.43648 -0.82046,-2.65769 -0.87872,-3.05608 -0.98929,-6.75927 -0.2623,-8.78791 1.28575,-13.50901 5.96336,-18.18662 3.71875,-3.71875 8.96892,-6.58404 13.86544,-7.56691 3.17891,-0.63821 10.61649,-0.56553 14.00284,0.1368 10.39299,2.15549 19.42159,7.94637 26.00731,16.68091 1.82904,2.42579 4.54196,7.71029 5.51052,10.73391 0.38034,1.1872 0.92373,3.37159 1.20756,4.85417 0.61597,3.21681 0.55841,4.41059 -0.4684,9.71768 -0.39662,2.04991 -0.72084,3.85031 -0.72057,4.00081 0,0.66996 16.65218,10.82277 22.82767,13.91898 4.21215,2.1119 6.63963,2.82473 14.82652,4.35384 13.4844,2.51865 31.099,2.79715 44.8326,0.70882 9.4187,-1.43216 18.0184,-3.52191 25.5958,-6.21988 4.0246,-1.43296 6.549,-2.5304 13.7064,-5.95864 10.1431,-4.85836 13.5084,-6.03292 18.161,-6.33854 2.567,-0.16856 4.6611,0.18083 6.2554,1.04372 1.5932,0.86235 3.6076,3.07014 4.4043,4.8273 1.6209,3.57492 1.58,8.46787 -0.1007,12.02038 -1.1211,2.37003 -5.3817,6.0129 -9.5052,8.12702 -4.8029,2.46253 -10.5055,3.93275 -26.9811,6.95629 -10.9615,2.01165 -9.3783,1.9042 -27.535,1.86773 -17.9039,-0.0356 -20.0682,-0.15139 -28.4658,-1.51915 -3.6127,-0.58848 -4.6849,-0.69157 -4.8255,-0.4643 -0.099,0.16072 -0.2395,1.15188 -0.3114,2.20244 -0.1438,2.09723 -0.3019,2.33863 -1.80542,2.75633 -1.16608,0.32395 -3.9631,0.27325 -4.9804,-0.0904 z m 111.10882,-50.98673 c -11.8043,-2.54081 -19.8884,-9.84061 -23.97,-21.64457 l -0.8545,-2.47107 v -5.7659 c 0,-6.40648 0.1524,-7.43535 1.6981,-11.29642 1.8169,-4.53858 4.1351,-8.05044 7.3389,-11.11799 3.5023,-3.35335 7.4592,-5.75077 11.9064,-7.21415 6.0764,-1.99938 11.0151,-2.13244 17.533,-0.47231 3.1681,0.80685 7.4522,2.82908 10.0021,4.7211 4.074,3.02309 8.5288,8.48593 10.2066,12.51617 2.4352,5.84942 3.2313,13.1204 2.0398,18.6295 -2.6963,12.46787 -12.8769,22.21456 -25.3079,24.22906 -3.0516,0.49455 -8.0127,0.44136 -10.5904,-0.11342 z"
         id="path3"
         inkscape:export-filename=".\pingpong.svg"
         inkscape:export-xdpi="414.18015"
         inkscape:export-ydpi="414.18015" /><path
         style="fill:#ffffff;fill-opacity:1;stroke-width:7.9177"
         d="m 3841.6345,538.7188 c 0,-0.0575 0.2682,-0.60818 0.5959,-1.2231 0.6264,-1.17513 1.5589,-2.06928 4.6931,-4.49977 8.0306,-6.22753 15.2335,-12.76312 29.0431,-26.35248 6.1172,-6.01956 11.3608,-10.97826 13.7329,-12.98672 2.374,-2.01015 4.5405,-3.56754 11.0943,-7.975 l 5.9669,-4.01272 -0.6695,-1.89574 c -0.3681,-1.04264 -1.3748,-3.64946 -2.2369,-5.79295 -4.1651,-10.35499 -7.6939,-20.18688 -9.15,-25.49312 -1.4934,-5.4421 -2.2229,-10.48714 -2.2172,-15.33424 0.01,-7.66905 1.7736,-11.91807 5.7637,-13.87799 1.8599,-0.91351 3.1061,-1.12785 5.8346,-1.00378 3.2957,0.14989 4.0257,0.4684 5.5352,2.41507 0.6472,0.83466 1.6662,2.22737 2.2644,3.09493 0.5981,0.86763 1.7463,2.37081 2.5514,3.34042 0.8051,0.96969 1.6132,2.05532 1.7958,2.41254 0.451,0.88264 2.793,8.34962 6.3152,20.13533 4.7075,15.75102 6.1695,29.15598 4.0684,37.30142 -0.8005,3.10307 -2.2709,6.05478 -3.8725,7.77342 -2.219,2.38112 -12.1361,9.69449 -19.4038,14.30928 -1.7431,1.10681 -10.1948,5.43081 -26.8162,13.71948 -15.4154,7.68728 -18.2884,9.06596 -24.7646,11.8837 -6.4339,2.79936 -10.1242,4.27995 -10.1242,4.06202 z m 199.4975,-0.27614 c -2.0475,-0.33822 -3.8478,-1.39951 -11.5747,-6.8233 -22.6464,-15.89606 -32.9907,-23.97438 -49.1969,-38.42016 -12.3378,-10.99754 -34.3491,-32.66859 -41.5743,-40.93159 -5.418,-6.19617 -9.3713,-12.64535 -11.5698,-18.87407 -1.1986,-3.3959 -1.5579,-7.09411 -0.901,-9.27526 0.605,-2.00916 2.1372,-3.45124 4.5033,-4.23863 1.124,-0.37406 1.4919,-0.40092 4.4108,-0.32209 3.1741,0.0858 3.1919,0.0887 5.4051,0.87023 7.2847,2.57274 12.1922,5.58435 18.37,11.27313 4.5537,4.19319 7.967,8.06983 13.8599,15.74161 2.7427,3.57063 15.7656,20.94889 24.4762,32.66194 7.1671,9.63739 23.5803,31.51809 29.2335,38.97159 1.858,2.44965 4.5366,5.71285 5.9523,7.25165 1.4159,1.53873 3.7971,4.1276 5.2916,5.75296 2.9513,3.20968 5.5372,6.21343 5.5395,6.4348 0,0.1752 -0.9036,0.14554 -2.2255,-0.0728 z M 3780.3934,409.49162 v -3.15484 h 158.3918 158.3916 v 3.15484 3.15483 h -158.3916 -158.3918 z m 35.2836,-30.07664 c 0.6301,-2.80456 6.2329,-10.75431 11.2615,-15.9789 5.0032,-5.19823 9.3307,-8.57281 15.7167,-12.25593 12.4911,-7.20423 24.1567,-11.25321 35.1672,-12.20621 8.1216,-0.70294 17.9656,0.41839 23.725,2.70257 2.7007,1.07104 7.0039,3.27225 9.021,4.61438 1.9272,1.2823 2.7486,2.19034 3.5965,3.97575 0.6657,1.40168 0.6717,1.43591 0.6687,3.82825 -0.01,2.98565 -0.3018,3.80861 -1.9496,5.38038 -1.6852,1.60733 -2.3948,1.86053 -5.1834,1.84917 -1.2758,-0.007 -2.9877,-0.11103 -3.8043,-0.23539 -4.561,-0.69425 -12.0095,-1.70581 -14.104,-1.91539 -3.362,-0.33639 -18.2836,-0.34193 -20.6921,-0.008 -10.224,1.41893 -17.9996,3.5049 -26.7235,7.16909 -3.0126,1.26533 -10.2352,4.938 -15.9597,8.11549 -6.044,3.35473 -10.4701,5.71951 -10.7051,5.71951 -0.1433,0 -0.1538,-0.22614 -0.035,-0.7552 z m 160.7807,-7.78022 c -4.8779,-0.22985 -8.3339,-1.54323 -11.4133,-4.33733 l -0.7905,-0.71725 0.095,-1.69529 c 0.2172,-3.87433 1.8226,-5.7538 6.8533,-8.02311 2.4396,-1.1005 6.4268,-2.41935 10.5542,-3.49102 3.3957,-0.88166 5.4052,-1.32586 13.6304,-3.01301 11.098,-2.27639 16.2673,-3.92062 22.7666,-7.24119 5.2299,-2.67206 9.5524,-5.81139 15.2771,-11.09539 5.1853,-4.78622 15.6011,-15.20231 16.5885,-16.58891 l 0.3679,-0.51672 -1.0486,-0.82331 c -2.9572,-2.32192 -10.9898,-8.37276 -14.0079,-10.55209 -1.5887,-1.14714 -1.6614,-1.17758 -3.1549,-1.32228 -2.8301,-0.27403 -34.0399,-0.35189 -143.1763,-0.35694 l -108.6145,-0.007 0.05,-3.20127 0.051,-3.20126 120.7191,0.0477 c 66.3955,0.0259 121.3455,-0.0154 122.111,-0.0928 l 1.3918,-0.14021 -1.9476,-1.48459 c -4.2293,-3.22392 -7.7039,-5.66016 -8.0725,-5.66016 -0.2131,0 -1.0521,0.42357 -1.8645,0.94121 -5.413,3.44949 -10.6258,4.55987 -16.0499,3.41883 -1.5648,-0.32916 -4.5024,-1.66954 -6.5226,-2.97618 -3.5296,-2.28292 -7.1002,-5.88013 -9.479,-9.54937 -1.8472,-2.8493 -3.0821,-5.54836 -3.9909,-8.7222 -0.4765,-1.66421 -0.5046,-1.9762 -0.5006,-5.56737 0.01,-4.31572 0.1942,-5.42976 1.3235,-7.7892 0.4939,-1.0319 1.0135,-1.73646 1.9881,-2.69604 1.5284,-1.50479 2.8897,-2.28257 5.2215,-2.98334 3.2392,-0.97341 9.658,-0.79175 14.5613,0.41214 5.2511,1.28925 11.8708,4.67743 15.8569,8.11612 2.1883,1.88782 4.9734,6.31633 5.5736,8.86249 0.3613,1.53256 0.3591,4.16996 -0.01,6.12498 -0.159,0.85332 -0.675,2.70383 -1.1468,4.1121 l -0.8577,2.56061 0.4508,0.43199 c 0.248,0.23757 3.2067,2.50064 6.5749,5.02905 3.3683,2.52834 6.5417,4.94263 7.0521,5.36508 1.3497,1.11727 1.8058,1.37033 3.1034,1.72208 1.0667,0.28919 3.691,0.32433 31.1359,0.41664 l 29.971,0.10072 0.05,3.20126 0.051,3.20127 h -26.3566 c -14.4962,0 -26.3531,0.0624 -26.3487,0.13915 0.01,0.0765 0.8956,0.76551 1.9805,1.53102 3.4375,2.42545 9.4088,6.93426 11.1174,8.39437 0.9063,0.77449 2.2741,2.04402 3.0396,2.82125 l 1.3918,1.41304 -0.7201,1.39873 c -0.396,0.7693 -0.9091,1.52267 -1.1402,1.67404 -1.2123,0.79433 -2.9753,0.4019 -5.4272,-1.20803 l -1.6718,-1.09776 -0.514,1.23566 c -2.8779,6.91932 -8.708,15.97055 -17.0072,26.40424 -6.4643,8.12679 -13.3659,14.09802 -21.7283,18.79931 -6.5,3.65422 -12.1465,5.85627 -19.0987,7.44817 -2.4365,0.5579 -3.3701,0.67552 -6.5529,0.82527 -4.0457,0.19043 -7.6568,0.19057 -11.6915,4.2e-4 z m -31.1773,-21.89389 c -10.6362,-0.96625 -19.3599,-8.88675 -21.2637,-19.30592 -0.3191,-1.74614 -0.2676,-5.38312 0.1008,-7.12119 0.8623,-4.06805 3.1502,-8.42944 6.0288,-11.4928 3.2156,-3.422 8.1181,-5.9873 13.5567,-7.09383 1.2781,-0.26001 2.1409,-0.30013 4.5467,-0.21162 3.2285,0.11889 4.5401,0.34614 7.1813,1.24429 7.7641,2.64014 13.2005,8.51901 15.4766,16.73641 0.6506,2.34864 0.8031,5.58442 0.366,7.76535 -0.3978,1.98511 -1.3962,4.99587 -2.1603,6.5149 -1.6198,3.22013 -4.7854,6.8827 -7.64,8.8394 -4.6757,3.20505 -10.3653,4.65443 -16.1929,4.12501 z"
         id="path16"
         inkscape:export-filename="badminton.svg"
         inkscape:export-xdpi="96"
         inkscape:export-ydpi="96" /><path
         style="fill:#ffffff;fill-opacity:1;stroke-width:7.91769"
         d="m 2937.8357,537.84559 c -0.196,-0.31704 13.0726,-13.98003 29.4858,-30.36206 16.4132,-16.38195 36.9148,-37.29603 45.5591,-46.47569 8.6443,-9.17965 22.709,-23.75705 31.2549,-32.39432 l 15.5381,-15.70413 -6.1554,-3.45506 c -11.5705,-6.49453 -14.2686,-10.27949 -14.1322,-19.82389 0.1826,-12.76059 8.3538,-21.66186 19.8852,-21.66186 4.6338,0 13.4793,3.01206 24.1821,8.23445 13.0218,6.35395 38.0429,23.74733 53.1071,36.91733 23.0809,20.17874 27.3057,41.04977 11.4983,56.80204 -2.3875,2.37916 -6.6066,5.66716 -9.3757,7.30667 -15.2931,9.05421 -49.1789,18.58627 -90.0567,25.3327 -14.8612,2.45268 -17.7653,2.53634 -16.4913,0.47497 0.6378,-1.03199 12.1003,-7.62067 36.6542,-21.06905 31.5043,-17.25516 46.6509,-26.36309 49.9317,-30.02488 1.2515,-1.39683 1.2102,-1.48836 -1.7756,-3.92961 -3.6244,-2.96359 -15.544,-11.15296 -16.2329,-11.15296 -0.2644,0 -5.1078,3.45633 -10.7632,7.68064 -13.1595,9.82965 -24.3617,17.37935 -49.924,33.64583 -27.2521,17.34178 -54.8739,34.21748 -76.8928,46.97789 -23.56,13.6536 -24.427,14.08822 -25.2967,12.68099 z m 281.5208,-135.98215 c -14.2284,-4.86872 -25.9461,-17.45734 -33.6798,-36.18309 -2.9568,-7.15949 -6.0883,-18.3182 -6.0909,-21.70457 -0.01,-7.39465 6.4999,-13.64903 14.1972,-13.64903 7.9951,0 10.5423,2.5266 18.7903,18.63829 7.2517,14.16527 12.9806,23.21263 16.3034,25.7471 3.4493,2.63099 7.9777,2.4372 14.2924,-0.61141 13.4445,-6.49089 28.4185,-22.00757 45.1725,-46.80982 3.8985,-5.7712 7.3565,-10.32736 7.6842,-10.12477 1.1411,0.70522 -3.6314,17.57999 -8.1726,28.89739 -12.4064,30.91891 -29.3465,50.84372 -47.8516,56.28249 -5.721,1.68139 -14.9514,1.46568 -20.6451,-0.48258 z m -187.7546,-52.50726 c -2.0791,-11.43448 -2.4332,-29.64584 -0.8146,-41.8977 3.7199,-28.15681 15.8916,-47.38249 34.1263,-53.90384 6.0704,-2.1709 17.5592,-2.63708 24.8757,-1.00932 17.9304,3.98907 36.2095,16.90852 49.4685,34.96365 5.4048,7.35988 5.9074,13.25627 1.6605,19.48206 -3.6368,5.33134 -12.7738,7.31666 -18.2737,3.97047 -1.434,-0.87246 -7.5026,-5.82957 -13.486,-11.01584 -11.4915,-9.96076 -17.1998,-14.11656 -24.7445,-18.0147 -4.1095,-2.12328 -5.2403,-2.38517 -10.2982,-2.38517 -7.098,0 -9.8166,1.22773 -15.6549,7.06957 -9.5981,9.60421 -17.8898,29.31992 -22.9919,54.67021 -1.099,5.46068 -2.323,10.03681 -2.72,10.1691 -0.397,0.1323 -0.9132,-0.81197 -1.1472,-2.09849 z m 158.7098,-27.96581 c -11.7206,-3.1518 -20.2107,-12.60629 -22.3062,-24.83988 -3.3542,-19.58197 14.2709,-37.45388 34.1255,-34.60313 16.7407,2.40361 28.7394,18.39518 25.9631,34.60313 -3.0958,18.07323 -20.4696,29.4956 -37.7824,24.83988 z"
         id="path51"
         inkscape:export-filename="course.svg"
         inkscape:export-xdpi="96"
         inkscape:export-ydpi="96" /><path
         style="fill:#ffffff;fill-opacity:1;stroke-width:7.91769"
         d="m 2870.3988,536.16892 c -3.4026,-1.21378 -9.5275,-3.87841 -13.6106,-5.92134 -15.235,-7.62279 -24.0593,-10.46678 -32.2802,-10.40363 -8.1763,0.0627 -14.4689,2.15314 -36.3919,12.08973 -9.955,4.51201 -11.1789,4.76689 -22.8907,4.76689 -12.2815,0 -12.4696,-0.0454 -25.3653,-6.16976 -12.5566,-5.96295 -13.3445,-6.16567 -23.5094,-6.04855 -8.8856,0.10232 -12.7482,0.89412 -24.8968,5.10382 -9.1267,3.16248 -15.0026,4.59815 -16.0854,3.9302 -1.3418,-0.82778 -1.7867,-6.60782 -2.0846,-27.08343 l -0.3788,-26.03102 h -41.9999 -41.9999 v -2.90024 -2.90034 l 43.6722,-0.87003 c 24.0197,-0.4785 44.5665,-0.52684 45.6594,-0.10741 3.0448,1.16835 3.4333,4.38917 3.4516,28.60988 l 0.017,22.45057 11.4388,-3.6786 c 13.6317,-4.38371 25.6472,-5.64519 33.9362,-3.56292 3.2858,0.82551 10.7071,3.75001 16.4917,6.49896 11.8234,5.61885 21.2228,7.13457 30.2095,4.87175 3.0847,-0.77671 11.6088,-4.15809 18.9423,-7.51411 7.3334,-3.35602 16.8626,-7.07578 21.1759,-8.26612 11.5491,-3.18728 20.9083,-1.25003 43.507,9.00549 26.6494,12.09373 32.6702,12.06138 53.1513,-0.28577 17.7221,-10.68386 27.2754,-13.28997 27.2754,-7.44069 0,2.43882 -1.0456,3.3333 -5.7842,4.94789 -3.1814,1.08402 -10.5551,4.83213 -16.3863,8.32917 -5.8311,3.49705 -13.6162,7.39527 -17.3001,8.66275 -8.359,2.87589 -19.7637,2.84199 -27.9641,-0.0827 z m -221.0029,-70.30574 c 0.6522,-1.19088 3.7952,-4.67093 6.9845,-7.73337 3.1893,-3.06234 13.3365,-14.19835 22.5493,-24.74664 9.2129,-10.54829 20.0231,-22.54825 24.0229,-26.66663 l 7.2723,-7.48804 -12.3483,-8.35325 c -21.1753,-14.32448 -36.0172,-33.22702 -34.3168,-43.70562 0.8237,-5.0751 5.5328,-10.62389 10.9049,-12.84918 7.9526,-3.29406 27.4805,11.01624 46.7788,34.28033 15.8949,19.16124 19.1771,29.07111 13.0765,39.48101 -6.3565,10.8466 -24.6225,26.81883 -43.3346,37.89287 -12.4542,7.37045 -40.0556,22.05384 -41.4563,22.05384 -0.8828,0 -0.9269,-0.71583 -0.1332,-2.16532 z m 146.0628,-73.00271 c -9.396,-4.76343 -14.1702,-12.59039 -14.0921,-23.10298 0.1195,-16.06681 10.6867,-26.6997 26.5347,-26.6997 15.8682,0 26.4522,10.63852 26.563,26.6997 0.072,10.3533 -4.6844,18.16681 -14.0285,23.04828 -8.7827,4.58807 -16.0037,4.60388 -24.9771,0.0545 z m -41.7419,-24.65923 c -4.0489,-1.43222 -7.5649,-4.44277 -14.6981,-12.58503 -15.7182,-17.94174 -75.8734,-99.63999 -75.8734,-103.04545 0,-2.39503 2.6513,-0.68149 11.32,7.31621 98.377,90.76208 98.8028,91.18533 98.8028,98.21122 0,5.2821 -2.0694,8.42586 -6.8652,10.42971 -5.0405,2.10599 -5.8692,2.08464 -12.6861,-0.32666 z"
         id="path37"
         inkscape:export-filename="natation.svg"
         inkscape:export-xdpi="96"
         inkscape:export-ydpi="96" /><path
         style="fill:#ffffff;fill-opacity:1;stroke-width:7.91767"
         d="m 1413.1153,538.0497 c -0.6193,-0.16638 -1.5903,-0.40761 -2.1579,-0.53618 -0.9376,-0.21236 -1.0321,-0.38775 -1.0321,-1.91543 0,-1.38581 0.1221,-1.68166 0.6941,-1.68166 0.563,0 4.463,-8.68667 20.6391,-45.96918 l 19.9451,-45.96911 -6.2067,-8.16654 c -8.2246,-10.82144 -11.761,-15.05042 -17.6156,-21.06453 -6.9435,-7.13276 -13.5057,-12.62804 -20.6474,-17.2901 l -2.9873,-1.9502 -2.3438,-9.07537 c -1.289,-4.99149 -2.4418,-9.42145 -2.5617,-9.8445 -0.1874,-0.66075 0.066,-0.85881 1.807,-1.40733 2.5973,-0.81868 2.7728,-0.80663 2.9952,0.20604 0.1019,0.4645 1.1304,4.47546 2.2856,8.91328 1.7214,6.61279 2.2529,8.17029 2.9456,8.63163 3.303,2.19978 10.1086,7.37911 13.2477,10.08214 8.5702,7.37935 16.0037,15.61512 25.6205,28.38521 2.798,3.71534 5.9953,7.87968 7.1051,9.25404 l 2.0176,2.49872 -21.0995,48.6347 c -11.6048,26.74905 -21.1954,48.61938 -21.3122,48.60071 -0.117,-0.019 -0.7193,-0.16996 -1.3384,-0.33634 z m -10.8593,-11.69373 c -3.7565,-10.42987 -6.7325,-16.60059 -11.0144,-22.83816 -4.7435,-6.90959 -8.9107,-11.88772 -15.2523,-18.21998 -9.1733,-9.15976 -15.4728,-13.64195 -22.3428,-15.89731 -1.3134,-0.4311 -8.8673,-2.39334 -16.7866,-4.36048 -20.6562,-5.13097 -26.0304,-7.23527 -30.3247,-11.87335 -2.9164,-3.15012 -3.7254,-5.07068 -3.6855,-8.74947 0.046,-4.2402 0.966,-6.76152 3.042,-8.33577 3.8967,-2.95494 10.4832,-3.57849 17.3701,-1.64451 7.891,2.21599 16.3938,5.6851 28.9908,11.82827 10.251,4.99905 16.7346,9.27622 23.7962,15.698 17.2266,15.6658 28.9544,41.36705 28.9904,63.53127 0.01,3.15381 -0.1421,4.7298 -0.4854,5.19943 -0.435,0.59487 -0.7042,0.0873 -2.2978,-4.33794 z m 29.5044,-56.88705 c -0.8119,-1.39809 -3.966,-7.1018 -7.0092,-12.67479 -12.3711,-22.65644 -19.4121,-33.33357 -24.5815,-37.27636 -1.5487,-1.1812 -1.8275,-1.26254 -3.6762,-1.07171 -3.8787,0.40027 -7.7508,2.90979 -19.3151,12.51783 -8.6694,7.203 -16.0311,10.61433 -21.1672,9.80889 -3.7377,-0.58603 -7.3215,-2.86226 -8.3915,-5.32955 -1.6201,-3.73592 -1.276,-6.9684 1.333,-12.5226 2.7409,-5.83486 6.0708,-9.35435 13.3236,-14.08201 8.7102,-5.67753 17.9179,-8.9898 27.9413,-10.05108 6.3031,-0.66737 11.0195,0.0388 15.9228,2.385 7.2194,3.45415 13.6787,14.36034 20.162,34.04234 3.6227,10.99772 4.7041,15.46818 6.5364,27.02098 1.6338,10.30089 1.4438,11.57595 -1.0784,7.23306 z m -58.6137,-95.65215 c -7.3503,-0.86883 -17.2852,-3.19181 -22.2892,-5.21189 -8.6793,-3.50377 -13.0388,-8.04738 -13.6121,-14.18691 -0.2504,-2.68169 0.4274,-4.72754 2.3006,-6.94383 1.967,-2.32703 3.6098,-2.89583 8.2687,-2.86262 5.1931,0.037 7.7128,0.76811 18.4448,5.35103 12.2315,5.22335 16.5144,6.44122 22.6535,6.44122 10.6938,0 23.6757,-6.79384 34.1474,-17.87065 2.1839,-2.30997 3.6306,-4.40508 6.455,-9.3476 2.0021,-3.50371 3.8799,-6.69629 4.1726,-7.09477 0.5212,-0.70907 0.5417,-0.70686 0.9754,0.10341 0.3474,0.64913 0.3167,1.56006 -0.1424,4.21998 -0.7664,4.44128 -1.6819,7.14038 -4.1365,12.19526 -9.7738,20.12796 -30.8816,34.69713 -51.0455,35.2329 -2.6833,0.0711 -5.4698,0.0596 -6.1923,-0.025 z m 17.6392,-23.60435 c -10.7972,-28.3988 -28.057,-52.03028 -50.5725,-69.24213 -2.295,-1.75454 -4.1836,-3.28383 -4.1967,-3.39833 -0.047,-0.41673 47.7379,-26.29891 47.9978,-25.99728 0.1471,0.17079 0.7185,1.10212 1.2696,2.06971 0.7592,1.33303 0.8878,1.83026 0.5308,2.05253 -0.2592,0.16144 -9.5004,5.2206 -20.536,11.24277 -11.0357,6.02203 -20.1038,11.09367 -20.1513,11.27026 -0.047,0.17645 1.3398,1.48301 3.0828,2.90341 4.4158,3.59851 12.1629,11.09164 16.0627,15.53609 13.5017,15.38749 23.1033,31.47175 31.3584,52.52997 l 0.7724,1.97029 h -2.6309 c -2.4602,0 -2.6539,-0.0612 -2.9871,-0.93729 z m -55.1683,-14.49492 c -6.8856,-0.72642 -13.3148,-5.1862 -16.6511,-11.55036 -5.99,-11.42645 -0.7411,-24.9022 11.5847,-29.74173 7.7062,-3.02567 17.2665,-1.15979 23.0491,4.49847 5.0833,4.97401 7.8134,12.14869 6.8116,17.90106 -2.1696,12.45903 -12.3376,20.20668 -24.7943,18.89256 z m -43.8272,-3.75309 c -3.5244,-1.74452 -6.1908,-5.37393 -7.4843,-10.18705 -2.0793,-7.73685 0.8132,-25.5611 5.7269,-35.28997 5.4551,-10.80116 17.9744,-20.82945 31.7758,-25.45334 6.7053,-2.24653 10.8191,-2.98332 17.97,-3.2187 7.1304,-0.23472 11.0244,0.13603 15.2995,1.45647 2.0286,0.62653 3.6868,1.67845 3.2829,2.08242 -0.049,0.0483 -3.8877,0.42233 -8.532,0.83113 -9.5584,0.84133 -11.5708,1.37245 -19.4611,5.13598 -10.6344,5.07241 -18.8778,12.61581 -21.5529,19.72298 -1.9776,5.25394 -2.2221,7.44572 -2.2954,20.5716 -0.074,13.22427 -0.3791,15.93511 -2.2182,19.69387 -1.1062,2.26048 -3.298,4.44206 -5.0494,5.02559 -2.1134,0.70412 -5.6444,0.52856 -7.4618,-0.37098 z"
         id="path57"
         inkscape:export-filename="escalade.svg"
         inkscape:export-xdpi="414.18015"
         inkscape:export-ydpi="414.18015" /><path
         style="fill:#ffffff;fill-opacity:1;stroke-width:7.91768"
         d="m 3606.894,537.00599 c -3.289,-6.43644 -7.5435,-23.21243 -10.7619,-42.43327 -1.0645,-6.35795 -1.3804,-7.29623 -3.8288,-11.36988 -4.7716,-7.93934 -6.2858,-15.1748 -3.829,-18.29799 1.2476,-1.58615 4.89,-2.80922 6.8791,-2.30993 1.1504,0.28874 1.4578,-0.0555 2.9109,-3.26029 3.7071,-8.17612 10.7568,-18.26385 16.9785,-24.29573 12.6791,-12.29234 28.6802,-23.93186 38.0501,-27.67867 8.7397,-3.49479 15.4949,-0.75763 13.5742,5.50033 -0.3134,1.02193 -0.5231,1.85807 -0.4656,1.85807 0.058,0 1.5732,-0.51611 3.368,-1.14695 1.9372,-0.68083 5.2668,-1.26008 8.1938,-1.42529 l 4.9308,-0.27835 5.038,4.57363 c 11.6064,10.53623 31.1554,33.19761 55.309,64.11389 11.1793,14.30947 37.4039,49.31109 37.1416,49.5731 -0.1118,0.11116 -5.337,-2.69161 -11.613,-6.22837 -50.2469,-28.31514 -82.5208,-54.12278 -99.5633,-79.61495 -4.0179,-6.01021 -7.824,-13.6026 -8.2963,-16.5499 l -0.3267,-2.0403 -3.0247,4.23045 c -7.2208,10.09991 -23.7221,28.45006 -34.2558,38.09374 -6.4667,5.92023 -6.6476,6.67183 -2.3935,9.93825 5.4879,4.21353 16.069,13.72575 25.0263,22.49816 4.9688,4.86633 9.8823,9.27921 10.9186,9.80641 9.4821,4.82396 33.9597,8.71697 63.2721,10.06298 l 8.7604,0.40228 -6.2965,3.08667 c -10.0121,4.9078 -23.4202,8.48881 -39.3357,10.50534 -25.8599,3.27663 -44.0965,-3.27494 -65.9732,-23.70122 -2.0581,-1.92161 -3.9311,-3.28039 -4.1621,-3.01956 -0.2311,0.26083 -1.4638,7.2499 -2.7395,15.53134 -1.2755,8.28144 -2.4027,15.14164 -2.5047,15.24488 -0.1015,0.10324 -0.5436,-0.51275 -0.9811,-1.36887 z m -57.05,-10.56008 c -24.5728,-8.57978 -45.9834,-25.31816 -58.9994,-46.12445 -1.5796,-2.52482 -3.47,-5.87935 -4.2013,-7.4546 -1.2723,-2.74122 -1.2914,-2.94384 -0.4424,-4.7239 2.9782,-6.2454 17.9196,-10.43852 43.932,-12.32896 15.9723,-1.1608 43.0643,-2.33635 45.8431,-1.98921 3.3844,0.42286 6.6936,2.14531 8.3108,4.32587 0.9312,1.25553 1.1459,2.33547 1.1422,5.74909 0,5.8159 -1.8211,10.22887 -4.9233,11.9733 -4.9532,2.78526 -7.9526,3.07499 -35.3403,3.41332 -23.1525,0.28597 -25.6198,0.40367 -26.9659,1.28562 -4.4058,2.88732 1.225,12.20118 17.1249,28.32683 4.372,4.43416 10.6595,10.55473 13.972,13.60141 3.3125,3.04658 5.7764,5.52489 5.4753,5.50718 -0.3012,-0.0188 -2.5188,-0.72033 -4.9277,-1.5615 z m -159.9537,-77.36966 c 14.5024,-25.17472 23.5649,-38.99441 33.5312,-51.13312 10.1999,-12.42299 17.376,-16.84785 24.3,-14.98345 5.1351,1.38273 7.6318,6.49276 6.8299,13.97924 -0.3457,3.23011 -0.2889,3.54379 0.6426,3.5428 2.169,0 19.8184,-2.79604 27.6647,-4.37903 5.5477,-1.11922 9.0182,-2.11978 10.6305,-3.0645 3.9088,-2.29082 10.4951,-8.30865 16.7404,-15.29545 6.7916,-7.59814 9.3315,-9.21656 13.8667,-8.83527 2.3792,0.20005 2.9814,0.51899 4.7581,2.52087 2.0731,2.33617 3.4262,5.58051 4.0719,9.76187 0.7315,4.73972 -4.2628,12.16712 -16.8391,25.04169 l -8.0226,8.21293 h -19.354 c -19.8837,0 -23.9406,-0.29142 -35.1384,-2.52413 l -5.3815,-1.0731 -3.2254,2.9861 c -4.8455,4.48622 -14.2832,11.3978 -26.8028,19.62865 -10.7663,7.07826 -28.4724,17.94095 -29.2436,17.94095 -0.2028,0 0.234,-1.04716 0.9714,-2.32705 z m -45.9184,-25.60205 c -17.0247,-1.41489 -31.363,-6.02842 -42.8723,-13.79464 -4.7234,-3.18733 -5.4849,-4.44643 -4.5586,-7.53815 0.7149,-2.38625 2.5293,-4.00703 6.9136,-6.17532 6.9683,-3.44628 14.108,-4.89662 23.8627,-4.84723 13.6677,0.0693 26.796,3.91885 43.1589,12.65542 4.2625,2.27588 4.7024,2.674 5.9495,5.38294 1.5181,3.29859 1.4146,5.94221 -0.3245,8.28619 -1.4675,1.97763 -5.3602,4.23034 -8.8698,5.1329 -3.9016,1.00341 -16.2532,1.48023 -23.2595,0.89789 z m 16.5354,-3.59397 c 8.3404,-1.72275 13.6666,-4.56096 12.4494,-6.63411 -1.7316,-2.94958 -19.4653,-9.91935 -31.1749,-12.25245 -14.8578,-2.96046 -40.1744,-1.44449 -41.6864,2.49622 -0.577,1.5031 1.5023,3.07232 8.7865,6.63095 9.924,4.84851 23.2284,9.06105 32.3524,10.24363 4.5251,0.58649 15.4136,0.31289 19.273,-0.48424 z m 97.4947,-62.03886 c -10.6116,-3.50794 -17.3907,-12.94464 -17.3907,-24.20812 0,-11.5256 7.2524,-21.16709 18.3097,-24.34057 2.4274,-0.69677 4.5364,-0.86643 8.3131,-0.66885 4.3677,0.22846 5.6302,0.53511 9.2204,2.24015 19.3618,9.19477 19.3432,36.45383 -0.03,45.65445 -3.8111,1.80986 -4.6928,2.00694 -9.7354,2.17581 -4.3488,0.1457 -6.2223,-0.0386 -8.6864,-0.85287 z m 66.8184,-24.66712 c -9.1306,-2.91948 -15.7917,-10.70114 -17.4192,-20.34986 -2.5121,-14.89388 9.5908,-28.96587 24.9128,-28.96587 13.161,0 23.8988,9.76403 25.281,22.98842 1.2183,11.65527 -7.105,23.55482 -18.6197,26.6207 -3.9275,1.04579 -10.3852,0.91186 -14.1549,-0.29339 z m 64.7196,-0.4394 c -3.5153,-0.25062 -7.9129,-1.35868 -10.4031,-2.62114 -7.281,-3.69147 -7.8852,-9.69128 -1.9071,-18.94555 4.953,-7.66822 7.931,-10.1398 42.3503,-35.14911 17.9587,-13.04899 32.9984,-23.92989 33.4213,-24.17982 0.9515,-0.56204 1.5408,-1.54873 -7.5164,12.58186 -17.4537,27.23036 -32.3393,47.20408 -44.4123,59.59303 -7.4988,7.69475 -9.0862,8.89515 -11.5327,8.72073 z"
         id="path56" /><path
         style="fill:#ffffff;fill-opacity:1;stroke-width:7.91769"
         d="m 667.92953,538.71416 c -0.0178,-1.20307 1.51964,-14.0059 2.74866,-22.98237 2.34543,-17.13232 2.79976,-21.33571 3.24624,-30.04088 0.492,-9.59434 0.11577,-16.3603 -1.36701,-24.53588 -1.71617,-9.46653 -3.83161,-13.98213 -8.10752,-17.30533 l -1.3768,-1.07008 -5.04203,10.12772 c -8.93435,17.94607 -13.21511,24.27476 -22.82354,33.74024 -15.69231,15.45973 -24.54793,22.19497 -38.55956,29.32763 -19.90581,10.13305 -45.27491,17.35876 -66.62526,18.97646 l -3.48221,0.26378 3.01786,-1.44034 c 1.65982,-0.79232 6.87154,-2.98544 11.5818,-4.8738 9.69644,-3.88715 11.33589,-4.74664 19.75771,-10.35707 17.55876,-11.69724 30.5303,-22.38923 40.25867,-33.18365 8.8029,-9.76749 14.42174,-19.78067 19.32464,-34.43757 2.39006,-7.14462 5.22789,-17.97776 4.80922,-18.35787 -0.17656,-0.15966 -1.47001,-0.65731 -2.87438,-1.10501 -3.37607,-1.07583 -10.38309,-4.5793 -13.00629,-6.50291 -3.81859,-2.80008 -7.35158,-6.94542 -9.17655,-10.76749 -1.57527,-3.29903 -1.72806,-3.96831 -1.72806,-7.56564 0,-3.316 0.2,-4.37308 1.25166,-6.6173 2.47551,-5.28229 8.45456,-10.04534 13.57396,-10.813 4.35489,-0.65312 19.33605,1.37324 30.94383,4.18552 3.66896,0.88877 6.07283,1.17219 9.94826,1.17268 7.62667,0 9.79522,0.90671 12.93895,5.40533 1.90865,2.73145 1.66282,2.53145 8.80348,7.15828 12.47897,8.08593 21.32537,20.20767 22.56724,30.92294 1.93274,16.67606 -0.1211,34.76845 -5.87008,51.6931 -3.39184,9.98649 -6.61504,16.73629 -15.85214,33.19658 -2.43597,4.34115 -5.42982,9.77332 -6.6527,12.07154 -1.22296,2.29822 -2.22563,3.96968 -2.22805,3.71439 z m 35.73676,-150.70573 c -5.11059,-0.99467 -9.57057,-4.70145 -10.724,-8.91293 -0.67931,-2.47987 -0.67664,-8.79094 0,-11.31996 1.29943,-4.82482 10.83265,-10.13322 27.66603,-15.40533 34.85083,-10.91495 47.02293,-14.37525 80.08977,-22.76821 15.37072,-3.90121 28.39303,-6.41059 31.16441,-6.00509 0.90105,0.13161 0.70663,0.40202 -1.48335,2.06176 -3.71754,2.81714 -43.38437,25.80766 -62.41346,36.17411 -16.49716,8.98714 -44.93473,22.69732 -51.85826,25.00152 -2.45441,0.81681 -7.44082,1.69984 -9.19563,1.62829 -0.6384,-0.0267 -2.10081,-0.23048 -3.25004,-0.45416 z M 509.59394,349.28299 c 0,-0.54568 2.45263,-5.06871 4.37413,-8.06653 2.48569,-3.87777 8.0308,-10.51212 11.93888,-14.28382 2.77316,-2.67623 14.58059,-12.24268 22.9193,-18.56903 15.7219,-11.92804 33.27137,-19.90969 51.5733,-23.45641 4.9641,-0.96201 6.84947,-1.07171 18.30209,-1.06435 11.36159,0 13.38172,0.12466 18.33939,1.07276 5.43823,1.03912 11.09409,2.41422 13.04106,3.17049 2.22328,0.86378 6.76192,5.82821 8.49805,9.29571 1.13517,2.26701 1.20558,3.65537 0.34786,6.86685 -1.30243,4.8755 -3.97534,8.3063 -8.19054,10.51325 -1.89466,0.992 -2.65125,1.09094 -8.12497,1.06217 -5.35263,-0.0283 -6.98168,-0.24899 -14.39299,-1.95255 -12.11916,-2.78593 -18.09175,-3.51463 -26.23224,-3.20145 -19.60816,0.75473 -41.89133,8.17994 -66.85744,22.27816 -7.03759,3.97404 -8.83645,5.13241 -16.13006,10.38552 -5.66265,4.07849 -9.40582,6.44607 -9.40582,5.94923 z m 354.87024,-32.2476 c -1.95408,-0.46548 -5.19434,-2.40646 -6.74398,-4.04001 -0.68771,-0.72506 -1.81026,-2.54179 -2.49425,-4.03759 -1.09515,-2.39442 -1.21836,-3.14317 -1.03186,-6.26774 0.33711,-5.63977 2.91051,-9.64632 7.71019,-12.00331 2.21948,-1.08989 3.22708,-1.29539 6.35221,-1.29539 4.31763,0 6.87082,1.00566 9.74414,3.83807 4.19991,4.14026 5.47194,11.21625 2.90808,16.17639 -3.15254,6.0987 -9.84163,9.20226 -16.44453,7.62958 z M 708.95262,312.3628 c -3.09143,-0.55683 -8.68374,-2.72676 -11.30799,-4.38771 -8.28496,-5.24365 -13.7565,-14.76709 -14.27841,-24.85164 -0.66475,-12.84632 7.78674,-24.94542 20.80338,-29.78196 4.9401,-1.83573 11.68957,-2.28722 17.13977,-1.1468 5.16435,1.0806 11.3426,4.30889 14.97922,7.82691 5.28084,5.10857 7.9662,10.14939 9.462,17.76232 0.65133,3.31504 0.69086,4.54139 0.24761,7.67631 -2.18124,15.42303 -14.55617,26.61866 -30.0282,27.16595 -2.55351,0.0913 -5.71131,-0.0283 -7.01738,-0.26338 z"
         id="path17"
         inkscape:export-filename="petanque.svg"
         inkscape:export-xdpi="414.18015"
         inkscape:export-ydpi="414.18015" /><path
         style="fill:#ffffff;fill-opacity:1;stroke-width:7.91768"
         d="m 1467.579,537.93752 c -0.2694,-0.26923 -0.3987,-0.69015 -0.2946,-0.95813 0.1024,-0.26287 1.9549,-5.51902 4.1173,-11.68046 15.5271,-44.24297 19.5947,-66.22541 19.6106,-105.98256 0,-5.75612 0.1393,-11.3279 0.3048,-12.38181 1.3482,-8.59157 10.4973,-13.19054 18.4655,-9.28218 3.5357,1.73409 5.8428,4.89836 6.7343,9.2357 3.0423,14.80395 2.0765,33.01674 -2.6591,50.1365 -7.1248,25.75721 -20.8796,51.55441 -40.2542,75.4971 -5.1545,6.36984 -5.1104,6.33018 -6.0246,5.41584 z m 137.9894,-0.18309 c -0.2374,-0.36481 -2.1465,-4.51048 -4.2426,-9.21263 -10.1158,-22.69265 -18.4081,-39.19299 -26.3714,-52.47538 -9.2077,-15.358 -17.3441,-26.01693 -28.6605,-37.54615 -6.1991,-6.31556 -9.3925,-9.17172 -17.2522,-15.42998 -3.1617,-2.51772 -6.0557,-5.00003 -6.431,-5.51626 -0.3753,-0.5163 -1.0628,-1.74307 -1.5277,-2.72618 -4.1516,-8.77872 3.9177,-19.26827 13.5701,-17.64031 3.8511,0.64963 12.4633,5.61774 19.4472,11.21863 3.7614,3.01644 9.9108,9.10367 13.2352,13.10119 10.4096,12.51731 19.6024,29.75427 26.2568,49.23258 6.454,18.89146 10.8073,38.90154 13.3088,61.17334 0.6187,5.50872 0.6221,5.70931 0.1014,6.09037 -0.7352,0.53761 -0.9332,0.50051 -1.4336,-0.26922 z m -0.8278,-82.32726 c -1.0134,-0.56822 -1.4078,-1.30058 -1.4078,-2.61427 0,-0.80828 0.6029,-1.95737 2.7553,-5.25222 12.6997,-19.43936 21.9786,-39.4472 28.3434,-61.11519 3.7533,-12.77729 6.5653,-26.92695 7.9384,-39.94614 0.962,-9.12144 1.6516,-23.28964 1.1335,-23.28964 -0.1645,0 -3.0684,0.45985 -6.4527,1.02178 -17.2705,2.86777 -35.3682,5.09521 -58.7763,7.23396 -14.5788,1.33204 -20.6756,1.61084 -26.6713,1.21955 -7.8941,-0.51512 -13.2644,-1.62467 -15.8731,-3.27938 l -1.4191,-0.90011 -6.8355,1.02644 c -7.9912,1.20002 -15.0859,2.10734 -27.9142,3.56984 -15.814,1.80305 -24.7526,1.71436 -32.5949,-0.32318 -4.5802,-1.18999 -6.8734,-2.58012 -8.5378,-5.17525 -2.0803,-3.24378 -2.0844,-8.15538 -0.011,-11.4421 0.9144,-1.44853 2.9344,-3.2247 4.4029,-3.87126 3.2262,-1.42074 11.3971,-2.09791 20.6725,-1.71317 7.1495,0.29663 25.9141,2.30558 42.4047,4.54003 l 7.6177,1.03221 1.0656,-0.93558 c 2.9543,-2.59395 6.0463,-3.06502 19.9601,-3.04142 8.2101,0.0144 11.7638,0.15064 17.3935,0.66943 32.0763,2.95574 43.4071,4.19864 62.7245,6.88069 4.8261,0.67009 8.8607,1.13264 8.9654,1.02788 0.2661,-0.26608 -0.3913,-14.36552 -0.9437,-20.24036 -1.3078,-13.90829 -4.0917,-28.53557 -7.9673,-41.86233 -0.9196,-3.16184 -1.739,-6.04724 -1.821,-6.41205 -0.1474,-0.65514 -0.1114,-0.66327 2.9339,-0.66327 h 3.083 l 0.92,3.02162 c 4.1173,13.52192 7.2622,29.52235 8.7352,44.44199 1.5668,15.86926 1.3434,35.59765 -0.5807,51.2962 -3.7276,30.41224 -13.1905,59.41966 -28.0825,86.08321 -3.9078,6.99679 -10.8125,17.88162 -11.9328,18.81136 -0.7237,0.60054 -2.3376,0.70097 -3.2293,0.20073 z m -81.1527,-145.66812 c -3.1949,-0.62925 -4.0662,-0.86269 -5.6012,-1.50079 -6.0865,-2.52984 -11.0447,-8.30412 -12.7289,-14.82387 -0.7446,-2.88226 -0.6709,-7.78408 0.1616,-10.74717 2.1141,-7.52455 8.1442,-13.45079 15.6627,-15.39294 2.5961,-0.67061 7.7765,-0.67533 10.3181,-0.0111 7.6796,2.01203 13.8506,8.12089 15.799,15.63988 1.4907,5.7531 0.4282,12.14562 -2.8567,17.18773 -1.4503,2.226 -4.8468,5.48748 -7.1129,6.83009 -3.7861,2.24337 -10.018,3.52999 -13.6417,2.81644 z"
         id="path34"
         inkscape:export-filename="tiralarc.svg"
         inkscape:export-xdpi="96"
         inkscape:export-ydpi="96" /><path
         style="fill:#ffffff;fill-opacity:1;stroke-width:7.91769"
         d="m 141.5413,538.35508 c -7.8394,-0.4083 -12.0842,-1.0209 -18.9311,-2.7322 -20.2644,-5.0649 -38.35312,-14.0323 -41.81682,-20.7305 -1.71,-3.3069 -2.5475,-14.2243 -2.5528,-33.28466 0,-7.6343 -0.139,-19.715 -0.3031,-26.846 l -0.299,-12.9655 -5.033,-3.5551 c -17.96476,-12.6889 -25.00712,-19.1054 -31.95893,-29.1184 -2.81695,-4.0576 -6.27827,-10.7486 -7.91177,-15.2948 -2.95639,-8.2272 -4.37532,-20.2079 -3.54468,-29.9286 1.14451,-13.3933 4.3038,-20.412 13.18531,-29.29347 7.98844,-7.9885 17.15964,-12.7873 29.64927,-15.514 4.0311,-0.88 5.961,-1.0093 15.0608,-1.0093 9.15802,0 11.02142,0.1265 15.20222,1.0321 9.9692,2.1595 16.5017,4.8824 27.8263,11.5986 3.1994,1.8975 5.9894,3.4499 6.2002,3.4499 0.4396,0 14.9836,-15.4376 14.9836,-15.9043 0,-0.1692 -1.7868,-0.4481 -3.9707,-0.6198 -2.1839,-0.1717 -4.7364,-0.4301 -5.6723,-0.5742 l -1.7018,-0.262 v -32.6154 -32.6154 h 33.8078 33.808 v 32.6734 32.6734 h -5.9373 c -3.2654,0 -5.869,0.1764 -5.7858,0.392 0.084,0.2156 3.7546,4.1062 8.1587,8.6458 l 8.0073,8.2539 4.9259,-3.2489 c 7.5981,-5.0114 13.0088,-7.4987 21.0727,-9.687 19.7182,-5.3509 40.1503,-4.2158 53.511,2.9727 9.3126,5.0104 18.2989,14.2772 23.0375,23.75667 4.7977,9.598 6.5214,23.9794 4.2117,35.1391 -2.8503,13.7701 -10.1878,25.6557 -24.5819,39.8183 -8.7944,8.6529 -13.6047,12.4923 -21.8273,17.422 l -2.5965,1.5566 -0.024,29.7238 c -0.024,31.65416 -0.3501,39.67586 -1.7359,42.79776 -2.4513,5.5216 -14.6595,12.3927 -31.8478,17.9246 -13.3781,4.3057 -18.9221,5.3741 -31.085,5.9904 -9.7739,0.4952 -53.896,0.4803 -63.5317,-0.021 z m 114.5808,-45.4763 c 0,-3.0374 -2.335,-5.1734 -9.3306,-8.55806 -12.3564,-5.9785 -33.277,-10.8411 -56.6939,-13.1775 -8.7401,-0.872 -28.9242,-0.7589 -36.7576,0.2059 -11.4161,1.4061 -20.2108,3.0195 -30.2796,5.5547 -18.4108,4.6356 -31.21002,10.86106 -31.21002,15.18036 0,0.7601 0.2507,1.384 0.5673,1.4121 1.59772,0.1415 3.16842,-0.3008 6.90472,-1.9441 21.3389,-9.38576 29.5963,-11.24516 54.0259,-12.16566 25.3684,-0.9558 54.066,-0.3429 62.275,1.33 7.6425,1.5574 30.1921,9.29536 36.213,12.42646 1.2357,0.6426 2.7063,1.1779 3.2678,1.1895 0.8543,0.018 1.0205,-0.2196 1.018,-1.4537 z M 95.3522,427.59182 c 21.1662,-9.7553 32.5256,-13.125 54.8582,-16.2734 11.5887,-1.6337 12.6099,-1.8606 12.7993,-2.8436 0.268,-1.3908 -7.8309,-21.7488 -12.7735,-32.1085 -4.5174,-9.4681 -10.2923,-17.26 -19.0364,-25.6849 -13.1272,-12.64807 -24.0087,-17.73227 -41.25722,-19.27677 -20.42302,-1.8288 -36.29921,5.9761 -43.91907,21.59107 -2.82054,5.78 -3.69801,9.5041 -3.9666,16.835 -0.32262,8.8049 0.97643,15.0575 4.66038,22.4334 3.68995,7.3878 16.67168,22.2568 26.98119,30.9039 3.4095,2.8597 11.446,8.5235 12.1238,8.5445 0.3036,0.01 4.592,-1.8449 9.52992,-4.1207 z m -16.25052,-5.9087 c -4.1897,-2.9069 -17.8292,-16.5526 -21.70902,-21.7193 -5.82221,-7.7533 -6.80876,-11.3199 -7.15813,-25.8799 -0.45743,-19.0631 0.98157,-23.4799 9.58763,-29.4294 6.0752,-4.1997 9.39537,-5.1827 20.15462,-5.96707 12.1512,-0.8859 24.36992,0.69677 30.60792,3.96467 10.6219,5.5646 23.3655,18.7653 32.0819,33.2329 3.4759,5.7692 9.1893,17.8392 10.2477,21.6487 0.8803,3.1676 0.6566,4.7363 -0.8961,6.2891 -1.3581,1.358 -2.8718,1.7716 -12.519,3.4213 -12.2065,2.0872 -21.9612,4.9372 -33.9867,9.9301 -10.3293,4.2884 -18.31742,6.8408 -21.40982,6.8408 -1.2349,0 -2.4694,-0.5756 -5.001,-2.3319 z m 186.04472,7.086 c 4.6218,-2.1515 15.725,-10.8227 22.0739,-17.2389 8.9414,-9.0362 14.7171,-18.6325 17.5234,-29.1147 1.3339,-4.9826 1.6731,-15.2812 0.677,-20.5535 -1.361,-7.2026 -6.4963,-15.4502 -12.9795,-20.8456 -5.712,-4.75347 -11.7561,-7.53367 -20.4332,-9.39887 -5.3179,-1.1431 -16.4717,-1.1716 -21.6423,-0.055 -12.0778,2.6077 -22.604,8.40587 -32.2952,17.78937 -9.6069,9.3019 -14.9729,16.9493 -22.2989,31.7795 -6.2529,12.6577 -10.0753,22.1981 -10.1542,25.3446 -0.053,2.0956 0.057,2.3597 1.2046,2.9195 0.6943,0.3385 4.4722,1.0217 8.3953,1.5182 21.4119,2.7098 39.5619,7.8419 54.7815,15.49 7.5712,3.8046 10.9298,4.3291 15.1476,2.3657 z m -10.1558,-6.7306 c -2.4959,-0.8588 -8.3889,-3.1187 -13.0958,-5.0222 -13.3886,-5.4142 -21.8396,-7.8312 -38.7589,-11.0849 -3.8109,-0.7329 -7.2566,-1.6045 -7.6573,-1.937 -2.2924,-1.9026 2.6167,-16.2729 9.8732,-28.9015 11.4603,-19.944 27.2893,-32.8666 44.647,-36.44927 3.8826,-0.8013 5.6523,-0.9052 12.2526,-0.7189 7.3541,0.2076 12.0998,0.8949 18.1519,2.62887 8.0159,2.2966 14.4348,9.1972 17.4829,18.7953 1.4111,4.4431 1.758,14.2568 0.7024,19.8706 -2.1144,11.2461 -7.517,21.2452 -16.7648,31.0286 -6.9644,7.3677 -15.0663,12.7056 -19.9469,13.1418 -1.8641,0.1666 -3.2842,-0.1121 -6.8863,-1.3514 z m -78.1044,-34.2185 c 5.9774,-12.7932 15.9997,-32.1388 19.7519,-38.127 l 3.7757,-6.0255 -1.2871,-1.916 c -1.8981,-2.82537 -10.0102,-10.83827 -12.8863,-12.72867 -4.2453,-2.7904 -7.2288,-3.6383 -12.9334,-3.6759 -4.7005,-0.031 -5.1638,0.05 -7.9414,1.392 -5.2041,2.5138 -14.7653,11.125 -17.0379,15.34487 l -0.7989,1.4833 1.8589,3.8067 c 1.0222,2.0937 4.0249,7.4825 6.6724,11.9751 5.7015,9.6747 11.8902,21.8844 15.0059,29.6048 1.2325,3.0545 2.3432,5.554 2.4679,5.5544 0.1252,4e-4 1.6334,-3.0092 3.3523,-6.6881 z m -5.7646,-17.0127 c -3.7217,-5.2662 -10.0783,-16.0745 -12.8267,-21.8095 -2.1424,-4.4702 -2.0854,-6.217 0.3197,-9.81867 3.5682,-5.3433 8.5543,-7.9657 15.1462,-7.9657 3.3281,0 3.9517,0.1559 7.4877,1.8723 5.3997,2.621 7.6124,4.3615 8.716,6.85607 1.7727,4.0078 0.604,7.3212 -8.0452,22.8106 -4.3002,7.7011 -6.6256,10.8911 -7.9389,10.8911 -0.5317,0 -1.6116,-1.0713 -2.8588,-2.8362 z m -12.2742,-68.84007 c 1.4635,-0.9853 5.3773,-4.0484 8.6973,-6.8069 3.3198,-2.7586 6.1945,-5.0155 6.3882,-5.0155 0.1936,0 3.0931,2.2761 6.4432,5.0579 7.0354,5.8421 11.0049,8.556 12.5146,8.556 1.2575,0 1.3189,-0.451 0.327,-2.405 -1.1783,-2.3213 -3.5784,-5.1377 -9.6488,-11.3224 l -5.679,-5.7859 5.679,-5.7859 c 7.3063,-7.444 10.386,-11.3732 10.386,-13.2511 0,-1.8846 -5.2622,1.1251 -12.6594,7.2405 -7.3721,6.0947 -9.026,5.9759 -16.4515,-1.1819 -5.2236,-5.0353 -8.533,-7.4425 -10.2315,-7.4425 -1.2514,0 -1.3395,0.8318 -0.3027,2.8588 1.1872,2.3209 3.1725,4.6825 9.3482,11.1199 3.1855,3.3205 5.7918,6.2175 5.7918,6.4378 0,0.2203 -2.8082,3.3235 -6.2403,6.896 -6.2932,6.5506 -9.1889,10.2664 -9.1889,11.7919 0,1.3746 1.9265,0.9908 4.8268,-0.9617 z"
         id="path53"
         inkscape:export-filename="LOGO SPORTS\chess.svg"
         inkscape:export-xdpi="414.18015"
         inkscape:export-ydpi="414.18015" /><rect
         style="opacity:0.870297;fill:#000000;fill-opacity:1;stroke-width:20.9489;stroke-linejoin:round;paint-order:stroke fill markers"
         id="rect1"
         width="4885.8105"
         height="301.86548"
         x="28.955379"
         y="-50.293373" /><rect
         style="opacity:0.870297;fill:#000000;fill-opacity:1;stroke-width:20.9489;stroke-linejoin:round;paint-order:stroke fill markers"
         id="rect2"
         width="4885.8105"
         height="301.86548"
         x="28.955378"
         y="538.73987" /></g></g></svg>
