<?xml version="1.0" encoding="UTF-8"?>
<!DOCTYPE svg PUBLIC "-//W3C//DTD SVG 1.1//EN" "http://www.w3.org/Graphics/SVG/1.1/DTD/svg11.dtd">
<svg xmlns="http://www.w3.org/2000/svg" version="1.1" width="1856px" height="1399px" style="shape-rendering:geometricPrecision; text-rendering:geometricPrecision; image-rendering:optimizeQuality; fill-rule:evenodd; clip-rule:evenodd" xmlns:xlink="http://www.w3.org/1999/xlink">
<g><path style="opacity:1" fill="#00459e" d="M -0.5,-0.5 C 618.167,-0.5 1236.83,-0.5 1855.5,-0.5C 1855.5,465.833 1855.5,932.167 1855.5,1398.5C 1236.83,1398.5 618.167,1398.5 -0.5,1398.5C -0.5,932.167 -0.5,465.833 -0.5,-0.5 Z"/></g>
<g><path style="opacity:1" fill="#fafbfd" d="M 1348.5,689.5 C 1356.1,689.588 1363.43,690.588 1370.5,692.5C 1344.51,714.49 1314.51,727.824 1280.5,732.5C 1237.4,734.142 1197.07,724.309 1159.5,703C 1146.48,695.827 1134.15,687.66 1122.5,678.5C 1122.17,679.333 1121.83,680.167 1121.5,681C 1123.09,685.883 1124.43,690.716 1125.5,695.5C 1134.65,734.151 1153.31,767.151 1181.5,794.5C 1188.47,801.409 1195.97,807.742 1204,813.5C 1207.09,809.646 1209.92,805.646 1212.5,801.5C 1234.67,772.733 1263.67,754.567 1299.5,747C 1324.06,745.704 1343.89,754.537 1359,773.5C 1361.18,777.86 1363.35,782.193 1365.5,786.5C 1367.38,791.629 1369.54,796.629 1372,801.5C 1393.59,794.289 1414.09,784.789 1433.5,773C 1453.01,755.828 1469.18,735.994 1482,713.5C 1487.36,703.334 1492.86,693.334 1498.5,683.5C 1502.52,681.682 1506.52,681.015 1510.5,681.5C 1498.88,708.136 1484.88,732.803 1468.5,755.5C 1496.56,740.469 1525.56,727.636 1555.5,717C 1584.65,706.719 1613.65,707.052 1642.5,718C 1646.22,719.862 1649.89,721.696 1653.5,723.5C 1652.86,724.482 1652.19,725.482 1651.5,726.5C 1654.65,725.893 1657.65,726.559 1660.5,728.5C 1667.03,731.69 1672.69,736.024 1677.5,741.5C 1675.95,744.258 1676.29,746.758 1678.5,749C 1680.44,748.942 1682.1,748.109 1683.5,746.5C 1705.4,770.986 1718.74,799.652 1723.5,832.5C 1720.17,836.5 1716.5,840.167 1712.5,843.5C 1688.38,732.771 1624.71,700.938 1521.5,748C 1481.11,769.03 1440.11,788.696 1398.5,807C 1391.01,809.886 1383.35,812.053 1375.5,813.5C 1378.38,828.031 1382.05,842.364 1386.5,856.5C 1387.7,860.286 1388.36,860.286 1388.5,856.5C 1397.83,856.5 1407.17,856.5 1416.5,856.5C 1418.93,856.585 1420.93,857.585 1422.5,859.5C 1450.7,842.8 1479.04,826.3 1507.5,810C 1530.22,797.303 1554.22,787.969 1579.5,782C 1606.88,777.805 1631.88,783.472 1654.5,799C 1667.71,810.585 1675.88,825.085 1679,842.5C 1680.3,852.455 1680.8,862.455 1680.5,872.5C 1676.86,875.135 1673.19,877.801 1669.5,880.5C 1674.84,814.188 1644.51,784.688 1578.5,792C 1553.65,798.258 1529.98,807.592 1507.5,820C 1479,836.748 1450.67,853.748 1422.5,871C 1421.27,878.187 1419.77,885.353 1418,892.5C 1416.67,891.418 1415.17,890.751 1413.5,890.5C 1415.43,892.474 1417.76,893.974 1420.5,895C 1426.34,896.895 1432.34,897.895 1438.5,898C 1438.96,898.414 1439.29,898.914 1439.5,899.5C 1419.99,914.863 1398.32,919.03 1374.5,912C 1368.04,909.792 1361.71,907.292 1355.5,904.5C 1354.83,904.667 1354.17,904.833 1353.5,905C 1355,906.252 1356.67,907.252 1358.5,908C 1352.83,908.333 1347.17,908.667 1341.5,909C 1328.1,913.599 1314.44,917.099 1300.5,919.5C 1300.5,921.167 1300.5,922.833 1300.5,924.5C 1328.84,924.333 1357.17,924.5 1385.5,925C 1387.61,926.193 1389.27,927.86 1390.5,930C 1396.39,931.913 1402.39,932.913 1408.5,933C 1420.49,927.342 1431.82,920.675 1442.5,913C 1463.78,896.057 1484.11,878.057 1503.5,859C 1517.17,848.667 1530.83,838.333 1544.5,828C 1559.16,817.338 1575.16,809.338 1592.5,804C 1601.01,802.886 1609.34,803.552 1617.5,806C 1631.55,813.597 1642.39,824.43 1650,838.5C 1657.7,852.447 1663.54,867.114 1667.5,882.5C 1663.52,884.806 1659.52,887.139 1655.5,889.5C 1649.1,867.041 1638.77,846.708 1624.5,828.5C 1625.49,825.484 1626.16,822.65 1626.5,820C 1626,819.5 1625.5,819 1625,818.5C 1624.69,819.766 1624.19,820.933 1623.5,822C 1621.51,822.18 1619.51,822.014 1617.5,821.5C 1611.95,818.095 1605.95,816.095 1599.5,815.5C 1597.37,814.371 1595.04,814.204 1592.5,815C 1591.42,816.33 1590.75,817.83 1590.5,819.5C 1569.71,829.394 1550.37,841.561 1532.5,856C 1538.17,856.333 1543.83,856.667 1549.5,857C 1554.9,858.724 1557.56,862.391 1557.5,868C 1550.59,908.143 1543.92,948.31 1537.5,988.5C 1566.84,988.333 1596.17,988.5 1625.5,989C 1626.77,990.221 1628.27,991.054 1630,991.5C 1634.99,989.461 1640.15,988.128 1645.5,987.5C 1646.5,987.5 1647.5,987.5 1648.5,987.5C 1648.5,988.833 1648.5,990.167 1648.5,991.5C 1637.16,1031.67 1612.83,1061.17 1575.5,1080C 1544.24,1093.21 1513.24,1092.55 1482.5,1078C 1462.95,1068.39 1443.29,1059.06 1423.5,1050C 1412.44,1046.09 1401.28,1042.59 1390,1039.5C 1388.37,1040.71 1386.54,1041.55 1384.5,1042C 1336.17,1042.33 1287.83,1042.67 1239.5,1043C 1227.25,1045.21 1214.91,1045.88 1202.5,1045C 1199.57,1044.39 1196.74,1043.56 1194,1042.5C 1182.08,1062.76 1166.91,1080.26 1148.5,1095C 1110.59,1119.71 1070.25,1124.71 1027.5,1110C 1008.23,1102.07 991.734,1090.24 978,1074.5C 956.006,1047.52 940.006,1017.19 930,983.5C 925.693,969.601 922.026,955.601 919,941.5C 917.291,951.968 913.624,961.634 908,970.5C 901.58,978.756 894.08,985.756 885.5,991.5C 892.533,1003.37 899.367,1015.37 906,1027.5C 906.917,1032.51 905.417,1036.67 901.5,1040C 882.232,1041.63 862.898,1041.96 843.5,1041C 841.91,1039.95 840.41,1038.79 839,1037.5C 833.833,1027.83 828.667,1018.17 823.5,1008.5C 786.308,1048.53 742.642,1079.36 692.5,1101C 649.856,1117.33 605.856,1123 560.5,1118C 520.612,1111.24 488.945,1091.57 465.5,1059C 438.104,1059.59 412.104,1053.92 387.5,1042C 379.343,1038.09 371.343,1033.92 363.5,1029.5C 360.926,1035.9 356.259,1040.07 349.5,1042C 312.833,1042.67 276.167,1042.67 239.5,1042C 226.504,1039 216.504,1031.84 209.5,1020.5C 194.326,1057.76 166.659,1073.93 126.5,1069C 123.461,1068.65 120.795,1067.48 118.5,1065.5C 141.037,1046.74 149.871,1022.74 145,993.5C 143.239,974.652 141.406,955.819 139.5,937C 139.75,909.091 152.084,888.424 176.5,875C 190.765,868.016 205.765,863.35 221.5,861C 234.771,859.215 248.105,858.215 261.5,858C 243.14,836.275 232.973,811.108 231,782.5C 229.952,768.509 229.118,754.509 228.5,740.5C 233.349,737.91 238.349,735.576 243.5,733.5C 244.806,753.166 246.306,772.833 248,792.5C 250.617,816.374 259.45,837.54 274.5,856C 280.833,856.667 287.167,856.667 293.5,856C 282.253,838.95 274.086,820.45 269,800.5C 263.216,778.132 259.05,755.465 256.5,732.5C 255.781,730.236 255.448,727.903 255.5,725.5C 258.634,724.099 261.634,722.432 264.5,720.5C 265.147,728.012 266.147,735.345 267.5,742.5C 271.989,780.474 284.489,815.474 305,847.5C 306.977,850.312 309.144,852.978 311.5,855.5C 336.58,856.018 361.58,856.851 386.5,858C 389.231,860.467 390.898,863.467 391.5,867C 389.913,878.289 387.913,889.456 385.5,900.5C 384.227,901.077 384.227,901.743 385.5,902.5C 400.973,913.473 416.307,924.64 431.5,936C 432.448,936.483 433.448,936.649 434.5,936.5C 434.593,930.484 434.926,924.484 435.5,918.5C 438.008,901.648 441.341,884.814 445.5,868C 445.167,867.167 444.833,866.333 444.5,865.5C 418.328,860.409 394.662,849.909 373.5,834C 360.199,823.423 347.366,812.257 335,800.5C 310.424,772.626 297.924,739.959 297.5,702.5C 297.34,700.801 297.506,699.134 298,697.5C 302.041,693.953 306.208,690.62 310.5,687.5C 310.949,701.939 312.449,716.272 315,730.5C 316.927,739.882 319.927,748.882 324,757.5C 319.813,732.793 325.646,710.627 341.5,691C 336.94,683.711 333.607,675.878 331.5,667.5C 334.555,664.108 337.888,661.108 341.5,658.5C 342.791,666.672 345.457,674.339 349.5,681.5C 359.745,673.087 370.412,665.254 381.5,658C 389.405,653.378 397.739,649.878 406.5,647.5C 413.63,644.883 420.963,642.883 428.5,641.5C 422.005,627.519 418.338,612.853 417.5,597.5C 417.336,594.813 417.503,592.146 418,589.5C 423.056,591.796 428.222,593.796 433.5,595.5C 434.37,611.645 438.37,626.979 445.5,641.5C 474.145,647.068 497.311,661.401 515,684.5C 523.555,695.242 530.721,706.908 536.5,719.5C 539.824,721.752 543.491,723.252 547.5,724C 602.88,732.488 654.88,722.822 703.5,695C 716.868,686.381 729.035,676.215 740,664.5C 743.031,658.558 744.031,652.225 743,645.5C 707.706,601.343 692.706,551.01 698,494.5C 700.211,481.352 705.044,469.352 712.5,458.5C 696.86,434.215 684.693,408.215 676,380.5C 662.442,326.395 666.442,273.729 688,222.5C 713.849,167.643 751.682,122.81 801.5,88C 837.22,62.2204 876.053,42.0537 918,27.5C 924.113,25.1166 930.28,24.9499 936.5,27C 991.27,45.0399 1040.6,72.3733 1084.5,109C 1113.45,136.464 1137.95,167.297 1158,201.5C 1199.28,279.808 1199.94,358.474 1160,437.5C 1155.95,444.433 1151.79,451.266 1147.5,458C 1160.28,473.843 1165.95,492.009 1164.5,512.5C 1162.78,561.171 1147.28,604.838 1118,643.5C 1117.02,644.759 1116.68,646.092 1117,647.5C 1159.65,688.237 1210.49,711.237 1269.5,716.5C 1287.68,716.415 1305.01,712.582 1321.5,705C 1330.88,700.315 1339.88,695.149 1348.5,689.5 Z"/></g>
<g><path style="opacity:1" fill="#01459e" d="M 1172.5,341.5 C 1162.47,376.396 1144.13,406.23 1117.5,431C 1111.44,435.688 1105.11,439.854 1098.5,443.5C 1083.64,444.93 1069.97,449.764 1057.5,458C 1063.17,457.737 1068.83,457.07 1074.5,456C 1090.23,454.292 1105.56,455.959 1120.5,461C 1134.49,467.686 1142.33,478.853 1144,494.5C 1146.12,539.67 1136.12,582.003 1114,621.5C 1112.26,613.267 1110.93,604.934 1110,596.5C 1101.53,656.647 1111.53,713.647 1140,767.5C 1148.68,783.015 1159.85,796.515 1173.5,808C 1181.33,813.747 1189.33,819.247 1197.5,824.5C 1191.17,836.5 1184.83,848.5 1178.5,860.5C 1176.83,859.333 1175.17,858.167 1173.5,857C 1155.82,856.833 1138.16,856.333 1120.5,855.5C 1107.82,838.647 1100.32,819.647 1098,798.5C 1096.35,781.851 1095.01,765.184 1094,748.5C 1091.41,753.5 1089.75,758.834 1089,764.5C 1085.76,796.781 1091.92,827.115 1107.5,855.5C 1104.57,856.484 1101.57,856.817 1098.5,856.5C 1091.02,840.908 1085.86,824.574 1083,807.5C 1081.83,804.497 1080.17,801.83 1078,799.5C 1076.89,801.97 1076.39,804.636 1076.5,807.5C 1078.47,824.355 1082.47,840.689 1088.5,856.5C 1066.17,856.5 1043.83,856.5 1021.5,856.5C 1020,841.384 1019.33,826.217 1019.5,811C 1019.33,790.762 1020.16,770.595 1022,750.5C 1012.82,785.267 1009.32,820.6 1011.5,856.5C 1005.62,857.362 1001.12,860.362 998,865.5C 994.381,877.255 992.714,889.255 993,901.5C 994.263,905.219 996.763,907.719 1000.5,909C 1009.83,909.333 1019.17,909.667 1028.5,910C 1030.97,913.778 1033.3,917.611 1035.5,921.5C 1019.05,919.261 1005.22,924.261 994,936.5C 990.568,943.305 990.902,949.972 995,956.5C 1000.89,964.718 1008.72,970.218 1018.5,973C 1025.06,974.912 1031.73,976.078 1038.5,976.5C 1035.56,992.472 1032.73,1008.47 1030,1024.5C 1029.24,1028.26 1029.41,1031.92 1030.5,1035.5C 1030.44,1036.04 1030.11,1036.38 1029.5,1036.5C 998.462,1022.63 976.295,999.961 963,968.5C 952.465,939.088 947.798,908.755 949,877.5C 947.989,876.663 946.822,876.33 945.5,876.5C 944.169,890.974 943.169,905.474 942.5,920C 941.372,962.312 956.039,997.978 986.5,1027C 1002.37,1040.6 1020.7,1048.77 1041.5,1051.5C 1049.2,1050.57 1056.86,1049.4 1064.5,1048C 1065.83,1047 1065.83,1046 1064.5,1045C 1058.84,1044.26 1053.18,1043.59 1047.5,1043C 1058.01,1042.83 1068.34,1042.33 1078.5,1041.5C 1083.28,1040.55 1086.78,1037.89 1089,1033.5C 1093.65,1011.39 1098.15,989.392 1102.5,967.5C 1105.91,965.819 1109.24,964.153 1112.5,962.5C 1120.92,960.622 1128.59,957.122 1135.5,952C 1150.54,940.057 1162.38,925.557 1171,908.5C 1185.87,876.417 1202.54,845.417 1221,815.5C 1236.42,793.71 1256.58,778.043 1281.5,768.5C 1291.78,769.81 1302.11,771.643 1312.5,774C 1321.72,777.882 1327.22,784.715 1329,794.5C 1330.68,813.253 1333.01,831.919 1336,850.5C 1340.52,866.093 1347.69,880.26 1357.5,893C 1357.27,893.399 1356.94,893.565 1356.5,893.5C 1351.84,890.832 1347.51,887.665 1343.5,884C 1326.49,865.698 1308.16,849.032 1288.5,834C 1276.56,823.925 1263.89,822.925 1250.5,831C 1245.56,835.432 1241.23,840.265 1237.5,845.5C 1242.52,833.957 1249.19,823.457 1257.5,814C 1264.67,810.469 1271.67,810.802 1278.5,815C 1285.54,822.371 1292.21,830.038 1298.5,838C 1300.82,839.993 1303.48,841.159 1306.5,841.5C 1300.47,828.452 1293.64,815.785 1286,803.5C 1271.26,790.56 1257.6,791.56 1245,806.5C 1238.32,815.851 1232.65,825.851 1228,836.5C 1221.14,852.753 1214.47,869.086 1208,885.5C 1206.06,889.318 1205.39,893.318 1206,897.5C 1210.82,891.853 1215.16,885.853 1219,879.5C 1223.82,870.142 1228.65,861.476 1233.5,853.5C 1221.71,880.687 1210.21,908.02 1199,935.5C 1188.82,960.869 1175.82,984.535 1160,1006.5C 1138.4,1032.23 1110.9,1048.06 1077.5,1054C 1059.65,1057.48 1041.65,1058.81 1023.5,1058C 1000.27,1055.64 981.774,1045.14 968,1026.5C 947.082,995.418 935.082,961.085 932,923.5C 930.391,909.861 929.058,896.194 928,882.5C 927.833,844.496 927.333,806.496 926.5,768.5C 924.854,769.779 923.687,771.445 923,773.5C 916.895,801.981 909.062,829.981 899.5,857.5C 897.45,858.663 895.45,858.496 893.5,857C 862.167,856.667 830.833,856.333 799.5,856C 811.198,825.044 819.698,793.211 825,760.5C 826.094,751.852 826.428,743.185 826,734.5C 816.24,770.87 805.24,806.87 793,842.5C 791.194,846.918 789.194,851.251 787,855.5C 774.909,856.323 762.742,856.823 750.5,857C 746.052,859.114 742.552,862.281 740,866.5C 735.152,890.742 730.818,915.075 727,939.5C 700.272,964.119 669.105,980.786 633.5,989.5C 628.974,977.258 624.641,964.925 620.5,952.5C 628.161,950.171 635.494,947.005 642.5,943C 664,926.833 682.833,908 699,886.5C 710.795,869.743 721.962,852.576 732.5,835C 732.167,834.5 731.833,834 731.5,833.5C 713.677,855.127 695.844,876.794 678,898.5C 669.238,907.104 660.071,915.104 650.5,922.5C 694.249,882.331 727.082,834.664 749,779.5C 725.953,823.734 696.453,863.234 660.5,898C 656.957,901.049 653.291,903.882 649.5,906.5C 636.403,910.881 623.403,915.548 610.5,920.5C 604.27,902.312 598.104,883.979 592,865.5C 590.5,862.667 588.333,860.5 585.5,859C 671.083,836.417 724.916,782.25 747,696.5C 752.713,670.815 754.713,644.815 753,618.5C 752.198,611.986 750.698,605.653 748.5,599.5C 747.128,607.104 746.128,614.771 745.5,622.5C 727.915,594.252 716.748,563.585 712,530.5C 711.333,519.833 711.333,509.167 712,498.5C 714.732,477.45 725.566,462.284 744.5,453C 761.163,449.634 777.163,451.634 792.5,459C 794.167,459.667 795.833,459.667 797.5,459C 783.471,444.878 766.471,438.878 746.5,441C 738.597,442.971 730.931,445.304 723.5,448C 678.335,378.187 671.169,304.687 702,227.5C 721.521,186.296 748.355,150.462 782.5,120C 817.404,89.1954 856.071,63.862 898.5,44C 908.606,39.7982 918.939,36.2982 929.5,33.5C 961.281,43.3917 990.947,57.5583 1018.5,76C 1046.97,93.7907 1073.14,114.624 1097,138.5C 1139.49,183.49 1164.82,236.823 1173,298.5C 1173.76,312.859 1173.6,327.192 1172.5,341.5 Z"/></g>
<g><path style="opacity:1" fill="#7c9fcd" d="M 911.5,53.5 C 913.924,53.1924 916.257,53.5258 918.5,54.5C 918.023,55.4776 917.357,56.3109 916.5,57C 885.786,72.6796 857.119,91.3463 830.5,113C 748.138,189.338 712.804,283.838 724.5,396.5C 721.612,396.78 720.112,395.447 720,392.5C 703.737,310.627 718.737,234.96 765,165.5C 803.337,114.316 852.17,76.9831 911.5,53.5 Z"/></g>
<g><path style="opacity:1" fill="#f7fbfd" d="M 1510.5,681.5 C 1506.52,681.015 1502.52,681.682 1498.5,683.5C 1498.44,682.957 1498.11,682.624 1497.5,682.5C 1488.43,684.777 1479.43,686.777 1470.5,688.5C 1458.58,690.392 1446.58,691.558 1434.5,692C 1413.08,692.342 1391.75,692.509 1370.5,692.5C 1363.43,690.588 1356.1,689.588 1348.5,689.5C 1311.33,684.624 1274.99,675.791 1239.5,663C 1222.12,656.146 1205.79,647.479 1190.5,637C 1180.81,629.978 1173.31,621.145 1168,610.5C 1163.14,595.419 1166.64,582.585 1178.5,572C 1189.33,563.584 1201.33,557.251 1214.5,553C 1234.46,547.285 1254.79,543.618 1275.5,542C 1327.29,538.796 1378.46,542.963 1429,554.5C 1429.83,554.167 1430.67,553.833 1431.5,553.5C 1434.39,547.644 1436.56,541.644 1438,535.5C 1399.55,498.531 1366.88,457.197 1340,411.5C 1327.34,389.195 1318.34,365.528 1313,340.5C 1309.34,324.955 1313.17,311.788 1324.5,301C 1328.22,298.473 1332.22,296.473 1336.5,295C 1348.39,293.69 1360.06,294.69 1371.5,298C 1399.7,308.914 1425.37,323.914 1448.5,343C 1479,368.671 1507.34,396.504 1533.5,426.5C 1569.27,417.361 1601.6,424.194 1630.5,447C 1642.83,458.667 1655.17,470.333 1667.5,482C 1671.05,483.941 1674.71,485.607 1678.5,487C 1688.53,487.531 1698.53,487.531 1708.5,487C 1679.43,508.683 1646.76,517.349 1610.5,513C 1603.17,511.597 1595.84,510.597 1588.5,510C 1602.11,532.833 1610.11,557.499 1612.5,584C 1611.9,612.256 1597.57,624.256 1569.5,620C 1563.22,619.072 1557.22,617.239 1551.5,614.5C 1551.17,614.833 1550.83,615.167 1550.5,615.5C 1560.04,627.57 1560.88,640.237 1553,653.5C 1542.34,665.588 1529.17,673.755 1513.5,678C 1512.36,679.145 1511.36,680.312 1510.5,681.5 Z"/></g>
<g><path style="opacity:1" fill="#0cafe6" d="M 1512.5,436.5 C 1488.58,410.08 1462.58,385.914 1434.5,364C 1422.95,355.721 1410.61,348.721 1397.5,343C 1367.07,333.76 1355.91,344.593 1364,375.5C 1367.51,386.178 1371.84,396.512 1377,406.5C 1405.08,454.602 1439.91,497.435 1481.5,535C 1496.43,548.46 1512.43,560.46 1529.5,571C 1539.03,576.434 1549.03,580.767 1559.5,584C 1565.34,584.849 1571.01,584.183 1576.5,582C 1579.14,580.039 1580.97,577.539 1582,574.5C 1583.51,567.233 1583.85,559.899 1583,552.5C 1579.2,539.445 1574.04,526.945 1567.5,515C 1568.06,514.617 1568.39,514.117 1568.5,513.5C 1571,512.088 1573.66,510.921 1576.5,510C 1577.83,509.333 1579.17,509.333 1580.5,510C 1591.49,529.64 1599.32,550.473 1604,572.5C 1608.06,606.768 1593.56,618.935 1560.5,609C 1537.87,600.522 1516.87,589.189 1497.5,575C 1450.59,539.422 1409.75,497.922 1375,450.5C 1358.4,427.649 1344.06,403.315 1332,377.5C 1327.25,366.184 1323.59,354.518 1321,342.5C 1317.49,328.703 1320.99,317.203 1331.5,308C 1333.72,306.725 1336.05,305.725 1338.5,305C 1345.5,304.333 1352.5,304.333 1359.5,305C 1376.89,309.527 1393.22,316.527 1408.5,326C 1452.71,354.527 1491.71,389.194 1525.5,430C 1520.86,431.653 1516.53,433.819 1512.5,436.5 Z"/></g>
<g><path style="opacity:1" fill="#f4fafd" d="M 1512.5,436.5 C 1512.53,441.865 1510.53,443.198 1506.5,440.5C 1481.41,409.575 1452.41,383.075 1419.5,361C 1409.78,354.974 1399.45,350.307 1388.5,347C 1384.17,346.333 1379.83,346.333 1375.5,347C 1369.87,349.756 1367.54,354.256 1368.5,360.5C 1371.62,378.748 1378.12,395.748 1388,411.5C 1405.05,438.265 1424.05,463.598 1445,487.5C 1448.76,491.77 1452.93,495.437 1457.5,498.5C 1460.44,503.105 1464.1,507.105 1468.5,510.5C 1471.17,513.833 1474.17,516.833 1477.5,519.5C 1480.56,523.566 1484.23,526.899 1488.5,529.5C 1498.25,538.542 1508.58,546.876 1519.5,554.5C 1524.96,558.402 1530.63,562.069 1536.5,565.5C 1539.17,566.5 1541.83,567.5 1544.5,568.5C 1552.48,574.427 1561.48,576.594 1571.5,575C 1573.33,574.5 1574.5,573.333 1575,571.5C 1576.54,565.251 1576.87,558.917 1576,552.5C 1573.08,541.558 1568.91,531.225 1563.5,521.5C 1561.55,519 1560.88,516.333 1561.5,513.5C 1563.66,513.838 1565.99,513.838 1568.5,513.5C 1568.39,514.117 1568.06,514.617 1567.5,515C 1574.04,526.945 1579.2,539.445 1583,552.5C 1583.85,559.899 1583.51,567.233 1582,574.5C 1580.97,577.539 1579.14,580.039 1576.5,582C 1571.01,584.183 1565.34,584.849 1559.5,584C 1549.03,580.767 1539.03,576.434 1529.5,571C 1512.43,560.46 1496.43,548.46 1481.5,535C 1439.91,497.435 1405.08,454.602 1377,406.5C 1371.84,396.512 1367.51,386.178 1364,375.5C 1355.91,344.593 1367.07,333.76 1397.5,343C 1410.61,348.721 1422.95,355.721 1434.5,364C 1462.58,385.914 1488.58,410.08 1512.5,436.5 Z"/></g>
<g><path style="opacity:1" fill="#01459e" d="M 1506.5,440.5 C 1492.9,449.602 1481.4,460.936 1472,474.5C 1466.52,482.141 1461.68,490.141 1457.5,498.5C 1452.93,495.437 1448.76,491.77 1445,487.5C 1424.05,463.598 1405.05,438.265 1388,411.5C 1378.12,395.748 1371.62,378.748 1368.5,360.5C 1367.54,354.256 1369.87,349.756 1375.5,347C 1379.83,346.333 1384.17,346.333 1388.5,347C 1399.45,350.307 1409.78,354.974 1419.5,361C 1452.41,383.075 1481.41,409.575 1506.5,440.5 Z"/></g>
<g><path style="opacity:1" fill="#80a1ce" d="M 1172.5,341.5 C 1168.75,379.247 1156.92,414.247 1137,446.5C 1135.94,447.899 1134.61,448.899 1133,449.5C 1122,444.6 1110.5,442.6 1098.5,443.5C 1105.11,439.854 1111.44,435.688 1117.5,431C 1144.13,406.23 1162.47,376.396 1172.5,341.5 Z"/></g>
<g><path style="opacity:1" fill="#7197c9" d="M 451.5,405.5 C 452.193,414.068 452.86,422.734 453.5,431.5C 451.53,423.231 450.864,414.565 451.5,405.5 Z"/></g>
<g><path style="opacity:1" fill="#03469e" d="M 1647.5,501.5 C 1634.48,497.488 1623.14,490.654 1613.5,481C 1608,477.415 1602.33,474.081 1596.5,471C 1587.61,466.879 1578.61,466.545 1569.5,470C 1558.07,474.955 1549.24,482.789 1543,493.5C 1539.81,500.083 1536.81,506.75 1534,513.5C 1529.63,527.454 1524.8,541.121 1519.5,554.5C 1508.58,546.876 1498.25,538.542 1488.5,529.5C 1494.4,499.025 1509.9,474.691 1535,456.5C 1535.48,455.552 1535.65,454.552 1535.5,453.5C 1531.54,453.089 1527.87,453.922 1524.5,456C 1509.62,465.584 1497.78,478.084 1489,493.5C 1484.1,501.704 1480.27,510.371 1477.5,519.5C 1474.17,516.833 1471.17,513.833 1468.5,510.5C 1478.19,490.303 1491.19,472.47 1507.5,457C 1535.4,435.004 1565.74,431.337 1598.5,446C 1608.37,451.211 1617.7,457.211 1626.5,464C 1637.02,472.429 1647.35,481.095 1657.5,490C 1663.1,493.312 1669.1,495.645 1675.5,497C 1666.34,499.471 1657.01,500.971 1647.5,501.5 Z"/></g>
<g><path style="opacity:1" fill="#7c9fcd" d="M 1488.5,529.5 C 1484.23,526.899 1480.56,523.566 1477.5,519.5C 1480.27,510.371 1484.1,501.704 1489,493.5C 1497.78,478.084 1509.62,465.584 1524.5,456C 1527.87,453.922 1531.54,453.089 1535.5,453.5C 1535.65,454.552 1535.48,455.552 1535,456.5C 1509.9,474.691 1494.4,499.025 1488.5,529.5 Z"/></g>
<g><path style="opacity:1" fill="#7c9fcd" d="M 747.5,462.5 C 758.439,460.702 768.272,463.036 777,469.5C 778.009,471.025 778.509,472.692 778.5,474.5C 758.128,469.345 741.628,475.012 729,491.5C 727.322,495.532 725.156,499.199 722.5,502.5C 719.992,490.199 723.659,479.699 733.5,471C 738.064,467.89 742.731,465.056 747.5,462.5 Z"/></g>
<g><path style="opacity:1" fill="#7fa1ce" d="M 1647.5,501.5 C 1638.01,502.658 1628.34,502.825 1618.5,502C 1605.61,499.434 1592.61,498.434 1579.5,499C 1567.07,502.428 1557.9,509.928 1552,521.5C 1544.54,535.387 1539.37,550.054 1536.5,565.5C 1530.63,562.069 1524.96,558.402 1519.5,554.5C 1524.8,541.121 1529.63,527.454 1534,513.5C 1536.81,506.75 1539.81,500.083 1543,493.5C 1549.24,482.789 1558.07,474.955 1569.5,470C 1578.61,466.545 1587.61,466.879 1596.5,471C 1602.33,474.081 1608,477.415 1613.5,481C 1623.14,490.654 1634.48,497.488 1647.5,501.5 Z"/></g>
<g><path style="opacity:1" fill="#7c9fcd" d="M 1048.5,497.5 C 1051.52,497.335 1054.52,497.502 1057.5,498C 1059.01,498.837 1059.51,500.004 1059,501.5C 1052.62,507.6 1045.79,513.1 1038.5,518C 1028.14,528.59 1018.14,539.423 1008.5,550.5C 1007.57,545.087 1008.07,539.753 1010,534.5C 1017.86,516.806 1030.69,504.472 1048.5,497.5 Z"/></g>
<g><path style="opacity:1" fill="#fbfcfd" d="M 843.5,568.5 C 846.695,571.852 850.362,574.685 854.5,577C 856.367,577.711 857.867,577.211 859,575.5C 862.177,570.639 864.177,565.305 865,559.5C 865.5,552.842 865.666,546.175 865.5,539.5C 865.439,534.122 865.272,528.788 865,523.5C 874.622,536.66 877.955,551.327 875,567.5C 872.349,585.151 862.183,594.985 844.5,597C 838.502,597.591 832.502,598.091 826.5,598.5C 788.961,601.092 765.128,584.425 755,548.5C 754.5,539.84 754.334,531.173 754.5,522.5C 746.953,522.181 739.953,524.015 733.5,528C 731.866,528.494 730.199,528.66 728.5,528.5C 725.132,526.279 723.132,523.113 722.5,519C 725.592,514.924 729.592,511.924 734.5,510C 761.005,501.967 784.672,506.967 805.5,525C 818.777,539.101 831.444,553.601 843.5,568.5 Z"/></g>
<g><path style="opacity:1" fill="#fbfcfd" d="M 1129.5,528.5 C 1127.8,528.66 1126.13,528.494 1124.5,528C 1117.65,524.105 1110.32,521.938 1102.5,521.5C 1106.18,545.949 1099.18,566.782 1081.5,584C 1063.35,596.2 1043.35,600.7 1021.5,597.5C 999.736,598.547 986.57,588.547 982,567.5C 979.226,551.36 982.559,536.693 992,523.5C 991.071,536.498 991.404,549.498 993,562.5C 993.714,565.595 994.714,568.595 996,571.5C 998.705,577.133 1002.54,577.967 1007.5,574C 1019.45,562.386 1030.29,549.886 1040,536.5C 1050.21,524.614 1062.37,515.447 1076.5,509C 1090.39,504.713 1104.39,504.38 1118.5,508C 1124.2,509.93 1129.36,512.764 1134,516.5C 1134.38,521.198 1132.88,525.198 1129.5,528.5 Z"/></g>
<g><path style="opacity:1" fill="#f7fbfd" d="M 451.5,405.5 C 450.864,414.565 451.53,423.231 453.5,431.5C 507.513,444.344 557.513,466.178 603.5,497C 622.516,510.403 638.683,526.57 652,545.5C 671.403,583.526 660.57,608.36 619.5,620C 585.126,626.162 550.793,625.828 516.5,619C 488.137,613.494 460.47,605.66 433.5,595.5C 428.222,593.796 423.056,591.796 418,589.5C 417.503,592.146 417.336,594.813 417.5,597.5C 416.799,594.437 416.132,591.27 415.5,588C 408.474,584.819 401.474,581.652 394.5,578.5C 383.516,573.343 372.85,567.676 362.5,561.5C 358.677,558.084 354.343,555.418 349.5,553.5C 348.312,552.636 347.145,551.636 346,550.5C 342.035,564.221 340.035,578.221 340,592.5C 340.671,593.252 341.504,593.586 342.5,593.5C 348.411,596.742 353.411,601.075 357.5,606.5C 360.105,613.841 360.105,621.174 357.5,628.5C 354.978,635.21 351.644,641.543 347.5,647.5C 346.158,650.166 344.325,652.499 342,654.5C 341.51,655.793 341.343,657.127 341.5,658.5C 337.888,661.108 334.555,664.108 331.5,667.5C 324.474,674.194 317.474,680.861 310.5,687.5C 306.208,690.62 302.041,693.953 298,697.5C 297.506,699.134 297.34,700.801 297.5,702.5C 296.71,701.391 296.21,700.058 296,698.5C 286.854,704.979 277.688,711.313 268.5,717.5C 266.596,717.738 265.262,718.738 264.5,720.5C 261.634,722.432 258.634,724.099 255.5,725.5C 252.24,726.774 249.24,728.44 246.5,730.5C 244.81,730.856 243.81,731.856 243.5,733.5C 238.349,735.576 233.349,737.91 228.5,740.5C 183.992,764.059 136.992,780.559 87.5,790C 70.4904,791.966 53.4904,791.966 36.5,790C 16.6863,785.209 8.18635,772.709 11,752.5C 14.846,741.139 20.5127,730.806 28,721.5C 42.4718,704.705 58.6385,689.871 76.5,677C 109.54,653.64 144.873,634.14 182.5,618.5C 183.473,618.013 184.473,617.513 185.5,617C 183.288,616.211 181.288,616.378 179.5,617.5C 167.553,619.095 155.553,620.428 143.5,621.5C 127.063,622.779 114.063,616.779 104.5,603.5C 109.628,601.234 114.962,599.4 120.5,598C 125.008,595.247 129.341,592.247 133.5,589C 150.099,569.732 167.432,551.065 185.5,533C 216.42,511.473 246.42,512.806 275.5,537C 289.312,550.785 298.312,567.285 302.5,586.5C 310.501,587.3 318.501,587.966 326.5,588.5C 328.026,572.688 330.193,557.021 333,541.5C 315.915,529.083 301.582,514.083 290,496.5C 283.071,485.785 280.404,474.119 282,461.5C 284.363,453.278 288.863,446.444 295.5,441C 267.601,436.914 246.601,422.748 232.5,398.5C 232.833,398.167 233.167,397.833 233.5,397.5C 242.519,403.334 251.853,403.834 261.5,399C 287.367,383.79 312.7,367.79 337.5,351C 368.68,332.455 399.346,333.122 429.5,353C 444.707,367.102 452.041,384.602 451.5,405.5 Z"/></g>
<g><path style="opacity:1" fill="#0aaee6" d="M 319.5,437.5 C 323.267,438.614 327.1,438.614 331,437.5C 339.718,437.335 347.051,440.335 353,446.5C 353.781,447.944 353.614,449.277 352.5,450.5C 320.605,459.355 315.105,476.688 336,502.5C 358.438,525.145 384.272,542.978 413.5,556C 451.302,573.701 490.968,584.701 532.5,589C 546.661,590.16 560.661,589.16 574.5,586C 599.381,578.373 605.215,563.206 592,540.5C 577.147,521.31 558.981,506.143 537.5,495C 509.379,479.305 479.879,467.805 449,460.5C 449.301,453.19 449.968,445.857 451,438.5C 470.074,444.635 489.24,450.801 508.5,457C 548.842,471.161 585.509,491.494 618.5,518C 624,523.5 629.5,529 635,534.5C 643.349,544.197 649.349,555.197 653,567.5C 655.54,581.219 651.373,592.386 640.5,601C 626.449,609.682 611.116,614.348 594.5,615C 499.458,616.317 413.458,589.317 336.5,534C 321.586,522.421 308.753,508.921 298,493.5C 286.414,476.237 288.248,460.737 303.5,447C 308.732,443.555 314.065,440.389 319.5,437.5 Z"/></g>
<g><path style="opacity:1" fill="#01459e" d="M 448.5,464.5 C 491.488,476.164 530.821,494.998 566.5,521C 576.945,529.434 585.112,539.6 591,551.5C 594.254,563.154 590.42,571.321 579.5,576C 574.833,577.333 570.167,578.667 565.5,580C 520.764,582.12 477.764,574.453 436.5,557C 435.374,553.256 435.207,549.423 436,545.5C 440.087,518.464 444.254,491.464 448.5,464.5 Z"/></g>
<g><path style="opacity:1" fill="#799dcc" d="M 370.5,523.5 C 367.437,521.975 364.77,519.975 362.5,517.5C 369.835,497.851 374.169,478.018 375.5,458C 377.004,459.491 377.837,461.324 378,463.5C 378.667,469.833 378.667,476.167 378,482.5C 376.296,496.315 373.796,509.982 370.5,523.5 Z"/></g>
<g><path style="opacity:1" fill="#0848a0" d="M 348.5,457.5 C 350.167,457.5 351.833,457.5 353.5,457.5C 351.129,472.653 347.962,487.653 344,502.5C 336.569,495.633 331.735,487.299 329.5,477.5C 330.185,471.298 333.185,466.464 338.5,463C 341.767,460.87 345.1,459.037 348.5,457.5 Z"/></g>
<g><path style="opacity:1" fill="#7ea1ce" d="M 430.5,371.5 C 436.89,380.695 440.056,391.028 440,402.5C 440.94,419.613 439.94,436.613 437,453.5C 429.214,485.31 422.38,517.31 416.5,549.5C 410.613,546.726 404.947,543.726 399.5,540.5C 400.008,535.457 400.842,530.457 402,525.5C 411.01,491.142 420.01,456.809 429,422.5C 432.931,405.582 433.431,388.582 430.5,371.5 Z"/></g>
<g><path style="opacity:1" fill="#03469e" d="M 430.5,371.5 C 433.431,388.582 432.931,405.582 429,422.5C 420.01,456.809 411.01,491.142 402,525.5C 400.842,530.457 400.008,535.457 399.5,540.5C 389.305,535.575 379.638,529.908 370.5,523.5C 373.796,509.982 376.296,496.315 378,482.5C 378.667,476.167 378.667,469.833 378,463.5C 377.837,461.324 377.004,459.491 375.5,458C 374.169,478.018 369.835,497.851 362.5,517.5C 359.157,515.816 356.49,513.483 354.5,510.5C 358.978,494.62 363.145,478.62 367,462.5C 371.095,441.775 364.762,425.108 348,412.5C 348.834,416.85 350.001,421.183 351.5,425.5C 344.381,423.212 337.048,422.212 329.5,422.5C 315.852,423.951 302.185,424.785 288.5,425C 275.767,423.625 264.1,419.458 253.5,412.5C 263,410.496 272,406.996 280.5,402C 304.167,385.493 328.834,370.493 354.5,357C 370.494,350.93 386.827,349.93 403.5,354C 414.511,356.832 423.511,362.665 430.5,371.5 Z"/></g>
<g><path style="opacity:1" fill="#7b9ecd" d="M 376.5,356.5 C 417.133,353.632 434.3,372.299 428,412.5C 425.893,427.597 422.226,442.263 417,456.5C 417.132,445.824 417.799,435.157 419,424.5C 419.667,412.5 419.667,400.5 419,388.5C 414.208,377.393 405.708,371.227 393.5,370C 380.651,368.141 368.317,369.808 356.5,375C 341.034,383.372 325.034,390.372 308.5,396C 305.5,396.667 302.5,396.667 299.5,396C 317.936,387.618 335.603,377.951 352.5,367C 360.249,362.618 368.249,359.118 376.5,356.5 Z"/></g>
<g><path style="opacity:1" fill="#7fa1ce" d="M 1129.5,528.5 C 1120.51,557.29 1102.51,578.457 1075.5,592C 1057.93,599.529 1039.93,601.363 1021.5,597.5C 1043.35,600.7 1063.35,596.2 1081.5,584C 1099.18,566.782 1106.18,545.949 1102.5,521.5C 1110.32,521.938 1117.65,524.105 1124.5,528C 1126.13,528.494 1127.8,528.66 1129.5,528.5 Z"/></g>
<g><path style="opacity:1" fill="#7fa1ce" d="M 826.5,598.5 C 795.159,600.925 769.326,589.925 749,565.5C 739.572,554.648 732.739,542.314 728.5,528.5C 730.199,528.66 731.866,528.494 733.5,528C 739.953,524.015 746.953,522.181 754.5,522.5C 754.334,531.173 754.5,539.84 755,548.5C 765.128,584.425 788.961,601.092 826.5,598.5 Z"/></g>
<g><path style="opacity:1" fill="#07479f" d="M 1563.5,521.5 C 1568.91,531.225 1573.08,541.558 1576,552.5C 1576.87,558.917 1576.54,565.251 1575,571.5C 1574.5,573.333 1573.33,574.5 1571.5,575C 1561.48,576.594 1552.48,574.427 1544.5,568.5C 1547.49,557.7 1550.99,547.033 1555,536.5C 1557.35,531.113 1560.19,526.113 1563.5,521.5 Z"/></g>
<g><path style="opacity:1" fill="#11afe6" d="M 773.5,525.5 C 777.105,525.799 780.439,526.965 783.5,529C 789.347,533.091 795.013,537.424 800.5,542C 813.853,556.552 826.853,571.386 839.5,586.5C 806.746,593.053 785.913,580.386 777,548.5C 775.226,540.918 774.06,533.251 773.5,525.5 Z"/></g>
<g><path style="opacity:1" fill="#12afe6" d="M 1080.5,524.5 C 1081.5,524.5 1082.5,524.5 1083.5,524.5C 1082.09,536.063 1079.59,547.396 1076,558.5C 1066.82,579.935 1050.48,589.602 1027,587.5C 1023.5,587.167 1020,586.833 1016.5,586.5C 1029.15,571.386 1042.15,556.552 1055.5,542C 1062.93,534.716 1071.26,528.883 1080.5,524.5 Z"/></g>
<g><path style="opacity:1" fill="#05469e" d="M 272.5,672.5 C 273.464,658.178 273.631,643.845 273,629.5C 269.573,596.391 251.407,581.224 218.5,584C 215.543,584.279 212.877,585.113 210.5,586.5C 202.654,587.947 194.988,590.114 187.5,593C 173.282,599.276 158.948,605.276 144.5,611C 138.5,611.667 132.5,611.667 126.5,611C 123.429,610.853 120.596,610.02 118,608.5C 127.717,605.55 136.883,600.717 145.5,594C 157.804,582.696 169.804,571.03 181.5,559C 191.782,548.353 204.115,541.02 218.5,537C 236.384,533.769 252.051,538.102 265.5,550C 280.026,565.224 288.526,583.39 291,604.5C 293.376,621.43 294.376,638.43 294,655.5C 287.533,662.143 280.367,667.809 272.5,672.5 Z"/></g>
<g><path style="opacity:1" fill="#7fa1ce" d="M 865.5,539.5 C 865.666,546.175 865.5,552.842 865,559.5C 864.177,565.305 862.177,570.639 859,575.5C 857.867,577.211 856.367,577.711 854.5,577C 850.362,574.685 846.695,571.852 843.5,568.5C 847.672,566.842 851.172,564.175 854,560.5C 857.861,553.438 861.695,546.438 865.5,539.5 Z"/></g>
<g><path style="opacity:1" fill="#7c9fcd" d="M 212.5,547.5 C 226.142,547.571 237.976,552.238 248,561.5C 248.483,562.448 248.649,563.448 248.5,564.5C 242.559,562.576 236.559,560.743 230.5,559C 219.689,558.377 209.689,561.044 200.5,567C 191.833,573 183.167,579 174.5,585C 169.991,587.314 165.324,587.814 160.5,586.5C 173.498,578.012 185.164,567.845 195.5,556C 200.521,551.725 206.187,548.892 212.5,547.5 Z"/></g>
<g><path style="opacity:1" fill="#7bd5f2" d="M 1067.5,547.5 C 1068.5,547.5 1069.5,547.5 1070.5,547.5C 1069.96,564.035 1061.62,573.035 1045.5,574.5C 1049.43,570.068 1053.6,565.735 1058,561.5C 1061.39,556.952 1064.55,552.286 1067.5,547.5 Z"/></g>
<g><path style="opacity:1" fill="#10afe6" d="M 1279.5,547.5 C 1332.23,545.452 1384.23,550.618 1435.5,563C 1436.43,563.388 1437.09,564.055 1437.5,565C 1436.26,568.81 1435.09,572.644 1434,576.5C 1433.11,577.081 1432.11,577.415 1431,577.5C 1377.7,565.494 1323.87,561.994 1269.5,567C 1254.38,568.821 1240.05,573.155 1226.5,580C 1216.59,586.64 1213.75,595.473 1218,606.5C 1223.97,614.809 1231.47,621.309 1240.5,626C 1272.51,641.559 1306.18,651.893 1341.5,657C 1390.02,665.704 1438.69,666.704 1487.5,660C 1500.69,657.958 1513.02,653.625 1524.5,647C 1535.62,637.851 1536.29,628.017 1526.5,617.5C 1526.62,612.591 1528.79,608.924 1533,606.5C 1539.17,613.011 1544.17,620.344 1548,628.5C 1550.78,638.788 1547.95,647.288 1539.5,654C 1523.47,665.016 1505.81,672.35 1486.5,676C 1405.59,689.221 1326.26,682.888 1248.5,657C 1227.22,649.53 1207.56,639.197 1189.5,626C 1180.5,618.335 1175.17,608.668 1173.5,597C 1175.08,587.526 1179.74,579.859 1187.5,574C 1203.96,563.286 1221.96,556.286 1241.5,553C 1254.27,550.83 1266.93,548.997 1279.5,547.5 Z"/></g>
<g><path style="opacity:1" fill="#06479f" d="M 1464.5,559.5 C 1453.52,595.092 1436.19,627.092 1412.5,655.5C 1409.81,655.664 1407.15,655.497 1404.5,655C 1410.97,644.565 1416.8,633.732 1422,622.5C 1431.62,597.639 1441.62,572.973 1452,548.5C 1456.29,552.057 1460.46,555.723 1464.5,559.5 Z"/></g>
<g><path style="opacity:1" fill="#7cd5f2" d="M 787.5,550.5 C 791.642,552.12 795.142,554.786 798,558.5C 802.633,564.135 807.633,569.468 813,574.5C 813.483,575.448 813.649,576.448 813.5,577.5C 806.614,577.799 801.114,575.132 797,569.5C 792.235,563.97 789.068,557.637 787.5,550.5 Z"/></g>
<g><path style="opacity:1" fill="#1c50a4" d="M 349.5,553.5 C 344.657,566.373 342.324,579.706 342.5,593.5C 341.504,593.586 340.671,593.252 340,592.5C 340.035,578.221 342.035,564.221 346,550.5C 347.145,551.636 348.312,552.636 349.5,553.5 Z"/></g>
<g><path style="opacity:1" fill="#7c9fce" d="M 349.5,553.5 C 354.343,555.418 358.677,558.084 362.5,561.5C 361.21,562.058 360.377,563.058 360,564.5C 357.836,578.412 357.003,592.412 357.5,606.5C 353.411,601.075 348.411,596.742 342.5,593.5C 342.324,579.706 344.657,566.373 349.5,553.5 Z"/></g>
<g><path style="opacity:1" fill="#7ca0ce" d="M 1464.5,559.5 C 1468.82,562.486 1472.82,565.82 1476.5,569.5C 1468.83,587.172 1460.33,604.506 1451,621.5C 1443.01,633.303 1434.18,644.47 1424.5,655C 1432.83,655.5 1441.16,655.666 1449.5,655.5C 1437.33,656.564 1425,656.564 1412.5,655.5C 1436.19,627.092 1453.52,595.092 1464.5,559.5 Z"/></g>
<g><path style="opacity:1" fill="#02469e" d="M 362.5,561.5 C 372.85,567.676 383.516,573.343 394.5,578.5C 394.726,602.191 398.726,625.191 406.5,647.5C 397.739,649.878 389.405,653.378 381.5,658C 370.412,665.254 359.745,673.087 349.5,681.5C 345.457,674.339 342.791,666.672 341.5,658.5C 341.343,657.127 341.51,655.793 342,654.5C 344.325,652.499 346.158,650.166 347.5,647.5C 348.666,651.478 350.332,655.312 352.5,659C 354.594,659.445 356.094,658.612 357,656.5C 357.918,653.402 358.418,650.235 358.5,647C 357.783,640.852 357.45,634.686 357.5,628.5C 360.105,621.174 360.105,613.841 357.5,606.5C 357.003,592.412 357.836,578.412 360,564.5C 360.377,563.058 361.21,562.058 362.5,561.5 Z"/></g>
<g><path style="opacity:1" fill="#01459e" d="M 1293.5,569.5 C 1336.29,568.538 1378.63,572.372 1420.5,581C 1412.78,600.152 1404.28,618.985 1395,637.5C 1392,642.167 1389,646.833 1386,651.5C 1384.53,653.007 1382.69,653.674 1380.5,653.5C 1339.34,649.702 1299.34,640.869 1260.5,627C 1247.09,621.886 1235.26,614.386 1225,604.5C 1220.6,596.628 1222.1,590.128 1229.5,585C 1238.69,579.223 1248.69,575.557 1259.5,574C 1270.88,571.682 1282.21,570.182 1293.5,569.5 Z"/></g>
<g><path style="opacity:1" fill="#01459e" d="M 1476.5,569.5 C 1486.63,577.967 1497.29,585.633 1508.5,592.5C 1502.77,612.362 1496.43,632.029 1489.5,651.5C 1476.24,653.492 1462.9,654.825 1449.5,655.5C 1441.16,655.666 1432.83,655.5 1424.5,655C 1434.18,644.47 1443.01,633.303 1451,621.5C 1460.33,604.506 1468.83,587.172 1476.5,569.5 Z"/></g>
<g><path style="opacity:1" fill="#7fa2cf" d="M 394.5,578.5 C 401.474,581.652 408.474,584.819 415.5,588C 416.132,591.27 416.799,594.437 417.5,597.5C 418.338,612.853 422.005,627.519 428.5,641.5C 420.963,642.883 413.63,644.883 406.5,647.5C 398.726,625.191 394.726,602.191 394.5,578.5 Z"/></g>
<g><path style="opacity:1" fill="#7fa1ce" d="M 272.5,672.5 C 269.469,675.687 265.969,678.353 262,680.5C 260.163,661.966 257.163,643.633 253,625.5C 249.627,610.221 241.46,598.388 228.5,590C 222.744,587.651 216.744,586.485 210.5,586.5C 212.877,585.113 215.543,584.279 218.5,584C 251.407,581.224 269.573,596.391 273,629.5C 273.631,643.845 273.464,658.178 272.5,672.5 Z"/></g>
<g><path style="opacity:1" fill="#0cafe6" d="M 303.5,594.5 C 317.473,591.951 330.806,594.117 343.5,601C 352.041,607.292 354.541,615.458 351,625.5C 348.721,632.724 345.388,639.391 341,645.5C 319.199,671.971 293.699,694.137 264.5,712C 215.453,742.851 162.787,765.518 106.5,780C 87.3866,784.346 68.0533,786.346 48.5,786C 17.7645,782.032 9.59786,766.199 24,738.5C 33.6358,723.854 45.1358,710.687 58.5,699C 99.4763,665.324 144.81,638.491 194.5,618.5C 199.46,621.792 203.793,625.792 207.5,630.5C 168.505,647.062 132.172,667.895 98.5,693C 87.964,701.869 78.464,711.702 70,722.5C 59.3153,743.122 65.6486,753.788 89,754.5C 117.188,752.328 144.355,745.828 170.5,735C 218.427,716.552 262.094,691.219 301.5,659C 310.588,650.917 317.755,641.417 323,630.5C 326.015,623.742 324.515,618.242 318.5,614C 314.954,612.207 311.287,610.707 307.5,609.5C 305.898,604.452 304.564,599.452 303.5,594.5 Z"/></g>
<g><path style="opacity:1" fill="#7ea2cf" d="M 1508.5,592.5 C 1514.31,596.241 1520.31,599.741 1526.5,603C 1523.08,614.071 1519.92,625.238 1517,636.5C 1516.4,639.308 1515.24,641.808 1513.5,644C 1505.93,647.728 1497.93,650.228 1489.5,651.5C 1496.43,632.029 1502.77,612.362 1508.5,592.5 Z"/></g>
<g><path style="opacity:1" fill="#15afe6" d="M 205.5,598.5 C 222.805,594.395 233.972,600.728 239,617.5C 245.826,640.629 249.659,664.129 250.5,688C 246.916,690.041 243.416,692.208 240,694.5C 237.107,681.475 234.107,668.475 231,655.5C 227.469,642.44 221.802,630.44 214,619.5C 207.02,612.592 198.854,607.592 189.5,604.5C 194.68,601.88 200.013,599.88 205.5,598.5 Z"/></g>
<g><path style="opacity:1" fill="#6f9acb" d="M 179.5,617.5 C 181.288,616.378 183.288,616.211 185.5,617C 184.473,617.513 183.473,618.013 182.5,618.5C 181.791,617.596 180.791,617.263 179.5,617.5 Z"/></g>
<g><path style="opacity:1" fill="#0f4ba1" d="M 307.5,616.5 C 314.837,617.334 317.67,621.334 316,628.5C 314.171,632.828 311.838,636.828 309,640.5C 308.771,632.453 308.271,624.453 307.5,616.5 Z"/></g>
<g><path style="opacity:1" fill="#f5fafd" d="M 1590.5,819.5 C 1590.75,817.83 1591.42,816.33 1592.5,815C 1595.04,814.204 1597.37,814.371 1599.5,815.5C 1595.77,825.171 1591.94,834.837 1588,844.5C 1580.01,864.452 1577.01,885.119 1579,906.5C 1582.06,925.895 1593.39,935.561 1613,935.5C 1635.97,933.732 1657.14,926.565 1676.5,914C 1743.36,868.802 1793.19,809.302 1826,735.5C 1833.02,717.442 1837.18,698.775 1838.5,679.5C 1837.49,647.656 1821.16,633.489 1789.5,637C 1776.21,639.976 1763.55,644.642 1751.5,651C 1716.15,670.839 1685.82,696.673 1660.5,728.5C 1657.65,726.559 1654.65,725.893 1651.5,726.5C 1652.19,725.482 1652.86,724.482 1653.5,723.5C 1672.73,702.431 1693.4,682.931 1715.5,665C 1731.72,652.383 1749.39,642.049 1768.5,634C 1782.94,627.939 1797.94,625.939 1813.5,628C 1831.39,633.887 1842.22,646.054 1846,664.5C 1847.91,682.957 1845.91,700.957 1840,718.5C 1821.69,767.476 1795.03,811.143 1760,849.5C 1749.26,859.74 1739.09,870.407 1729.5,881.5C 1730.38,907.39 1734.55,932.723 1742,957.5C 1747.46,970.966 1755.96,982.133 1767.5,991C 1745.36,990.106 1724.36,984.773 1704.5,975C 1697.04,969.874 1690.54,963.707 1685,956.5C 1678.63,946.424 1672.8,936.09 1667.5,925.5C 1652.98,933.285 1637.64,938.785 1621.5,942C 1596.28,946.321 1579.78,936.488 1572,912.5C 1568.84,892.423 1570.51,872.757 1577,853.5C 1580.7,841.778 1585.2,830.445 1590.5,819.5 Z"/></g>
<g><path style="opacity:1" fill="#7da1cf" d="M 357.5,628.5 C 357.45,634.686 357.783,640.852 358.5,647C 358.418,650.235 357.918,653.402 357,656.5C 356.094,658.612 354.594,659.445 352.5,659C 350.332,655.312 348.666,651.478 347.5,647.5C 351.644,641.543 354.978,635.21 357.5,628.5 Z"/></g>
<g><path style="opacity:1" fill="#01459e" d="M 207.5,636.5 C 209.911,636.137 211.411,637.137 212,639.5C 218.788,658.604 222.954,678.271 224.5,698.5C 224.674,700.693 224.007,702.527 222.5,704C 185.244,724.085 145.911,738.418 104.5,747C 95.8698,748.368 87.2032,748.702 78.5,748C 70.8599,744.997 68.3599,739.497 71,731.5C 79.7005,717.13 90.8672,704.964 104.5,695C 136.392,671.382 170.726,651.882 207.5,636.5 Z"/></g>
<g><path style="opacity:1" fill="#0aaee6" d="M 1599.5,815.5 C 1605.95,816.095 1611.95,818.095 1617.5,821.5C 1617.61,822.117 1617.94,822.617 1618.5,823C 1611.7,835.733 1605.87,848.9 1601,862.5C 1598.67,872.38 1598.01,882.38 1599,892.5C 1600.86,902.844 1607.03,908.177 1617.5,908.5C 1628.73,907.811 1639.4,904.978 1649.5,900C 1668.24,889.631 1685.57,877.298 1701.5,863C 1729.43,837.092 1753.6,808.259 1774,776.5C 1786.48,757.745 1795.48,737.411 1801,715.5C 1802.47,708.223 1802.8,700.889 1802,693.5C 1796.64,679.562 1786.47,674.062 1771.5,677C 1754.06,682.718 1738.06,691.051 1723.5,702C 1707.42,714.08 1692.58,727.58 1679,742.5C 1678.62,741.944 1678.12,741.611 1677.5,741.5C 1672.69,736.024 1667.03,731.69 1660.5,728.5C 1685.82,696.673 1716.15,670.839 1751.5,651C 1763.55,644.642 1776.21,639.976 1789.5,637C 1821.16,633.489 1837.49,647.656 1838.5,679.5C 1837.18,698.775 1833.02,717.442 1826,735.5C 1793.19,809.302 1743.36,868.802 1676.5,914C 1657.14,926.565 1635.97,933.732 1613,935.5C 1593.39,935.561 1582.06,925.895 1579,906.5C 1577.01,885.119 1580.01,864.452 1588,844.5C 1591.94,834.837 1595.77,825.171 1599.5,815.5 Z"/></g>
<g><path style="opacity:1" fill="#07479f" d="M 532.5,768.5 C 532.5,799.833 532.5,831.167 532.5,862.5C 523.516,874.456 515.016,886.79 507,899.5C 507.2,891.83 507.866,884.164 509,876.5C 513.978,851.943 518.311,827.277 522,802.5C 526.048,766.304 515.215,735.471 489.5,710C 470.866,697.108 450.199,692.108 427.5,695C 410.957,697.021 397.124,704.187 386,716.5C 376.861,730.112 369.861,744.779 365,760.5C 363.712,767.437 363.212,774.437 363.5,781.5C 343.906,775.371 333.906,761.871 333.5,741C 333.69,727.026 337.524,714.193 345,702.5C 362.317,677.085 386.151,661.585 416.5,656C 442.565,654.466 465.231,662.466 484.5,680C 508.7,704.891 524.7,734.391 532.5,768.5 Z"/></g>
<g><path style="opacity:1" fill="#7c9fcd" d="M 402.5,665.5 C 415.798,664.279 428.465,666.446 440.5,672C 443.128,673.626 445.461,675.626 447.5,678C 439.467,678.274 431.467,677.774 423.5,676.5C 405.157,676.112 389.157,681.946 375.5,694C 365.888,702.606 357.388,712.106 350,722.5C 347.012,727.969 344.512,733.635 342.5,739.5C 340.79,718.794 347.457,701.294 362.5,687C 373.765,675.869 387.099,668.702 402.5,665.5 Z"/></g>
<g><path style="opacity:1" fill="#0b489f" d="M 331.5,667.5 C 333.607,675.878 336.94,683.711 341.5,691C 325.646,710.627 319.813,732.793 324,757.5C 319.927,748.882 316.927,739.882 315,730.5C 312.449,716.272 310.949,701.939 310.5,687.5C 317.474,680.861 324.474,674.194 331.5,667.5 Z"/></g>
<g><path style="opacity:1" fill="#f3fafd" d="M 1617.5,821.5 C 1619.51,822.014 1621.51,822.18 1623.5,822C 1624.19,820.933 1624.69,819.766 1625,818.5C 1625.5,819 1626,819.5 1626.5,820C 1626.16,822.65 1625.49,825.484 1624.5,828.5C 1621.64,831.19 1619.47,834.523 1618,838.5C 1610.68,852.633 1606.51,867.633 1605.5,883.5C 1605.05,897.444 1611.72,903.277 1625.5,901C 1636.33,899.075 1646.33,895.242 1655.5,889.5C 1659.52,887.139 1663.52,884.806 1667.5,882.5C 1668.5,882.167 1669.17,881.5 1669.5,880.5C 1673.19,877.801 1676.86,875.135 1680.5,872.5C 1688.62,866.256 1696.62,859.756 1704.5,853C 1707.78,850.234 1710.44,847.067 1712.5,843.5C 1716.5,840.167 1720.17,836.5 1723.5,832.5C 1750.73,804.761 1772.56,773.094 1789,737.5C 1793.89,726.16 1796.72,714.326 1797.5,702C 1796.24,685.173 1787.24,678.839 1770.5,683C 1758.63,686.104 1747.63,691.104 1737.5,698C 1717.44,711.89 1699.44,728.056 1683.5,746.5C 1682.1,748.109 1680.44,748.942 1678.5,749C 1676.29,746.758 1675.95,744.258 1677.5,741.5C 1678.12,741.611 1678.62,741.944 1679,742.5C 1692.58,727.58 1707.42,714.08 1723.5,702C 1738.06,691.051 1754.06,682.718 1771.5,677C 1786.47,674.062 1796.64,679.562 1802,693.5C 1802.8,700.889 1802.47,708.223 1801,715.5C 1795.48,737.411 1786.48,757.745 1774,776.5C 1753.6,808.259 1729.43,837.092 1701.5,863C 1685.57,877.298 1668.24,889.631 1649.5,900C 1639.4,904.978 1628.73,907.811 1617.5,908.5C 1607.03,908.177 1600.86,902.844 1599,892.5C 1598.01,882.38 1598.67,872.38 1601,862.5C 1605.87,848.9 1611.7,835.733 1618.5,823C 1617.94,822.617 1617.61,822.117 1617.5,821.5 Z"/></g>
<g><path style="opacity:1" fill="#7fa1ce" d="M 1280.5,732.5 C 1269.38,737.76 1257.55,740.427 1245,740.5C 1211.14,738.162 1179.64,728.328 1150.5,711C 1142.11,705.811 1133.78,700.645 1125.5,695.5C 1124.43,690.716 1123.09,685.883 1121.5,681C 1121.83,680.167 1122.17,679.333 1122.5,678.5C 1134.15,687.66 1146.48,695.827 1159.5,703C 1197.07,724.309 1237.4,734.142 1280.5,732.5 Z"/></g>
<g><path style="opacity:1" fill="#02459e" d="M 548.5,755.5 C 588.551,764.483 627.885,761.316 666.5,746C 688.693,736.302 706.026,721.136 718.5,700.5C 725.162,693.671 731.662,686.671 738,679.5C 725.858,740.637 693.025,787.137 639.5,819C 630.854,823.824 621.854,827.824 612.5,831C 594.642,831.651 576.975,830.151 559.5,826.5C 558.718,802.359 555.052,778.692 548.5,755.5 Z"/></g>
<g><path style="opacity:1" fill="#01459e" d="M 1723.5,832.5 C 1718.74,799.652 1705.4,770.986 1683.5,746.5C 1699.44,728.056 1717.44,711.89 1737.5,698C 1747.63,691.104 1758.63,686.104 1770.5,683C 1787.24,678.839 1796.24,685.173 1797.5,702C 1796.72,714.326 1793.89,726.16 1789,737.5C 1772.56,773.094 1750.73,804.761 1723.5,832.5 Z"/></g>
<g><path style="opacity:1" fill="#80a2cf" d="M 1498.5,683.5 C 1492.86,693.334 1487.36,703.334 1482,713.5C 1469.18,735.994 1453.01,755.828 1433.5,773C 1414.09,784.789 1393.59,794.289 1372,801.5C 1369.54,796.629 1367.38,791.629 1365.5,786.5C 1374.09,783.689 1382.43,780.189 1390.5,776C 1424.37,752.669 1451.03,723.502 1470.5,688.5C 1479.43,686.777 1488.43,684.777 1497.5,682.5C 1498.11,682.624 1498.44,682.957 1498.5,683.5 Z"/></g>
<g><path style="opacity:1" fill="#01459e" d="M 1470.5,688.5 C 1451.03,723.502 1424.37,752.669 1390.5,776C 1382.43,780.189 1374.09,783.689 1365.5,786.5C 1363.35,782.193 1361.18,777.86 1359,773.5C 1343.89,754.537 1324.06,745.704 1299.5,747C 1263.67,754.567 1234.67,772.733 1212.5,801.5C 1201.91,800.269 1191.58,797.935 1181.5,794.5C 1153.31,767.151 1134.65,734.151 1125.5,695.5C 1133.78,700.645 1142.11,705.811 1150.5,711C 1179.64,728.328 1211.14,738.162 1245,740.5C 1257.55,740.427 1269.38,737.76 1280.5,732.5C 1314.51,727.824 1344.51,714.49 1370.5,692.5C 1391.75,692.509 1413.08,692.342 1434.5,692C 1446.58,691.558 1458.58,690.392 1470.5,688.5 Z"/></g>
<g><path style="opacity:1" fill="#04469e" d="M 297.5,702.5 C 297.924,739.959 310.424,772.626 335,800.5C 347.366,812.257 360.199,823.423 373.5,834C 394.662,849.909 418.328,860.409 444.5,865.5C 444.833,866.333 445.167,867.167 445.5,868C 441.341,884.814 438.008,901.648 435.5,918.5C 418.186,914.284 401.519,908.284 385.5,900.5C 387.913,889.456 389.913,878.289 391.5,867C 390.898,863.467 389.231,860.467 386.5,858C 361.58,856.851 336.58,856.018 311.5,855.5C 309.144,852.978 306.977,850.312 305,847.5C 284.489,815.474 271.989,780.474 267.5,742.5C 267.691,734.16 268.024,725.826 268.5,717.5C 277.688,711.313 286.854,704.979 296,698.5C 296.21,700.058 296.71,701.391 297.5,702.5 Z"/></g>
<g><path style="opacity:1" fill="#7fa1ce" d="M 718.5,700.5 C 706.026,721.136 688.693,736.302 666.5,746C 627.885,761.316 588.551,764.483 548.5,755.5C 546.965,750.393 545.299,745.227 543.5,740C 592.801,748.147 640.135,741.814 685.5,721C 697.227,715.147 708.227,708.313 718.5,700.5 Z"/></g>
<g><path style="opacity:1" fill="#0caee6" d="M 426.5,704.5 C 476.218,701.053 504.051,724.053 510,773.5C 510.667,780.833 510.667,788.167 510,795.5C 504.545,825.533 498.879,855.533 493,885.5C 491.42,899.144 490.086,912.81 489,926.5C 476,946.167 463,965.833 450,985.5C 444.126,949.168 445.793,913.168 455,877.5C 462.963,848.314 470.297,818.98 477,789.5C 479.736,756.128 466.236,731.961 436.5,717C 428.316,714.656 419.983,713.989 411.5,715C 397.598,718.815 397.264,717.148 410.5,710C 415.846,707.83 421.179,705.997 426.5,704.5 Z"/></g>
<g><path style="opacity:1" fill="#7a9ecd" d="M 268.5,717.5 C 268.024,725.826 267.691,734.16 267.5,742.5C 266.147,735.345 265.147,728.012 264.5,720.5C 265.262,718.738 266.596,717.738 268.5,717.5 Z"/></g>
<g><path style="opacity:1" fill="#04469e" d="M 407.5,723.5 C 426.31,721.82 441.476,728.487 453,743.5C 464.614,760.633 467.781,779.299 462.5,799.5C 462,799.833 461.5,800.167 461,800.5C 450.648,796.41 441.148,790.91 432.5,784C 415.148,771.323 398.982,757.157 384,741.5C 383.333,740.5 383.333,739.5 384,738.5C 390.83,731.84 398.663,726.84 407.5,723.5 Z"/></g>
<g><path style="opacity:1" fill="#80d6f2" d="M 255.5,725.5 C 255.448,727.903 255.781,730.236 256.5,732.5C 253.239,731.622 249.906,730.956 246.5,730.5C 249.24,728.44 252.24,726.774 255.5,725.5 Z"/></g>
<g><path style="opacity:1" fill="#03469e" d="M 1712.5,843.5 C 1710.44,847.067 1707.78,850.234 1704.5,853C 1696.62,859.756 1688.62,866.256 1680.5,872.5C 1680.8,862.455 1680.3,852.455 1679,842.5C 1675.88,825.085 1667.71,810.585 1654.5,799C 1631.88,783.472 1606.88,777.805 1579.5,782C 1554.22,787.969 1530.22,797.303 1507.5,810C 1479.04,826.3 1450.7,842.8 1422.5,859.5C 1420.93,857.585 1418.93,856.585 1416.5,856.5C 1406.6,855.183 1396.6,855.183 1386.5,856.5C 1382.05,842.364 1378.38,828.031 1375.5,813.5C 1383.35,812.053 1391.01,809.886 1398.5,807C 1440.11,788.696 1481.11,769.03 1521.5,748C 1624.71,700.938 1688.38,732.771 1712.5,843.5 Z"/></g>
<g><path style="opacity:1" fill="#14afe6" d="M 246.5,730.5 C 249.906,730.956 253.239,731.622 256.5,732.5C 259.05,755.465 263.216,778.132 269,800.5C 274.086,820.45 282.253,838.95 293.5,856C 287.167,856.667 280.833,856.667 274.5,856C 259.45,837.54 250.617,816.374 248,792.5C 246.306,772.833 244.806,753.166 243.5,733.5C 243.81,731.856 244.81,730.856 246.5,730.5 Z"/></g>
<g><path style="opacity:1" fill="#7c9fcd" d="M 1551.5,745.5 C 1557.5,745.5 1563.5,745.5 1569.5,745.5C 1569.64,747.124 1568.97,748.29 1567.5,749C 1552.13,753.345 1537.13,758.678 1522.5,765C 1507.9,773.94 1493.56,783.273 1479.5,793C 1454.66,808.46 1427.66,815.626 1398.5,814.5C 1400.46,812.515 1402.79,811.015 1405.5,810C 1420.36,807.369 1434.69,803.036 1448.5,797C 1467.09,786.732 1485.43,776.066 1503.5,765C 1518.83,756.493 1534.83,749.993 1551.5,745.5 Z"/></g>
<g><path style="opacity:1" fill="#05469e" d="M 374.5,753.5 C 393.193,772.687 413.86,789.52 436.5,804C 443.398,807.868 450.565,811.034 458,813.5C 456.81,825.903 453.81,837.903 449,849.5C 437.561,846.973 426.228,843.973 415,840.5C 384.2,825.682 358.2,805.015 337,778.5C 343.079,784.291 350.246,788.124 358.5,790C 363.455,791.218 368.455,791.551 373.5,791C 374.081,790.107 374.415,789.107 374.5,788C 370.527,776.49 370.527,764.99 374.5,753.5 Z"/></g>
<g><path style="opacity:1" fill="#80a2cf" d="M 1384.5,871.5 C 1383.7,872.423 1383.53,873.423 1384,874.5C 1387.4,878.065 1390.9,881.398 1394.5,884.5C 1394.06,884.435 1393.73,884.601 1393.5,885C 1400.37,892.539 1408.37,898.539 1417.5,903C 1395.68,909.188 1375.35,906.022 1356.5,893.5C 1356.94,893.565 1357.27,893.399 1357.5,893C 1347.69,880.26 1340.52,866.093 1336,850.5C 1333.01,831.919 1330.68,813.253 1329,794.5C 1327.22,784.715 1321.72,777.882 1312.5,774C 1302.11,771.643 1291.78,769.81 1281.5,768.5C 1306.45,755.331 1329.28,758.331 1350,777.5C 1352.25,781.007 1354.25,784.673 1356,788.5C 1364.13,812.686 1371.8,837.019 1379,861.5C 1380.61,865.056 1382.44,868.389 1384.5,871.5 Z"/></g>
<g><path style="opacity:1" fill="#81a2cf" d="M 532.5,768.5 C 540.503,797.48 544.503,827.147 544.5,857.5C 540.017,858.077 536.017,859.744 532.5,862.5C 532.5,831.167 532.5,799.833 532.5,768.5 Z"/></g>
<g><path style="opacity:1" fill="#12afe6" d="M 1669.5,880.5 C 1669.17,881.5 1668.5,882.167 1667.5,882.5C 1663.54,867.114 1657.7,852.447 1650,838.5C 1642.39,824.43 1631.55,813.597 1617.5,806C 1609.34,803.552 1601.01,802.886 1592.5,804C 1575.16,809.338 1559.16,817.338 1544.5,828C 1530.83,838.333 1517.17,848.667 1503.5,859C 1484.11,878.057 1463.78,896.057 1442.5,913C 1431.82,920.675 1420.49,927.342 1408.5,933C 1402.39,932.913 1396.39,931.913 1390.5,930C 1389.27,927.86 1387.61,926.193 1385.5,925C 1357.17,924.5 1328.84,924.333 1300.5,924.5C 1300.5,922.833 1300.5,921.167 1300.5,919.5C 1314.44,917.099 1328.1,913.599 1341.5,909C 1347.17,908.667 1352.83,908.333 1358.5,908C 1356.67,907.252 1355,906.252 1353.5,905C 1354.17,904.833 1354.83,904.667 1355.5,904.5C 1361.71,907.292 1368.04,909.792 1374.5,912C 1398.32,919.03 1419.99,914.863 1439.5,899.5C 1439.29,898.914 1438.96,898.414 1438.5,898C 1432.34,897.895 1426.34,896.895 1420.5,895C 1417.76,893.974 1415.43,892.474 1413.5,890.5C 1415.17,890.751 1416.67,891.418 1418,892.5C 1419.77,885.353 1421.27,878.187 1422.5,871C 1450.67,853.748 1479,836.748 1507.5,820C 1529.98,807.592 1553.65,798.258 1578.5,792C 1644.51,784.688 1674.84,814.188 1669.5,880.5 Z"/></g>
<g><path style="opacity:1" fill="#7c9fcd" d="M 1237.5,845.5 C 1236.67,848.485 1235.34,851.151 1233.5,853.5C 1228.65,861.476 1223.82,870.142 1219,879.5C 1215.16,885.853 1210.82,891.853 1206,897.5C 1205.39,893.318 1206.06,889.318 1208,885.5C 1214.47,869.086 1221.14,852.753 1228,836.5C 1232.65,825.851 1238.32,815.851 1245,806.5C 1257.6,791.56 1271.26,790.56 1286,803.5C 1293.64,815.785 1300.47,828.452 1306.5,841.5C 1303.48,841.159 1300.82,839.993 1298.5,838C 1292.21,830.038 1285.54,822.371 1278.5,815C 1271.67,810.802 1264.67,810.469 1257.5,814C 1249.19,823.457 1242.52,833.957 1237.5,845.5 Z"/></g>
<g><path style="opacity:1" fill="#7fa1ce" d="M 1181.5,794.5 C 1191.58,797.935 1201.91,800.269 1212.5,801.5C 1209.92,805.646 1207.09,809.646 1204,813.5C 1195.97,807.742 1188.47,801.409 1181.5,794.5 Z"/></g>
<g><path style="opacity:1" fill="#7a9dcc" d="M 1098.5,856.5 C 1095.17,856.5 1091.83,856.5 1088.5,856.5C 1082.47,840.689 1078.47,824.355 1076.5,807.5C 1076.39,804.636 1076.89,801.97 1078,799.5C 1080.17,801.83 1081.83,804.497 1083,807.5C 1085.86,824.574 1091.02,840.908 1098.5,856.5 Z"/></g>
<g><path style="opacity:1" fill="#7c9fcd" d="M 686.5,812.5 C 687.5,812.5 688.5,812.5 689.5,812.5C 689.159,815.516 687.993,818.182 686,820.5C 678.47,828.365 670.636,835.865 662.5,843C 645.487,853.117 627.154,858.783 607.5,860C 626.813,849.366 646.147,838.7 665.5,828C 672.683,822.97 679.683,817.803 686.5,812.5 Z"/></g>
<g><path style="opacity:1" fill="#04469f" d="M 1624.5,828.5 C 1638.77,846.708 1649.1,867.041 1655.5,889.5C 1646.33,895.242 1636.33,899.075 1625.5,901C 1611.72,903.277 1605.05,897.444 1605.5,883.5C 1606.51,867.633 1610.68,852.633 1618,838.5C 1619.47,834.523 1621.64,831.19 1624.5,828.5 Z"/></g>
<g><path style="opacity:1" fill="#7a9dcc" d="M 620.5,952.5 C 619.941,950.321 619.274,948.154 618.5,946C 618.833,945.5 619.167,945 619.5,944.5C 630.419,937.884 640.752,930.551 650.5,922.5C 660.071,915.104 669.238,907.104 678,898.5C 695.844,876.794 713.677,855.127 731.5,833.5C 731.833,834 732.167,834.5 732.5,835C 721.962,852.576 710.795,869.743 699,886.5C 682.833,908 664,926.833 642.5,943C 635.494,947.005 628.161,950.171 620.5,952.5 Z"/></g>
<g><path style="opacity:1" fill="#0eafe6" d="M 1262.5,841.5 C 1266.51,841.334 1270.51,841.501 1274.5,842C 1282.02,845.922 1289.02,850.589 1295.5,856C 1283.17,856.333 1270.83,856.667 1258.5,857C 1254.74,858.461 1251.91,860.961 1250,864.5C 1247.51,875.468 1245.17,886.468 1243,897.5C 1236.18,910.141 1230.18,923.141 1225,936.5C 1216.12,963.804 1206.45,990.804 1196,1017.5C 1182.79,1049.04 1161.96,1074.2 1133.5,1093C 1102.02,1108.82 1069.36,1111.82 1035.5,1102C 1015.17,1093.82 998.502,1080.99 985.5,1063.5C 985.833,1063.17 986.167,1062.83 986.5,1062.5C 1008.02,1072.7 1030.69,1076.53 1054.5,1074C 1082.36,1071.45 1108.69,1063.79 1133.5,1051C 1154.81,1037.36 1171.64,1019.52 1184,997.5C 1191.19,984.445 1197.86,971.112 1204,957.5C 1217.75,923.92 1232.08,890.587 1247,857.5C 1251.03,850.975 1256.19,845.642 1262.5,841.5 Z"/></g>
<g><path style="opacity:1" fill="#2b58a8" d="M 561.5,842.5 C 563.854,842.838 566.187,843.338 568.5,844C 566.385,844.557 564.385,845.391 562.5,846.5C 561.571,845.311 561.238,843.978 561.5,842.5 Z"/></g>
<g><path style="opacity:1" fill="#7499ca" d="M 911.5,866.5 C 912.833,862.5 912.833,858.5 911.5,854.5C 911.461,853.244 911.961,852.244 913,851.5C 913.829,856.864 913.663,862.198 912.5,867.5C 911.893,867.376 911.56,867.043 911.5,866.5 Z"/></g>
<g><path style="opacity:1" fill="#2d57a8" d="M 911.5,854.5 C 912.833,858.5 912.833,862.5 911.5,866.5C 910.188,865.855 909.188,864.855 908.5,863.5C 909.705,860.55 910.705,857.55 911.5,854.5 Z"/></g>
<g><path style="opacity:1" fill="#95b2d6" d="M 1416.5,856.5 C 1407.17,856.5 1397.83,856.5 1388.5,856.5C 1388.36,860.286 1387.7,860.286 1386.5,856.5C 1396.6,855.183 1406.6,855.183 1416.5,856.5 Z"/></g>
<g><path style="opacity:1" fill="#03459e" d="M 1376.5,932.5 C 1377.57,933.434 1378.9,933.768 1380.5,933.5C 1380.5,934.833 1380.5,936.167 1380.5,937.5C 1379.26,946.914 1377.6,956.247 1375.5,965.5C 1374.27,966.281 1372.94,966.781 1371.5,967C 1343.17,967.333 1314.83,967.667 1286.5,968C 1284.67,968.5 1283.5,969.667 1283,971.5C 1280.82,978.708 1279.82,986.041 1280,993.5C 1280.83,994.333 1281.67,995.167 1282.5,996C 1318.5,996.5 1354.5,996.667 1390.5,996.5C 1388.63,1009.6 1385.96,1022.43 1382.5,1035C 1331.17,1035.67 1279.83,1035.67 1228.5,1035C 1226.52,1032.5 1226.02,1029.67 1227,1026.5C 1235.82,975.073 1245.15,923.739 1255,872.5C 1255.28,868.88 1257.12,866.38 1260.5,865C 1274.17,864.667 1287.83,864.333 1301.5,864C 1306.33,860.314 1309,861.648 1309.5,868C 1314.8,870.986 1320.13,873.986 1325.5,877C 1332,882.833 1338.5,888.667 1345,894.5C 1344.6,896.874 1344.76,899.207 1345.5,901.5C 1329.51,902.333 1313.51,902.833 1297.5,903C 1296.67,903.833 1295.83,904.667 1295,905.5C 1292.56,913.348 1291.56,921.348 1292,929.5C 1292.37,930.416 1292.87,931.25 1293.5,932C 1321.16,932.5 1348.83,932.667 1376.5,932.5 Z"/></g>
<g><path style="opacity:1" fill="#03469e" d="M 270.5,864.5 C 307.168,864.333 343.835,864.5 380.5,865C 381,865.5 381.5,866 382,866.5C 381.514,878.082 379.514,889.416 376,900.5C 375.25,901.126 374.416,901.626 373.5,902C 342.5,902.333 311.5,902.667 280.5,903C 277.272,904.563 275.105,907.063 274,910.5C 270.614,925.763 267.614,941.097 265,956.5C 264.004,949.058 263.171,948.892 262.5,956C 262.667,957.833 262.833,959.667 263,961.5C 263.889,960.112 264.389,960.278 264.5,962C 261.641,971.65 260.474,981.484 261,991.5C 261.833,993.667 263.333,995.167 265.5,996C 296.496,996.792 327.496,997.292 358.5,997.5C 357.643,1008.98 355.81,1020.31 353,1031.5C 351.681,1033.49 349.848,1034.65 347.5,1035C 311.5,1035.67 275.5,1035.67 239.5,1035C 224.453,1031.12 215.453,1021.62 212.5,1006.5C 216.097,969.843 222.263,933.51 231,897.5C 239.789,881.198 252.956,870.198 270.5,864.5 Z"/></g>
<g><path style="opacity:1" fill="#05469e" d="M 752.5,864.5 C 797.501,864.333 842.501,864.5 887.5,865C 905.773,868.598 915.44,879.598 916.5,898C 914.878,916.352 912.045,934.518 908,952.5C 902.764,967.069 893.264,977.903 879.5,985C 877.552,986.439 876.219,988.272 875.5,990.5C 882.381,1003.92 889.547,1017.26 897,1030.5C 897.684,1031.78 897.517,1032.95 896.5,1034C 887.763,1035.14 878.93,1035.64 870,1035.5C 861.833,1035.17 853.667,1034.83 845.5,1034.5C 837.96,1020.59 830.294,1006.75 822.5,993C 821.167,992.333 819.833,991.667 818.5,991C 803.5,990.333 788.5,990.333 773.5,991C 772.584,991.374 771.75,991.874 771,992.5C 768.066,1006.07 764.9,1019.57 761.5,1033C 760.167,1033.67 758.833,1034.33 757.5,1035C 744.591,1035.82 731.758,1035.66 719,1034.5C 718.901,1024.42 719.901,1014.42 722,1004.5C 730.056,959.775 738.389,915.108 747,870.5C 748.36,867.977 750.193,865.977 752.5,864.5 Z"/></g>
<g><path style="opacity:1" fill="#02459e" d="M 1007.5,865.5 C 1062.07,865.169 1116.57,865.502 1171,866.5C 1170.89,877.703 1169.23,888.703 1166,899.5C 1164.75,900.211 1163.58,901.044 1162.5,902C 1144.5,902.333 1126.5,902.667 1108.5,903C 1107.07,903.465 1105.9,904.299 1105,905.5C 1096.9,946.739 1089.24,988.072 1082,1029.5C 1080.88,1031.62 1079.38,1033.46 1077.5,1035C 1064.5,1035.67 1051.5,1035.67 1038.5,1035C 1038,1034.5 1037.5,1034 1037,1033.5C 1037,1027.13 1037.67,1020.8 1039,1014.5C 1044.43,984.849 1049.76,955.182 1055,925.5C 1056.33,918.531 1057,911.531 1057,904.5C 1055.93,903.809 1054.77,903.309 1053.5,903C 1035.82,902.833 1018.16,902.333 1000.5,901.5C 999.4,897.558 999.233,893.558 1000,889.5C 1001.21,883.131 1002.54,876.798 1004,870.5C 1005,868.677 1006.16,867.01 1007.5,865.5 Z"/></g>
<g><path style="opacity:1" fill="#0c48a0" d="M 1410.5,888.5 C 1409.83,888.5 1409.5,888.833 1409.5,889.5C 1403.47,890.625 1398.47,888.959 1394.5,884.5C 1390.9,881.398 1387.4,878.065 1384,874.5C 1383.53,873.423 1383.7,872.423 1384.5,871.5C 1385.74,869.299 1387.07,867.132 1388.5,865C 1396.83,864.5 1405.16,864.334 1413.5,864.5C 1412.76,872.53 1411.76,880.53 1410.5,888.5 Z"/></g>
<g><path style="opacity:1" fill="#03459e" d="M 1507.5,865.5 C 1521.08,865.177 1534.58,865.51 1548,866.5C 1547.44,877.554 1546.1,888.554 1544,899.5C 1537.69,929.996 1532.69,960.663 1529,991.5C 1530.5,993 1532,994.5 1533.5,996C 1562.83,996.333 1592.17,996.667 1621.5,997C 1623.48,999.497 1623.98,1002.33 1623,1005.5C 1621.33,1013.83 1619.67,1022.16 1618,1030.5C 1617.53,1031.93 1616.7,1033.1 1615.5,1034C 1592.09,1035.16 1568.59,1035.66 1545,1035.5C 1521.93,1035.5 1498.93,1035.16 1476,1034.5C 1475.33,1030.17 1475.33,1025.83 1476,1021.5C 1484.84,972.473 1493.84,923.473 1503,874.5C 1503.66,871.004 1505.16,868.004 1507.5,865.5 Z"/></g>
<g><path style="opacity:1" fill="#02459e" d="M 543.5,865.5 C 555.838,865.333 568.171,865.5 580.5,866C 581.333,866.833 582.167,867.667 583,868.5C 601.132,920.895 618.465,973.562 635,1026.5C 636.123,1029.96 635.29,1032.79 632.5,1035C 618.167,1035.67 603.833,1035.67 589.5,1035C 586.945,1029.34 584.778,1023.5 583,1017.5C 582.25,1016.87 581.416,1016.37 580.5,1016C 550.828,1015.17 521.161,1015.33 491.5,1016.5C 487.198,1022.94 482.531,1029.1 477.5,1035C 461.833,1035.67 446.167,1035.67 430.5,1035C 428.032,1033.41 427.866,1031.58 430,1029.5C 464.418,976.995 499.085,924.662 534,872.5C 536.529,869.115 539.696,866.782 543.5,865.5 Z"/></g>
<g><path style="opacity:1" fill="#06479f" d="M 220.5,911.5 C 203.447,927.914 190.613,947.247 182,969.5C 176.798,985.439 171.798,1001.44 167,1017.5C 161.011,1029.15 153.845,1039.98 145.5,1050C 144.906,1050.46 144.239,1050.63 143.5,1050.5C 150.229,1040.5 154.729,1029.5 157,1017.5C 156.618,986.155 155.951,954.822 155,923.5C 157.59,910.469 164.09,899.969 174.5,892C 194.041,879.78 215.374,873.78 238.5,874C 228.075,884.351 222.075,896.851 220.5,911.5 Z"/></g>
<g><path style="opacity:1" fill="#7c9fcd" d="M 1030.5,1035.5 C 1031.93,1037.44 1033.6,1039.27 1035.5,1041C 1049.83,1041.5 1064.16,1041.67 1078.5,1041.5C 1068.34,1042.33 1058.01,1042.83 1047.5,1043C 1053.18,1043.59 1058.84,1044.26 1064.5,1045C 1065.83,1046 1065.83,1047 1064.5,1048C 1056.86,1049.4 1049.2,1050.57 1041.5,1051.5C 1020.7,1048.77 1002.37,1040.6 986.5,1027C 956.039,997.978 941.372,962.312 942.5,920C 943.169,905.474 944.169,890.974 945.5,876.5C 946.822,876.33 947.989,876.663 949,877.5C 947.798,908.755 952.465,939.088 963,968.5C 976.295,999.961 998.462,1022.63 1029.5,1036.5C 1030.11,1036.38 1030.44,1036.04 1030.5,1035.5 Z"/></g>
<g><path style="opacity:1" fill="#7d9fcd" d="M 201.5,884.5 C 203.833,884.5 206.167,884.5 208.5,884.5C 208.54,887.425 207.707,890.091 206,892.5C 196.31,901.191 186.977,910.191 178,919.5C 176.059,923.048 174.393,926.714 173,930.5C 170.343,942.775 168.01,955.108 166,967.5C 165.299,970.327 164.299,972.994 163,975.5C 160.241,960.377 159.241,945.044 160,929.5C 165.364,906.638 179.197,891.638 201.5,884.5 Z"/></g>
<g><path style="opacity:1" fill="#4abee8" d="M 1409.5,889.5 C 1409.5,888.833 1409.83,888.5 1410.5,888.5C 1412.03,888.427 1413.03,889.094 1413.5,890.5C 1412.17,890.167 1410.83,889.833 1409.5,889.5 Z"/></g>
<g><path style="opacity:1" fill="#06469f" d="M 1490.5,890.5 C 1491.5,890.47 1492.16,890.97 1492.5,892C 1488,916.161 1483.5,940.327 1479,964.5C 1462.93,954.384 1446.1,945.717 1428.5,938.5C 1451.2,925.13 1471.87,909.13 1490.5,890.5 Z"/></g>
<g><path style="opacity:1" fill="#05469f" d="M 1716.5,890.5 C 1718.88,905.993 1721.05,921.659 1723,937.5C 1726.38,956.278 1735.38,971.611 1750,983.5C 1750.59,984.483 1750.26,985.15 1749,985.5C 1734.26,981.259 1720.43,975.092 1707.5,967C 1694.43,954.197 1685.76,938.863 1681.5,921C 1681.83,919.5 1682.17,918 1682.5,916.5C 1694.73,908.928 1706.06,900.261 1716.5,890.5 Z"/></g>
<g><path style="opacity:1" fill="#f9fafc" d="M 790.5,901.5 C 814.923,901.02 839.257,901.52 863.5,903C 867.424,905.244 869.091,908.578 868.5,913C 867.568,925.21 865.068,937.043 861,948.5C 858.92,950.123 856.754,951.623 854.5,953C 830.167,953.667 805.833,953.667 781.5,953C 779.167,951.667 778.167,949.667 778.5,947C 780.814,933.465 783.314,919.965 786,906.5C 787.025,904.313 788.525,902.646 790.5,901.5 Z"/></g>
<g><path style="opacity:1" fill="#80a2cf" d="M 385.5,900.5 C 401.519,908.284 418.186,914.284 435.5,918.5C 434.926,924.484 434.593,930.484 434.5,936.5C 433.448,936.649 432.448,936.483 431.5,936C 416.307,924.64 400.973,913.473 385.5,902.5C 384.227,901.743 384.227,901.077 385.5,900.5 Z"/></g>
<g><path style="opacity:1" fill="#7fa1ce" d="M 649.5,906.5 C 638.58,916.425 626.58,924.759 613.5,931.5C 612.703,927.777 611.703,924.11 610.5,920.5C 623.403,915.548 636.403,910.881 649.5,906.5 Z"/></g>
<g><path style="opacity:1" fill="#01459e" d="M 859.5,928.5 C 853.833,933.5 848.5,938.833 843.5,944.5C 843.167,944.5 842.833,944.5 842.5,944.5C 824.5,944.5 806.5,944.5 788.5,944.5C 788.5,943.167 788.5,941.833 788.5,940.5C 789.951,929.794 791.618,919.127 793.5,908.5C 815.836,908.333 838.169,908.5 860.5,909C 861.574,909.739 862.241,910.739 862.5,912C 861.122,917.438 860.122,922.938 859.5,928.5 Z"/></g>
<g><path style="opacity:1" fill="#08aee6" d="M 284.5,909.5 C 297.837,909.333 311.171,909.5 324.5,910C 335.119,917.618 345.452,925.618 355.5,934C 373.5,951.333 391.5,968.667 409.5,986C 418.046,993.385 426.712,1000.55 435.5,1007.5C 431.53,1013.97 427.363,1020.3 423,1026.5C 422.421,1030.2 422.588,1033.87 423.5,1037.5C 403.69,1029.6 385.023,1019.6 367.5,1007.5C 366.878,1003.87 366.711,1000.21 367,996.5C 366.117,993.898 364.617,991.731 362.5,990C 355.579,988.781 348.579,988.114 341.5,988C 330.009,979.421 318.343,971.088 306.5,963C 296.897,957.365 286.897,952.532 276.5,948.5C 276.167,947.5 275.833,946.5 275.5,945.5C 277.141,935.797 278.974,926.131 281,916.5C 281.139,913.555 282.306,911.221 284.5,909.5 Z"/></g>
<g><path style="opacity:1" fill="#06479f" d="M 344.5,910.5 C 352.656,909.343 360.99,909.177 369.5,910C 390.224,925.056 411.224,939.723 432.5,954C 433.921,963.773 435.254,973.607 436.5,983.5C 436.167,984.833 435.833,986.167 435.5,987.5C 430.654,984.243 425.988,980.743 421.5,977C 396.922,953.407 371.255,931.241 344.5,910.5 Z"/></g>
<g><path style="opacity:1" fill="#1c4fa3" d="M 1041.5,910.5 C 1044.29,909.523 1047.29,909.19 1050.5,909.5C 1050.22,913.188 1049.72,916.855 1049,920.5C 1046.25,917.266 1043.75,913.932 1041.5,910.5 Z"/></g>
<g><path style="opacity:1" fill="#7d9fcd" d="M 1121.5,909.5 C 1129.5,909.5 1137.5,909.5 1145.5,909.5C 1146.94,911.063 1148.61,912.396 1150.5,913.5C 1148.11,918.279 1144.78,922.279 1140.5,925.5C 1133.2,921.345 1126.87,916.012 1121.5,909.5 Z"/></g>
<g><path style="opacity:1" fill="#1a4fa3" d="M 1145.5,909.5 C 1148.19,909.336 1150.85,909.503 1153.5,910C 1152.36,911.145 1151.36,912.312 1150.5,913.5C 1148.61,912.396 1146.94,911.063 1145.5,909.5 Z"/></g>
<g><path style="opacity:1" fill="#07479f" d="M 1121.5,909.5 C 1126.87,916.012 1133.2,921.345 1140.5,925.5C 1131.99,937.089 1120.65,944.089 1106.5,946.5C 1107.76,934.046 1109.76,921.712 1112.5,909.5C 1115.5,909.5 1118.5,909.5 1121.5,909.5 Z"/></g>
<g><path style="opacity:1" fill="#7fa1ce" d="M 220.5,911.5 C 216.453,924.226 214.953,937.226 216,950.5C 208.207,970.545 201.207,990.879 195,1011.5C 191.011,1023.65 184.845,1034.49 176.5,1044C 164.861,1053.55 151.527,1058.55 136.5,1059C 138.698,1055.98 141.031,1053.14 143.5,1050.5C 144.239,1050.63 144.906,1050.46 145.5,1050C 153.845,1039.98 161.011,1029.15 167,1017.5C 171.798,1001.44 176.798,985.439 182,969.5C 190.613,947.247 203.447,927.914 220.5,911.5 Z"/></g>
<g><path style="opacity:1" fill="#7fa1ce" d="M 1035.5,921.5 C 1039.03,926.04 1042.7,930.54 1046.5,935C 1043.56,948.784 1040.9,962.617 1038.5,976.5C 1031.73,976.078 1025.06,974.912 1018.5,973C 1008.72,970.218 1000.89,964.718 995,956.5C 990.902,949.972 990.568,943.305 994,936.5C 1005.22,924.261 1019.05,919.261 1035.5,921.5 Z"/></g>
<g><path style="opacity:1" fill="#f7f9fc" d="M 552.5,923.5 C 555.982,930.425 558.816,937.759 561,945.5C 565.016,957.377 568.516,969.377 571.5,981.5C 552.821,981.833 534.155,981.5 515.5,980.5C 527.595,961.301 539.928,942.301 552.5,923.5 Z"/></g>
<g><path style="opacity:1" fill="#7d9fcd" d="M 859.5,928.5 C 858.478,932.777 857.645,937.111 857,941.5C 856.167,942.333 855.333,943.167 854.5,944C 850.848,944.499 847.182,944.665 843.5,944.5C 848.5,938.833 853.833,933.5 859.5,928.5 Z"/></g>
<g><path style="opacity:1" fill="#5983be" d="M 1376.5,932.5 C 1378.17,932.5 1379.83,932.5 1381.5,932.5C 1381.78,934.415 1381.45,936.081 1380.5,937.5C 1380.5,936.167 1380.5,934.833 1380.5,933.5C 1378.9,933.768 1377.57,933.434 1376.5,932.5 Z"/></g>
<g><path style="opacity:1" fill="#144ba1" d="M 1224.5,999.5 C 1220.3,1001.23 1215.97,1002.57 1211.5,1003.5C 1219.36,980.422 1227.53,957.422 1236,934.5C 1232.22,956.243 1228.38,977.91 1224.5,999.5 Z"/></g>
<g><path style="opacity:1" fill="#80a2cf" d="M 552.5,972.5 C 549.288,965.51 546.288,958.51 543.5,951.5C 545.925,947.648 548.591,943.981 551.5,940.5C 555.145,951.083 558.478,961.75 561.5,972.5C 558.5,972.5 555.5,972.5 552.5,972.5 Z"/></g>
<g><path style="opacity:1" fill="#759aca" d="M 788.5,940.5 C 788.5,941.833 788.5,943.167 788.5,944.5C 806.5,944.5 824.5,944.5 842.5,944.5C 824.341,945.497 806.008,945.83 787.5,945.5C 787.216,943.585 787.549,941.919 788.5,940.5 Z"/></g>
<g><path style="opacity:1" fill="#04469e" d="M 1475.5,984.5 C 1464.47,976.316 1452.3,970.316 1439,966.5C 1437.83,966.833 1436.67,967.167 1435.5,967.5C 1439.96,970.57 1444.63,973.403 1449.5,976C 1457.37,982.713 1465.37,989.213 1473.5,995.5C 1472.51,1000.79 1471.85,1006.12 1471.5,1011.5C 1457.97,1009.36 1444.63,1006.36 1431.5,1002.5C 1412.32,989.584 1391.32,980.417 1368.5,975C 1371.69,974.819 1374.69,974.319 1377.5,973.5C 1379.73,972.772 1381.57,971.439 1383,969.5C 1385.05,962.258 1386.72,954.925 1388,947.5C 1389.06,946.903 1390.23,946.57 1391.5,946.5C 1421.66,951.585 1449.66,962.252 1475.5,978.5C 1476.52,980.46 1476.52,982.46 1475.5,984.5 Z"/></g>
<g><path style="opacity:1" fill="#07479f" d="M 543.5,951.5 C 546.288,958.51 549.288,965.51 552.5,972.5C 545.137,972.831 537.803,972.497 530.5,971.5C 534.859,964.816 539.193,958.149 543.5,951.5 Z"/></g>
<g><path style="opacity:1" fill="#07479f" d="M 718.5,981.5 C 695.141,998.959 668.808,1008.96 639.5,1011.5C 638.985,1009.11 638.319,1006.77 637.5,1004.5C 640.801,1002.51 644.134,1000.51 647.5,998.5C 675.411,989.632 700.578,975.966 723,957.5C 722.029,965.667 720.529,973.667 718.5,981.5 Z"/></g>
<g><path style="opacity:1" fill="#7c9fcd" d="M 1112.5,962.5 C 1109.24,964.153 1105.91,965.819 1102.5,967.5C 1102.5,965.833 1102.5,964.167 1102.5,962.5C 1105.83,962.5 1109.17,962.5 1112.5,962.5 Z"/></g>
<g><path style="opacity:1" fill="#7c9ecd" d="M 1475.5,984.5 C 1474.94,988.193 1474.27,991.86 1473.5,995.5C 1465.37,989.213 1457.37,982.713 1449.5,976C 1444.63,973.403 1439.96,970.57 1435.5,967.5C 1436.67,967.167 1437.83,966.833 1439,966.5C 1452.3,970.316 1464.47,976.316 1475.5,984.5 Z"/></g>
<g><path style="opacity:1" fill="#0d48a0" d="M 305.5,986.5 C 294.679,987.495 283.679,987.828 272.5,987.5C 271.167,987.5 269.833,987.5 268.5,987.5C 269.419,980.485 270.419,973.485 271.5,966.5C 283.749,971.624 295.083,978.291 305.5,986.5 Z"/></g>
<g><path style="opacity:1" fill="#80a2cf" d="M 1377.5,973.5 C 1374.69,974.319 1371.69,974.819 1368.5,975C 1391.32,980.417 1412.32,989.584 1431.5,1002.5C 1420.92,1000.03 1410.25,997.864 1399.5,996C 1398.41,991.132 1395.41,988.632 1390.5,988.5C 1357,987.502 1323.34,987.168 1289.5,987.5C 1289.5,986.167 1289.5,984.833 1289.5,983.5C 1289.51,980.455 1289.84,977.455 1290.5,974.5C 1319.51,974.727 1348.51,974.393 1377.5,973.5 Z"/></g>
<g><path style="opacity:1" fill="#7c9fcd" d="M 718.5,981.5 C 718.81,984.713 718.477,987.713 717.5,990.5C 703.2,1005.15 685.866,1014.32 665.5,1018C 657.881,1019.21 650.214,1019.71 642.5,1019.5C 641.5,1016.83 640.5,1014.17 639.5,1011.5C 668.808,1008.96 695.141,998.959 718.5,981.5 Z"/></g>
<g><path style="opacity:1" fill="#a2bbdb" d="M 305.5,986.5 C 306.289,986.783 306.956,987.283 307.5,988C 295.659,988.826 283.993,988.659 272.5,987.5C 283.679,987.828 294.679,987.495 305.5,986.5 Z"/></g>
<g><path style="opacity:1" fill="#bfd0e7" d="M 1289.5,983.5 C 1289.5,984.833 1289.5,986.167 1289.5,987.5C 1323.34,987.168 1357,987.502 1390.5,988.5C 1356.5,988.5 1322.5,988.5 1288.5,988.5C 1288.22,986.585 1288.55,984.919 1289.5,983.5 Z"/></g>
<g><path style="opacity:1" fill="#91aed5" d="M 1645.5,987.5 C 1646.57,986.566 1647.9,986.232 1649.5,986.5C 1649.78,988.415 1649.45,990.081 1648.5,991.5C 1648.5,990.167 1648.5,988.833 1648.5,987.5C 1647.5,987.5 1646.5,987.5 1645.5,987.5 Z"/></g>
<g><path style="opacity:1" fill="#02459e" d="M 717.5,990.5 C 715.023,1002.74 713.023,1015.08 711.5,1027.5C 710.549,1028.92 710.216,1030.59 710.5,1032.5C 689.489,1040.67 667.822,1046.5 645.5,1050C 620.188,1051.35 594.854,1051.85 569.5,1051.5C 554.894,1045.9 543.227,1036.57 534.5,1023.5C 549.245,1023.18 563.912,1023.52 578.5,1024.5C 579.83,1029.65 581.663,1034.65 584,1039.5C 585.419,1040.46 586.919,1041.29 588.5,1042C 603.833,1042.67 619.167,1042.67 634.5,1042C 644.35,1037.12 647.017,1029.62 642.5,1019.5C 650.214,1019.71 657.881,1019.21 665.5,1018C 685.866,1014.32 703.2,1005.15 717.5,990.5 Z"/></g>
<g><path style="opacity:1" fill="#24b3e7" d="M 1640.5,992.5 C 1641.57,993.251 1641.74,994.251 1641,995.5C 1638.17,1001.82 1634.84,1007.82 1631,1013.5C 1630.88,1008.11 1631.54,1002.77 1633,997.5C 1635.48,995.686 1637.98,994.019 1640.5,992.5 Z"/></g>
<g><path style="opacity:1" fill="#83a4d0" d="M 777.5,997.5 C 786.839,997.334 796.173,997.5 805.5,998C 795.286,1006.55 784.786,1014.72 774,1022.5C 774.834,1014.16 776.001,1005.83 777.5,997.5 Z"/></g>
<g><path style="opacity:1" fill="#86a5d0" d="M 647.5,998.5 C 644.134,1000.51 640.801,1002.51 637.5,1004.5C 636.566,1003.43 636.232,1002.1 636.5,1000.5C 640.136,999.674 643.803,999.008 647.5,998.5 Z"/></g>
<g><path style="opacity:1" fill="#80a2cf" d="M 1224.5,999.5 C 1223.81,1004.51 1222.97,1009.51 1222,1014.5C 1217.71,1016.19 1213.21,1017.19 1208.5,1017.5C 1207.5,1017.17 1206.5,1016.83 1205.5,1016.5C 1207.28,1011.96 1209.28,1007.62 1211.5,1003.5C 1215.97,1002.57 1220.3,1001.23 1224.5,999.5 Z"/></g>
<g><path style="opacity:1" fill="#0caee6" d="M 1475.5,1041.5 C 1520.17,1042.17 1564.83,1042.83 1609.5,1043.5C 1579.06,1076.63 1542.39,1086.13 1499.5,1072C 1475.74,1060.45 1451.74,1049.45 1427.5,1039C 1416.41,1034.89 1405.07,1031.73 1393.5,1029.5C 1394.47,1022.48 1395.64,1015.48 1397,1008.5C 1397.89,1007.92 1398.89,1007.59 1400,1007.5C 1422.83,1013.08 1445.67,1018.42 1468.5,1023.5C 1468.19,1028.27 1468.69,1032.93 1470,1037.5C 1471.77,1038.97 1473.61,1040.3 1475.5,1041.5 Z"/></g>
<g><path style="opacity:1" fill="#779ccb" d="M 578.5,1024.5 C 563.912,1023.52 549.245,1023.18 534.5,1023.5C 540.922,1022.82 548.088,1022.48 556,1022.5C 563.864,1022.5 571.364,1023.17 578.5,1024.5 Z"/></g>
<g><path style="opacity:1" fill="#0cafe6" d="M 496.5,1022.5 C 503.532,1022.17 510.532,1022.5 517.5,1023.5C 543.162,1060.25 578.495,1081.08 623.5,1086C 655.061,1087.68 685.728,1083.18 715.5,1072.5C 716.167,1072.83 716.833,1073.17 717.5,1073.5C 666.275,1103.64 611.275,1113.81 552.5,1104C 515.928,1096.41 488.928,1076.24 471.5,1043.5C 476.294,1043.2 480.628,1041.7 484.5,1039C 489.366,1034.09 493.366,1028.59 496.5,1022.5 Z"/></g>
<g><path style="opacity:1" fill="#22b2e7" d="M 1212.5,1024.5 C 1215.17,1024.5 1217.83,1024.5 1220.5,1024.5C 1219.84,1027.46 1219.51,1030.46 1219.5,1033.5C 1212.58,1033.81 1205.74,1033.48 1199,1032.5C 1198.57,1030.33 1199.07,1028.33 1200.5,1026.5C 1204.65,1025.83 1208.65,1025.17 1212.5,1024.5 Z"/></g>
<g><path style="opacity:1" fill="#7ea1ce" d="M 711.5,1027.5 C 710.14,1034.62 712.807,1039.45 719.5,1042C 725.5,1042.33 731.5,1042.67 737.5,1043C 691.471,1068.01 643.138,1074.01 592.5,1061C 584.288,1058.88 576.622,1055.71 569.5,1051.5C 594.854,1051.85 620.188,1051.35 645.5,1050C 667.822,1046.5 689.489,1040.67 710.5,1032.5C 710.216,1030.59 710.549,1028.92 711.5,1027.5 Z"/></g>
<g><path style="opacity:1" fill="#99def4" d="M 1475.5,1041.5 C 1520.5,1041.17 1565.5,1041.5 1610.5,1042.5C 1610.38,1043.11 1610.04,1043.44 1609.5,1043.5C 1564.83,1042.83 1520.17,1042.17 1475.5,1041.5 Z"/></g>
<g><path style="opacity:1" fill="#3cb8e9" d="M 433.5,1042.5 C 440.989,1041.34 448.655,1041.18 456.5,1042C 457.961,1044.42 459.294,1046.92 460.5,1049.5C 458.926,1050.63 457.259,1050.8 455.5,1050C 448.251,1047.21 440.918,1044.71 433.5,1042.5 Z"/></g>
<g><path style="opacity:1" fill="#fafbfd" d="M 1172.5,1157.5 C 1183.77,1156.15 1194.44,1157.98 1204.5,1163C 1210.78,1168.06 1214.61,1174.56 1216,1182.5C 1216.67,1190.83 1216.67,1199.17 1216,1207.5C 1215.35,1214.61 1212.85,1220.94 1208.5,1226.5C 1211.3,1230.6 1213.96,1234.77 1216.5,1239C 1216.17,1239.5 1215.83,1240 1215.5,1240.5C 1210.22,1241.62 1204.89,1241.78 1199.5,1241C 1197.28,1239.24 1195.28,1237.24 1193.5,1235C 1186.17,1234.67 1178.83,1234.33 1171.5,1234C 1158.51,1230.35 1151.35,1221.85 1150,1208.5C 1149.1,1198.11 1149.43,1187.77 1151,1177.5C 1155.17,1167.49 1162.34,1160.83 1172.5,1157.5 Z"/></g>
<g><path style="opacity:1" fill="#f4f7fb" d="M 490.5,1158.5 C 493.833,1158.5 497.167,1158.5 500.5,1158.5C 500.5,1183.5 500.5,1208.5 500.5,1233.5C 496.894,1233.79 493.394,1233.46 490,1232.5C 489.177,1207.76 489.344,1183.09 490.5,1158.5 Z"/></g>
<g><path style="opacity:1" fill="#f8fafc" d="M 531.5,1180.5 C 531.44,1179.96 531.107,1179.62 530.5,1179.5C 529.502,1188.48 529.168,1197.48 529.5,1206.5C 529.5,1215.5 529.5,1224.5 529.5,1233.5C 526.167,1233.5 522.833,1233.5 519.5,1233.5C 519.333,1208.83 519.5,1184.16 520,1159.5C 525.292,1157.23 529.292,1158.57 532,1163.5C 538.746,1176.66 545.746,1189.66 553,1202.5C 560.667,1188.5 568.333,1174.5 576,1160.5C 579.101,1158.28 582.435,1157.95 586,1159.5C 586.5,1184.16 586.667,1208.83 586.5,1233.5C 583.167,1233.5 579.833,1233.5 576.5,1233.5C 576.667,1215.5 576.5,1197.5 576,1179.5C 570,1190.83 564,1202.17 558,1213.5C 554.667,1216.17 551.333,1216.17 548,1213.5C 541.962,1202.76 536.462,1191.76 531.5,1180.5 Z"/></g>
<g><path style="opacity:1" fill="#fdfdfe" d="M 599.5,1158.5 C 618.167,1158.5 636.833,1158.5 655.5,1158.5C 655.5,1161.5 655.5,1164.5 655.5,1167.5C 647.833,1167.5 640.167,1167.5 632.5,1167.5C 632.5,1189.5 632.5,1211.5 632.5,1233.5C 629.167,1233.5 625.833,1233.5 622.5,1233.5C 622.5,1211.5 622.5,1189.5 622.5,1167.5C 614.826,1167.67 607.159,1167.5 599.5,1167C 598.214,1164.17 598.214,1161.34 599.5,1158.5 Z"/></g>
<g><path style="opacity:1" fill="#fbfcfd" d="M 710.5,1158.5 C 717.508,1158.33 724.508,1158.5 731.5,1159C 742.377,1183.13 751.377,1207.96 758.5,1233.5C 752.824,1233.67 747.157,1233.5 741.5,1233C 739.143,1229.09 737.476,1224.93 736.5,1220.5C 726.478,1220.17 716.478,1220.5 706.5,1221.5C 704.962,1225.41 703.296,1229.24 701.5,1233C 695.843,1233.5 690.176,1233.67 684.5,1233.5C 684.395,1229.31 685.228,1225.31 687,1221.5C 694.545,1200.36 702.379,1179.36 710.5,1158.5 Z"/></g>
<g><path style="opacity:1" fill="#fbfcfd" d="M 777.5,1227.5 C 777.5,1209.83 777.5,1192.17 777.5,1174.5C 770.5,1174.5 763.5,1174.5 756.5,1174.5C 755.512,1169.36 755.179,1164.03 755.5,1158.5C 776.169,1158.33 796.836,1158.5 817.5,1159C 818.804,1164.11 818.804,1169.28 817.5,1174.5C 810.558,1175.46 803.558,1175.8 796.5,1175.5C 796.667,1194.5 796.5,1213.5 796,1232.5C 789.924,1233.48 783.758,1233.81 777.5,1233.5C 777.5,1231.5 777.5,1229.5 777.5,1227.5 Z"/></g>
<g><path style="opacity:1" fill="#fefefe" d="M 847.5,1160.5 C 847.5,1179.83 847.5,1199.17 847.5,1218.5C 858.833,1218.5 870.167,1218.5 881.5,1218.5C 882.805,1220.4 883.471,1222.73 883.5,1225.5C 883.473,1228.09 883.139,1230.59 882.5,1233C 864.503,1233.5 846.503,1233.67 828.5,1233.5C 828.333,1208.83 828.5,1184.16 829,1159.5C 834.75,1158.36 840.584,1158.19 846.5,1159C 847.056,1159.38 847.389,1159.88 847.5,1160.5 Z"/></g>
<g><path style="opacity:1" fill="#fbfcfd" d="M 913.5,1158.5 C 920.508,1158.33 927.508,1158.5 934.5,1159C 935,1159.5 935.5,1160 936,1160.5C 945.653,1184.46 954.153,1208.8 961.5,1233.5C 955.824,1233.67 950.157,1233.5 944.5,1233C 942.244,1229.15 940.244,1225.15 938.5,1221C 928.816,1220.17 919.149,1220.33 909.5,1221.5C 907.927,1225.39 906.26,1229.23 904.5,1233C 898.584,1233.81 892.75,1233.64 887,1232.5C 894.719,1207.51 903.553,1182.85 913.5,1158.5 Z"/></g>
<g><path style="opacity:1" fill="#fbfcfd" d="M 1013.5,1199.5 C 1013.56,1200.04 1013.89,1200.38 1014.5,1200.5C 1015.5,1188.18 1015.83,1175.85 1015.5,1163.5C 1015.5,1161.83 1015.5,1160.17 1015.5,1158.5C 1021.43,1158.19 1027.26,1158.53 1033,1159.5C 1033.67,1183.83 1033.67,1208.17 1033,1232.5C 1027.55,1233.81 1022.05,1233.81 1016.5,1232.5C 1007.58,1219.64 998.908,1206.64 990.5,1193.5C 990.44,1192.96 990.107,1192.62 989.5,1192.5C 988.501,1204.48 988.168,1216.48 988.5,1228.5C 988.5,1230.17 988.5,1231.83 988.5,1233.5C 982.575,1233.81 976.741,1233.47 971,1232.5C 970.333,1208.17 970.333,1183.83 971,1159.5C 976.446,1158.19 981.946,1158.19 987.5,1159.5C 996.177,1172.86 1004.84,1186.2 1013.5,1199.5 Z"/></g>
<g><path style="opacity:1" fill="#fcfcfd" d="M 1044.5,1158.5 C 1065.17,1158.5 1085.83,1158.5 1106.5,1158.5C 1106.81,1164.09 1106.47,1169.59 1105.5,1175C 1098.51,1175.5 1091.51,1175.67 1084.5,1175.5C 1084.5,1194.83 1084.5,1214.17 1084.5,1233.5C 1078.24,1233.81 1072.08,1233.48 1066,1232.5C 1065.5,1213.5 1065.33,1194.5 1065.5,1175.5C 1058.49,1175.67 1051.49,1175.5 1044.5,1175C 1043.19,1169.5 1043.19,1164 1044.5,1158.5 Z"/></g>
<g><path style="opacity:1" fill="#f8fafc" d="M 1117.5,1158.5 C 1123.83,1158.5 1130.17,1158.5 1136.5,1158.5C 1136.5,1183.5 1136.5,1208.5 1136.5,1233.5C 1130.17,1233.5 1123.83,1233.5 1117.5,1233.5C 1116.18,1208.49 1116.18,1183.49 1117.5,1158.5 Z"/></g>
<g><path style="opacity:1" fill="#fbfcfd" d="M 1229.5,1158.5 C 1235.43,1158.19 1241.26,1158.53 1247,1159.5C 1247.33,1175.83 1247.67,1192.17 1248,1208.5C 1249.26,1215.54 1253.43,1218.87 1260.5,1218.5C 1266.35,1219.16 1270.52,1216.82 1273,1211.5C 1273.33,1194.17 1273.67,1176.83 1274,1159.5C 1280.08,1158.52 1286.24,1158.19 1292.5,1158.5C 1292.67,1177.17 1292.5,1195.84 1292,1214.5C 1286.88,1229.32 1276.38,1235.99 1260.5,1234.5C 1246.06,1235.54 1235.89,1229.54 1230,1216.5C 1228.22,1197.14 1228.05,1177.8 1229.5,1158.5 Z"/></g>
<g><path style="opacity:1" fill="#fafbfd" d="M 1308.5,1158.5 C 1326.5,1158.33 1344.5,1158.5 1362.5,1159C 1363.83,1163.67 1363.83,1168.33 1362.5,1173C 1350.5,1173.5 1338.5,1173.67 1326.5,1173.5C 1326.5,1178.5 1326.5,1183.5 1326.5,1188.5C 1337.84,1188.33 1349.17,1188.5 1360.5,1189C 1361.63,1193.08 1361.8,1197.25 1361,1201.5C 1360.5,1202 1360,1202.5 1359.5,1203C 1348.51,1203.5 1337.51,1203.67 1326.5,1203.5C 1326.5,1208.5 1326.5,1213.5 1326.5,1218.5C 1339.08,1218.18 1351.58,1218.51 1364,1219.5C 1364.8,1224.09 1364.63,1228.59 1363.5,1233C 1344.93,1233.83 1326.43,1233.66 1308,1232.5C 1307.18,1207.76 1307.34,1183.09 1308.5,1158.5 Z"/></g>
<g><path style="opacity:1" fill="#0b489f" d="M 1178.5,1172.5 C 1187.34,1171.5 1193.17,1175.17 1196,1183.5C 1196.85,1192.55 1196.51,1201.55 1195,1210.5C 1190.63,1219.82 1183.79,1221.99 1174.5,1217C 1172.44,1214.49 1170.94,1211.66 1170,1208.5C 1169.33,1200.5 1169.33,1192.5 1170,1184.5C 1171.14,1179.21 1173.97,1175.21 1178.5,1172.5 Z"/></g>
<g><path style="opacity:1" fill="#7397c9" d="M 756.5,1174.5 C 763.5,1174.5 770.5,1174.5 777.5,1174.5C 777.5,1192.17 777.5,1209.83 777.5,1227.5C 776.503,1210.34 776.17,1193.01 776.5,1175.5C 769.646,1175.82 762.979,1175.49 756.5,1174.5 Z"/></g>
<g><path style="opacity:1" fill="#124aa0" d="M 933.5,1203.5 C 927.355,1204.49 921.022,1204.82 914.5,1204.5C 917.166,1195.33 920.333,1186.33 924,1177.5C 927.856,1185.9 931.023,1194.57 933.5,1203.5 Z"/></g>
<g><path style="opacity:1" fill="#134aa1" d="M 730.5,1203.5 C 724.355,1204.49 718.022,1204.82 711.5,1204.5C 714.166,1195.33 717.333,1186.33 721,1177.5C 725.003,1185.84 728.169,1194.51 730.5,1203.5 Z"/></g>
<g><path style="opacity:1" fill="#4374b6" d="M 1015.5,1163.5 C 1015.83,1175.85 1015.5,1188.18 1014.5,1200.5C 1013.89,1200.38 1013.56,1200.04 1013.5,1199.5C 1014.17,1187.5 1014.83,1175.5 1015.5,1163.5 Z"/></g>
<g><path style="opacity:1" fill="#799dcb" d="M 531.5,1180.5 C 530.833,1189.17 530.167,1197.83 529.5,1206.5C 529.168,1197.48 529.502,1188.48 530.5,1179.5C 531.107,1179.62 531.44,1179.96 531.5,1180.5 Z"/></g>
<g><path style="opacity:1" fill="#89a8d2" d="M 730.5,1203.5 C 731.043,1203.56 731.376,1203.89 731.5,1204.5C 724.678,1205.82 718.011,1205.82 711.5,1204.5C 718.022,1204.82 724.355,1204.49 730.5,1203.5 Z"/></g>
<g><path style="opacity:1" fill="#7a9ecc" d="M 933.5,1203.5 C 934.043,1203.56 934.376,1203.89 934.5,1204.5C 927.678,1205.82 921.011,1205.82 914.5,1204.5C 921.022,1204.82 927.355,1204.49 933.5,1203.5 Z"/></g>
<g><path style="opacity:1" fill="#88a7d1" d="M 847.5,1160.5 C 848.497,1179.33 848.83,1198.33 848.5,1217.5C 859.679,1217.17 870.679,1217.51 881.5,1218.5C 870.167,1218.5 858.833,1218.5 847.5,1218.5C 847.5,1199.17 847.5,1179.83 847.5,1160.5 Z"/></g>
<g><path style="opacity:1" fill="#517dbb" d="M 990.5,1193.5 C 989.833,1205.17 989.167,1216.83 988.5,1228.5C 988.168,1216.48 988.501,1204.48 989.5,1192.5C 990.107,1192.62 990.44,1192.96 990.5,1193.5 Z"/></g>
<g><path style="opacity:1" fill="#fbfcfd" d="M 697.5,1297.5 C 717.54,1297.07 737.54,1297.57 757.5,1299C 766.03,1303.23 769.197,1310.06 767,1319.5C 766.181,1331.31 760.348,1339.48 749.5,1344C 735.5,1344.33 721.5,1344.67 707.5,1345C 704.875,1347.2 703.875,1350.03 704.5,1353.5C 721.802,1354.29 739.136,1354.79 756.5,1355C 757.283,1360.51 756.783,1366.01 755,1371.5C 754.5,1372 754,1372.5 753.5,1373C 733.5,1373.67 713.5,1373.67 693.5,1373C 682.917,1368.13 679.417,1359.96 683,1348.5C 685.5,1336.67 692.667,1329.5 704.5,1327C 717.167,1326.67 729.833,1326.33 742.5,1326C 744.072,1323.96 745.072,1321.63 745.5,1319C 744.833,1318.33 744.167,1317.67 743.5,1317C 727.167,1316.67 710.833,1316.33 694.5,1316C 692.712,1309.37 693.712,1303.21 697.5,1297.5 Z"/></g>
<g><path style="opacity:1" fill="#fbfcfd" d="M 843.5,1297.5 C 859.17,1297.33 874.837,1297.5 890.5,1298C 897.045,1300.7 900.711,1305.54 901.5,1312.5C 899.442,1325.85 897.275,1339.18 895,1352.5C 892.911,1363.59 886.411,1370.42 875.5,1373C 860.5,1373.67 845.5,1373.67 830.5,1373C 821.062,1368.38 817.562,1360.88 820,1350.5C 821.82,1338.73 824.153,1327.07 827,1315.5C 827.725,1313.05 828.725,1310.72 830,1308.5C 833.819,1303.83 838.319,1300.17 843.5,1297.5 Z"/></g>
<g><path style="opacity:1" fill="#fafbfd" d="M 968.5,1297.5 C 987.836,1297.33 1007.17,1297.5 1026.5,1298C 1034.36,1300.51 1038.36,1305.85 1038.5,1314C 1038.54,1323.52 1035.54,1331.86 1029.5,1339C 1025.06,1342.37 1020.06,1344.37 1014.5,1345C 1002.17,1345.33 989.833,1345.67 977.5,1346C 974.601,1349.16 974.935,1351.82 978.5,1354C 995.163,1354.5 1011.83,1354.67 1028.5,1354.5C 1029.01,1361.15 1027.67,1367.31 1024.5,1373C 1004.5,1373.67 984.5,1373.67 964.5,1373C 956.806,1369.95 953.139,1364.28 953.5,1356C 953.634,1340.68 960.967,1331.02 975.5,1327C 988.5,1326.67 1001.5,1326.33 1014.5,1326C 1017.06,1322.93 1017.06,1319.93 1014.5,1317C 998.167,1316.67 981.833,1316.33 965.5,1316C 963.845,1309.44 964.845,1303.27 968.5,1297.5 Z"/></g>
<g><path style="opacity:1" fill="#fbfcfd" d="M 1127.5,1297.5 C 1134.84,1297.33 1142.17,1297.5 1149.5,1298C 1151.32,1299.47 1151.82,1301.3 1151,1303.5C 1141.5,1316.33 1132,1329.17 1122.5,1342C 1129.83,1342.5 1137.16,1342.67 1144.5,1342.5C 1145.91,1332.77 1147.75,1323.1 1150,1313.5C 1150.83,1312.67 1151.67,1311.83 1152.5,1311C 1158.5,1310.33 1164.5,1310.33 1170.5,1311C 1171.62,1311.84 1172.29,1313.01 1172.5,1314.5C 1170.69,1322.97 1169.03,1331.47 1167.5,1340C 1168.5,1342.33 1169.5,1344.67 1170.5,1347C 1169.67,1351.17 1168.83,1355.33 1168,1359.5C 1164.39,1362.2 1162.39,1365.87 1162,1370.5C 1161.17,1371.33 1160.33,1372.17 1159.5,1373C 1153.5,1373.67 1147.5,1373.67 1141.5,1373C 1140.54,1369.61 1140.21,1366.11 1140.5,1362.5C 1123.83,1362.67 1107.16,1362.5 1090.5,1362C 1087.62,1360.33 1086.79,1357.83 1088,1354.5C 1088.77,1350.95 1090.11,1347.62 1092,1344.5C 1103.67,1328.67 1115.5,1313.01 1127.5,1297.5 Z"/></g>
<g><path style="opacity:1" fill="#0c489f" d="M 850.5,1316.5 C 859.418,1316.18 868.251,1316.52 877,1317.5C 876.255,1329.3 874.422,1340.97 871.5,1352.5C 862.19,1353.5 852.857,1353.83 843.5,1353.5C 844.193,1343.06 845.693,1332.73 848,1322.5C 848.236,1320.19 849.069,1318.19 850.5,1316.5 Z"/></g>
</svg>
